<?xml version="1.0" encoding="UTF-8" standalone="no"?>
<!DOCTYPE svg PUBLIC "-//W3C//DTD SVG 1.1//EN"
 "http://www.w3.org/Graphics/SVG/1.1/DTD/svg11.dtd">
<!-- Generated by graphviz version 2.40.1 (20161225.0304)
 -->
<!-- Title: ladder99&#45;adapter Pages: 1 -->
<svg width="984pt" height="727pt"
 viewBox="0.00 0.00 984.31 726.71" xmlns="http://www.w3.org/2000/svg" xmlns:xlink="http://www.w3.org/1999/xlink">
<g id="graph0" class="graph" transform="scale(1 1) rotate(0) translate(4 722.7107)">
<title>ladder99&#45;adapter</title>
<polygon fill="#ffffff" stroke="transparent" points="-4,4 -4,-722.7107 980.3072,-722.7107 980.3072,4 -4,4"/>
<text text-anchor="middle" x="488.1536" y="-696.7107" font-family="Times,serif" font-size="20.00" fill="#000000">Ladder99 MTConnect data flow</text>
<text text-anchor="middle" x="488.1536" y="-672.7107" font-family="Times,serif" font-size="20.00" fill="#000000"> </text>
<!-- PA1 -->
<g id="node1" class="node">
<title>PA1</title>
<ellipse fill="#e6e6fa" stroke="#c0c0c0" cx="251.5397" cy="-633.295" rx="58.5886" ry="18"/>
<text text-anchor="middle" x="251.5397" y="-629.095" font-family="Times,serif" font-size="14.00" fill="#000000">CCS P&amp;A 1</text>
</g>
<!-- Broker1 -->
<g id="node5" class="node">
<title>Broker1</title>
<ellipse fill="#ffffff" stroke="#c0c0c0" cx="430.4063" cy="-633.295" rx="76.9837" ry="29.3315"/>
<text text-anchor="middle" x="430.4063" y="-637.495" font-family="Times,serif" font-size="14.00" fill="#000000">MQTT Broker 1</text>
<text text-anchor="middle" x="430.4063" y="-620.695" font-family="Times,serif" font-size="14.00" fill="#000000">(Mosquitto)</text>
</g>
<!-- PA1&#45;&gt;Broker1 -->
<g id="edge1" class="edge">
<title>PA1&#45;&gt;Broker1</title>
<path fill="none" stroke="#c0c0c0" d="M320.7532,-633.295C328.2212,-633.295 335.8878,-633.295 343.5295,-633.295"/>
<polygon fill="#c0c0c0" stroke="#c0c0c0" points="320.603,-629.7951 310.603,-633.295 320.603,-636.7951 320.603,-629.7951"/>
<polygon fill="#c0c0c0" stroke="#c0c0c0" points="343.5421,-636.7951 353.5421,-633.295 343.5421,-629.7951 343.5421,-636.7951"/>
<text text-anchor="middle" x="331.9992" y="-636.895" font-family="Times,serif" font-size="12.00" fill="#4d4d4d">TCP?</text>
</g>
<!-- PA2 -->
<g id="node2" class="node">
<title>PA2</title>
<ellipse fill="#e6e6fa" stroke="#c0c0c0" cx="251.5397" cy="-549.295" rx="58.5886" ry="18"/>
<text text-anchor="middle" x="251.5397" y="-545.095" font-family="Times,serif" font-size="14.00" fill="#000000">CCS P&amp;A 2</text>
</g>
<!-- Broker2 -->
<g id="node6" class="node">
<title>Broker2</title>
<ellipse fill="#ffffff" stroke="#c0c0c0" cx="430.4063" cy="-549.295" rx="76.9837" ry="29.3315"/>
<text text-anchor="middle" x="430.4063" y="-553.495" font-family="Times,serif" font-size="14.00" fill="#000000">MQTT Broker 2</text>
<text text-anchor="middle" x="430.4063" y="-536.695" font-family="Times,serif" font-size="14.00" fill="#000000">(Mosquitto)</text>
</g>
<!-- PA2&#45;&gt;Broker2 -->
<g id="edge2" class="edge">
<title>PA2&#45;&gt;Broker2</title>
<path fill="none" stroke="#c0c0c0" d="M320.7532,-549.295C328.2212,-549.295 335.8878,-549.295 343.5295,-549.295"/>
<polygon fill="#c0c0c0" stroke="#c0c0c0" points="320.603,-545.7951 310.603,-549.295 320.603,-552.7951 320.603,-545.7951"/>
<polygon fill="#c0c0c0" stroke="#c0c0c0" points="343.5421,-552.7951 353.5421,-549.295 343.5421,-545.7951 343.5421,-552.7951"/>
<text text-anchor="middle" x="331.9992" y="-552.895" font-family="Times,serif" font-size="12.00" fill="#4d4d4d">TCP?</text>
</g>
<!-- OldMachine -->
<g id="node3" class="node">
<title>OldMachine</title>
<ellipse fill="#e6e6fa" stroke="#c0c0c0" cx="61.7191" cy="-465.295" rx="61.9389" ry="18"/>
<text text-anchor="middle" x="61.7191" y="-461.095" font-family="Times,serif" font-size="14.00" fill="#000000">Old Machine</text>
</g>
<!-- PLC4X -->
<g id="node4" class="node">
<title>PLC4X</title>
<ellipse fill="#ffffff" stroke="#c0c0c0" cx="251.5397" cy="-465.295" rx="41.6253" ry="29.3315"/>
<text text-anchor="middle" x="251.5397" y="-469.495" font-family="Times,serif" font-size="14.00" fill="#000000">PLC4X</text>
<text text-anchor="middle" x="251.5397" y="-452.695" font-family="Times,serif" font-size="14.00" fill="#000000">(Java)</text>
</g>
<!-- OldMachine&#45;&gt;PLC4X -->
<g id="edge3" class="edge">
<title>OldMachine&#45;&gt;PLC4X</title>
<path fill="none" stroke="#c0c0c0" d="M123.6108,-465.295C148.2084,-465.295 176.1862,-465.295 199.6919,-465.295"/>
<polygon fill="#c0c0c0" stroke="#c0c0c0" points="199.808,-468.7951 209.808,-465.295 199.8079,-461.7951 199.808,-468.7951"/>
<text text-anchor="middle" x="158.0919" y="-483.295" font-family="Times,serif" font-size="12.00" fill="#4d4d4d">proprietary</text>
<text text-anchor="middle" x="158.0919" y="-468.895" font-family="Times,serif" font-size="12.00" fill="#4d4d4d">protocol</text>
</g>
<!-- Broker3 -->
<g id="node7" class="node">
<title>Broker3</title>
<ellipse fill="#ffffff" stroke="#c0c0c0" cx="430.4063" cy="-465.295" rx="76.9837" ry="29.3315"/>
<text text-anchor="middle" x="430.4063" y="-469.495" font-family="Times,serif" font-size="14.00" fill="#000000">MQTT Broker 3</text>
<text text-anchor="middle" x="430.4063" y="-452.695" font-family="Times,serif" font-size="14.00" fill="#000000">(Mosquitto)</text>
</g>
<!-- PLC4X&#45;&gt;Broker3 -->
<g id="edge4" class="edge">
<title>PLC4X&#45;&gt;Broker3</title>
<path fill="none" stroke="#c0c0c0" d="M293.4759,-465.295C308.495,-465.295 326.0317,-465.295 343.4434,-465.295"/>
<polygon fill="#c0c0c0" stroke="#c0c0c0" points="343.6608,-468.7951 353.6608,-465.295 343.6607,-461.7951 343.6608,-468.7951"/>
<text text-anchor="middle" x="331.9992" y="-468.895" font-family="Times,serif" font-size="12.00" fill="#4d4d4d">?</text>
</g>
<!-- Adapter -->
<g id="node8" class="node">
<title>Adapter</title>
<ellipse fill="#ffffff" stroke="#c0c0c0" cx="646.3078" cy="-549.295" rx="59.3044" ry="41.0911"/>
<text text-anchor="middle" x="646.3078" y="-561.895" font-family="Times,serif" font-size="14.00" fill="#000000">MTConnect</text>
<text text-anchor="middle" x="646.3078" y="-545.095" font-family="Times,serif" font-size="14.00" fill="#000000">Adapter</text>
<text text-anchor="middle" x="646.3078" y="-528.295" font-family="Times,serif" font-size="14.00" fill="#000000">(NodeJS)</text>
</g>
<!-- Broker1&#45;&gt;Adapter -->
<g id="edge5" class="edge">
<title>Broker1&#45;&gt;Adapter</title>
<path fill="none" stroke="#c0c0c0" d="M496.3864,-609.8867C518.0645,-601.9925 542.2205,-592.9775 564.1521,-584.295 571.4497,-581.406 579.0739,-578.2909 586.6101,-575.152"/>
<polygon fill="#c0c0c0" stroke="#c0c0c0" points="495.1477,-606.6128 486.9405,-613.313 497.5347,-613.1933 495.1477,-606.6128"/>
<polygon fill="#c0c0c0" stroke="#c0c0c0" points="588.2112,-578.2759 596.0777,-571.1788 585.5024,-571.8212 588.2112,-578.2759"/>
<text text-anchor="middle" x="539.6499" y="-620.295" font-family="Times,serif" font-size="12.00" fill="#4d4d4d">MQTT</text>
<text text-anchor="middle" x="539.6499" y="-605.895" font-family="Times,serif" font-size="12.00" fill="#4d4d4d">TCP 1883</text>
</g>
<!-- Broker2&#45;&gt;Adapter -->
<g id="edge6" class="edge">
<title>Broker2&#45;&gt;Adapter</title>
<path fill="none" stroke="#c0c0c0" d="M517.6702,-549.295C537.3129,-549.295 557.9051,-549.295 576.712,-549.295"/>
<polygon fill="#c0c0c0" stroke="#c0c0c0" points="517.4373,-545.7951 507.4373,-549.295 517.4373,-552.7951 517.4373,-545.7951"/>
<polygon fill="#c0c0c0" stroke="#c0c0c0" points="576.9593,-552.7951 586.9592,-549.295 576.9592,-545.7951 576.9593,-552.7951"/>
<text text-anchor="middle" x="539.6499" y="-567.295" font-family="Times,serif" font-size="12.00" fill="#4d4d4d">MQTT</text>
<text text-anchor="middle" x="539.6499" y="-552.895" font-family="Times,serif" font-size="12.00" fill="#4d4d4d">TCP 1884</text>
</g>
<!-- Broker3&#45;&gt;Adapter -->
<g id="edge7" class="edge">
<title>Broker3&#45;&gt;Adapter</title>
<path fill="none" stroke="#c0c0c0" d="M496.37,-488.8454C518.0471,-496.7748 542.2067,-505.8165 564.1521,-514.495 571.3431,-517.3388 578.8537,-520.3968 586.2859,-523.4774"/>
<polygon fill="#c0c0c0" stroke="#c0c0c0" points="497.5188,-485.539 486.9249,-485.403 495.1218,-492.1158 497.5188,-485.539"/>
<polygon fill="#c0c0c0" stroke="#c0c0c0" points="585.0514,-526.7547 595.6279,-527.3771 587.7479,-520.2949 585.0514,-526.7547"/>
<text text-anchor="middle" x="539.6499" y="-532.295" font-family="Times,serif" font-size="12.00" fill="#4d4d4d">MQTT</text>
<text text-anchor="middle" x="539.6499" y="-517.895" font-family="Times,serif" font-size="12.00" fill="#4d4d4d">TCP 1885</text>
</g>
<!-- DiodeSender -->
<g id="node9" class="node">
<title>DiodeSender</title>
<ellipse fill="#ffffff" stroke="#c0c0c0" cx="892.8876" cy="-549.295" rx="83.3394" ry="29.3315"/>
<text text-anchor="middle" x="892.8876" y="-553.495" font-family="Times,serif" font-size="14.00" fill="#000000">Diode Sender</text>
<text text-anchor="middle" x="892.8876" y="-536.695" font-family="Times,serif" font-size="14.00" fill="#000000">(Java+RabbitMQ)</text>
</g>
<!-- Adapter&#45;&gt;DiodeSender -->
<g id="edge8" class="edge">
<title>Adapter&#45;&gt;DiodeSender</title>
<path fill="none" stroke="#c0c0c0" d="M715.7488,-549.295C741.6501,-549.295 771.4977,-549.295 799.2211,-549.295"/>
<polygon fill="#c0c0c0" stroke="#c0c0c0" points="715.6836,-545.7951 705.6836,-549.295 715.6836,-552.7951 715.6836,-545.7951"/>
<polygon fill="#c0c0c0" stroke="#c0c0c0" points="799.3277,-552.7951 809.3277,-549.295 799.3276,-545.7951 799.3277,-552.7951"/>
<text text-anchor="middle" x="764.9657" y="-567.295" font-family="Times,serif" font-size="12.00" fill="#4d4d4d">SHDR / &#160;&#160;</text>
<text text-anchor="middle" x="764.9657" y="-552.895" font-family="Times,serif" font-size="12.00" fill="#4d4d4d">TCP 7878 &#160;&#160;&#160;&#160;&#160;</text>
</g>
<!-- DiodeReceiver -->
<g id="node10" class="node">
<title>DiodeReceiver</title>
<ellipse fill="#ffffff" stroke="#c0c0c0" cx="892.8876" cy="-441.295" rx="83.3394" ry="29.3315"/>
<text text-anchor="middle" x="892.8876" y="-445.495" font-family="Times,serif" font-size="14.00" fill="#000000">Diode Receiver</text>
<text text-anchor="middle" x="892.8876" y="-428.695" font-family="Times,serif" font-size="14.00" fill="#000000">(Java+RabbitMQ)</text>
</g>
<!-- DiodeSender&#45;&gt;DiodeReceiver -->
<g id="edge9" class="edge">
<title>DiodeSender&#45;&gt;DiodeReceiver</title>
<path fill="none" stroke="#c0c0c0" d="M892.8876,-519.8192C892.8876,-507.7988 892.8876,-493.7199 892.8876,-480.8285"/>
<polygon fill="#c0c0c0" stroke="#c0c0c0" points="896.3877,-480.8065 892.8876,-470.8065 889.3877,-480.8065 896.3877,-480.8065"/>
<text text-anchor="middle" x="882.6876" y="-491.695" font-family="Times,serif" font-size="12.00" fill="#4d4d4d">UDP &#160;&#160;&#160;</text>
</g>
<!-- Agent -->
<g id="node11" class="node">
<title>Agent</title>
<ellipse fill="#ffffff" stroke="#c0c0c0" cx="646.3078" cy="-441.295" rx="74.3117" ry="41.0911"/>
<text text-anchor="middle" x="646.3078" y="-453.895" font-family="Times,serif" font-size="14.00" fill="#000000">MTConnect</text>
<text text-anchor="middle" x="646.3078" y="-437.095" font-family="Times,serif" font-size="14.00" fill="#000000">Agent</text>
<text text-anchor="middle" x="646.3078" y="-420.295" font-family="Times,serif" font-size="14.00" fill="#000000">(C++/cppagent)</text>
</g>
<!-- DiodeReceiver&#45;&gt;Agent -->
<g id="edge10" class="edge">
<title>DiodeReceiver&#45;&gt;Agent</title>
<path fill="none" stroke="#c0c0c0" d="M809.2289,-441.295C783.9794,-441.295 756.2482,-441.295 730.9361,-441.295"/>
<polygon fill="#c0c0c0" stroke="#c0c0c0" points="730.6243,-437.7951 720.6243,-441.295 730.6242,-444.7951 730.6243,-437.7951"/>
<text text-anchor="middle" x="764.9657" y="-459.295" font-family="Times,serif" font-size="12.00" fill="#4d4d4d">SHDR / &#160;&#160;&#160;</text>
<text text-anchor="middle" x="764.9657" y="-444.895" font-family="Times,serif" font-size="12.00" fill="#4d4d4d">TCP 7878 &#160;&#160;&#160;&#160;&#160;&#160;&#160;</text>
</g>
<!-- Application -->
<g id="node12" class="node">
<title>Application</title>
<ellipse fill="#ffffff" stroke="#c0c0c0" cx="646.3078" cy="-305.295" rx="59.3044" ry="41.0911"/>
<text text-anchor="middle" x="646.3078" y="-317.895" font-family="Times,serif" font-size="14.00" fill="#000000">MTConnect</text>
<text text-anchor="middle" x="646.3078" y="-301.095" font-family="Times,serif" font-size="14.00" fill="#000000">Application</text>
<text text-anchor="middle" x="646.3078" y="-284.295" font-family="Times,serif" font-size="14.00" fill="#000000">(NodeJS)</text>
</g>
<!-- Agent&#45;&gt;Application -->
<g id="edge11" class="edge">
<title>Agent&#45;&gt;Application</title>
<path fill="none" stroke="#c0c0c0" d="M646.3078,-389.503C646.3078,-378.817 646.3078,-367.564 646.3078,-356.8852"/>
<polygon fill="#c0c0c0" stroke="#c0c0c0" points="642.8079,-389.5373 646.3078,-399.5373 649.8079,-389.5374 642.8079,-389.5373"/>
<polygon fill="#c0c0c0" stroke="#c0c0c0" points="649.8079,-356.8385 646.3078,-346.8385 642.8079,-356.8385 649.8079,-356.8385"/>
<text text-anchor="middle" x="628.9078" y="-376.895" font-family="Times,serif" font-size="12.00" fill="#4d4d4d">XML / </text>
<text text-anchor="middle" x="628.9078" y="-362.495" font-family="Times,serif" font-size="12.00" fill="#4d4d4d">HTTP 5000 &#160;&#160;&#160;&#160;&#160;&#160;&#160;&#160;&#160;</text>
</g>
<!-- Database -->
<g id="node13" class="node">
<title>Database</title>
<ellipse fill="#ffffff" stroke="#c0c0c0" cx="646.3078" cy="-173.295" rx="69.0714" ry="41.0911"/>
<text text-anchor="middle" x="646.3078" y="-185.895" font-family="Times,serif" font-size="14.00" fill="#000000">Database</text>
<text text-anchor="middle" x="646.3078" y="-169.095" font-family="Times,serif" font-size="14.00" fill="#000000">(InfluxDB/</text>
<text text-anchor="middle" x="646.3078" y="-152.295" font-family="Times,serif" font-size="14.00" fill="#000000">TimescaleDB)</text>
</g>
<!-- Application&#45;&gt;Database -->
<g id="edge12" class="edge">
<title>Application&#45;&gt;Database</title>
<path fill="none" stroke="#c0c0c0" d="M646.3078,-253.639C646.3078,-244.1484 646.3078,-234.6577 646.3078,-225.1671"/>
<polygon fill="#c0c0c0" stroke="#c0c0c0" points="642.8079,-253.9372 646.3078,-263.9373 649.8079,-253.9373 642.8079,-253.9372"/>
<polygon fill="#c0c0c0" stroke="#c0c0c0" points="649.8079,-224.8028 646.3078,-214.8028 642.8079,-224.8029 649.8079,-224.8028"/>
</g>
<!-- Visualizer -->
<g id="node14" class="node">
<title>Visualizer</title>
<ellipse fill="#ffffff" stroke="#c0c0c0" cx="646.3078" cy="-41.295" rx="51.9834" ry="41.0911"/>
<text text-anchor="middle" x="646.3078" y="-53.895" font-family="Times,serif" font-size="14.00" fill="#000000">Visualizer</text>
<text text-anchor="middle" x="646.3078" y="-37.095" font-family="Times,serif" font-size="14.00" fill="#000000">(Grafana/</text>
<text text-anchor="middle" x="646.3078" y="-20.295" font-family="Times,serif" font-size="14.00" fill="#000000">Superset)</text>
</g>
<!-- Database&#45;&gt;Visualizer -->
<g id="edge13" class="edge">
<title>Database&#45;&gt;Visualizer</title>
<path fill="none" stroke="#c0c0c0" d="M646.3078,-121.639C646.3078,-112.1484 646.3078,-102.6577 646.3078,-93.1671"/>
<polygon fill="#c0c0c0" stroke="#c0c0c0" points="642.8079,-121.9372 646.3078,-131.9373 649.8079,-121.9373 642.8079,-121.9372"/>
<polygon fill="#c0c0c0" stroke="#c0c0c0" points="649.8079,-92.8028 646.3078,-82.8028 642.8079,-92.8029 649.8079,-92.8028"/>
</g>
<!-- Cloud -->
<g id="node15" class="node">
<title>Cloud</title>
<ellipse fill="#ffffff" stroke="#c0c0c0" cx="892.8876" cy="-173.295" rx="68.4585" ry="29.3315"/>
<text text-anchor="middle" x="892.8876" y="-177.495" font-family="Times,serif" font-size="14.00" fill="#000000">Cloud Storage</text>
<text text-anchor="middle" x="892.8876" y="-160.695" font-family="Times,serif" font-size="14.00" fill="#000000">(AWS/GCP)</text>
</g>
<!-- Database&#45;&gt;Cloud -->
<g id="edge14" class="edge">
<title>Database&#45;&gt;Cloud</title>
<path fill="none" stroke="#c0c0c0" d="M715.6502,-173.295C746.3701,-173.295 782.6561,-173.295 814.3689,-173.295"/>
<polygon fill="#c0c0c0" stroke="#c0c0c0" points="814.4918,-176.7951 824.4918,-173.295 814.4917,-169.7951 814.4918,-176.7951"/>
</g>
<!-- Admin -->
<g id="node16" class="node">
<title>Admin</title>
<ellipse fill="#ffffe0" stroke="#c0c0c0" cx="892.8876" cy="-41.295" rx="37.7217" ry="18"/>
<text text-anchor="middle" x="892.8876" y="-37.095" font-family="Times,serif" font-size="14.00" fill="#000000">Admin</text>
</g>
<!-- Visualizer&#45;&gt;Admin -->
<g id="edge15" class="edge">
<title>Visualizer&#45;&gt;Admin</title>
<path fill="none" stroke="#c0c0c0" d="M708.4583,-41.295C750.6788,-41.295 805.7071,-41.295 844.6323,-41.295"/>
<polygon fill="#c0c0c0" stroke="#c0c0c0" points="708.2998,-37.7951 698.2997,-41.295 708.2997,-44.7951 708.2998,-37.7951"/>
<polygon fill="#c0c0c0" stroke="#c0c0c0" points="844.6612,-44.7951 854.6612,-41.295 844.6611,-37.7951 844.6612,-44.7951"/>
</g>
</g>
</svg>
