<?xml version="1.0" encoding="UTF-8" standalone="no"?>
<!DOCTYPE svg PUBLIC "-//W3C//DTD SVG 1.1//EN"
 "http://www.w3.org/Graphics/SVG/1.1/DTD/svg11.dtd">
<!-- Generated by graphviz version 2.40.1 (20161225.0304)
 -->
<!-- Title: ladder99&#45;adapter Pages: 1 -->
<svg width="808pt" height="850pt"
 viewBox="0.00 0.00 807.93 849.71" xmlns="http://www.w3.org/2000/svg" xmlns:xlink="http://www.w3.org/1999/xlink">
<g id="graph0" class="graph" transform="scale(1 1) rotate(0) translate(4 845.7107)">
<title>ladder99&#45;adapter</title>
<polygon fill="#ffffff" stroke="transparent" points="-4,4 -4,-845.7107 803.9348,-845.7107 803.9348,4 -4,4"/>
<text text-anchor="middle" x="399.9674" y="-819.7107" font-family="Times,serif" font-size="20.00" fill="#000000">Ladder99 MTConnect data flow</text>
<text text-anchor="middle" x="399.9674" y="-795.7107" font-family="Times,serif" font-size="20.00" fill="#000000"> </text>
<!-- PA -->
<g id="node1" class="node">
<title>PA</title>
<ellipse fill="#e6e6fa" stroke="#c0c0c0" cx="162.9905" cy="-766.295" rx="51.6026" ry="18"/>
<text text-anchor="middle" x="162.9905" y="-762.095" font-family="Times,serif" font-size="14.00" fill="#000000">CCS P&amp;A</text>
</g>
<!-- Broker1 -->
<g id="node10" class="node">
<title>Broker1</title>
<ellipse fill="#ffffff" stroke="#c0c0c0" cx="368.852" cy="-756.295" rx="69.1341" ry="29.3315"/>
<text text-anchor="middle" x="368.852" y="-760.495" font-family="Times,serif" font-size="14.00" fill="#000000">MQTT Broker</text>
<text text-anchor="middle" x="368.852" y="-743.695" font-family="Times,serif" font-size="14.00" fill="#000000">(Mosquitto)</text>
</g>
<!-- PA&#45;&gt;Broker1 -->
<g id="edge1" class="edge">
<title>PA&#45;&gt;Broker1</title>
<path fill="none" stroke="#c0c0c0" d="M224.4078,-763.3116C244.8606,-762.3181 267.9403,-761.197 289.551,-760.1472"/>
<polygon fill="#c0c0c0" stroke="#c0c0c0" points="223.9605,-759.8291 214.1421,-763.8103 224.3002,-766.8209 223.9605,-759.8291"/>
<polygon fill="#c0c0c0" stroke="#c0c0c0" points="289.8734,-763.6357 299.6918,-759.6546 289.5337,-756.644 289.8734,-763.6357"/>
<text text-anchor="middle" x="265.8779" y="-765.895" font-family="Times,serif" font-size="12.00" fill="#4d4d4d"> &#160;TCP &#160;</text>
</g>
<!-- HMI -->
<g id="node2" class="node">
<title>HMI</title>
<ellipse fill="#e6e6fa" stroke="#c0c0c0" cx="162.9905" cy="-705.295" rx="69.4612" ry="18"/>
<text text-anchor="middle" x="162.9905" y="-701.095" font-family="Times,serif" font-size="14.00" fill="#000000">Rockwell HMI</text>
</g>
<!-- Kepware1 -->
<g id="node6" class="node">
<title>Kepware1</title>
<ellipse fill="#ffffff" stroke="#c0c0c0" cx="368.852" cy="-661.295" rx="55.6916" ry="29.3315"/>
<text text-anchor="middle" x="368.852" y="-665.495" font-family="Times,serif" font-size="14.00" fill="#000000">Kepware</text>
<text text-anchor="middle" x="368.852" y="-648.695" font-family="Times,serif" font-size="14.00" fill="#000000">(Windows)</text>
</g>
<!-- HMI&#45;&gt;Kepware1 -->
<g id="edge7" class="edge">
<title>HMI&#45;&gt;Kepware1</title>
<path fill="none" stroke="#c0c0c0" d="M216.5408,-693.8494C244.2484,-687.9273 278.2123,-680.668 307.0313,-674.5083"/>
<polygon fill="#c0c0c0" stroke="#c0c0c0" points="307.9441,-677.8924 316.9917,-672.3794 306.481,-671.047 307.9441,-677.8924"/>
<text text-anchor="middle" x="265.8779" y="-691.895" font-family="Times,serif" font-size="12.00" fill="#4d4d4d">ethernet/ip</text>
</g>
<!-- Motor -->
<g id="node3" class="node">
<title>Motor</title>
<ellipse fill="#e6e6fa" stroke="#c0c0c0" cx="162.9905" cy="-644.295" rx="56.8026" ry="18"/>
<text text-anchor="middle" x="162.9905" y="-640.095" font-family="Times,serif" font-size="14.00" fill="#000000">VFD Motor</text>
</g>
<!-- Motor&#45;&gt;Kepware1 -->
<g id="edge8" class="edge">
<title>Motor&#45;&gt;Kepware1</title>
<path fill="none" stroke="#c0c0c0" d="M218.1576,-648.8507C244.3482,-651.0135 275.84,-653.6141 303.2478,-655.8775"/>
<polygon fill="#c0c0c0" stroke="#c0c0c0" points="303.2784,-659.3918 313.5326,-656.7268 303.8546,-652.4156 303.2784,-659.3918"/>
<text text-anchor="middle" x="265.8779" y="-657.895" font-family="Times,serif" font-size="12.00" fill="#4d4d4d">modbus</text>
</g>
<!-- OldMachine3 -->
<g id="node4" class="node">
<title>OldMachine3</title>
<ellipse fill="#e6e6fa" stroke="#c0c0c0" cx="38.3801" cy="-433.295" rx="38.2607" ry="18"/>
<text text-anchor="middle" x="38.3801" y="-429.095" font-family="Times,serif" font-size="14.00" fill="#000000">Device</text>
</g>
<!-- Kepware2 -->
<g id="node7" class="node">
<title>Kepware2</title>
<ellipse fill="#ffffff" stroke="#c0c0c0" cx="162.9905" cy="-433.295" rx="63.0176" ry="41.0911"/>
<text text-anchor="middle" x="162.9905" y="-445.895" font-family="Times,serif" font-size="14.00" fill="#000000">Kepware+</text>
<text text-anchor="middle" x="162.9905" y="-429.095" font-family="Times,serif" font-size="14.00" fill="#000000">IoT Gateway</text>
<text text-anchor="middle" x="162.9905" y="-412.295" font-family="Times,serif" font-size="14.00" fill="#000000">(Windows)</text>
</g>
<!-- OldMachine3&#45;&gt;Kepware2 -->
<g id="edge11" class="edge">
<title>OldMachine3&#45;&gt;Kepware2</title>
<path fill="none" stroke="#c0c0c0" d="M76.7841,-433.295C80.8871,-433.295 85.153,-433.295 89.4938,-433.295"/>
<polygon fill="#c0c0c0" stroke="#c0c0c0" points="89.7171,-436.7951 99.7171,-433.295 89.717,-429.7951 89.7171,-436.7951"/>
</g>
<!-- Camera -->
<g id="node5" class="node">
<title>Camera</title>
<ellipse fill="#e6e6fa" stroke="#c0c0c0" cx="162.9905" cy="-517.295" rx="41.1277" ry="18"/>
<text text-anchor="middle" x="162.9905" y="-513.095" font-family="Times,serif" font-size="14.00" fill="#000000">Camera</text>
</g>
<!-- Broker3 -->
<g id="node11" class="node">
<title>Broker3</title>
<ellipse fill="#ffffff" stroke="#c0c0c0" cx="368.852" cy="-517.295" rx="69.1341" ry="29.3315"/>
<text text-anchor="middle" x="368.852" y="-521.495" font-family="Times,serif" font-size="14.00" fill="#000000">MQTT Broker</text>
<text text-anchor="middle" x="368.852" y="-504.695" font-family="Times,serif" font-size="14.00" fill="#000000">(Mosquitto)</text>
</g>
<!-- Camera&#45;&gt;Broker3 -->
<g id="edge2" class="edge">
<title>Camera&#45;&gt;Broker3</title>
<path fill="none" stroke="#c0c0c0" d="M214.4217,-517.295C237.0038,-517.295 264.0408,-517.295 289.1357,-517.295"/>
<polygon fill="#c0c0c0" stroke="#c0c0c0" points="214.1549,-513.7951 204.1549,-517.295 214.1548,-520.7951 214.1549,-513.7951"/>
<polygon fill="#c0c0c0" stroke="#c0c0c0" points="289.3809,-520.7951 299.3809,-517.295 289.3809,-513.7951 289.3809,-520.7951"/>
<text text-anchor="middle" x="265.8779" y="-520.895" font-family="Times,serif" font-size="12.00" fill="#4d4d4d"> &#160;TCP &#160;</text>
</g>
<!-- Adapter -->
<g id="node13" class="node">
<title>Adapter</title>
<ellipse fill="#ffffff" stroke="#c0c0c0" cx="572.3213" cy="-589.295" rx="60.5759" ry="53.3494"/>
<text text-anchor="middle" x="572.3213" y="-610.295" font-family="Times,serif" font-size="14.00" fill="#000000">MTConnect</text>
<text text-anchor="middle" x="572.3213" y="-593.495" font-family="Times,serif" font-size="14.00" fill="#000000">Adapter</text>
<text text-anchor="middle" x="572.3213" y="-576.695" font-family="Times,serif" font-size="14.00" fill="#000000">with plugins</text>
<text text-anchor="middle" x="572.3213" y="-559.895" font-family="Times,serif" font-size="14.00" fill="#000000">(NodeJS)</text>
</g>
<!-- Kepware1&#45;&gt;Adapter -->
<g id="edge9" class="edge">
<title>Kepware1&#45;&gt;Adapter</title>
<path fill="none" stroke="#c0c0c0" d="M415.2769,-644.867C442.2648,-635.317 476.7136,-623.1269 506.4665,-612.5985"/>
<polygon fill="#c0c0c0" stroke="#c0c0c0" points="507.6865,-615.8795 515.9461,-609.2441 505.3513,-609.2805 507.6865,-615.8795"/>
<text text-anchor="middle" x="468.1672" y="-636.895" font-family="Times,serif" font-size="12.00" fill="#4d4d4d">OPC/UA</text>
</g>
<!-- Broker4 -->
<g id="node12" class="node">
<title>Broker4</title>
<ellipse fill="#ffffff" stroke="#c0c0c0" cx="368.852" cy="-433.295" rx="69.1341" ry="29.3315"/>
<text text-anchor="middle" x="368.852" y="-437.495" font-family="Times,serif" font-size="14.00" fill="#000000">MQTT Broker</text>
<text text-anchor="middle" x="368.852" y="-420.695" font-family="Times,serif" font-size="14.00" fill="#000000">(Mosquitto)</text>
</g>
<!-- Kepware2&#45;&gt;Broker4 -->
<g id="edge12" class="edge">
<title>Kepware2&#45;&gt;Broker4</title>
<path fill="none" stroke="#c0c0c0" d="M226.4355,-433.295C246.3345,-433.295 268.5541,-433.295 289.4139,-433.295"/>
<polygon fill="#c0c0c0" stroke="#c0c0c0" points="289.5289,-436.7951 299.5288,-433.295 289.5288,-429.7951 289.5289,-436.7951"/>
<text text-anchor="middle" x="265.8779" y="-436.895" font-family="Times,serif" font-size="12.00" fill="#4d4d4d">MQTT</text>
</g>
<!-- Autoclave -->
<g id="node8" class="node">
<title>Autoclave</title>
<ellipse fill="#e6e6fa" stroke="#c0c0c0" cx="162.9905" cy="-583.295" rx="50.9425" ry="18"/>
<text text-anchor="middle" x="162.9905" y="-579.095" font-family="Times,serif" font-size="14.00" fill="#000000">Autoclave</text>
</g>
<!-- CPC -->
<g id="node9" class="node">
<title>CPC</title>
<ellipse fill="#ffffff" stroke="#c0c0c0" cx="368.852" cy="-589.295" rx="50.4587" ry="18"/>
<text text-anchor="middle" x="368.852" y="-585.095" font-family="Times,serif" font-size="14.00" fill="#000000">ASC CPC</text>
</g>
<!-- Autoclave&#45;&gt;CPC -->
<g id="edge3" class="edge">
<title>Autoclave&#45;&gt;CPC</title>
<path fill="none" stroke="#c0c0c0" d="M223.9919,-585.073C250.5482,-585.847 281.5959,-586.7519 308.1215,-587.525"/>
<polygon fill="#c0c0c0" stroke="#c0c0c0" points="223.7113,-581.5634 213.6136,-584.7705 223.5073,-588.5604 223.7113,-581.5634"/>
<polygon fill="#c0c0c0" stroke="#c0c0c0" points="308.3269,-591.0324 318.4247,-587.8253 308.5309,-584.0353 308.3269,-591.0324"/>
</g>
<!-- CPC&#45;&gt;Adapter -->
<g id="edge10" class="edge">
<title>CPC&#45;&gt;Adapter</title>
<path fill="none" stroke="#c0c0c0" d="M419.4092,-589.295C444.1431,-589.295 474.3343,-589.295 501.3357,-589.295"/>
<polygon fill="#c0c0c0" stroke="#c0c0c0" points="501.5102,-592.7951 511.5101,-589.295 501.5101,-585.7951 501.5102,-592.7951"/>
<text text-anchor="middle" x="468.1672" y="-592.895" font-family="Times,serif" font-size="12.00" fill="#4d4d4d">text</text>
</g>
<!-- Broker1&#45;&gt;Adapter -->
<g id="edge4" class="edge">
<title>Broker1&#45;&gt;Adapter</title>
<path fill="none" stroke="#c0c0c0" d="M411.3744,-724.3321C420.2924,-717.4756 429.5913,-710.2111 438.1688,-703.295 466.0791,-680.7908 496.5788,-654.9741 521.4346,-633.6059"/>
<polygon fill="#c0c0c0" stroke="#c0c0c0" points="409.1381,-721.6362 403.3231,-730.4926 413.3918,-727.1955 409.1381,-721.6362"/>
<polygon fill="#c0c0c0" stroke="#c0c0c0" points="524.0035,-636.0126 529.2959,-626.8343 519.435,-630.7089 524.0035,-636.0126"/>
<text text-anchor="middle" x="468.1672" y="-697.895" font-family="Times,serif" font-size="12.00" fill="#4d4d4d">MQTT</text>
</g>
<!-- Broker3&#45;&gt;Adapter -->
<g id="edge5" class="edge">
<title>Broker3&#45;&gt;Adapter</title>
<path fill="none" stroke="#c0c0c0" d="M432.0014,-539.6412C455.6143,-547.9969 482.4828,-557.5046 506.3443,-565.9483"/>
<polygon fill="#c0c0c0" stroke="#c0c0c0" points="432.9059,-536.2487 422.3111,-536.2122 430.5707,-542.8477 432.9059,-536.2487"/>
<polygon fill="#c0c0c0" stroke="#c0c0c0" points="505.4246,-569.3355 516.0194,-569.372 507.7598,-562.7365 505.4246,-569.3355"/>
<text text-anchor="middle" x="468.1672" y="-562.895" font-family="Times,serif" font-size="12.00" fill="#4d4d4d">MQTT</text>
</g>
<!-- Broker4&#45;&gt;Adapter -->
<g id="edge6" class="edge">
<title>Broker4&#45;&gt;Adapter</title>
<path fill="none" stroke="#c0c0c0" d="M419.3508,-462.5907C425.7876,-466.7022 432.2047,-470.996 438.1688,-475.295 467.3652,-496.3403 498.0866,-522.1453 522.7524,-543.8784"/>
<polygon fill="#c0c0c0" stroke="#c0c0c0" points="420.9353,-459.4533 410.602,-457.1135 417.2208,-465.3865 420.9353,-459.4533"/>
<polygon fill="#c0c0c0" stroke="#c0c0c0" points="520.7335,-546.7659 530.5384,-550.7803 525.377,-541.5277 520.7335,-546.7659"/>
<text text-anchor="middle" x="468.1672" y="-516.895" font-family="Times,serif" font-size="12.00" fill="#4d4d4d">MQTT</text>
</g>
<!-- Agent -->
<g id="node14" class="node">
<title>Agent</title>
<ellipse fill="#ffffff" stroke="#c0c0c0" cx="572.3213" cy="-441.295" rx="74.3117" ry="41.0911"/>
<text text-anchor="middle" x="572.3213" y="-453.895" font-family="Times,serif" font-size="14.00" fill="#000000">MTConnect</text>
<text text-anchor="middle" x="572.3213" y="-437.095" font-family="Times,serif" font-size="14.00" fill="#000000">Agent</text>
<text text-anchor="middle" x="572.3213" y="-420.295" font-family="Times,serif" font-size="14.00" fill="#000000">(C++/cppagent)</text>
</g>
<!-- Adapter&#45;&gt;Agent -->
<g id="edge13" class="edge">
<title>Adapter&#45;&gt;Agent</title>
<path fill="none" stroke="#c0c0c0" d="M572.3213,-525.7997C572.3213,-514.9425 572.3213,-503.7775 572.3213,-493.2651"/>
<polygon fill="#c0c0c0" stroke="#c0c0c0" points="568.8214,-526.0833 572.3213,-536.0833 575.8214,-526.0834 568.8214,-526.0833"/>
<polygon fill="#c0c0c0" stroke="#c0c0c0" points="575.8214,-492.9151 572.3213,-482.9151 568.8214,-492.9152 575.8214,-492.9151"/>
<text text-anchor="middle" x="554.9213" y="-512.9553" font-family="Times,serif" font-size="12.00" fill="#4d4d4d">SHDR / &#160;&#160;</text>
<text text-anchor="middle" x="554.9213" y="-498.5553" font-family="Times,serif" font-size="12.00" fill="#4d4d4d">TCP 7878+ &#160;&#160;&#160;&#160;&#160;&#160;&#160;&#160;</text>
</g>
<!-- Application -->
<g id="node15" class="node">
<title>Application</title>
<ellipse fill="#ffffff" stroke="#c0c0c0" cx="572.3213" cy="-305.295" rx="59.3044" ry="41.0911"/>
<text text-anchor="middle" x="572.3213" y="-317.895" font-family="Times,serif" font-size="14.00" fill="#000000">MTConnect</text>
<text text-anchor="middle" x="572.3213" y="-301.095" font-family="Times,serif" font-size="14.00" fill="#000000">Application</text>
<text text-anchor="middle" x="572.3213" y="-284.295" font-family="Times,serif" font-size="14.00" fill="#000000">(NodeJS)</text>
</g>
<!-- Agent&#45;&gt;Application -->
<g id="edge14" class="edge">
<title>Agent&#45;&gt;Application</title>
<path fill="none" stroke="#c0c0c0" d="M572.3213,-389.503C572.3213,-378.817 572.3213,-367.564 572.3213,-356.8852"/>
<polygon fill="#c0c0c0" stroke="#c0c0c0" points="568.8214,-389.5373 572.3213,-399.5373 575.8214,-389.5374 568.8214,-389.5373"/>
<polygon fill="#c0c0c0" stroke="#c0c0c0" points="575.8214,-356.8385 572.3213,-346.8385 568.8214,-356.8385 575.8214,-356.8385"/>
<text text-anchor="middle" x="554.9213" y="-376.895" font-family="Times,serif" font-size="12.00" fill="#4d4d4d">XML / </text>
<text text-anchor="middle" x="554.9213" y="-362.495" font-family="Times,serif" font-size="12.00" fill="#4d4d4d">HTTP 5000 &#160;&#160;&#160;&#160;&#160;&#160;&#160;&#160;&#160;</text>
</g>
<!-- Database -->
<g id="node16" class="node">
<title>Database</title>
<ellipse fill="#ffffff" stroke="#c0c0c0" cx="572.3213" cy="-173.295" rx="69.0714" ry="41.0911"/>
<text text-anchor="middle" x="572.3213" y="-185.895" font-family="Times,serif" font-size="14.00" fill="#000000">Database</text>
<text text-anchor="middle" x="572.3213" y="-169.095" font-family="Times,serif" font-size="14.00" fill="#000000">(InfluxDB/</text>
<text text-anchor="middle" x="572.3213" y="-152.295" font-family="Times,serif" font-size="14.00" fill="#000000">TimescaleDB)</text>
</g>
<!-- Application&#45;&gt;Database -->
<g id="edge15" class="edge">
<title>Application&#45;&gt;Database</title>
<path fill="none" stroke="#c0c0c0" d="M572.3213,-253.639C572.3213,-244.1484 572.3213,-234.6577 572.3213,-225.1671"/>
<polygon fill="#c0c0c0" stroke="#c0c0c0" points="568.8214,-253.9372 572.3213,-263.9373 575.8214,-253.9373 568.8214,-253.9372"/>
<polygon fill="#c0c0c0" stroke="#c0c0c0" points="575.8214,-224.8028 572.3213,-214.8028 568.8214,-224.8029 575.8214,-224.8028"/>
</g>
<!-- Visualizer -->
<g id="node17" class="node">
<title>Visualizer</title>
<ellipse fill="#ffffff" stroke="#c0c0c0" cx="572.3213" cy="-41.295" rx="51.9834" ry="41.0911"/>
<text text-anchor="middle" x="572.3213" y="-53.895" font-family="Times,serif" font-size="14.00" fill="#000000">Visualizer</text>
<text text-anchor="middle" x="572.3213" y="-37.095" font-family="Times,serif" font-size="14.00" fill="#000000">(Grafana/</text>
<text text-anchor="middle" x="572.3213" y="-20.295" font-family="Times,serif" font-size="14.00" fill="#000000">Superset)</text>
</g>
<!-- Database&#45;&gt;Visualizer -->
<g id="edge16" class="edge">
<title>Database&#45;&gt;Visualizer</title>
<path fill="none" stroke="#c0c0c0" d="M572.3213,-121.639C572.3213,-112.1484 572.3213,-102.6577 572.3213,-93.1671"/>
<polygon fill="#c0c0c0" stroke="#c0c0c0" points="568.8214,-121.9372 572.3213,-131.9373 575.8214,-121.9373 568.8214,-121.9372"/>
<polygon fill="#c0c0c0" stroke="#c0c0c0" points="575.8214,-92.8028 572.3213,-82.8028 568.8214,-92.8029 575.8214,-92.8028"/>
</g>
<!-- Cloud -->
<g id="node18" class="node">
<title>Cloud</title>
<ellipse fill="#ffffff" stroke="#c0c0c0" cx="731.7059" cy="-173.295" rx="68.4585" ry="29.3315"/>
<text text-anchor="middle" x="731.7059" y="-177.495" font-family="Times,serif" font-size="14.00" fill="#000000">Cloud Storage</text>
<text text-anchor="middle" x="731.7059" y="-160.695" font-family="Times,serif" font-size="14.00" fill="#000000">(AWS/GCP)</text>
</g>
<!-- Database&#45;&gt;Cloud -->
<g id="edge17" class="edge">
<title>Database&#45;&gt;Cloud</title>
<path fill="none" stroke="#c0c0c0" d="M641.766,-173.295C645.5541,-173.295 649.3736,-173.295 653.1895,-173.295"/>
<polygon fill="#c0c0c0" stroke="#c0c0c0" points="653.258,-176.7951 663.258,-173.295 653.258,-169.7951 653.258,-176.7951"/>
</g>
<!-- Admin -->
<g id="node19" class="node">
<title>Admin</title>
<ellipse fill="#ffffe0" stroke="#c0c0c0" cx="731.7059" cy="-41.295" rx="37.7217" ry="18"/>
<text text-anchor="middle" x="731.7059" y="-37.095" font-family="Times,serif" font-size="14.00" fill="#000000">Admin</text>
</g>
<!-- Visualizer&#45;&gt;Admin -->
<g id="edge18" class="edge">
<title>Visualizer&#45;&gt;Admin</title>
<path fill="none" stroke="#c0c0c0" d="M634.729,-41.295C650.8631,-41.295 667.9903,-41.295 683.2895,-41.295"/>
<polygon fill="#c0c0c0" stroke="#c0c0c0" points="634.5098,-37.7951 624.5098,-41.295 634.5097,-44.7951 634.5098,-37.7951"/>
<polygon fill="#c0c0c0" stroke="#c0c0c0" points="683.5547,-44.7951 693.5546,-41.295 683.5546,-37.7951 683.5547,-44.7951"/>
</g>
</g>
</svg>
