<?xml version="1.0" encoding="UTF-8" standalone="no"?>
<!DOCTYPE svg PUBLIC "-//W3C//DTD SVG 1.1//EN"
 "http://www.w3.org/Graphics/SVG/1.1/DTD/svg11.dtd">
<!-- Generated by graphviz version 2.40.1 (20161225.0304)
 -->
<!-- Title: ladder99&#45;adapter Pages: 1 -->
<svg width="882pt" height="755pt"
 viewBox="0.00 0.00 881.92 754.71" xmlns="http://www.w3.org/2000/svg" xmlns:xlink="http://www.w3.org/1999/xlink">
<g id="graph0" class="graph" transform="scale(1 1) rotate(0) translate(4 750.7107)">
<title>ladder99&#45;adapter</title>
<polygon fill="#ffffff" stroke="transparent" points="-4,4 -4,-750.7107 877.9213,-750.7107 877.9213,4 -4,4"/>
<text text-anchor="middle" x="436.9606" y="-724.7107" font-family="Times,serif" font-size="20.00" fill="#000000">Ladder99 MTConnect data flow</text>
<text text-anchor="middle" x="436.9606" y="-700.7107" font-family="Times,serif" font-size="20.00" fill="#000000"> </text>
<!-- PA1 -->
<g id="node1" class="node">
<title>PA1</title>
<ellipse fill="#e6e6fa" stroke="#c0c0c0" cx="251.5397" cy="-661.295" rx="58.5886" ry="18"/>
<text text-anchor="middle" x="251.5397" y="-657.095" font-family="Times,serif" font-size="14.00" fill="#000000">CCS P&amp;A 1</text>
</g>
<!-- Broker1 -->
<g id="node5" class="node">
<title>Broker1</title>
<ellipse fill="#ffffff" stroke="#c0c0c0" cx="430.4063" cy="-661.295" rx="76.9837" ry="29.3315"/>
<text text-anchor="middle" x="430.4063" y="-665.495" font-family="Times,serif" font-size="14.00" fill="#000000">MQTT Broker 1</text>
<text text-anchor="middle" x="430.4063" y="-648.695" font-family="Times,serif" font-size="14.00" fill="#000000">(Mosquitto)</text>
</g>
<!-- PA1&#45;&gt;Broker1 -->
<g id="edge1" class="edge">
<title>PA1&#45;&gt;Broker1</title>
<path fill="none" stroke="#c0c0c0" d="M320.7532,-661.295C328.2212,-661.295 335.8878,-661.295 343.5295,-661.295"/>
<polygon fill="#c0c0c0" stroke="#c0c0c0" points="320.603,-657.7951 310.603,-661.295 320.603,-664.7951 320.603,-657.7951"/>
<polygon fill="#c0c0c0" stroke="#c0c0c0" points="343.5421,-664.7951 353.5421,-661.295 343.5421,-657.7951 343.5421,-664.7951"/>
<text text-anchor="middle" x="331.9992" y="-664.895" font-family="Times,serif" font-size="12.00" fill="#4d4d4d">TCP?</text>
</g>
<!-- PA2 -->
<g id="node2" class="node">
<title>PA2</title>
<ellipse fill="#e6e6fa" stroke="#c0c0c0" cx="251.5397" cy="-577.295" rx="58.5886" ry="18"/>
<text text-anchor="middle" x="251.5397" y="-573.095" font-family="Times,serif" font-size="14.00" fill="#000000">CCS P&amp;A 2</text>
</g>
<!-- Broker2 -->
<g id="node6" class="node">
<title>Broker2</title>
<ellipse fill="#ffffff" stroke="#c0c0c0" cx="430.4063" cy="-577.295" rx="76.9837" ry="29.3315"/>
<text text-anchor="middle" x="430.4063" y="-581.495" font-family="Times,serif" font-size="14.00" fill="#000000">MQTT Broker 2</text>
<text text-anchor="middle" x="430.4063" y="-564.695" font-family="Times,serif" font-size="14.00" fill="#000000">(Mosquitto)</text>
</g>
<!-- PA2&#45;&gt;Broker2 -->
<g id="edge2" class="edge">
<title>PA2&#45;&gt;Broker2</title>
<path fill="none" stroke="#c0c0c0" d="M320.7532,-577.295C328.2212,-577.295 335.8878,-577.295 343.5295,-577.295"/>
<polygon fill="#c0c0c0" stroke="#c0c0c0" points="320.603,-573.7951 310.603,-577.295 320.603,-580.7951 320.603,-573.7951"/>
<polygon fill="#c0c0c0" stroke="#c0c0c0" points="343.5421,-580.7951 353.5421,-577.295 343.5421,-573.7951 343.5421,-580.7951"/>
<text text-anchor="middle" x="331.9992" y="-580.895" font-family="Times,serif" font-size="12.00" fill="#4d4d4d">TCP?</text>
</g>
<!-- OldMachine -->
<g id="node3" class="node">
<title>OldMachine</title>
<ellipse fill="#e6e6fa" stroke="#c0c0c0" cx="61.7191" cy="-493.295" rx="61.9389" ry="18"/>
<text text-anchor="middle" x="61.7191" y="-489.095" font-family="Times,serif" font-size="14.00" fill="#000000">Old Machine</text>
</g>
<!-- PLC4X -->
<g id="node4" class="node">
<title>PLC4X</title>
<ellipse fill="#ffffff" stroke="#c0c0c0" cx="251.5397" cy="-493.295" rx="41.6253" ry="29.3315"/>
<text text-anchor="middle" x="251.5397" y="-497.495" font-family="Times,serif" font-size="14.00" fill="#000000">PLC4X</text>
<text text-anchor="middle" x="251.5397" y="-480.695" font-family="Times,serif" font-size="14.00" fill="#000000">(Java)</text>
</g>
<!-- OldMachine&#45;&gt;PLC4X -->
<g id="edge3" class="edge">
<title>OldMachine&#45;&gt;PLC4X</title>
<path fill="none" stroke="#c0c0c0" d="M123.6108,-493.295C148.2084,-493.295 176.1862,-493.295 199.6919,-493.295"/>
<polygon fill="#c0c0c0" stroke="#c0c0c0" points="199.808,-496.7951 209.808,-493.295 199.8079,-489.7951 199.808,-496.7951"/>
<text text-anchor="middle" x="158.0919" y="-511.295" font-family="Times,serif" font-size="12.00" fill="#4d4d4d">proprietary</text>
<text text-anchor="middle" x="158.0919" y="-496.895" font-family="Times,serif" font-size="12.00" fill="#4d4d4d">protocol</text>
</g>
<!-- Broker3 -->
<g id="node7" class="node">
<title>Broker3</title>
<ellipse fill="#ffffff" stroke="#c0c0c0" cx="430.4063" cy="-493.295" rx="76.9837" ry="29.3315"/>
<text text-anchor="middle" x="430.4063" y="-497.495" font-family="Times,serif" font-size="14.00" fill="#000000">MQTT Broker 3</text>
<text text-anchor="middle" x="430.4063" y="-480.695" font-family="Times,serif" font-size="14.00" fill="#000000">(Mosquitto)</text>
</g>
<!-- PLC4X&#45;&gt;Broker3 -->
<g id="edge4" class="edge">
<title>PLC4X&#45;&gt;Broker3</title>
<path fill="none" stroke="#c0c0c0" d="M293.4759,-493.295C308.495,-493.295 326.0317,-493.295 343.4434,-493.295"/>
<polygon fill="#c0c0c0" stroke="#c0c0c0" points="343.6608,-496.7951 353.6608,-493.295 343.6607,-489.7951 343.6608,-496.7951"/>
<text text-anchor="middle" x="331.9992" y="-496.895" font-family="Times,serif" font-size="12.00" fill="#4d4d4d">?</text>
</g>
<!-- Adapter -->
<g id="node8" class="node">
<title>Adapter</title>
<ellipse fill="#ffffff" stroke="#c0c0c0" cx="646.3078" cy="-577.295" rx="59.3044" ry="41.0911"/>
<text text-anchor="middle" x="646.3078" y="-589.895" font-family="Times,serif" font-size="14.00" fill="#000000">MTConnect</text>
<text text-anchor="middle" x="646.3078" y="-573.095" font-family="Times,serif" font-size="14.00" fill="#000000">Adapter</text>
<text text-anchor="middle" x="646.3078" y="-556.295" font-family="Times,serif" font-size="14.00" fill="#000000">(NodeJS)</text>
</g>
<!-- Broker1&#45;&gt;Adapter -->
<g id="edge5" class="edge">
<title>Broker1&#45;&gt;Adapter</title>
<path fill="none" stroke="#c0c0c0" d="M496.3864,-637.8867C518.0645,-629.9925 542.2205,-620.9775 564.1521,-612.295 571.4497,-609.406 579.0739,-606.2909 586.6101,-603.152"/>
<polygon fill="#c0c0c0" stroke="#c0c0c0" points="495.1477,-634.6128 486.9405,-641.313 497.5347,-641.1933 495.1477,-634.6128"/>
<polygon fill="#c0c0c0" stroke="#c0c0c0" points="588.2112,-606.2759 596.0777,-599.1788 585.5024,-599.8212 588.2112,-606.2759"/>
<text text-anchor="middle" x="539.6499" y="-648.295" font-family="Times,serif" font-size="12.00" fill="#4d4d4d">MQTT</text>
<text text-anchor="middle" x="539.6499" y="-633.895" font-family="Times,serif" font-size="12.00" fill="#4d4d4d">TCP 1883</text>
</g>
<!-- Broker2&#45;&gt;Adapter -->
<g id="edge6" class="edge">
<title>Broker2&#45;&gt;Adapter</title>
<path fill="none" stroke="#c0c0c0" d="M517.6702,-577.295C537.3129,-577.295 557.9051,-577.295 576.712,-577.295"/>
<polygon fill="#c0c0c0" stroke="#c0c0c0" points="517.4373,-573.7951 507.4373,-577.295 517.4373,-580.7951 517.4373,-573.7951"/>
<polygon fill="#c0c0c0" stroke="#c0c0c0" points="576.9593,-580.7951 586.9592,-577.295 576.9592,-573.7951 576.9593,-580.7951"/>
<text text-anchor="middle" x="539.6499" y="-595.295" font-family="Times,serif" font-size="12.00" fill="#4d4d4d">MQTT</text>
<text text-anchor="middle" x="539.6499" y="-580.895" font-family="Times,serif" font-size="12.00" fill="#4d4d4d">TCP 1884</text>
</g>
<!-- Broker3&#45;&gt;Adapter -->
<g id="edge7" class="edge">
<title>Broker3&#45;&gt;Adapter</title>
<path fill="none" stroke="#c0c0c0" d="M496.37,-516.8454C518.0471,-524.7748 542.2067,-533.8165 564.1521,-542.495 571.3431,-545.3388 578.8537,-548.3968 586.2859,-551.4774"/>
<polygon fill="#c0c0c0" stroke="#c0c0c0" points="497.5188,-513.539 486.9249,-513.403 495.1218,-520.1158 497.5188,-513.539"/>
<polygon fill="#c0c0c0" stroke="#c0c0c0" points="585.0514,-554.7547 595.6279,-555.3771 587.7479,-548.2949 585.0514,-554.7547"/>
<text text-anchor="middle" x="539.6499" y="-560.295" font-family="Times,serif" font-size="12.00" fill="#4d4d4d">MQTT</text>
<text text-anchor="middle" x="539.6499" y="-545.895" font-family="Times,serif" font-size="12.00" fill="#4d4d4d">TCP 1885</text>
</g>
<!-- Agent -->
<g id="node9" class="node">
<title>Agent</title>
<ellipse fill="#ffffff" stroke="#c0c0c0" cx="646.3078" cy="-441.295" rx="74.3117" ry="41.0911"/>
<text text-anchor="middle" x="646.3078" y="-453.895" font-family="Times,serif" font-size="14.00" fill="#000000">MTConnect</text>
<text text-anchor="middle" x="646.3078" y="-437.095" font-family="Times,serif" font-size="14.00" fill="#000000">Agent</text>
<text text-anchor="middle" x="646.3078" y="-420.295" font-family="Times,serif" font-size="14.00" fill="#000000">(C++/cppagent)</text>
</g>
<!-- Adapter&#45;&gt;Agent -->
<g id="edge8" class="edge">
<title>Adapter&#45;&gt;Agent</title>
<path fill="none" stroke="#c0c0c0" d="M646.3078,-525.503C646.3078,-514.817 646.3078,-503.564 646.3078,-492.8852"/>
<polygon fill="#c0c0c0" stroke="#c0c0c0" points="642.8079,-525.5373 646.3078,-535.5373 649.8079,-525.5374 642.8079,-525.5373"/>
<polygon fill="#c0c0c0" stroke="#c0c0c0" points="649.8079,-492.8385 646.3078,-482.8385 642.8079,-492.8385 649.8079,-492.8385"/>
<text text-anchor="middle" x="628.9078" y="-512.895" font-family="Times,serif" font-size="12.00" fill="#4d4d4d">SHDR / &#160;&#160;</text>
<text text-anchor="middle" x="628.9078" y="-498.495" font-family="Times,serif" font-size="12.00" fill="#4d4d4d">TCP 7878 &#160;&#160;&#160;&#160;&#160;</text>
</g>
<!-- Application -->
<g id="node10" class="node">
<title>Application</title>
<ellipse fill="#ffffff" stroke="#c0c0c0" cx="646.3078" cy="-305.295" rx="59.3044" ry="41.0911"/>
<text text-anchor="middle" x="646.3078" y="-317.895" font-family="Times,serif" font-size="14.00" fill="#000000">MTConnect</text>
<text text-anchor="middle" x="646.3078" y="-301.095" font-family="Times,serif" font-size="14.00" fill="#000000">Application</text>
<text text-anchor="middle" x="646.3078" y="-284.295" font-family="Times,serif" font-size="14.00" fill="#000000">(NodeJS)</text>
</g>
<!-- Agent&#45;&gt;Application -->
<g id="edge9" class="edge">
<title>Agent&#45;&gt;Application</title>
<path fill="none" stroke="#c0c0c0" d="M646.3078,-389.503C646.3078,-378.817 646.3078,-367.564 646.3078,-356.8852"/>
<polygon fill="#c0c0c0" stroke="#c0c0c0" points="642.8079,-389.5373 646.3078,-399.5373 649.8079,-389.5374 642.8079,-389.5373"/>
<polygon fill="#c0c0c0" stroke="#c0c0c0" points="649.8079,-356.8385 646.3078,-346.8385 642.8079,-356.8385 649.8079,-356.8385"/>
<text text-anchor="middle" x="628.9078" y="-376.895" font-family="Times,serif" font-size="12.00" fill="#4d4d4d">XML / </text>
<text text-anchor="middle" x="628.9078" y="-362.495" font-family="Times,serif" font-size="12.00" fill="#4d4d4d">HTTP 5000 &#160;&#160;&#160;&#160;&#160;&#160;&#160;&#160;&#160;</text>
</g>
<!-- Database -->
<g id="node11" class="node">
<title>Database</title>
<ellipse fill="#ffffff" stroke="#c0c0c0" cx="646.3078" cy="-173.295" rx="69.0714" ry="41.0911"/>
<text text-anchor="middle" x="646.3078" y="-185.895" font-family="Times,serif" font-size="14.00" fill="#000000">Database</text>
<text text-anchor="middle" x="646.3078" y="-169.095" font-family="Times,serif" font-size="14.00" fill="#000000">(InfluxDB/</text>
<text text-anchor="middle" x="646.3078" y="-152.295" font-family="Times,serif" font-size="14.00" fill="#000000">TimescaleDB)</text>
</g>
<!-- Application&#45;&gt;Database -->
<g id="edge10" class="edge">
<title>Application&#45;&gt;Database</title>
<path fill="none" stroke="#c0c0c0" d="M646.3078,-253.639C646.3078,-244.1484 646.3078,-234.6577 646.3078,-225.1671"/>
<polygon fill="#c0c0c0" stroke="#c0c0c0" points="642.8079,-253.9372 646.3078,-263.9373 649.8079,-253.9373 642.8079,-253.9372"/>
<polygon fill="#c0c0c0" stroke="#c0c0c0" points="649.8079,-224.8028 646.3078,-214.8028 642.8079,-224.8029 649.8079,-224.8028"/>
</g>
<!-- Visualizer -->
<g id="node12" class="node">
<title>Visualizer</title>
<ellipse fill="#ffffff" stroke="#c0c0c0" cx="646.3078" cy="-41.295" rx="51.9834" ry="41.0911"/>
<text text-anchor="middle" x="646.3078" y="-53.895" font-family="Times,serif" font-size="14.00" fill="#000000">Visualizer</text>
<text text-anchor="middle" x="646.3078" y="-37.095" font-family="Times,serif" font-size="14.00" fill="#000000">(Grafana/</text>
<text text-anchor="middle" x="646.3078" y="-20.295" font-family="Times,serif" font-size="14.00" fill="#000000">Superset)</text>
</g>
<!-- Database&#45;&gt;Visualizer -->
<g id="edge11" class="edge">
<title>Database&#45;&gt;Visualizer</title>
<path fill="none" stroke="#c0c0c0" d="M646.3078,-121.639C646.3078,-112.1484 646.3078,-102.6577 646.3078,-93.1671"/>
<polygon fill="#c0c0c0" stroke="#c0c0c0" points="642.8079,-121.9372 646.3078,-131.9373 649.8079,-121.9373 642.8079,-121.9372"/>
<polygon fill="#c0c0c0" stroke="#c0c0c0" points="649.8079,-92.8028 646.3078,-82.8028 642.8079,-92.8029 649.8079,-92.8028"/>
</g>
<!-- Cloud -->
<g id="node13" class="node">
<title>Cloud</title>
<ellipse fill="#ffffff" stroke="#c0c0c0" cx="805.6924" cy="-173.295" rx="68.4585" ry="29.3315"/>
<text text-anchor="middle" x="805.6924" y="-177.495" font-family="Times,serif" font-size="14.00" fill="#000000">Cloud Storage</text>
<text text-anchor="middle" x="805.6924" y="-160.695" font-family="Times,serif" font-size="14.00" fill="#000000">(AWS/GCP)</text>
</g>
<!-- Database&#45;&gt;Cloud -->
<g id="edge12" class="edge">
<title>Database&#45;&gt;Cloud</title>
<path fill="none" stroke="#c0c0c0" d="M715.7526,-173.295C719.5407,-173.295 723.3602,-173.295 727.1761,-173.295"/>
<polygon fill="#c0c0c0" stroke="#c0c0c0" points="727.2446,-176.7951 737.2445,-173.295 727.2445,-169.7951 727.2446,-176.7951"/>
</g>
<!-- Admin -->
<g id="node14" class="node">
<title>Admin</title>
<ellipse fill="#ffffe0" stroke="#c0c0c0" cx="805.6924" cy="-41.295" rx="37.7217" ry="18"/>
<text text-anchor="middle" x="805.6924" y="-37.095" font-family="Times,serif" font-size="14.00" fill="#000000">Admin</text>
</g>
<!-- Visualizer&#45;&gt;Admin -->
<g id="edge13" class="edge">
<title>Visualizer&#45;&gt;Admin</title>
<path fill="none" stroke="#c0c0c0" d="M708.7155,-41.295C724.8496,-41.295 741.9768,-41.295 757.2761,-41.295"/>
<polygon fill="#c0c0c0" stroke="#c0c0c0" points="708.4963,-37.7951 698.4963,-41.295 708.4963,-44.7951 708.4963,-37.7951"/>
<polygon fill="#c0c0c0" stroke="#c0c0c0" points="757.5412,-44.7951 767.5412,-41.295 757.5411,-37.7951 757.5412,-44.7951"/>
</g>
</g>
</svg>
