<?xml version="1.0" encoding="UTF-8" standalone="no"?>
<!DOCTYPE svg PUBLIC "-//W3C//DTD SVG 1.1//EN"
 "http://www.w3.org/Graphics/SVG/1.1/DTD/svg11.dtd">
<!-- Generated by graphviz version 2.40.1 (20161225.0304)
 -->
<!-- Title: ladder99&#45;adapter Pages: 1 -->
<svg width="1005pt" height="851pt"
 viewBox="0.00 0.00 1005.47 850.71" xmlns="http://www.w3.org/2000/svg" xmlns:xlink="http://www.w3.org/1999/xlink">
<g id="graph0" class="graph" transform="scale(1 1) rotate(0) translate(4 846.7107)">
<title>ladder99&#45;adapter</title>
<polygon fill="#ffffff" stroke="transparent" points="-4,4 -4,-846.7107 1001.4658,-846.7107 1001.4658,4 -4,4"/>
<text text-anchor="middle" x="498.7329" y="-820.7107" font-family="Times,serif" font-size="20.00" fill="#000000">Ladder99 MTConnect data flow</text>
<text text-anchor="middle" x="498.7329" y="-796.7107" font-family="Times,serif" font-size="20.00" fill="#000000"> </text>
<!-- PA1 -->
<g id="node1" class="node">
<title>PA1</title>
<ellipse fill="#e6e6fa" stroke="#c0c0c0" cx="266.0251" cy="-757.295" rx="58.5886" ry="18"/>
<text text-anchor="middle" x="266.0251" y="-753.095" font-family="Times,serif" font-size="14.00" fill="#000000">CCS P&amp;A 1</text>
</g>
<!-- Broker1 -->
<g id="node6" class="node">
<title>Broker1</title>
<ellipse fill="#ffffff" stroke="#c0c0c0" cx="451.5649" cy="-757.295" rx="76.9837" ry="29.3315"/>
<text text-anchor="middle" x="451.5649" y="-761.495" font-family="Times,serif" font-size="14.00" fill="#000000">MQTT Broker 1</text>
<text text-anchor="middle" x="451.5649" y="-744.695" font-family="Times,serif" font-size="14.00" fill="#000000">(Mosquitto)</text>
</g>
<!-- PA1&#45;&gt;Broker1 -->
<g id="edge1" class="edge">
<title>PA1&#45;&gt;Broker1</title>
<path fill="none" stroke="#c0c0c0" d="M335.1728,-757.295C344.749,-757.295 354.685,-757.295 364.5344,-757.295"/>
<polygon fill="#c0c0c0" stroke="#c0c0c0" points="334.986,-753.7951 324.986,-757.295 334.9859,-760.7951 334.986,-753.7951"/>
<polygon fill="#c0c0c0" stroke="#c0c0c0" points="364.7485,-760.7951 374.7484,-757.295 364.7484,-753.7951 364.7485,-760.7951"/>
<text text-anchor="middle" x="349.8212" y="-760.895" font-family="Times,serif" font-size="12.00" fill="#4d4d4d"> &#160;TCP &#160;</text>
</g>
<!-- PA2 -->
<g id="node2" class="node">
<title>PA2</title>
<ellipse fill="#e6e6fa" stroke="#c0c0c0" cx="266.0251" cy="-589.295" rx="58.5886" ry="18"/>
<text text-anchor="middle" x="266.0251" y="-585.095" font-family="Times,serif" font-size="14.00" fill="#000000">CCS P&amp;A 2</text>
</g>
<!-- Broker2 -->
<g id="node7" class="node">
<title>Broker2</title>
<ellipse fill="#ffffff" stroke="#c0c0c0" cx="451.5649" cy="-589.295" rx="76.9837" ry="29.3315"/>
<text text-anchor="middle" x="451.5649" y="-593.495" font-family="Times,serif" font-size="14.00" fill="#000000">MQTT Broker 2</text>
<text text-anchor="middle" x="451.5649" y="-576.695" font-family="Times,serif" font-size="14.00" fill="#000000">(Mosquitto)</text>
</g>
<!-- PA2&#45;&gt;Broker2 -->
<g id="edge2" class="edge">
<title>PA2&#45;&gt;Broker2</title>
<path fill="none" stroke="#c0c0c0" d="M335.1728,-589.295C344.749,-589.295 354.685,-589.295 364.5344,-589.295"/>
<polygon fill="#c0c0c0" stroke="#c0c0c0" points="334.986,-585.7951 324.986,-589.295 334.9859,-592.7951 334.986,-585.7951"/>
<polygon fill="#c0c0c0" stroke="#c0c0c0" points="364.7485,-592.7951 374.7484,-589.295 364.7484,-585.7951 364.7485,-592.7951"/>
<text text-anchor="middle" x="349.8212" y="-592.895" font-family="Times,serif" font-size="12.00" fill="#4d4d4d"> &#160;TCP &#160;</text>
</g>
<!-- OldMachine -->
<g id="node3" class="node">
<title>OldMachine</title>
<ellipse fill="#e6e6fa" stroke="#c0c0c0" cx="68.9618" cy="-505.295" rx="68.9235" ry="18"/>
<text text-anchor="middle" x="68.9618" y="-501.095" font-family="Times,serif" font-size="14.00" fill="#000000">Old Machine 1</text>
</g>
<!-- PLC4X -->
<g id="node4" class="node">
<title>PLC4X</title>
<ellipse fill="#ffffff" stroke="#c0c0c0" cx="266.0251" cy="-505.295" rx="41.6253" ry="29.3315"/>
<text text-anchor="middle" x="266.0251" y="-509.495" font-family="Times,serif" font-size="14.00" fill="#000000">PLC4X</text>
<text text-anchor="middle" x="266.0251" y="-492.695" font-family="Times,serif" font-size="14.00" fill="#000000">(Java)</text>
</g>
<!-- OldMachine&#45;&gt;PLC4X -->
<g id="edge3" class="edge">
<title>OldMachine&#45;&gt;PLC4X</title>
<path fill="none" stroke="#c0c0c0" d="M138.1618,-505.295C163.1828,-505.295 190.9804,-505.295 214.2491,-505.295"/>
<polygon fill="#c0c0c0" stroke="#c0c0c0" points="214.258,-508.7951 224.258,-505.295 214.2579,-501.7951 214.258,-508.7951"/>
<text text-anchor="middle" x="172.5773" y="-523.295" font-family="Times,serif" font-size="12.00" fill="#4d4d4d">proprietary</text>
<text text-anchor="middle" x="172.5773" y="-508.895" font-family="Times,serif" font-size="12.00" fill="#4d4d4d">protocol</text>
</g>
<!-- Broker3 -->
<g id="node8" class="node">
<title>Broker3</title>
<ellipse fill="#ffffff" stroke="#c0c0c0" cx="451.5649" cy="-505.295" rx="76.9837" ry="29.3315"/>
<text text-anchor="middle" x="451.5649" y="-509.495" font-family="Times,serif" font-size="14.00" fill="#000000">MQTT Broker 3</text>
<text text-anchor="middle" x="451.5649" y="-492.695" font-family="Times,serif" font-size="14.00" fill="#000000">(Mosquitto)</text>
</g>
<!-- PLC4X&#45;&gt;Broker3 -->
<g id="edge4" class="edge">
<title>PLC4X&#45;&gt;Broker3</title>
<path fill="none" stroke="#c0c0c0" d="M307.6638,-505.295C324.5729,-505.295 344.7778,-505.295 364.6253,-505.295"/>
<polygon fill="#c0c0c0" stroke="#c0c0c0" points="364.6369,-508.7951 374.6369,-505.295 364.6368,-501.7951 364.6369,-508.7951"/>
</g>
<!-- Kepware -->
<g id="node5" class="node">
<title>Kepware</title>
<ellipse fill="#ffffff" stroke="#c0c0c0" cx="451.5649" cy="-673.295" rx="55.6916" ry="29.3315"/>
<text text-anchor="middle" x="451.5649" y="-677.495" font-family="Times,serif" font-size="14.00" fill="#000000">Kepware</text>
<text text-anchor="middle" x="451.5649" y="-660.695" font-family="Times,serif" font-size="14.00" fill="#000000">(Windows)</text>
</g>
<!-- Adapter -->
<g id="node10" class="node">
<title>Adapter</title>
<ellipse fill="#ffffff" stroke="#c0c0c0" cx="667.4664" cy="-589.295" rx="60.5759" ry="53.3494"/>
<text text-anchor="middle" x="667.4664" y="-610.295" font-family="Times,serif" font-size="14.00" fill="#000000">MTConnect</text>
<text text-anchor="middle" x="667.4664" y="-593.495" font-family="Times,serif" font-size="14.00" fill="#000000">Adapter</text>
<text text-anchor="middle" x="667.4664" y="-576.695" font-family="Times,serif" font-size="14.00" fill="#000000">with plugins</text>
<text text-anchor="middle" x="667.4664" y="-559.895" font-family="Times,serif" font-size="14.00" fill="#000000">(NodeJS)</text>
</g>
<!-- Kepware&#45;&gt;Adapter -->
<g id="edge5" class="edge">
<title>Kepware&#45;&gt;Adapter</title>
<path fill="none" stroke="#c0c0c0" d="M498.2104,-656.8722C524.0086,-647.6225 556.5698,-635.6733 585.3107,-624.295 591.1759,-621.9731 597.2519,-619.5051 603.3237,-616.9962"/>
<polygon fill="#c0c0c0" stroke="#c0c0c0" points="604.9461,-620.1119 612.8307,-613.0349 602.2537,-613.6504 604.9461,-620.1119"/>
<text text-anchor="middle" x="560.8085" y="-660.295" font-family="Times,serif" font-size="12.00" fill="#4d4d4d">text</text>
<text text-anchor="middle" x="560.8085" y="-645.895" font-family="Times,serif" font-size="12.00" fill="#4d4d4d">TCP</text>
</g>
<!-- Broker1&#45;&gt;Adapter -->
<g id="edge7" class="edge">
<title>Broker1&#45;&gt;Adapter</title>
<path fill="none" stroke="#c0c0c0" d="M505.8442,-728.3582C513.4475,-724.0819 521.1157,-719.6481 528.3063,-715.295 554.3537,-699.5265 562.0981,-697 585.3107,-677.295 598.7637,-665.8749 612.2791,-652.4158 624.3525,-639.5048"/>
<polygon fill="#c0c0c0" stroke="#c0c0c0" points="504.0165,-725.3698 496.981,-733.2915 507.4209,-731.4862 504.0165,-725.3698"/>
<polygon fill="#c0c0c0" stroke="#c0c0c0" points="627.079,-641.711 631.2831,-631.9859 621.932,-636.9666 627.079,-641.711"/>
<text text-anchor="middle" x="560.8085" y="-727.295" font-family="Times,serif" font-size="12.00" fill="#4d4d4d">MQTT</text>
<text text-anchor="middle" x="560.8085" y="-712.895" font-family="Times,serif" font-size="12.00" fill="#4d4d4d">TCP 1883</text>
</g>
<!-- Broker2&#45;&gt;Adapter -->
<g id="edge8" class="edge">
<title>Broker2&#45;&gt;Adapter</title>
<path fill="none" stroke="#c0c0c0" d="M538.6374,-589.295C557.9104,-589.295 578.1064,-589.295 596.64,-589.295"/>
<polygon fill="#c0c0c0" stroke="#c0c0c0" points="538.596,-585.7951 528.5959,-589.295 538.5959,-592.7951 538.596,-585.7951"/>
<polygon fill="#c0c0c0" stroke="#c0c0c0" points="596.7491,-592.7951 606.749,-589.295 596.749,-585.7951 596.7491,-592.7951"/>
<text text-anchor="middle" x="560.8085" y="-607.295" font-family="Times,serif" font-size="12.00" fill="#4d4d4d">MQTT</text>
<text text-anchor="middle" x="560.8085" y="-592.895" font-family="Times,serif" font-size="12.00" fill="#4d4d4d">TCP 1884</text>
</g>
<!-- Broker3&#45;&gt;Adapter -->
<g id="edge9" class="edge">
<title>Broker3&#45;&gt;Adapter</title>
<path fill="none" stroke="#c0c0c0" d="M517.5286,-528.8454C539.2057,-536.7748 563.3653,-545.8165 585.3107,-554.495 591.1716,-556.8128 597.2447,-559.2728 603.3146,-561.7714"/>
<polygon fill="#c0c0c0" stroke="#c0c0c0" points="518.6775,-525.539 508.0835,-525.403 516.2804,-532.1158 518.6775,-525.539"/>
<polygon fill="#c0c0c0" stroke="#c0c0c0" points="602.2415,-565.1154 612.8194,-565.7146 604.9239,-558.6497 602.2415,-565.1154"/>
<text text-anchor="middle" x="560.8085" y="-572.295" font-family="Times,serif" font-size="12.00" fill="#4d4d4d">MQTT</text>
<text text-anchor="middle" x="560.8085" y="-557.895" font-family="Times,serif" font-size="12.00" fill="#4d4d4d">TCP 1885</text>
</g>
<!-- OldMachine3 -->
<g id="node9" class="node">
<title>OldMachine3</title>
<ellipse fill="#e6e6fa" stroke="#c0c0c0" cx="451.5649" cy="-433.295" rx="68.9235" ry="18"/>
<text text-anchor="middle" x="451.5649" y="-429.095" font-family="Times,serif" font-size="14.00" fill="#000000">Old Machine 3</text>
</g>
<!-- OldMachine3&#45;&gt;Adapter -->
<g id="edge6" class="edge">
<title>OldMachine3&#45;&gt;Adapter</title>
<path fill="none" stroke="#c0c0c0" d="M493.3199,-447.7198C504.8799,-452.2202 517.2761,-457.5312 528.3063,-463.295 555.3363,-477.4196 562.0732,-481.7431 585.3107,-501.495 598.6071,-512.7969 611.9799,-526.0797 623.9615,-538.8446"/>
<polygon fill="#c0c0c0" stroke="#c0c0c0" points="621.4832,-541.3196 630.8443,-546.2816 626.6207,-536.565 621.4832,-541.3196"/>
<text text-anchor="middle" x="560.8085" y="-520.295" font-family="Times,serif" font-size="12.00" fill="#4d4d4d">text</text>
<text text-anchor="middle" x="560.8085" y="-505.895" font-family="Times,serif" font-size="12.00" fill="#4d4d4d">TCP 1887</text>
</g>
<!-- DiodeSender -->
<g id="node11" class="node">
<title>DiodeSender</title>
<ellipse fill="#ffffff" stroke="#c0c0c0" cx="914.0462" cy="-581.295" rx="83.3394" ry="29.3315"/>
<text text-anchor="middle" x="914.0462" y="-585.495" font-family="Times,serif" font-size="14.00" fill="#000000">Diode Sender</text>
<text text-anchor="middle" x="914.0462" y="-568.695" font-family="Times,serif" font-size="14.00" fill="#000000">(Java+RabbitMQ)</text>
</g>
<!-- Adapter&#45;&gt;DiodeSender -->
<g id="edge11" class="edge">
<title>Adapter&#45;&gt;DiodeSender</title>
<path fill="none" stroke="#c0c0c0" stroke-dasharray="1,5" d="M738.1189,-587.0028C763.7606,-586.1709 793.1421,-585.2176 820.4558,-584.3315"/>
<polygon fill="#c0c0c0" stroke="#c0c0c0" points="737.9837,-583.5052 728.1024,-587.3278 738.2107,-590.5016 737.9837,-583.5052"/>
<polygon fill="#c0c0c0" stroke="#c0c0c0" points="820.9294,-587.818 830.8106,-583.9955 820.7024,-580.8217 820.9294,-587.818"/>
<text text-anchor="middle" x="786.1243" y="-604.295" font-family="Times,serif" font-size="12.00" fill="#4d4d4d">SHDR / &#160;&#160;</text>
<text text-anchor="middle" x="786.1243" y="-589.895" font-family="Times,serif" font-size="12.00" fill="#4d4d4d">TCP 7878 &#160;&#160;&#160;&#160;&#160;</text>
</g>
<!-- Agent -->
<g id="node13" class="node">
<title>Agent</title>
<ellipse fill="#ffffff" stroke="#c0c0c0" cx="667.4664" cy="-441.295" rx="74.3117" ry="41.0911"/>
<text text-anchor="middle" x="667.4664" y="-453.895" font-family="Times,serif" font-size="14.00" fill="#000000">MTConnect</text>
<text text-anchor="middle" x="667.4664" y="-437.095" font-family="Times,serif" font-size="14.00" fill="#000000">Agent</text>
<text text-anchor="middle" x="667.4664" y="-420.295" font-family="Times,serif" font-size="14.00" fill="#000000">(C++/cppagent)</text>
</g>
<!-- Adapter&#45;&gt;Agent -->
<g id="edge10" class="edge">
<title>Adapter&#45;&gt;Agent</title>
<path fill="none" stroke="#c0c0c0" d="M667.4664,-525.7997C667.4664,-514.9425 667.4664,-503.7775 667.4664,-493.2651"/>
<polygon fill="#c0c0c0" stroke="#c0c0c0" points="663.9665,-526.0833 667.4664,-536.0833 670.9665,-526.0834 663.9665,-526.0833"/>
<polygon fill="#c0c0c0" stroke="#c0c0c0" points="670.9665,-492.9151 667.4664,-482.9151 663.9665,-492.9152 670.9665,-492.9151"/>
<text text-anchor="middle" x="650.0664" y="-512.9553" font-family="Times,serif" font-size="12.00" fill="#4d4d4d">SHDR / &#160;&#160;</text>
<text text-anchor="middle" x="650.0664" y="-498.5553" font-family="Times,serif" font-size="12.00" fill="#4d4d4d">TCP 7878 &#160;&#160;&#160;&#160;&#160;</text>
</g>
<!-- DiodeReceiver -->
<g id="node12" class="node">
<title>DiodeReceiver</title>
<ellipse fill="#ffffff" stroke="#c0c0c0" cx="914.0462" cy="-463.295" rx="83.3394" ry="29.3315"/>
<text text-anchor="middle" x="914.0462" y="-467.495" font-family="Times,serif" font-size="14.00" fill="#000000">Diode Receiver</text>
<text text-anchor="middle" x="914.0462" y="-450.695" font-family="Times,serif" font-size="14.00" fill="#000000">(Java+RabbitMQ)</text>
</g>
<!-- DiodeSender&#45;&gt;DiodeReceiver -->
<g id="edge12" class="edge">
<title>DiodeSender&#45;&gt;DiodeReceiver</title>
<path fill="none" stroke="#c0c0c0" stroke-dasharray="1,5" d="M914.0462,-551.7898C914.0462,-537.0015 914.0462,-518.885 914.0462,-502.904"/>
<polygon fill="#c0c0c0" stroke="#c0c0c0" points="917.5463,-502.767 914.0462,-492.767 910.5463,-502.7671 917.5463,-502.767"/>
<text text-anchor="middle" x="903.8462" y="-518.695" font-family="Times,serif" font-size="12.00" fill="#4d4d4d">UDP &#160;&#160;&#160;</text>
</g>
<!-- DiodeReceiver&#45;&gt;Agent -->
<g id="edge13" class="edge">
<title>DiodeReceiver&#45;&gt;Agent</title>
<path fill="none" stroke="#c0c0c0" stroke-dasharray="1,5" d="M832.8211,-456.0481C806.4936,-453.6991 777.2585,-451.0908 750.7816,-448.7285"/>
<polygon fill="#c0c0c0" stroke="#c0c0c0" points="751.0524,-445.2388 740.7809,-447.8362 750.4303,-452.2111 751.0524,-445.2388"/>
<text text-anchor="middle" x="786.1243" y="-473.295" font-family="Times,serif" font-size="12.00" fill="#4d4d4d">SHDR / &#160;&#160;&#160;</text>
<text text-anchor="middle" x="786.1243" y="-458.895" font-family="Times,serif" font-size="12.00" fill="#4d4d4d">TCP 7878 &#160;&#160;&#160;&#160;&#160;&#160;&#160;</text>
</g>
<!-- Application -->
<g id="node14" class="node">
<title>Application</title>
<ellipse fill="#ffffff" stroke="#c0c0c0" cx="667.4664" cy="-305.295" rx="59.3044" ry="41.0911"/>
<text text-anchor="middle" x="667.4664" y="-317.895" font-family="Times,serif" font-size="14.00" fill="#000000">MTConnect</text>
<text text-anchor="middle" x="667.4664" y="-301.095" font-family="Times,serif" font-size="14.00" fill="#000000">Application</text>
<text text-anchor="middle" x="667.4664" y="-284.295" font-family="Times,serif" font-size="14.00" fill="#000000">(NodeJS)</text>
</g>
<!-- Agent&#45;&gt;Application -->
<g id="edge14" class="edge">
<title>Agent&#45;&gt;Application</title>
<path fill="none" stroke="#c0c0c0" d="M667.4664,-389.503C667.4664,-378.817 667.4664,-367.564 667.4664,-356.8852"/>
<polygon fill="#c0c0c0" stroke="#c0c0c0" points="663.9665,-389.5373 667.4664,-399.5373 670.9665,-389.5374 663.9665,-389.5373"/>
<polygon fill="#c0c0c0" stroke="#c0c0c0" points="670.9665,-356.8385 667.4664,-346.8385 663.9665,-356.8385 670.9665,-356.8385"/>
<text text-anchor="middle" x="650.0664" y="-376.895" font-family="Times,serif" font-size="12.00" fill="#4d4d4d">XML / </text>
<text text-anchor="middle" x="650.0664" y="-362.495" font-family="Times,serif" font-size="12.00" fill="#4d4d4d">HTTP 5000 &#160;&#160;&#160;&#160;&#160;&#160;&#160;&#160;&#160;</text>
</g>
<!-- Database -->
<g id="node15" class="node">
<title>Database</title>
<ellipse fill="#ffffff" stroke="#c0c0c0" cx="667.4664" cy="-173.295" rx="69.0714" ry="41.0911"/>
<text text-anchor="middle" x="667.4664" y="-185.895" font-family="Times,serif" font-size="14.00" fill="#000000">Database</text>
<text text-anchor="middle" x="667.4664" y="-169.095" font-family="Times,serif" font-size="14.00" fill="#000000">(InfluxDB/</text>
<text text-anchor="middle" x="667.4664" y="-152.295" font-family="Times,serif" font-size="14.00" fill="#000000">TimescaleDB)</text>
</g>
<!-- Application&#45;&gt;Database -->
<g id="edge15" class="edge">
<title>Application&#45;&gt;Database</title>
<path fill="none" stroke="#c0c0c0" d="M667.4664,-253.639C667.4664,-244.1484 667.4664,-234.6577 667.4664,-225.1671"/>
<polygon fill="#c0c0c0" stroke="#c0c0c0" points="663.9665,-253.9372 667.4664,-263.9373 670.9665,-253.9373 663.9665,-253.9372"/>
<polygon fill="#c0c0c0" stroke="#c0c0c0" points="670.9665,-224.8028 667.4664,-214.8028 663.9665,-224.8029 670.9665,-224.8028"/>
</g>
<!-- Visualizer -->
<g id="node16" class="node">
<title>Visualizer</title>
<ellipse fill="#ffffff" stroke="#c0c0c0" cx="667.4664" cy="-41.295" rx="51.9834" ry="41.0911"/>
<text text-anchor="middle" x="667.4664" y="-53.895" font-family="Times,serif" font-size="14.00" fill="#000000">Visualizer</text>
<text text-anchor="middle" x="667.4664" y="-37.095" font-family="Times,serif" font-size="14.00" fill="#000000">(Grafana/</text>
<text text-anchor="middle" x="667.4664" y="-20.295" font-family="Times,serif" font-size="14.00" fill="#000000">Superset)</text>
</g>
<!-- Database&#45;&gt;Visualizer -->
<g id="edge16" class="edge">
<title>Database&#45;&gt;Visualizer</title>
<path fill="none" stroke="#c0c0c0" d="M667.4664,-121.639C667.4664,-112.1484 667.4664,-102.6577 667.4664,-93.1671"/>
<polygon fill="#c0c0c0" stroke="#c0c0c0" points="663.9665,-121.9372 667.4664,-131.9373 670.9665,-121.9373 663.9665,-121.9372"/>
<polygon fill="#c0c0c0" stroke="#c0c0c0" points="670.9665,-92.8028 667.4664,-82.8028 663.9665,-92.8029 670.9665,-92.8028"/>
</g>
<!-- Cloud -->
<g id="node17" class="node">
<title>Cloud</title>
<ellipse fill="#ffffff" stroke="#c0c0c0" cx="914.0462" cy="-173.295" rx="68.4585" ry="29.3315"/>
<text text-anchor="middle" x="914.0462" y="-177.495" font-family="Times,serif" font-size="14.00" fill="#000000">Cloud Storage</text>
<text text-anchor="middle" x="914.0462" y="-160.695" font-family="Times,serif" font-size="14.00" fill="#000000">(AWS/GCP)</text>
</g>
<!-- Database&#45;&gt;Cloud -->
<g id="edge17" class="edge">
<title>Database&#45;&gt;Cloud</title>
<path fill="none" stroke="#c0c0c0" d="M736.8088,-173.295C767.5287,-173.295 803.8147,-173.295 835.5275,-173.295"/>
<polygon fill="#c0c0c0" stroke="#c0c0c0" points="835.6504,-176.7951 845.6504,-173.295 835.6503,-169.7951 835.6504,-176.7951"/>
</g>
<!-- Admin -->
<g id="node18" class="node">
<title>Admin</title>
<ellipse fill="#ffffe0" stroke="#c0c0c0" cx="914.0462" cy="-41.295" rx="37.7217" ry="18"/>
<text text-anchor="middle" x="914.0462" y="-37.095" font-family="Times,serif" font-size="14.00" fill="#000000">Admin</text>
</g>
<!-- Visualizer&#45;&gt;Admin -->
<g id="edge18" class="edge">
<title>Visualizer&#45;&gt;Admin</title>
<path fill="none" stroke="#c0c0c0" d="M729.6169,-41.295C771.8374,-41.295 826.8657,-41.295 865.7909,-41.295"/>
<polygon fill="#c0c0c0" stroke="#c0c0c0" points="729.4584,-37.7951 719.4584,-41.295 729.4583,-44.7951 729.4584,-37.7951"/>
<polygon fill="#c0c0c0" stroke="#c0c0c0" points="865.8198,-44.7951 875.8198,-41.295 865.8198,-37.7951 865.8198,-44.7951"/>
</g>
</g>
</svg>
