<?xml version="1.0" encoding="UTF-8" standalone="no"?>
<!DOCTYPE svg PUBLIC "-//W3C//DTD SVG 1.1//EN"
 "http://www.w3.org/Graphics/SVG/1.1/DTD/svg11.dtd">
<!-- Generated by graphviz version 2.40.1 (20161225.0304)
 -->
<!-- Title: ladder99&#45;adapter Pages: 1 -->
<svg width="999pt" height="797pt"
 viewBox="0.00 0.00 998.79 796.71" xmlns="http://www.w3.org/2000/svg" xmlns:xlink="http://www.w3.org/1999/xlink">
<g id="graph0" class="graph" transform="scale(1 1) rotate(0) translate(4 792.7107)">
<title>ladder99&#45;adapter</title>
<polygon fill="#ffffff" stroke="transparent" points="-4,4 -4,-792.7107 994.7926,-792.7107 994.7926,4 -4,4"/>
<text text-anchor="middle" x="495.3963" y="-766.7107" font-family="Times,serif" font-size="20.00" fill="#000000">Ladder99 MTConnect data flow</text>
<text text-anchor="middle" x="495.3963" y="-742.7107" font-family="Times,serif" font-size="20.00" fill="#000000"> </text>
<!-- PA1 -->
<g id="node1" class="node">
<title>PA1</title>
<ellipse fill="#e6e6fa" stroke="#c0c0c0" cx="266.0251" cy="-703.295" rx="58.5886" ry="18"/>
<text text-anchor="middle" x="266.0251" y="-699.095" font-family="Times,serif" font-size="14.00" fill="#000000">CCS P&amp;A 1</text>
</g>
<!-- Broker1 -->
<g id="node7" class="node">
<title>Broker1</title>
<ellipse fill="#ffffff" stroke="#c0c0c0" cx="444.8917" cy="-703.295" rx="76.9837" ry="29.3315"/>
<text text-anchor="middle" x="444.8917" y="-707.495" font-family="Times,serif" font-size="14.00" fill="#000000">MQTT Broker 1</text>
<text text-anchor="middle" x="444.8917" y="-690.695" font-family="Times,serif" font-size="14.00" fill="#000000">(Mosquitto)</text>
</g>
<!-- PA1&#45;&gt;Broker1 -->
<g id="edge1" class="edge">
<title>PA1&#45;&gt;Broker1</title>
<path fill="none" stroke="#c0c0c0" d="M335.2386,-703.295C342.7067,-703.295 350.3732,-703.295 358.0149,-703.295"/>
<polygon fill="#c0c0c0" stroke="#c0c0c0" points="335.0884,-699.7951 325.0884,-703.295 335.0884,-706.7951 335.0884,-699.7951"/>
<polygon fill="#c0c0c0" stroke="#c0c0c0" points="358.0276,-706.7951 368.0275,-703.295 358.0275,-699.7951 358.0276,-706.7951"/>
<text text-anchor="middle" x="346.4846" y="-706.895" font-family="Times,serif" font-size="12.00" fill="#4d4d4d">TCP?</text>
</g>
<!-- PA2 -->
<g id="node2" class="node">
<title>PA2</title>
<ellipse fill="#e6e6fa" stroke="#c0c0c0" cx="266.0251" cy="-619.295" rx="58.5886" ry="18"/>
<text text-anchor="middle" x="266.0251" y="-615.095" font-family="Times,serif" font-size="14.00" fill="#000000">CCS P&amp;A 2</text>
</g>
<!-- Broker2 -->
<g id="node8" class="node">
<title>Broker2</title>
<ellipse fill="#ffffff" stroke="#c0c0c0" cx="444.8917" cy="-619.295" rx="76.9837" ry="29.3315"/>
<text text-anchor="middle" x="444.8917" y="-623.495" font-family="Times,serif" font-size="14.00" fill="#000000">MQTT Broker 2</text>
<text text-anchor="middle" x="444.8917" y="-606.695" font-family="Times,serif" font-size="14.00" fill="#000000">(Mosquitto)</text>
</g>
<!-- PA2&#45;&gt;Broker2 -->
<g id="edge2" class="edge">
<title>PA2&#45;&gt;Broker2</title>
<path fill="none" stroke="#c0c0c0" d="M335.2386,-619.295C342.7067,-619.295 350.3732,-619.295 358.0149,-619.295"/>
<polygon fill="#c0c0c0" stroke="#c0c0c0" points="335.0884,-615.7951 325.0884,-619.295 335.0884,-622.7951 335.0884,-615.7951"/>
<polygon fill="#c0c0c0" stroke="#c0c0c0" points="358.0276,-622.7951 368.0275,-619.295 358.0275,-615.7951 358.0276,-622.7951"/>
<text text-anchor="middle" x="346.4846" y="-622.895" font-family="Times,serif" font-size="12.00" fill="#4d4d4d">TCP?</text>
</g>
<!-- OldMachine -->
<g id="node3" class="node">
<title>OldMachine</title>
<ellipse fill="#e6e6fa" stroke="#c0c0c0" cx="68.9618" cy="-535.295" rx="61.9389" ry="18"/>
<text text-anchor="middle" x="68.9618" y="-531.095" font-family="Times,serif" font-size="14.00" fill="#000000">Old Machine</text>
</g>
<!-- PLC4X -->
<g id="node4" class="node">
<title>PLC4X</title>
<ellipse fill="#ffffff" stroke="#c0c0c0" cx="266.0251" cy="-535.295" rx="41.6253" ry="29.3315"/>
<text text-anchor="middle" x="266.0251" y="-539.495" font-family="Times,serif" font-size="14.00" fill="#000000">PLC4X</text>
<text text-anchor="middle" x="266.0251" y="-522.695" font-family="Times,serif" font-size="14.00" fill="#000000">(Java)</text>
</g>
<!-- OldMachine&#45;&gt;PLC4X -->
<g id="edge3" class="edge">
<title>OldMachine&#45;&gt;PLC4X</title>
<path fill="none" stroke="#c0c0c0" d="M130.7731,-535.295C157.559,-535.295 188.5698,-535.295 214.1351,-535.295"/>
<polygon fill="#c0c0c0" stroke="#c0c0c0" points="214.3667,-538.7951 224.3666,-535.295 214.3666,-531.7951 214.3667,-538.7951"/>
<text text-anchor="middle" x="172.5773" y="-553.295" font-family="Times,serif" font-size="12.00" fill="#4d4d4d">proprietary</text>
<text text-anchor="middle" x="172.5773" y="-538.895" font-family="Times,serif" font-size="12.00" fill="#4d4d4d">protocol</text>
</g>
<!-- Broker3 -->
<g id="node9" class="node">
<title>Broker3</title>
<ellipse fill="#ffffff" stroke="#c0c0c0" cx="444.8917" cy="-535.295" rx="76.9837" ry="29.3315"/>
<text text-anchor="middle" x="444.8917" y="-539.495" font-family="Times,serif" font-size="14.00" fill="#000000">MQTT Broker 3</text>
<text text-anchor="middle" x="444.8917" y="-522.695" font-family="Times,serif" font-size="14.00" fill="#000000">(Mosquitto)</text>
</g>
<!-- PLC4X&#45;&gt;Broker3 -->
<g id="edge4" class="edge">
<title>PLC4X&#45;&gt;Broker3</title>
<path fill="none" stroke="#c0c0c0" d="M307.9614,-535.295C322.9804,-535.295 340.5171,-535.295 357.9288,-535.295"/>
<polygon fill="#c0c0c0" stroke="#c0c0c0" points="358.1462,-538.7951 368.1462,-535.295 358.1462,-531.7951 358.1462,-538.7951"/>
<text text-anchor="middle" x="346.4846" y="-538.895" font-family="Times,serif" font-size="12.00" fill="#4d4d4d">?</text>
</g>
<!-- OldMachine2 -->
<g id="node5" class="node">
<title>OldMachine2</title>
<ellipse fill="#e6e6fa" stroke="#c0c0c0" cx="68.9618" cy="-451.295" rx="68.9235" ry="18"/>
<text text-anchor="middle" x="68.9618" y="-447.095" font-family="Times,serif" font-size="14.00" fill="#000000">Old Machine 2</text>
</g>
<!-- Kepware -->
<g id="node6" class="node">
<title>Kepware</title>
<ellipse fill="#ffffff" stroke="#c0c0c0" cx="266.0251" cy="-451.295" rx="55.6916" ry="29.3315"/>
<text text-anchor="middle" x="266.0251" y="-455.495" font-family="Times,serif" font-size="14.00" fill="#000000">Kepware</text>
<text text-anchor="middle" x="266.0251" y="-438.695" font-family="Times,serif" font-size="14.00" fill="#000000">(Windows)</text>
</g>
<!-- OldMachine2&#45;&gt;Kepware -->
<g id="edge5" class="edge">
<title>OldMachine2&#45;&gt;Kepware</title>
<path fill="none" stroke="#c0c0c0" d="M138.1618,-451.295C158.1831,-451.295 179.9822,-451.295 199.8162,-451.295"/>
<polygon fill="#c0c0c0" stroke="#c0c0c0" points="199.9892,-454.7951 209.9892,-451.295 199.9892,-447.7951 199.9892,-454.7951"/>
<text text-anchor="middle" x="172.5773" y="-469.295" font-family="Times,serif" font-size="12.00" fill="#4d4d4d">proprietary</text>
<text text-anchor="middle" x="172.5773" y="-454.895" font-family="Times,serif" font-size="12.00" fill="#4d4d4d">protocol</text>
</g>
<!-- Broker4 -->
<g id="node10" class="node">
<title>Broker4</title>
<ellipse fill="#ffffff" stroke="#c0c0c0" cx="444.8917" cy="-451.295" rx="76.9837" ry="29.3315"/>
<text text-anchor="middle" x="444.8917" y="-455.495" font-family="Times,serif" font-size="14.00" fill="#000000">MQTT Broker 4</text>
<text text-anchor="middle" x="444.8917" y="-438.695" font-family="Times,serif" font-size="14.00" fill="#000000">(Mosquitto)</text>
</g>
<!-- Kepware&#45;&gt;Broker4 -->
<g id="edge6" class="edge">
<title>Kepware&#45;&gt;Broker4</title>
<path fill="none" stroke="#c0c0c0" d="M322.1288,-451.295C333.4947,-451.295 345.6986,-451.295 357.8438,-451.295"/>
<polygon fill="#c0c0c0" stroke="#c0c0c0" points="358.0123,-454.7951 368.0123,-451.295 358.0123,-447.7951 358.0123,-454.7951"/>
<text text-anchor="middle" x="346.4846" y="-454.895" font-family="Times,serif" font-size="12.00" fill="#4d4d4d">TCP</text>
</g>
<!-- Adapter -->
<g id="node11" class="node">
<title>Adapter</title>
<ellipse fill="#ffffff" stroke="#c0c0c0" cx="660.7932" cy="-577.295" rx="59.3044" ry="41.0911"/>
<text text-anchor="middle" x="660.7932" y="-589.895" font-family="Times,serif" font-size="14.00" fill="#000000">MTConnect</text>
<text text-anchor="middle" x="660.7932" y="-573.095" font-family="Times,serif" font-size="14.00" fill="#000000">Adapter</text>
<text text-anchor="middle" x="660.7932" y="-556.295" font-family="Times,serif" font-size="14.00" fill="#000000">(NodeJS)</text>
</g>
<!-- Broker1&#45;&gt;Adapter -->
<g id="edge7" class="edge">
<title>Broker1&#45;&gt;Adapter</title>
<path fill="none" stroke="#c0c0c0" d="M503.7304,-676.316C527.4546,-664.7994 554.7968,-650.703 578.6375,-636.295 589.8951,-629.4917 601.5985,-621.6183 612.523,-613.8836"/>
<polygon fill="#c0c0c0" stroke="#c0c0c0" points="501.9851,-673.2716 494.4907,-680.7606 505.0195,-679.5798 501.9851,-673.2716"/>
<polygon fill="#c0c0c0" stroke="#c0c0c0" points="614.6184,-616.6879 620.705,-608.0159 610.539,-610.9995 614.6184,-616.6879"/>
<text text-anchor="middle" x="554.1353" y="-679.295" font-family="Times,serif" font-size="12.00" fill="#4d4d4d">MQTT</text>
<text text-anchor="middle" x="554.1353" y="-664.895" font-family="Times,serif" font-size="12.00" fill="#4d4d4d">TCP 1883</text>
</g>
<!-- Broker2&#45;&gt;Adapter -->
<g id="edge8" class="edge">
<title>Broker2&#45;&gt;Adapter</title>
<path fill="none" stroke="#c0c0c0" d="M523.5164,-603.9999C546.494,-599.53 571.3897,-594.687 593.5906,-590.3682"/>
<polygon fill="#c0c0c0" stroke="#c0c0c0" points="522.6486,-600.6031 513.5009,-605.9483 523.9853,-607.4742 522.6486,-600.6031"/>
<polygon fill="#c0c0c0" stroke="#c0c0c0" points="594.4371,-593.7692 603.5848,-588.424 593.1004,-586.898 594.4371,-593.7692"/>
<text text-anchor="middle" x="554.1353" y="-619.295" font-family="Times,serif" font-size="12.00" fill="#4d4d4d">MQTT</text>
<text text-anchor="middle" x="554.1353" y="-604.895" font-family="Times,serif" font-size="12.00" fill="#4d4d4d">TCP 1884</text>
</g>
<!-- Broker3&#45;&gt;Adapter -->
<g id="edge9" class="edge">
<title>Broker3&#45;&gt;Adapter</title>
<path fill="none" stroke="#c0c0c0" d="M525.9581,-548.644C543.3693,-551.7102 561.6414,-555.0788 578.6375,-558.495 583.9272,-559.5583 589.3976,-560.7053 594.8869,-561.8898"/>
<polygon fill="#c0c0c0" stroke="#c0c0c0" points="526.2751,-545.1465 515.8223,-546.8755 525.0718,-552.0423 526.2751,-545.1465"/>
<polygon fill="#c0c0c0" stroke="#c0c0c0" points="594.2356,-565.3301 604.7531,-564.0527 595.7346,-558.4925 594.2356,-565.3301"/>
<text text-anchor="middle" x="554.1353" y="-576.295" font-family="Times,serif" font-size="12.00" fill="#4d4d4d">MQTT</text>
<text text-anchor="middle" x="554.1353" y="-561.895" font-family="Times,serif" font-size="12.00" fill="#4d4d4d">TCP 1885</text>
</g>
<!-- Broker4&#45;&gt;Adapter -->
<g id="edge10" class="edge">
<title>Broker4&#45;&gt;Adapter</title>
<path fill="none" stroke="#c0c0c0" d="M506.7158,-477.2075C529.845,-487.7492 555.9862,-500.6993 578.6375,-514.495 590.729,-521.8593 603.1669,-530.6458 614.5905,-539.2793"/>
<polygon fill="#c0c0c0" stroke="#c0c0c0" points="507.8999,-473.9024 497.3443,-472.9916 505.028,-480.2862 507.8999,-473.9024"/>
<polygon fill="#c0c0c0" stroke="#c0c0c0" points="612.6474,-542.2001 622.7099,-545.5164 616.9117,-536.6489 612.6474,-542.2001"/>
<text text-anchor="middle" x="554.1353" y="-532.295" font-family="Times,serif" font-size="12.00" fill="#4d4d4d">MQTT</text>
<text text-anchor="middle" x="554.1353" y="-517.895" font-family="Times,serif" font-size="12.00" fill="#4d4d4d">TCP 1886</text>
</g>
<!-- DiodeSender -->
<g id="node12" class="node">
<title>DiodeSender</title>
<ellipse fill="#ffffff" stroke="#c0c0c0" cx="907.373" cy="-572.295" rx="83.3394" ry="29.3315"/>
<text text-anchor="middle" x="907.373" y="-576.495" font-family="Times,serif" font-size="14.00" fill="#000000">Diode Sender</text>
<text text-anchor="middle" x="907.373" y="-559.695" font-family="Times,serif" font-size="14.00" fill="#000000">(Java+RabbitMQ)</text>
</g>
<!-- Adapter&#45;&gt;DiodeSender -->
<g id="edge12" class="edge">
<title>Adapter&#45;&gt;DiodeSender</title>
<path fill="none" stroke="#c0c0c0" stroke-dasharray="1,5" d="M730.2342,-575.887C756.1356,-575.3617 785.9831,-574.7565 813.7065,-574.1943"/>
<polygon fill="#c0c0c0" stroke="#c0c0c0" points="730.096,-572.3889 720.169,-576.091 730.238,-579.3875 730.096,-572.3889"/>
<polygon fill="#c0c0c0" stroke="#c0c0c0" points="813.8861,-577.6915 823.8131,-573.9894 813.7441,-570.693 813.8861,-577.6915"/>
<text text-anchor="middle" x="779.4511" y="-593.295" font-family="Times,serif" font-size="12.00" fill="#4d4d4d">SHDR / &#160;&#160;</text>
<text text-anchor="middle" x="779.4511" y="-578.895" font-family="Times,serif" font-size="12.00" fill="#4d4d4d">TCP 7878 &#160;&#160;&#160;&#160;&#160;</text>
</g>
<!-- Agent -->
<g id="node14" class="node">
<title>Agent</title>
<ellipse fill="#ffffff" stroke="#c0c0c0" cx="660.7932" cy="-441.295" rx="74.3117" ry="41.0911"/>
<text text-anchor="middle" x="660.7932" y="-453.895" font-family="Times,serif" font-size="14.00" fill="#000000">MTConnect</text>
<text text-anchor="middle" x="660.7932" y="-437.095" font-family="Times,serif" font-size="14.00" fill="#000000">Agent</text>
<text text-anchor="middle" x="660.7932" y="-420.295" font-family="Times,serif" font-size="14.00" fill="#000000">(C++/cppagent)</text>
</g>
<!-- Adapter&#45;&gt;Agent -->
<g id="edge11" class="edge">
<title>Adapter&#45;&gt;Agent</title>
<path fill="none" stroke="#c0c0c0" d="M660.7932,-525.503C660.7932,-514.817 660.7932,-503.564 660.7932,-492.8852"/>
<polygon fill="#c0c0c0" stroke="#c0c0c0" points="657.2933,-525.5373 660.7932,-535.5373 664.2933,-525.5374 657.2933,-525.5373"/>
<polygon fill="#c0c0c0" stroke="#c0c0c0" points="664.2933,-492.8385 660.7932,-482.8385 657.2933,-492.8385 664.2933,-492.8385"/>
<text text-anchor="middle" x="643.3932" y="-512.895" font-family="Times,serif" font-size="12.00" fill="#4d4d4d">SHDR / &#160;&#160;</text>
<text text-anchor="middle" x="643.3932" y="-498.495" font-family="Times,serif" font-size="12.00" fill="#4d4d4d">TCP 7878 &#160;&#160;&#160;&#160;&#160;</text>
</g>
<!-- DiodeReceiver -->
<g id="node13" class="node">
<title>DiodeReceiver</title>
<ellipse fill="#ffffff" stroke="#c0c0c0" cx="907.373" cy="-457.295" rx="83.3394" ry="29.3315"/>
<text text-anchor="middle" x="907.373" y="-461.495" font-family="Times,serif" font-size="14.00" fill="#000000">Diode Receiver</text>
<text text-anchor="middle" x="907.373" y="-444.695" font-family="Times,serif" font-size="14.00" fill="#000000">(Java+RabbitMQ)</text>
</g>
<!-- DiodeSender&#45;&gt;DiodeReceiver -->
<g id="edge13" class="edge">
<title>DiodeSender&#45;&gt;DiodeReceiver</title>
<path fill="none" stroke="#c0c0c0" d="M907.373,-542.78C907.373,-528.8434 907.373,-512.0059 907.373,-496.9723"/>
<polygon fill="#c0c0c0" stroke="#c0c0c0" points="910.8731,-496.9104 907.373,-486.9104 903.8731,-496.9104 910.8731,-496.9104"/>
<text text-anchor="middle" x="897.173" y="-511.195" font-family="Times,serif" font-size="12.00" fill="#4d4d4d">UDP &#160;&#160;&#160;</text>
</g>
<!-- DiodeReceiver&#45;&gt;Agent -->
<g id="edge14" class="edge">
<title>DiodeReceiver&#45;&gt;Agent</title>
<path fill="none" stroke="#c0c0c0" stroke-dasharray="1,5" d="M825.2521,-451.9664C799.4414,-450.2916 770.9112,-448.4403 744.9608,-446.7565"/>
<polygon fill="#c0c0c0" stroke="#c0c0c0" points="744.981,-443.2505 734.7753,-446.0956 744.5277,-450.2358 744.981,-443.2505"/>
<text text-anchor="middle" x="779.4511" y="-469.295" font-family="Times,serif" font-size="12.00" fill="#4d4d4d">SHDR / &#160;&#160;&#160;</text>
<text text-anchor="middle" x="779.4511" y="-454.895" font-family="Times,serif" font-size="12.00" fill="#4d4d4d">TCP 7878 &#160;&#160;&#160;&#160;&#160;&#160;&#160;</text>
</g>
<!-- Application -->
<g id="node15" class="node">
<title>Application</title>
<ellipse fill="#ffffff" stroke="#c0c0c0" cx="660.7932" cy="-305.295" rx="59.3044" ry="41.0911"/>
<text text-anchor="middle" x="660.7932" y="-317.895" font-family="Times,serif" font-size="14.00" fill="#000000">MTConnect</text>
<text text-anchor="middle" x="660.7932" y="-301.095" font-family="Times,serif" font-size="14.00" fill="#000000">Application</text>
<text text-anchor="middle" x="660.7932" y="-284.295" font-family="Times,serif" font-size="14.00" fill="#000000">(NodeJS)</text>
</g>
<!-- Agent&#45;&gt;Application -->
<g id="edge15" class="edge">
<title>Agent&#45;&gt;Application</title>
<path fill="none" stroke="#c0c0c0" d="M660.7932,-389.503C660.7932,-378.817 660.7932,-367.564 660.7932,-356.8852"/>
<polygon fill="#c0c0c0" stroke="#c0c0c0" points="657.2933,-389.5373 660.7932,-399.5373 664.2933,-389.5374 657.2933,-389.5373"/>
<polygon fill="#c0c0c0" stroke="#c0c0c0" points="664.2933,-356.8385 660.7932,-346.8385 657.2933,-356.8385 664.2933,-356.8385"/>
<text text-anchor="middle" x="643.3932" y="-376.895" font-family="Times,serif" font-size="12.00" fill="#4d4d4d">XML / </text>
<text text-anchor="middle" x="643.3932" y="-362.495" font-family="Times,serif" font-size="12.00" fill="#4d4d4d">HTTP 5000 &#160;&#160;&#160;&#160;&#160;&#160;&#160;&#160;&#160;</text>
</g>
<!-- Database -->
<g id="node16" class="node">
<title>Database</title>
<ellipse fill="#ffffff" stroke="#c0c0c0" cx="660.7932" cy="-173.295" rx="69.0714" ry="41.0911"/>
<text text-anchor="middle" x="660.7932" y="-185.895" font-family="Times,serif" font-size="14.00" fill="#000000">Database</text>
<text text-anchor="middle" x="660.7932" y="-169.095" font-family="Times,serif" font-size="14.00" fill="#000000">(InfluxDB/</text>
<text text-anchor="middle" x="660.7932" y="-152.295" font-family="Times,serif" font-size="14.00" fill="#000000">TimescaleDB)</text>
</g>
<!-- Application&#45;&gt;Database -->
<g id="edge16" class="edge">
<title>Application&#45;&gt;Database</title>
<path fill="none" stroke="#c0c0c0" d="M660.7932,-253.639C660.7932,-244.1484 660.7932,-234.6577 660.7932,-225.1671"/>
<polygon fill="#c0c0c0" stroke="#c0c0c0" points="657.2933,-253.9372 660.7932,-263.9373 664.2933,-253.9373 657.2933,-253.9372"/>
<polygon fill="#c0c0c0" stroke="#c0c0c0" points="664.2933,-224.8028 660.7932,-214.8028 657.2933,-224.8029 664.2933,-224.8028"/>
</g>
<!-- Visualizer -->
<g id="node17" class="node">
<title>Visualizer</title>
<ellipse fill="#ffffff" stroke="#c0c0c0" cx="660.7932" cy="-41.295" rx="51.9834" ry="41.0911"/>
<text text-anchor="middle" x="660.7932" y="-53.895" font-family="Times,serif" font-size="14.00" fill="#000000">Visualizer</text>
<text text-anchor="middle" x="660.7932" y="-37.095" font-family="Times,serif" font-size="14.00" fill="#000000">(Grafana/</text>
<text text-anchor="middle" x="660.7932" y="-20.295" font-family="Times,serif" font-size="14.00" fill="#000000">Superset)</text>
</g>
<!-- Database&#45;&gt;Visualizer -->
<g id="edge17" class="edge">
<title>Database&#45;&gt;Visualizer</title>
<path fill="none" stroke="#c0c0c0" d="M660.7932,-121.639C660.7932,-112.1484 660.7932,-102.6577 660.7932,-93.1671"/>
<polygon fill="#c0c0c0" stroke="#c0c0c0" points="657.2933,-121.9372 660.7932,-131.9373 664.2933,-121.9373 657.2933,-121.9372"/>
<polygon fill="#c0c0c0" stroke="#c0c0c0" points="664.2933,-92.8028 660.7932,-82.8028 657.2933,-92.8029 664.2933,-92.8028"/>
</g>
<!-- Cloud -->
<g id="node18" class="node">
<title>Cloud</title>
<ellipse fill="#ffffff" stroke="#c0c0c0" cx="907.373" cy="-173.295" rx="68.4585" ry="29.3315"/>
<text text-anchor="middle" x="907.373" y="-177.495" font-family="Times,serif" font-size="14.00" fill="#000000">Cloud Storage</text>
<text text-anchor="middle" x="907.373" y="-160.695" font-family="Times,serif" font-size="14.00" fill="#000000">(AWS/GCP)</text>
</g>
<!-- Database&#45;&gt;Cloud -->
<g id="edge18" class="edge">
<title>Database&#45;&gt;Cloud</title>
<path fill="none" stroke="#c0c0c0" d="M730.1356,-173.295C760.8555,-173.295 797.1415,-173.295 828.8543,-173.295"/>
<polygon fill="#c0c0c0" stroke="#c0c0c0" points="828.9772,-176.7951 838.9772,-173.295 828.9771,-169.7951 828.9772,-176.7951"/>
</g>
<!-- Admin -->
<g id="node19" class="node">
<title>Admin</title>
<ellipse fill="#ffffe0" stroke="#c0c0c0" cx="907.373" cy="-41.295" rx="37.7217" ry="18"/>
<text text-anchor="middle" x="907.373" y="-37.095" font-family="Times,serif" font-size="14.00" fill="#000000">Admin</text>
</g>
<!-- Visualizer&#45;&gt;Admin -->
<g id="edge19" class="edge">
<title>Visualizer&#45;&gt;Admin</title>
<path fill="none" stroke="#c0c0c0" d="M722.9437,-41.295C765.1642,-41.295 820.1925,-41.295 859.1177,-41.295"/>
<polygon fill="#c0c0c0" stroke="#c0c0c0" points="722.7852,-37.7951 712.7852,-41.295 722.7851,-44.7951 722.7852,-37.7951"/>
<polygon fill="#c0c0c0" stroke="#c0c0c0" points="859.1466,-44.7951 869.1466,-41.295 859.1466,-37.7951 859.1466,-44.7951"/>
</g>
</g>
</svg>
