<?xml version="1.0" encoding="UTF-8" standalone="no"?>
<!DOCTYPE svg PUBLIC "-//W3C//DTD SVG 1.1//EN"
 "http://www.w3.org/Graphics/SVG/1.1/DTD/svg11.dtd">
<!-- Generated by graphviz version 2.40.1 (20161225.0304)
 -->
<!-- Title: ladder99&#45;adapter Pages: 1 -->
<svg width="999pt" height="839pt"
 viewBox="0.00 0.00 998.79 838.71" xmlns="http://www.w3.org/2000/svg" xmlns:xlink="http://www.w3.org/1999/xlink">
<g id="graph0" class="graph" transform="scale(1 1) rotate(0) translate(4 834.7107)">
<title>ladder99&#45;adapter</title>
<polygon fill="#ffffff" stroke="transparent" points="-4,4 -4,-834.7107 994.7926,-834.7107 994.7926,4 -4,4"/>
<text text-anchor="middle" x="495.3963" y="-808.7107" font-family="Times,serif" font-size="20.00" fill="#000000">Ladder99 MTConnect data flow</text>
<text text-anchor="middle" x="495.3963" y="-784.7107" font-family="Times,serif" font-size="20.00" fill="#000000"> </text>
<!-- PA1 -->
<g id="node1" class="node">
<title>PA1</title>
<ellipse fill="#e6e6fa" stroke="#c0c0c0" cx="266.0251" cy="-745.295" rx="58.5886" ry="18"/>
<text text-anchor="middle" x="266.0251" y="-741.095" font-family="Times,serif" font-size="14.00" fill="#000000">CCS P&amp;A 1</text>
</g>
<!-- Broker1 -->
<g id="node7" class="node">
<title>Broker1</title>
<ellipse fill="#ffffff" stroke="#c0c0c0" cx="444.8917" cy="-745.295" rx="76.9837" ry="29.3315"/>
<text text-anchor="middle" x="444.8917" y="-749.495" font-family="Times,serif" font-size="14.00" fill="#000000">MQTT Broker 1</text>
<text text-anchor="middle" x="444.8917" y="-732.695" font-family="Times,serif" font-size="14.00" fill="#000000">(Mosquitto)</text>
</g>
<!-- PA1&#45;&gt;Broker1 -->
<g id="edge1" class="edge">
<title>PA1&#45;&gt;Broker1</title>
<path fill="none" stroke="#c0c0c0" d="M335.2386,-745.295C342.7067,-745.295 350.3732,-745.295 358.0149,-745.295"/>
<polygon fill="#c0c0c0" stroke="#c0c0c0" points="335.0884,-741.7951 325.0884,-745.295 335.0884,-748.7951 335.0884,-741.7951"/>
<polygon fill="#c0c0c0" stroke="#c0c0c0" points="358.0276,-748.7951 368.0275,-745.295 358.0275,-741.7951 358.0276,-748.7951"/>
<text text-anchor="middle" x="346.4846" y="-748.895" font-family="Times,serif" font-size="12.00" fill="#4d4d4d">TCP?</text>
</g>
<!-- PA2 -->
<g id="node2" class="node">
<title>PA2</title>
<ellipse fill="#e6e6fa" stroke="#c0c0c0" cx="266.0251" cy="-661.295" rx="58.5886" ry="18"/>
<text text-anchor="middle" x="266.0251" y="-657.095" font-family="Times,serif" font-size="14.00" fill="#000000">CCS P&amp;A 2</text>
</g>
<!-- Broker2 -->
<g id="node8" class="node">
<title>Broker2</title>
<ellipse fill="#ffffff" stroke="#c0c0c0" cx="444.8917" cy="-661.295" rx="76.9837" ry="29.3315"/>
<text text-anchor="middle" x="444.8917" y="-665.495" font-family="Times,serif" font-size="14.00" fill="#000000">MQTT Broker 2</text>
<text text-anchor="middle" x="444.8917" y="-648.695" font-family="Times,serif" font-size="14.00" fill="#000000">(Mosquitto)</text>
</g>
<!-- PA2&#45;&gt;Broker2 -->
<g id="edge2" class="edge">
<title>PA2&#45;&gt;Broker2</title>
<path fill="none" stroke="#c0c0c0" d="M335.2386,-661.295C342.7067,-661.295 350.3732,-661.295 358.0149,-661.295"/>
<polygon fill="#c0c0c0" stroke="#c0c0c0" points="335.0884,-657.7951 325.0884,-661.295 335.0884,-664.7951 335.0884,-657.7951"/>
<polygon fill="#c0c0c0" stroke="#c0c0c0" points="358.0276,-664.7951 368.0275,-661.295 358.0275,-657.7951 358.0276,-664.7951"/>
<text text-anchor="middle" x="346.4846" y="-664.895" font-family="Times,serif" font-size="12.00" fill="#4d4d4d">TCP?</text>
</g>
<!-- OldMachine -->
<g id="node3" class="node">
<title>OldMachine</title>
<ellipse fill="#e6e6fa" stroke="#c0c0c0" cx="68.9618" cy="-577.295" rx="68.9235" ry="18"/>
<text text-anchor="middle" x="68.9618" y="-573.095" font-family="Times,serif" font-size="14.00" fill="#000000">Old Machine 1</text>
</g>
<!-- PLC4X -->
<g id="node4" class="node">
<title>PLC4X</title>
<ellipse fill="#ffffff" stroke="#c0c0c0" cx="266.0251" cy="-577.295" rx="41.6253" ry="29.3315"/>
<text text-anchor="middle" x="266.0251" y="-581.495" font-family="Times,serif" font-size="14.00" fill="#000000">PLC4X</text>
<text text-anchor="middle" x="266.0251" y="-564.695" font-family="Times,serif" font-size="14.00" fill="#000000">(Java)</text>
</g>
<!-- OldMachine&#45;&gt;PLC4X -->
<g id="edge3" class="edge">
<title>OldMachine&#45;&gt;PLC4X</title>
<path fill="none" stroke="#c0c0c0" d="M138.1618,-577.295C163.1828,-577.295 190.9804,-577.295 214.2491,-577.295"/>
<polygon fill="#c0c0c0" stroke="#c0c0c0" points="214.258,-580.7951 224.258,-577.295 214.2579,-573.7951 214.258,-580.7951"/>
<text text-anchor="middle" x="172.5773" y="-595.295" font-family="Times,serif" font-size="12.00" fill="#4d4d4d">proprietary</text>
<text text-anchor="middle" x="172.5773" y="-580.895" font-family="Times,serif" font-size="12.00" fill="#4d4d4d">protocol</text>
</g>
<!-- Broker3 -->
<g id="node9" class="node">
<title>Broker3</title>
<ellipse fill="#ffffff" stroke="#c0c0c0" cx="444.8917" cy="-577.295" rx="76.9837" ry="29.3315"/>
<text text-anchor="middle" x="444.8917" y="-581.495" font-family="Times,serif" font-size="14.00" fill="#000000">MQTT Broker 3</text>
<text text-anchor="middle" x="444.8917" y="-564.695" font-family="Times,serif" font-size="14.00" fill="#000000">(Mosquitto)</text>
</g>
<!-- PLC4X&#45;&gt;Broker3 -->
<g id="edge4" class="edge">
<title>PLC4X&#45;&gt;Broker3</title>
<path fill="none" stroke="#c0c0c0" d="M307.9614,-577.295C322.9804,-577.295 340.5171,-577.295 357.9288,-577.295"/>
<polygon fill="#c0c0c0" stroke="#c0c0c0" points="358.1462,-580.7951 368.1462,-577.295 358.1462,-573.7951 358.1462,-580.7951"/>
<text text-anchor="middle" x="346.4846" y="-580.895" font-family="Times,serif" font-size="12.00" fill="#4d4d4d">?</text>
</g>
<!-- OldMachine2 -->
<g id="node5" class="node">
<title>OldMachine2</title>
<ellipse fill="#e6e6fa" stroke="#c0c0c0" cx="68.9618" cy="-493.295" rx="68.9235" ry="18"/>
<text text-anchor="middle" x="68.9618" y="-489.095" font-family="Times,serif" font-size="14.00" fill="#000000">Old Machine 2</text>
</g>
<!-- Kepware -->
<g id="node6" class="node">
<title>Kepware</title>
<ellipse fill="#ffffff" stroke="#c0c0c0" cx="266.0251" cy="-493.295" rx="55.6916" ry="29.3315"/>
<text text-anchor="middle" x="266.0251" y="-497.495" font-family="Times,serif" font-size="14.00" fill="#000000">Kepware</text>
<text text-anchor="middle" x="266.0251" y="-480.695" font-family="Times,serif" font-size="14.00" fill="#000000">(Windows)</text>
</g>
<!-- OldMachine2&#45;&gt;Kepware -->
<g id="edge5" class="edge">
<title>OldMachine2&#45;&gt;Kepware</title>
<path fill="none" stroke="#c0c0c0" d="M138.1618,-493.295C158.1831,-493.295 179.9822,-493.295 199.8162,-493.295"/>
<polygon fill="#c0c0c0" stroke="#c0c0c0" points="199.9892,-496.7951 209.9892,-493.295 199.9892,-489.7951 199.9892,-496.7951"/>
<text text-anchor="middle" x="172.5773" y="-511.295" font-family="Times,serif" font-size="12.00" fill="#4d4d4d">proprietary</text>
<text text-anchor="middle" x="172.5773" y="-496.895" font-family="Times,serif" font-size="12.00" fill="#4d4d4d">protocol</text>
</g>
<!-- Broker4 -->
<g id="node10" class="node">
<title>Broker4</title>
<ellipse fill="#ffffff" stroke="#c0c0c0" cx="444.8917" cy="-493.295" rx="76.9837" ry="29.3315"/>
<text text-anchor="middle" x="444.8917" y="-497.495" font-family="Times,serif" font-size="14.00" fill="#000000">MQTT Broker 4</text>
<text text-anchor="middle" x="444.8917" y="-480.695" font-family="Times,serif" font-size="14.00" fill="#000000">(Mosquitto)</text>
</g>
<!-- Kepware&#45;&gt;Broker4 -->
<g id="edge6" class="edge">
<title>Kepware&#45;&gt;Broker4</title>
<path fill="none" stroke="#c0c0c0" d="M322.1288,-493.295C333.4947,-493.295 345.6986,-493.295 357.8438,-493.295"/>
<polygon fill="#c0c0c0" stroke="#c0c0c0" points="358.0123,-496.7951 368.0123,-493.295 358.0123,-489.7951 358.0123,-496.7951"/>
<text text-anchor="middle" x="346.4846" y="-496.895" font-family="Times,serif" font-size="12.00" fill="#4d4d4d">TCP</text>
</g>
<!-- Adapter -->
<g id="node12" class="node">
<title>Adapter</title>
<ellipse fill="#ffffff" stroke="#c0c0c0" cx="660.7932" cy="-577.295" rx="59.3044" ry="41.0911"/>
<text text-anchor="middle" x="660.7932" y="-589.895" font-family="Times,serif" font-size="14.00" fill="#000000">MTConnect</text>
<text text-anchor="middle" x="660.7932" y="-573.095" font-family="Times,serif" font-size="14.00" fill="#000000">Adapter</text>
<text text-anchor="middle" x="660.7932" y="-556.295" font-family="Times,serif" font-size="14.00" fill="#000000">(NodeJS)</text>
</g>
<!-- Broker1&#45;&gt;Adapter -->
<g id="edge8" class="edge">
<title>Broker1&#45;&gt;Adapter</title>
<path fill="none" stroke="#c0c0c0" d="M499.171,-716.3582C506.7743,-712.0819 514.4425,-707.6481 521.6331,-703.295 547.6805,-687.5265 555.4249,-685 578.6375,-665.295 594.513,-651.8185 610.4753,-635.5026 624.0523,-620.5986"/>
<polygon fill="#c0c0c0" stroke="#c0c0c0" points="497.3433,-713.3698 490.3078,-721.2915 500.7477,-719.4862 497.3433,-713.3698"/>
<polygon fill="#c0c0c0" stroke="#c0c0c0" points="626.8399,-622.7331 630.9217,-612.9561 621.6338,-618.0537 626.8399,-622.7331"/>
<text text-anchor="middle" x="554.1353" y="-715.295" font-family="Times,serif" font-size="12.00" fill="#4d4d4d">MQTT</text>
<text text-anchor="middle" x="554.1353" y="-700.895" font-family="Times,serif" font-size="12.00" fill="#4d4d4d">TCP 1883</text>
</g>
<!-- Broker2&#45;&gt;Adapter -->
<g id="edge9" class="edge">
<title>Broker2&#45;&gt;Adapter</title>
<path fill="none" stroke="#c0c0c0" d="M510.8718,-637.8867C532.5499,-629.9925 556.7059,-620.9775 578.6375,-612.295 585.9351,-609.406 593.5593,-606.2909 601.0955,-603.152"/>
<polygon fill="#c0c0c0" stroke="#c0c0c0" points="509.6331,-634.6128 501.4259,-641.313 512.0201,-641.1933 509.6331,-634.6128"/>
<polygon fill="#c0c0c0" stroke="#c0c0c0" points="602.6966,-606.2759 610.5631,-599.1788 599.9878,-599.8212 602.6966,-606.2759"/>
<text text-anchor="middle" x="554.1353" y="-648.295" font-family="Times,serif" font-size="12.00" fill="#4d4d4d">MQTT</text>
<text text-anchor="middle" x="554.1353" y="-633.895" font-family="Times,serif" font-size="12.00" fill="#4d4d4d">TCP 1884</text>
</g>
<!-- Broker3&#45;&gt;Adapter -->
<g id="edge10" class="edge">
<title>Broker3&#45;&gt;Adapter</title>
<path fill="none" stroke="#c0c0c0" d="M532.1556,-577.295C551.7984,-577.295 572.3905,-577.295 591.1974,-577.295"/>
<polygon fill="#c0c0c0" stroke="#c0c0c0" points="531.9228,-573.7951 521.9227,-577.295 531.9227,-580.7951 531.9228,-573.7951"/>
<polygon fill="#c0c0c0" stroke="#c0c0c0" points="591.4447,-580.7951 601.4446,-577.295 591.4446,-573.7951 591.4447,-580.7951"/>
<text text-anchor="middle" x="554.1353" y="-595.295" font-family="Times,serif" font-size="12.00" fill="#4d4d4d">MQTT</text>
<text text-anchor="middle" x="554.1353" y="-580.895" font-family="Times,serif" font-size="12.00" fill="#4d4d4d">TCP 1885</text>
</g>
<!-- Broker4&#45;&gt;Adapter -->
<g id="edge11" class="edge">
<title>Broker4&#45;&gt;Adapter</title>
<path fill="none" stroke="#c0c0c0" d="M510.8554,-516.8454C532.5325,-524.7748 556.6921,-533.8165 578.6375,-542.495 585.8285,-545.3388 593.3392,-548.3968 600.7713,-551.4774"/>
<polygon fill="#c0c0c0" stroke="#c0c0c0" points="512.0043,-513.539 501.4103,-513.403 509.6072,-520.1158 512.0043,-513.539"/>
<polygon fill="#c0c0c0" stroke="#c0c0c0" points="599.5368,-554.7547 610.1133,-555.3771 602.2334,-548.2949 599.5368,-554.7547"/>
<text text-anchor="middle" x="554.1353" y="-561.295" font-family="Times,serif" font-size="12.00" fill="#4d4d4d">MQTT</text>
<text text-anchor="middle" x="554.1353" y="-546.895" font-family="Times,serif" font-size="12.00" fill="#4d4d4d">TCP 1886</text>
</g>
<!-- OldMachine3 -->
<g id="node11" class="node">
<title>OldMachine3</title>
<ellipse fill="#e6e6fa" stroke="#c0c0c0" cx="444.8917" cy="-421.295" rx="68.9235" ry="18"/>
<text text-anchor="middle" x="444.8917" y="-417.095" font-family="Times,serif" font-size="14.00" fill="#000000">Old Machine 3</text>
</g>
<!-- OldMachine3&#45;&gt;Adapter -->
<g id="edge7" class="edge">
<title>OldMachine3&#45;&gt;Adapter</title>
<path fill="none" stroke="#c0c0c0" d="M486.6923,-435.6334C498.2526,-440.1329 510.6377,-445.4651 521.6331,-451.295 548.7984,-465.6985 555.2725,-470.5078 578.6375,-490.495 594.2126,-503.8184 610.0002,-519.7836 623.5173,-534.368"/>
<polygon fill="#c0c0c0" stroke="#c0c0c0" points="621.0313,-536.8357 630.3658,-541.8475 626.1941,-532.1085 621.0313,-536.8357"/>
<text text-anchor="middle" x="554.1353" y="-509.295" font-family="Times,serif" font-size="12.00" fill="#4d4d4d">text</text>
<text text-anchor="middle" x="554.1353" y="-494.895" font-family="Times,serif" font-size="12.00" fill="#4d4d4d">TCP 1887</text>
</g>
<!-- DiodeSender -->
<g id="node13" class="node">
<title>DiodeSender</title>
<ellipse fill="#ffffff" stroke="#c0c0c0" cx="907.373" cy="-572.295" rx="83.3394" ry="29.3315"/>
<text text-anchor="middle" x="907.373" y="-576.495" font-family="Times,serif" font-size="14.00" fill="#000000">Diode Sender</text>
<text text-anchor="middle" x="907.373" y="-559.695" font-family="Times,serif" font-size="14.00" fill="#000000">(Java+RabbitMQ)</text>
</g>
<!-- Adapter&#45;&gt;DiodeSender -->
<g id="edge13" class="edge">
<title>Adapter&#45;&gt;DiodeSender</title>
<path fill="none" stroke="#c0c0c0" stroke-dasharray="1,5" d="M730.2342,-575.887C756.1356,-575.3617 785.9831,-574.7565 813.7065,-574.1943"/>
<polygon fill="#c0c0c0" stroke="#c0c0c0" points="730.096,-572.3889 720.169,-576.091 730.238,-579.3875 730.096,-572.3889"/>
<polygon fill="#c0c0c0" stroke="#c0c0c0" points="813.8861,-577.6915 823.8131,-573.9894 813.7441,-570.693 813.8861,-577.6915"/>
<text text-anchor="middle" x="779.4511" y="-593.295" font-family="Times,serif" font-size="12.00" fill="#4d4d4d">SHDR / &#160;&#160;</text>
<text text-anchor="middle" x="779.4511" y="-578.895" font-family="Times,serif" font-size="12.00" fill="#4d4d4d">TCP 7878 &#160;&#160;&#160;&#160;&#160;</text>
</g>
<!-- Agent -->
<g id="node15" class="node">
<title>Agent</title>
<ellipse fill="#ffffff" stroke="#c0c0c0" cx="660.7932" cy="-441.295" rx="74.3117" ry="41.0911"/>
<text text-anchor="middle" x="660.7932" y="-453.895" font-family="Times,serif" font-size="14.00" fill="#000000">MTConnect</text>
<text text-anchor="middle" x="660.7932" y="-437.095" font-family="Times,serif" font-size="14.00" fill="#000000">Agent</text>
<text text-anchor="middle" x="660.7932" y="-420.295" font-family="Times,serif" font-size="14.00" fill="#000000">(C++/cppagent)</text>
</g>
<!-- Adapter&#45;&gt;Agent -->
<g id="edge12" class="edge">
<title>Adapter&#45;&gt;Agent</title>
<path fill="none" stroke="#c0c0c0" d="M660.7932,-525.503C660.7932,-514.817 660.7932,-503.564 660.7932,-492.8852"/>
<polygon fill="#c0c0c0" stroke="#c0c0c0" points="657.2933,-525.5373 660.7932,-535.5373 664.2933,-525.5374 657.2933,-525.5373"/>
<polygon fill="#c0c0c0" stroke="#c0c0c0" points="664.2933,-492.8385 660.7932,-482.8385 657.2933,-492.8385 664.2933,-492.8385"/>
<text text-anchor="middle" x="643.3932" y="-512.895" font-family="Times,serif" font-size="12.00" fill="#4d4d4d">SHDR / &#160;&#160;</text>
<text text-anchor="middle" x="643.3932" y="-498.495" font-family="Times,serif" font-size="12.00" fill="#4d4d4d">TCP 7878 &#160;&#160;&#160;&#160;&#160;</text>
</g>
<!-- DiodeReceiver -->
<g id="node14" class="node">
<title>DiodeReceiver</title>
<ellipse fill="#ffffff" stroke="#c0c0c0" cx="907.373" cy="-457.295" rx="83.3394" ry="29.3315"/>
<text text-anchor="middle" x="907.373" y="-461.495" font-family="Times,serif" font-size="14.00" fill="#000000">Diode Receiver</text>
<text text-anchor="middle" x="907.373" y="-444.695" font-family="Times,serif" font-size="14.00" fill="#000000">(Java+RabbitMQ)</text>
</g>
<!-- DiodeSender&#45;&gt;DiodeReceiver -->
<g id="edge14" class="edge">
<title>DiodeSender&#45;&gt;DiodeReceiver</title>
<path fill="none" stroke="#c0c0c0" d="M907.373,-542.78C907.373,-528.8434 907.373,-512.0059 907.373,-496.9723"/>
<polygon fill="#c0c0c0" stroke="#c0c0c0" points="910.8731,-496.9104 907.373,-486.9104 903.8731,-496.9104 910.8731,-496.9104"/>
<text text-anchor="middle" x="897.173" y="-511.195" font-family="Times,serif" font-size="12.00" fill="#4d4d4d">UDP &#160;&#160;&#160;</text>
</g>
<!-- DiodeReceiver&#45;&gt;Agent -->
<g id="edge15" class="edge">
<title>DiodeReceiver&#45;&gt;Agent</title>
<path fill="none" stroke="#c0c0c0" stroke-dasharray="1,5" d="M825.2521,-451.9664C799.4414,-450.2916 770.9112,-448.4403 744.9608,-446.7565"/>
<polygon fill="#c0c0c0" stroke="#c0c0c0" points="744.981,-443.2505 734.7753,-446.0956 744.5277,-450.2358 744.981,-443.2505"/>
<text text-anchor="middle" x="779.4511" y="-469.295" font-family="Times,serif" font-size="12.00" fill="#4d4d4d">SHDR / &#160;&#160;&#160;</text>
<text text-anchor="middle" x="779.4511" y="-454.895" font-family="Times,serif" font-size="12.00" fill="#4d4d4d">TCP 7878 &#160;&#160;&#160;&#160;&#160;&#160;&#160;</text>
</g>
<!-- Application -->
<g id="node16" class="node">
<title>Application</title>
<ellipse fill="#ffffff" stroke="#c0c0c0" cx="660.7932" cy="-305.295" rx="59.3044" ry="41.0911"/>
<text text-anchor="middle" x="660.7932" y="-317.895" font-family="Times,serif" font-size="14.00" fill="#000000">MTConnect</text>
<text text-anchor="middle" x="660.7932" y="-301.095" font-family="Times,serif" font-size="14.00" fill="#000000">Application</text>
<text text-anchor="middle" x="660.7932" y="-284.295" font-family="Times,serif" font-size="14.00" fill="#000000">(NodeJS)</text>
</g>
<!-- Agent&#45;&gt;Application -->
<g id="edge16" class="edge">
<title>Agent&#45;&gt;Application</title>
<path fill="none" stroke="#c0c0c0" d="M660.7932,-389.503C660.7932,-378.817 660.7932,-367.564 660.7932,-356.8852"/>
<polygon fill="#c0c0c0" stroke="#c0c0c0" points="657.2933,-389.5373 660.7932,-399.5373 664.2933,-389.5374 657.2933,-389.5373"/>
<polygon fill="#c0c0c0" stroke="#c0c0c0" points="664.2933,-356.8385 660.7932,-346.8385 657.2933,-356.8385 664.2933,-356.8385"/>
<text text-anchor="middle" x="643.3932" y="-376.895" font-family="Times,serif" font-size="12.00" fill="#4d4d4d">XML / </text>
<text text-anchor="middle" x="643.3932" y="-362.495" font-family="Times,serif" font-size="12.00" fill="#4d4d4d">HTTP 5000 &#160;&#160;&#160;&#160;&#160;&#160;&#160;&#160;&#160;</text>
</g>
<!-- Database -->
<g id="node17" class="node">
<title>Database</title>
<ellipse fill="#ffffff" stroke="#c0c0c0" cx="660.7932" cy="-173.295" rx="69.0714" ry="41.0911"/>
<text text-anchor="middle" x="660.7932" y="-185.895" font-family="Times,serif" font-size="14.00" fill="#000000">Database</text>
<text text-anchor="middle" x="660.7932" y="-169.095" font-family="Times,serif" font-size="14.00" fill="#000000">(InfluxDB/</text>
<text text-anchor="middle" x="660.7932" y="-152.295" font-family="Times,serif" font-size="14.00" fill="#000000">TimescaleDB)</text>
</g>
<!-- Application&#45;&gt;Database -->
<g id="edge17" class="edge">
<title>Application&#45;&gt;Database</title>
<path fill="none" stroke="#c0c0c0" d="M660.7932,-253.639C660.7932,-244.1484 660.7932,-234.6577 660.7932,-225.1671"/>
<polygon fill="#c0c0c0" stroke="#c0c0c0" points="657.2933,-253.9372 660.7932,-263.9373 664.2933,-253.9373 657.2933,-253.9372"/>
<polygon fill="#c0c0c0" stroke="#c0c0c0" points="664.2933,-224.8028 660.7932,-214.8028 657.2933,-224.8029 664.2933,-224.8028"/>
</g>
<!-- Visualizer -->
<g id="node18" class="node">
<title>Visualizer</title>
<ellipse fill="#ffffff" stroke="#c0c0c0" cx="660.7932" cy="-41.295" rx="51.9834" ry="41.0911"/>
<text text-anchor="middle" x="660.7932" y="-53.895" font-family="Times,serif" font-size="14.00" fill="#000000">Visualizer</text>
<text text-anchor="middle" x="660.7932" y="-37.095" font-family="Times,serif" font-size="14.00" fill="#000000">(Grafana/</text>
<text text-anchor="middle" x="660.7932" y="-20.295" font-family="Times,serif" font-size="14.00" fill="#000000">Superset)</text>
</g>
<!-- Database&#45;&gt;Visualizer -->
<g id="edge18" class="edge">
<title>Database&#45;&gt;Visualizer</title>
<path fill="none" stroke="#c0c0c0" d="M660.7932,-121.639C660.7932,-112.1484 660.7932,-102.6577 660.7932,-93.1671"/>
<polygon fill="#c0c0c0" stroke="#c0c0c0" points="657.2933,-121.9372 660.7932,-131.9373 664.2933,-121.9373 657.2933,-121.9372"/>
<polygon fill="#c0c0c0" stroke="#c0c0c0" points="664.2933,-92.8028 660.7932,-82.8028 657.2933,-92.8029 664.2933,-92.8028"/>
</g>
<!-- Cloud -->
<g id="node19" class="node">
<title>Cloud</title>
<ellipse fill="#ffffff" stroke="#c0c0c0" cx="907.373" cy="-173.295" rx="68.4585" ry="29.3315"/>
<text text-anchor="middle" x="907.373" y="-177.495" font-family="Times,serif" font-size="14.00" fill="#000000">Cloud Storage</text>
<text text-anchor="middle" x="907.373" y="-160.695" font-family="Times,serif" font-size="14.00" fill="#000000">(AWS/GCP)</text>
</g>
<!-- Database&#45;&gt;Cloud -->
<g id="edge19" class="edge">
<title>Database&#45;&gt;Cloud</title>
<path fill="none" stroke="#c0c0c0" d="M730.1356,-173.295C760.8555,-173.295 797.1415,-173.295 828.8543,-173.295"/>
<polygon fill="#c0c0c0" stroke="#c0c0c0" points="828.9772,-176.7951 838.9772,-173.295 828.9771,-169.7951 828.9772,-176.7951"/>
</g>
<!-- Admin -->
<g id="node20" class="node">
<title>Admin</title>
<ellipse fill="#ffffe0" stroke="#c0c0c0" cx="907.373" cy="-41.295" rx="37.7217" ry="18"/>
<text text-anchor="middle" x="907.373" y="-37.095" font-family="Times,serif" font-size="14.00" fill="#000000">Admin</text>
</g>
<!-- Visualizer&#45;&gt;Admin -->
<g id="edge20" class="edge">
<title>Visualizer&#45;&gt;Admin</title>
<path fill="none" stroke="#c0c0c0" d="M722.9437,-41.295C765.1642,-41.295 820.1925,-41.295 859.1177,-41.295"/>
<polygon fill="#c0c0c0" stroke="#c0c0c0" points="722.7852,-37.7951 712.7852,-41.295 722.7851,-44.7951 722.7852,-37.7951"/>
<polygon fill="#c0c0c0" stroke="#c0c0c0" points="859.1466,-44.7951 869.1466,-41.295 859.1466,-37.7951 859.1466,-44.7951"/>
</g>
</g>
</svg>
