<?xml version="1.0" encoding="UTF-8" standalone="no"?>
<!DOCTYPE svg PUBLIC "-//W3C//DTD SVG 1.1//EN"
 "http://www.w3.org/Graphics/SVG/1.1/DTD/svg11.dtd">
<!-- Generated by graphviz version 2.40.1 (20161225.0304)
 -->
<!-- Title: %0 Pages: 1 -->
<svg width="864pt" height="863pt"
 viewBox="0.00 0.00 863.93 862.71" xmlns="http://www.w3.org/2000/svg" xmlns:xlink="http://www.w3.org/1999/xlink">
<g id="graph0" class="graph" transform="scale(1 1) rotate(0) translate(4 858.7107)">
<title>%0</title>
<polygon fill="#ffffff" stroke="transparent" points="-4,4 -4,-858.7107 859.93,-858.7107 859.93,4 -4,4"/>
<text text-anchor="middle" x="427.965" y="-832.7107" font-family="sans-serif" font-size="20.00" fill="#000000">Ladder99 Architecture</text>
<text text-anchor="middle" x="427.965" y="-808.7107" font-family="sans-serif" font-size="20.00" fill="#000000"> </text>
<!-- PA -->
<g id="node1" class="node">
<title>PA</title>
<ellipse fill="#e6e6fa" stroke="#c0c0c0" cx="162.9905" cy="-769.295" rx="51.6026" ry="18"/>
<text text-anchor="middle" x="162.9905" y="-765.095" font-family="sans-serif" font-size="14.00" fill="#4d4d4d">CCS P&amp;A</text>
</g>
<!-- Broker1 -->
<g id="node7" class="node">
<title>Broker1</title>
<ellipse fill="#add8e6" stroke="#c0c0c0" cx="368.852" cy="-769.295" rx="69.1341" ry="29.3315"/>
<text text-anchor="middle" x="368.852" y="-773.495" font-family="sans-serif" font-size="14.00" fill="#4d4d4d">MQTT Broker</text>
<text text-anchor="middle" x="368.852" y="-756.695" font-family="sans-serif" font-size="14.00" fill="#4d4d4d">(Mosquitto)</text>
</g>
<!-- PA&#45;&gt;Broker1 -->
<g id="edge1" class="edge">
<title>PA&#45;&gt;Broker1</title>
<path fill="none" stroke="#c0c0c0" d="M224.8383,-769.295C245.0801,-769.295 267.8577,-769.295 289.2219,-769.295"/>
<polygon fill="#c0c0c0" stroke="#c0c0c0" points="224.6724,-765.7951 214.6723,-769.295 224.6723,-772.7951 224.6724,-765.7951"/>
<polygon fill="#c0c0c0" stroke="#c0c0c0" points="289.2503,-772.7951 299.2503,-769.295 289.2503,-765.7951 289.2503,-772.7951"/>
<text text-anchor="middle" x="265.8779" y="-772.895" font-family="sans-serif" font-size="12.00" fill="#4d4d4d"> &#160;TCP &#160;</text>
</g>
<!-- HMI -->
<g id="node2" class="node">
<title>HMI</title>
<ellipse fill="#e6e6fa" stroke="#c0c0c0" cx="162.9905" cy="-517.295" rx="69.4612" ry="18"/>
<text text-anchor="middle" x="162.9905" y="-513.095" font-family="sans-serif" font-size="14.00" fill="#4d4d4d">Rockwell HMI</text>
</g>
<!-- Kepware1 -->
<g id="node10" class="node">
<title>Kepware1</title>
<ellipse fill="#add8e6" stroke="#c0c0c0" cx="368.852" cy="-517.295" rx="55.6916" ry="29.3315"/>
<text text-anchor="middle" x="368.852" y="-521.495" font-family="sans-serif" font-size="14.00" fill="#4d4d4d">Kepware</text>
<text text-anchor="middle" x="368.852" y="-504.695" font-family="sans-serif" font-size="14.00" fill="#4d4d4d">(Windows)</text>
</g>
<!-- HMI&#45;&gt;Kepware1 -->
<g id="edge7" class="edge">
<title>HMI&#45;&gt;Kepware1</title>
<path fill="none" stroke="#c0c0c0" d="M232.3988,-517.295C255.0729,-517.295 280.1832,-517.295 302.6175,-517.295"/>
<polygon fill="#c0c0c0" stroke="#c0c0c0" points="302.7185,-520.7951 312.7184,-517.295 302.7184,-513.7951 302.7185,-520.7951"/>
<text text-anchor="middle" x="265.8779" y="-520.895" font-family="sans-serif" font-size="12.00" fill="#4d4d4d">ethernet/ip</text>
</g>
<!-- Motor -->
<g id="node3" class="node">
<title>Motor</title>
<ellipse fill="#e6e6fa" stroke="#c0c0c0" cx="162.9905" cy="-456.295" rx="56.8026" ry="18"/>
<text text-anchor="middle" x="162.9905" y="-452.095" font-family="sans-serif" font-size="14.00" fill="#4d4d4d">VFD Motor</text>
</g>
<!-- Motor&#45;&gt;Kepware1 -->
<g id="edge8" class="edge">
<title>Motor&#45;&gt;Kepware1</title>
<path fill="none" stroke="#c0c0c0" d="M204.6497,-468.6393C235.0182,-477.638 276.5747,-489.9518 310.2824,-499.9399"/>
<polygon fill="#c0c0c0" stroke="#c0c0c0" points="309.4344,-503.339 320.0168,-502.8244 311.4232,-496.6275 309.4344,-503.339"/>
<text text-anchor="middle" x="265.8779" y="-496.895" font-family="sans-serif" font-size="12.00" fill="#4d4d4d">modbus</text>
</g>
<!-- OldMachine3 -->
<g id="node4" class="node">
<title>OldMachine3</title>
<ellipse fill="#e6e6fa" stroke="#c0c0c0" cx="38.3801" cy="-601.295" rx="38.2607" ry="18"/>
<text text-anchor="middle" x="38.3801" y="-597.095" font-family="sans-serif" font-size="14.00" fill="#4d4d4d">Device</text>
</g>
<!-- Kepware2 -->
<g id="node11" class="node">
<title>Kepware2</title>
<ellipse fill="#add8e6" stroke="#c0c0c0" cx="162.9905" cy="-601.295" rx="63.0176" ry="41.0911"/>
<text text-anchor="middle" x="162.9905" y="-613.895" font-family="sans-serif" font-size="14.00" fill="#4d4d4d">Kepware+</text>
<text text-anchor="middle" x="162.9905" y="-597.095" font-family="sans-serif" font-size="14.00" fill="#4d4d4d">IoT Gateway</text>
<text text-anchor="middle" x="162.9905" y="-580.295" font-family="sans-serif" font-size="14.00" fill="#4d4d4d">(Windows)</text>
</g>
<!-- OldMachine3&#45;&gt;Kepware2 -->
<g id="edge11" class="edge">
<title>OldMachine3&#45;&gt;Kepware2</title>
<path fill="none" stroke="#c0c0c0" d="M76.7841,-601.295C80.8871,-601.295 85.153,-601.295 89.4938,-601.295"/>
<polygon fill="#c0c0c0" stroke="#c0c0c0" points="89.7171,-604.7951 99.7171,-601.295 89.717,-597.7951 89.7171,-604.7951"/>
</g>
<!-- Camera -->
<g id="node5" class="node">
<title>Camera</title>
<ellipse fill="#e6e6fa" stroke="#c0c0c0" cx="162.9905" cy="-685.295" rx="41.1277" ry="18"/>
<text text-anchor="middle" x="162.9905" y="-681.095" font-family="sans-serif" font-size="14.00" fill="#4d4d4d">Camera</text>
</g>
<!-- Broker3 -->
<g id="node8" class="node">
<title>Broker3</title>
<ellipse fill="#add8e6" stroke="#c0c0c0" cx="368.852" cy="-685.295" rx="69.1341" ry="29.3315"/>
<text text-anchor="middle" x="368.852" y="-689.495" font-family="sans-serif" font-size="14.00" fill="#4d4d4d">MQTT Broker</text>
<text text-anchor="middle" x="368.852" y="-672.695" font-family="sans-serif" font-size="14.00" fill="#4d4d4d">(Mosquitto)</text>
</g>
<!-- Camera&#45;&gt;Broker3 -->
<g id="edge2" class="edge">
<title>Camera&#45;&gt;Broker3</title>
<path fill="none" stroke="#c0c0c0" d="M214.4217,-685.295C237.0038,-685.295 264.0408,-685.295 289.1357,-685.295"/>
<polygon fill="#c0c0c0" stroke="#c0c0c0" points="214.1549,-681.7951 204.1549,-685.295 214.1548,-688.7951 214.1549,-681.7951"/>
<polygon fill="#c0c0c0" stroke="#c0c0c0" points="289.3809,-688.7951 299.3809,-685.295 289.3809,-681.7951 289.3809,-688.7951"/>
<text text-anchor="middle" x="265.8779" y="-688.895" font-family="sans-serif" font-size="12.00" fill="#4d4d4d"> &#160;TCP &#160;</text>
</g>
<!-- Autoclave -->
<g id="node6" class="node">
<title>Autoclave</title>
<ellipse fill="#e6e6fa" stroke="#c0c0c0" cx="162.9905" cy="-395.295" rx="50.9425" ry="18"/>
<text text-anchor="middle" x="162.9905" y="-391.095" font-family="sans-serif" font-size="14.00" fill="#4d4d4d">Autoclave</text>
</g>
<!-- CPC -->
<g id="node12" class="node">
<title>CPC</title>
<ellipse fill="#add8e6" stroke="#c0c0c0" cx="368.852" cy="-420.295" rx="50.4587" ry="18"/>
<text text-anchor="middle" x="368.852" y="-416.095" font-family="sans-serif" font-size="14.00" fill="#4d4d4d">ASC CPC</text>
</g>
<!-- Autoclave&#45;&gt;CPC -->
<g id="edge3" class="edge">
<title>Autoclave&#45;&gt;CPC</title>
<path fill="none" stroke="#c0c0c0" d="M220.958,-402.3347C249.0132,-405.7417 282.6153,-409.8224 310.6954,-413.2324"/>
<polygon fill="#c0c0c0" stroke="#c0c0c0" points="221.3451,-398.856 210.9961,-401.1249 220.5012,-405.805 221.3451,-398.856"/>
<polygon fill="#c0c0c0" stroke="#c0c0c0" points="310.4213,-416.7248 320.7703,-414.456 311.2652,-409.7758 310.4213,-416.7248"/>
</g>
<!-- Adapter -->
<g id="node13" class="node">
<title>Adapter</title>
<ellipse fill="#adff2f" stroke="#c0c0c0" cx="572.3213" cy="-601.295" rx="70.8664" ry="65.1077"/>
<text text-anchor="middle" x="572.3213" y="-630.695" font-family="sans-serif" font-size="14.00" fill="#4d4d4d">MTConnect</text>
<text text-anchor="middle" x="572.3213" y="-613.895" font-family="sans-serif" font-size="14.00" fill="#4d4d4d">Adapter</text>
<text text-anchor="middle" x="572.3213" y="-597.095" font-family="sans-serif" font-size="14.00" fill="#4d4d4d">with cache and</text>
<text text-anchor="middle" x="572.3213" y="-580.295" font-family="sans-serif" font-size="14.00" fill="#4d4d4d">plugins</text>
<text text-anchor="middle" x="572.3213" y="-563.495" font-family="sans-serif" font-size="14.00" fill="#4d4d4d">(NodeJS)</text>
</g>
<!-- Broker1&#45;&gt;Adapter -->
<g id="edge4" class="edge">
<title>Broker1&#45;&gt;Adapter</title>
<path fill="none" stroke="#c0c0c0" d="M419.5574,-740.2785C425.9606,-736.1216 432.3134,-731.741 438.1688,-727.295 465.8392,-706.2855 494.2055,-680.3925 517.6849,-657.5545"/>
<polygon fill="#c0c0c0" stroke="#c0c0c0" points="417.4176,-737.4905 410.8364,-745.7934 421.159,-743.4068 417.4176,-737.4905"/>
<polygon fill="#c0c0c0" stroke="#c0c0c0" points="520.4382,-659.7567 525.1293,-650.257 515.538,-654.7579 520.4382,-659.7567"/>
<text text-anchor="middle" x="468.1672" y="-720.895" font-family="sans-serif" font-size="12.00" fill="#4d4d4d">MQTT</text>
</g>
<!-- Broker3&#45;&gt;Adapter -->
<g id="edge5" class="edge">
<title>Broker3&#45;&gt;Adapter</title>
<path fill="none" stroke="#c0c0c0" d="M427.9796,-660.8849C449.9362,-651.8203 475.1244,-641.4217 498.2491,-631.8749"/>
<polygon fill="#c0c0c0" stroke="#c0c0c0" points="426.5338,-657.6951 418.6262,-664.7463 429.2051,-664.1654 426.5338,-657.6951"/>
<polygon fill="#c0c0c0" stroke="#c0c0c0" points="499.7682,-635.0344 507.6759,-627.9832 497.097,-628.5641 499.7682,-635.0344"/>
<text text-anchor="middle" x="468.1672" y="-655.895" font-family="sans-serif" font-size="12.00" fill="#4d4d4d">MQTT</text>
</g>
<!-- Broker4 -->
<g id="node9" class="node">
<title>Broker4</title>
<ellipse fill="#add8e6" stroke="#c0c0c0" cx="368.852" cy="-601.295" rx="69.1341" ry="29.3315"/>
<text text-anchor="middle" x="368.852" y="-605.495" font-family="sans-serif" font-size="14.00" fill="#4d4d4d">MQTT Broker</text>
<text text-anchor="middle" x="368.852" y="-588.695" font-family="sans-serif" font-size="14.00" fill="#4d4d4d">(Mosquitto)</text>
</g>
<!-- Broker4&#45;&gt;Adapter -->
<g id="edge6" class="edge">
<title>Broker4&#45;&gt;Adapter</title>
<path fill="none" stroke="#c0c0c0" d="M448.4738,-601.295C462.5379,-601.295 477.1946,-601.295 491.2968,-601.295"/>
<polygon fill="#c0c0c0" stroke="#c0c0c0" points="448.3055,-597.7951 438.3055,-601.295 448.3054,-604.7951 448.3055,-597.7951"/>
<polygon fill="#c0c0c0" stroke="#c0c0c0" points="491.4511,-604.7951 501.451,-601.295 491.451,-597.7951 491.4511,-604.7951"/>
<text text-anchor="middle" x="468.1672" y="-604.895" font-family="sans-serif" font-size="12.00" fill="#4d4d4d">MQTT</text>
</g>
<!-- Kepware1&#45;&gt;Adapter -->
<g id="edge9" class="edge">
<title>Kepware1&#45;&gt;Adapter</title>
<path fill="none" stroke="#c0c0c0" d="M413.0018,-535.5218C437.8888,-545.7961 469.6309,-558.9005 498.222,-570.704"/>
<polygon fill="#c0c0c0" stroke="#c0c0c0" points="497.204,-574.0702 507.7829,-574.6511 499.8753,-567.5999 497.204,-574.0702"/>
<text text-anchor="middle" x="468.1672" y="-569.895" font-family="sans-serif" font-size="12.00" fill="#4d4d4d">OPC/UA</text>
</g>
<!-- Kepware2&#45;&gt;Broker4 -->
<g id="edge12" class="edge">
<title>Kepware2&#45;&gt;Broker4</title>
<path fill="none" stroke="#c0c0c0" d="M226.4355,-601.295C246.3345,-601.295 268.5541,-601.295 289.4139,-601.295"/>
<polygon fill="#c0c0c0" stroke="#c0c0c0" points="289.5289,-604.7951 299.5288,-601.295 289.5288,-597.7951 289.5289,-604.7951"/>
<text text-anchor="middle" x="265.8779" y="-604.895" font-family="sans-serif" font-size="12.00" fill="#4d4d4d">MQTT</text>
</g>
<!-- CPC&#45;&gt;Adapter -->
<g id="edge10" class="edge">
<title>CPC&#45;&gt;Adapter</title>
<path fill="none" stroke="#c0c0c0" d="M390.4608,-436.695C404.3283,-447.4008 422.59,-461.8393 438.1688,-475.295 464.4617,-498.0048 492.6208,-524.1537 516.3174,-546.7235"/>
<polygon fill="#c0c0c0" stroke="#c0c0c0" points="514.198,-549.5393 523.8463,-553.9167 519.0337,-544.4779 514.198,-549.5393"/>
<text text-anchor="middle" x="468.1672" y="-521.895" font-family="sans-serif" font-size="12.00" fill="#4d4d4d">text</text>
</g>
<!-- Agent -->
<g id="node14" class="node">
<title>Agent</title>
<ellipse fill="#adff2f" stroke="#c0c0c0" cx="572.3213" cy="-441.295" rx="74.3117" ry="41.0911"/>
<text text-anchor="middle" x="572.3213" y="-453.895" font-family="sans-serif" font-size="14.00" fill="#4d4d4d">MTConnect</text>
<text text-anchor="middle" x="572.3213" y="-437.095" font-family="sans-serif" font-size="14.00" fill="#4d4d4d">Agent</text>
<text text-anchor="middle" x="572.3213" y="-420.295" font-family="sans-serif" font-size="14.00" fill="#4d4d4d">(C++/cppagent)</text>
</g>
<!-- Adapter&#45;&gt;Agent -->
<g id="edge13" class="edge">
<title>Adapter&#45;&gt;Agent</title>
<path fill="none" stroke="#c0c0c0" d="M572.3213,-525.8793C572.3213,-514.7846 572.3213,-503.572 572.3213,-493.0987"/>
<polygon fill="#c0c0c0" stroke="#c0c0c0" points="568.8214,-526.0105 572.3213,-536.0105 575.8214,-526.0105 568.8214,-526.0105"/>
<polygon fill="#c0c0c0" stroke="#c0c0c0" points="575.8214,-492.9154 572.3213,-482.9155 568.8214,-492.9155 575.8214,-492.9154"/>
<text text-anchor="middle" x="554.9213" y="-513.0156" font-family="sans-serif" font-size="12.00" fill="#4d4d4d">SHDR / &#160;&#160;</text>
<text text-anchor="middle" x="554.9213" y="-498.6156" font-family="sans-serif" font-size="12.00" fill="#4d4d4d">TCP 7878+ &#160;&#160;&#160;&#160;&#160;&#160;&#160;&#160;</text>
</g>
<!-- Application -->
<g id="node15" class="node">
<title>Application</title>
<ellipse fill="#adff2f" stroke="#c0c0c0" cx="572.3213" cy="-305.295" rx="59.3044" ry="41.0911"/>
<text text-anchor="middle" x="572.3213" y="-317.895" font-family="sans-serif" font-size="14.00" fill="#4d4d4d">MTConnect</text>
<text text-anchor="middle" x="572.3213" y="-301.095" font-family="sans-serif" font-size="14.00" fill="#4d4d4d">Application</text>
<text text-anchor="middle" x="572.3213" y="-284.295" font-family="sans-serif" font-size="14.00" fill="#4d4d4d">(NodeJS)</text>
</g>
<!-- Agent&#45;&gt;Application -->
<g id="edge14" class="edge">
<title>Agent&#45;&gt;Application</title>
<path fill="none" stroke="#c0c0c0" d="M572.3213,-389.503C572.3213,-378.817 572.3213,-367.564 572.3213,-356.8852"/>
<polygon fill="#c0c0c0" stroke="#c0c0c0" points="568.8214,-389.5373 572.3213,-399.5373 575.8214,-389.5374 568.8214,-389.5373"/>
<polygon fill="#c0c0c0" stroke="#c0c0c0" points="575.8214,-356.8385 572.3213,-346.8385 568.8214,-356.8385 575.8214,-356.8385"/>
<text text-anchor="middle" x="554.9213" y="-376.895" font-family="sans-serif" font-size="12.00" fill="#4d4d4d">XML / </text>
<text text-anchor="middle" x="554.9213" y="-362.495" font-family="sans-serif" font-size="12.00" fill="#4d4d4d">HTTP 5000 &#160;&#160;&#160;&#160;&#160;&#160;&#160;&#160;&#160;</text>
</g>
<!-- Browser -->
<g id="node19" class="node">
<title>Browser</title>
<ellipse fill="#e5e5e5" stroke="#c0c0c0" cx="787.7011" cy="-441.295" rx="43.9983" ry="18"/>
<text text-anchor="middle" x="787.7011" y="-437.095" font-family="sans-serif" font-size="14.00" fill="#4d4d4d">Browser</text>
</g>
<!-- Agent&#45;&gt;Browser -->
<g id="edge15" class="edge">
<title>Agent&#45;&gt;Browser</title>
<path fill="none" stroke="#c0c0c0" d="M646.7444,-441.295C675.2974,-441.295 707.3102,-441.295 733.6029,-441.295"/>
<polygon fill="#c0c0c0" stroke="#c0c0c0" points="733.7496,-444.7951 743.7495,-441.295 733.7495,-437.7951 733.7496,-444.7951"/>
<text text-anchor="middle" x="682.9746" y="-459.295" font-family="sans-serif" font-size="12.00" fill="#4d4d4d">HTML /</text>
<text text-anchor="middle" x="682.9746" y="-444.895" font-family="sans-serif" font-size="12.00" fill="#4d4d4d">HTTP 5000</text>
</g>
<!-- Database -->
<g id="node16" class="node">
<title>Database</title>
<ellipse fill="#e5e5e5" stroke="#c0c0c0" cx="572.3213" cy="-173.295" rx="69.0714" ry="41.0911"/>
<text text-anchor="middle" x="572.3213" y="-185.895" font-family="sans-serif" font-size="14.00" fill="#4d4d4d">Database</text>
<text text-anchor="middle" x="572.3213" y="-169.095" font-family="sans-serif" font-size="14.00" fill="#4d4d4d">(InfluxDB/</text>
<text text-anchor="middle" x="572.3213" y="-152.295" font-family="sans-serif" font-size="14.00" fill="#4d4d4d">TimescaleDB)</text>
</g>
<!-- Application&#45;&gt;Database -->
<g id="edge16" class="edge">
<title>Application&#45;&gt;Database</title>
<path fill="none" stroke="#c0c0c0" d="M572.3213,-253.639C572.3213,-244.1484 572.3213,-234.6577 572.3213,-225.1671"/>
<polygon fill="#c0c0c0" stroke="#c0c0c0" points="568.8214,-253.9372 572.3213,-263.9373 575.8214,-253.9373 568.8214,-253.9372"/>
<polygon fill="#c0c0c0" stroke="#c0c0c0" points="575.8214,-224.8028 572.3213,-214.8028 568.8214,-224.8029 575.8214,-224.8028"/>
</g>
<!-- Visualizer -->
<g id="node17" class="node">
<title>Visualizer</title>
<ellipse fill="#e5e5e5" stroke="#c0c0c0" cx="572.3213" cy="-41.295" rx="51.9834" ry="41.0911"/>
<text text-anchor="middle" x="572.3213" y="-53.895" font-family="sans-serif" font-size="14.00" fill="#4d4d4d">Visualizer</text>
<text text-anchor="middle" x="572.3213" y="-37.095" font-family="sans-serif" font-size="14.00" fill="#4d4d4d">(Grafana/</text>
<text text-anchor="middle" x="572.3213" y="-20.295" font-family="sans-serif" font-size="14.00" fill="#4d4d4d">Superset)</text>
</g>
<!-- Database&#45;&gt;Visualizer -->
<g id="edge17" class="edge">
<title>Database&#45;&gt;Visualizer</title>
<path fill="none" stroke="#c0c0c0" d="M572.3213,-121.639C572.3213,-112.1484 572.3213,-102.6577 572.3213,-93.1671"/>
<polygon fill="#c0c0c0" stroke="#c0c0c0" points="568.8214,-121.9372 572.3213,-131.9373 575.8214,-121.9373 568.8214,-121.9372"/>
<polygon fill="#c0c0c0" stroke="#c0c0c0" points="575.8214,-92.8028 572.3213,-82.8028 568.8214,-92.8029 575.8214,-92.8028"/>
</g>
<!-- Cloud -->
<g id="node18" class="node">
<title>Cloud</title>
<ellipse fill="#e5e5e5" stroke="#c0c0c0" cx="787.7011" cy="-173.295" rx="68.4585" ry="29.3315"/>
<text text-anchor="middle" x="787.7011" y="-177.495" font-family="sans-serif" font-size="14.00" fill="#4d4d4d">Cloud Storage</text>
<text text-anchor="middle" x="787.7011" y="-160.695" font-family="sans-serif" font-size="14.00" fill="#4d4d4d">(AWS/GCP)</text>
</g>
<!-- Database&#45;&gt;Cloud -->
<g id="edge18" class="edge">
<title>Database&#45;&gt;Cloud</title>
<path fill="none" stroke="#c0c0c0" d="M641.3575,-173.295C663.0178,-173.295 687.0836,-173.295 709.3401,-173.295"/>
<polygon fill="#c0c0c0" stroke="#c0c0c0" points="709.4236,-176.7951 719.4236,-173.295 709.4235,-169.7951 709.4236,-176.7951"/>
</g>
</g>
</svg>
