<?xml version="1.0" encoding="UTF-8" standalone="no"?>
<!DOCTYPE svg PUBLIC "-//W3C//DTD SVG 1.1//EN"
 "http://www.w3.org/Graphics/SVG/1.1/DTD/svg11.dtd">
<!-- Generated by graphviz version 2.40.1 (20161225.0304)
 -->
<!-- Title: ladder99&#45;adapter Pages: 1 -->
<svg width="939pt" height="887pt"
 viewBox="0.00 0.00 939.13 886.71" xmlns="http://www.w3.org/2000/svg" xmlns:xlink="http://www.w3.org/1999/xlink">
<g id="graph0" class="graph" transform="scale(1 1) rotate(0) translate(4 882.7107)">
<title>ladder99&#45;adapter</title>
<polygon fill="#ffffff" stroke="transparent" points="-4,4 -4,-882.7107 935.1303,-882.7107 935.1303,4 -4,4"/>
<text text-anchor="middle" x="465.5652" y="-856.7107" font-family="Times,serif" font-size="20.00" fill="#000000">Ladder99 MTConnect data flow</text>
<text text-anchor="middle" x="465.5652" y="-832.7107" font-family="Times,serif" font-size="20.00" fill="#000000"> </text>
<!-- PA1 -->
<g id="node1" class="node">
<title>PA1</title>
<ellipse fill="#e6e6fa" stroke="#c0c0c0" cx="216.6319" cy="-793.295" rx="58.5886" ry="18"/>
<text text-anchor="middle" x="216.6319" y="-789.095" font-family="Times,serif" font-size="14.00" fill="#000000">CCS P&amp;A 1</text>
</g>
<!-- Broker1 -->
<g id="node7" class="node">
<title>Broker1</title>
<ellipse fill="#ffffff" stroke="#c0c0c0" cx="397.6616" cy="-793.295" rx="69.1341" ry="29.3315"/>
<text text-anchor="middle" x="397.6616" y="-797.495" font-family="Times,serif" font-size="14.00" fill="#000000">MQTT Broker</text>
<text text-anchor="middle" x="397.6616" y="-780.695" font-family="Times,serif" font-size="14.00" fill="#000000">(Mosquitto)</text>
</g>
<!-- PA1&#45;&gt;Broker1 -->
<g id="edge1" class="edge">
<title>PA1&#45;&gt;Broker1</title>
<path fill="none" stroke="#c0c0c0" d="M286.2651,-793.295C296.6827,-793.295 307.4906,-793.295 318.095,-793.295"/>
<polygon fill="#c0c0c0" stroke="#c0c0c0" points="285.9079,-789.7951 275.9078,-793.295 285.9078,-796.7951 285.9079,-789.7951"/>
<polygon fill="#c0c0c0" stroke="#c0c0c0" points="318.1805,-796.7951 328.1805,-793.295 318.1804,-789.7951 318.1805,-796.7951"/>
<text text-anchor="middle" x="303.3426" y="-796.895" font-family="Times,serif" font-size="12.00" fill="#4d4d4d"> &#160;TCP &#160;</text>
</g>
<!-- PA2 -->
<g id="node2" class="node">
<title>PA2</title>
<ellipse fill="#e6e6fa" stroke="#c0c0c0" cx="216.6319" cy="-565.295" rx="58.5886" ry="18"/>
<text text-anchor="middle" x="216.6319" y="-561.095" font-family="Times,serif" font-size="14.00" fill="#000000">CCS P&amp;A 2</text>
</g>
<!-- Broker2 -->
<g id="node8" class="node">
<title>Broker2</title>
<ellipse fill="#ffffff" stroke="#c0c0c0" cx="397.6616" cy="-565.295" rx="69.1341" ry="29.3315"/>
<text text-anchor="middle" x="397.6616" y="-569.495" font-family="Times,serif" font-size="14.00" fill="#000000">MQTT Broker</text>
<text text-anchor="middle" x="397.6616" y="-552.695" font-family="Times,serif" font-size="14.00" fill="#000000">(Mosquitto)</text>
</g>
<!-- PA2&#45;&gt;Broker2 -->
<g id="edge2" class="edge">
<title>PA2&#45;&gt;Broker2</title>
<path fill="none" stroke="#c0c0c0" d="M286.2651,-565.295C296.6827,-565.295 307.4906,-565.295 318.095,-565.295"/>
<polygon fill="#c0c0c0" stroke="#c0c0c0" points="285.9079,-561.7951 275.9078,-565.295 285.9078,-568.7951 285.9079,-561.7951"/>
<polygon fill="#c0c0c0" stroke="#c0c0c0" points="318.1805,-568.7951 328.1805,-565.295 318.1804,-561.7951 318.1805,-568.7951"/>
<text text-anchor="middle" x="303.3426" y="-568.895" font-family="Times,serif" font-size="12.00" fill="#4d4d4d"> &#160;TCP &#160;</text>
</g>
<!-- Kepware1 -->
<g id="node3" class="node">
<title>Kepware1</title>
<ellipse fill="#ffffff" stroke="#c0c0c0" cx="397.6616" cy="-709.295" rx="55.6916" ry="29.3315"/>
<text text-anchor="middle" x="397.6616" y="-713.495" font-family="Times,serif" font-size="14.00" fill="#000000">Kepware</text>
<text text-anchor="middle" x="397.6616" y="-696.695" font-family="Times,serif" font-size="14.00" fill="#000000">(Windows)</text>
</g>
<!-- Adapter -->
<g id="node13" class="node">
<title>Adapter</title>
<ellipse fill="#ffffff" stroke="#c0c0c0" cx="601.1309" cy="-601.295" rx="59.3044" ry="65.1077"/>
<text text-anchor="middle" x="601.1309" y="-630.695" font-family="Times,serif" font-size="14.00" fill="#000000">MTConnect</text>
<text text-anchor="middle" x="601.1309" y="-613.895" font-family="Times,serif" font-size="14.00" fill="#000000">Adapter</text>
<text text-anchor="middle" x="601.1309" y="-597.095" font-family="Times,serif" font-size="14.00" fill="#000000">with cache</text>
<text text-anchor="middle" x="601.1309" y="-580.295" font-family="Times,serif" font-size="14.00" fill="#000000">and plugins</text>
<text text-anchor="middle" x="601.1309" y="-563.495" font-family="Times,serif" font-size="14.00" fill="#000000">(NodeJS)</text>
</g>
<!-- Kepware1&#45;&gt;Adapter -->
<g id="edge9" class="edge">
<title>Kepware1&#45;&gt;Adapter</title>
<path fill="none" stroke="#c0c0c0" d="M437.3756,-688.2152C466.1293,-672.9529 505.5717,-652.0172 538.5418,-634.5169"/>
<polygon fill="#c0c0c0" stroke="#c0c0c0" points="540.4633,-637.4595 547.6551,-629.6796 537.1813,-631.2765 540.4633,-637.4595"/>
<text text-anchor="middle" x="496.9768" y="-670.895" font-family="Times,serif" font-size="12.00" fill="#4d4d4d">OPC/UA</text>
</g>
<!-- Kepware2 -->
<g id="node4" class="node">
<title>Kepware2</title>
<ellipse fill="#ffffff" stroke="#c0c0c0" cx="68.9618" cy="-397.295" rx="55.6916" ry="29.3315"/>
<text text-anchor="middle" x="68.9618" y="-401.495" font-family="Times,serif" font-size="14.00" fill="#000000">Kepware</text>
<text text-anchor="middle" x="68.9618" y="-384.695" font-family="Times,serif" font-size="14.00" fill="#000000">(Windows)</text>
</g>
<!-- Gateway -->
<g id="node6" class="node">
<title>Gateway</title>
<ellipse fill="#ffffff" stroke="#c0c0c0" cx="216.6319" cy="-397.295" rx="61.9176" ry="18"/>
<text text-anchor="middle" x="216.6319" y="-393.095" font-family="Times,serif" font-size="14.00" fill="#000000">IoT Gateway</text>
</g>
<!-- Kepware2&#45;&gt;Gateway -->
<g id="edge10" class="edge">
<title>Kepware2&#45;&gt;Gateway</title>
<path fill="none" stroke="#c0c0c0" d="M125.2108,-397.295C131.5225,-397.295 138.0162,-397.295 144.4925,-397.295"/>
<polygon fill="#c0c0c0" stroke="#c0c0c0" points="144.6267,-400.7951 154.6266,-397.295 144.6266,-393.7951 144.6267,-400.7951"/>
</g>
<!-- CPC -->
<g id="node5" class="node">
<title>CPC</title>
<ellipse fill="#e6e6fa" stroke="#c0c0c0" cx="397.6616" cy="-637.295" rx="50.4587" ry="18"/>
<text text-anchor="middle" x="397.6616" y="-633.095" font-family="Times,serif" font-size="14.00" fill="#000000">ASC CPC</text>
</g>
<!-- CPC&#45;&gt;Adapter -->
<g id="edge11" class="edge">
<title>CPC&#45;&gt;Adapter</title>
<path fill="none" stroke="#c0c0c0" d="M443.0708,-629.2607C469.483,-624.5876 503.2913,-618.6059 532.8569,-613.3748"/>
<polygon fill="#c0c0c0" stroke="#c0c0c0" points="533.4667,-616.8214 542.704,-611.6326 532.2471,-609.9284 533.4667,-616.8214"/>
<text text-anchor="middle" x="496.9768" y="-626.895" font-family="Times,serif" font-size="12.00" fill="#4d4d4d">text</text>
</g>
<!-- Broker4 -->
<g id="node10" class="node">
<title>Broker4</title>
<ellipse fill="#ffffff" stroke="#c0c0c0" cx="397.6616" cy="-397.295" rx="69.1341" ry="29.3315"/>
<text text-anchor="middle" x="397.6616" y="-401.495" font-family="Times,serif" font-size="14.00" fill="#000000">MQTT Broker</text>
<text text-anchor="middle" x="397.6616" y="-384.695" font-family="Times,serif" font-size="14.00" fill="#000000">(Mosquitto)</text>
</g>
<!-- Gateway&#45;&gt;Broker4 -->
<g id="edge12" class="edge">
<title>Gateway&#45;&gt;Broker4</title>
<path fill="none" stroke="#c0c0c0" d="M278.4258,-397.295C291.1588,-397.295 304.7378,-397.295 318.0013,-397.295"/>
<polygon fill="#c0c0c0" stroke="#c0c0c0" points="318.0632,-400.7951 328.0632,-397.295 318.0632,-393.7951 318.0632,-400.7951"/>
<text text-anchor="middle" x="303.3426" y="-400.895" font-family="Times,serif" font-size="12.00" fill="#4d4d4d">MQTT</text>
</g>
<!-- Broker1&#45;&gt;Adapter -->
<g id="edge3" class="edge">
<title>Broker1&#45;&gt;Adapter</title>
<path fill="none" stroke="#c0c0c0" d="M448.9954,-764.5874C455.2509,-760.4012 461.3964,-755.9297 466.9784,-751.295 499.796,-724.0473 531.8238,-688.6722 556.3509,-659.1193"/>
<polygon fill="#c0c0c0" stroke="#c0c0c0" points="446.945,-761.7449 440.4395,-770.1073 450.74,-767.627 446.945,-761.7449"/>
<polygon fill="#c0c0c0" stroke="#c0c0c0" points="559.0945,-661.2933 562.7417,-651.346 553.6874,-656.8477 559.0945,-661.2933"/>
<text text-anchor="middle" x="496.9768" y="-746.895" font-family="Times,serif" font-size="12.00" fill="#4d4d4d">MQTT</text>
</g>
<!-- Broker2&#45;&gt;Adapter -->
<g id="edge4" class="edge">
<title>Broker2&#45;&gt;Adapter</title>
<path fill="none" stroke="#c0c0c0" d="M471.6199,-578.3805C491.4973,-581.8975 512.9068,-585.6855 532.4823,-589.149"/>
<polygon fill="#c0c0c0" stroke="#c0c0c0" points="472.2182,-574.9321 461.7613,-576.6362 470.9985,-581.8251 472.2182,-574.9321"/>
<polygon fill="#c0c0c0" stroke="#c0c0c0" points="532.0772,-592.6316 542.534,-590.9274 533.2968,-585.7386 532.0772,-592.6316"/>
<text text-anchor="middle" x="496.9768" y="-589.895" font-family="Times,serif" font-size="12.00" fill="#4d4d4d">MQTT</text>
</g>
<!-- Broker3 -->
<g id="node9" class="node">
<title>Broker3</title>
<ellipse fill="#ffffff" stroke="#c0c0c0" cx="397.6616" cy="-481.295" rx="69.1341" ry="29.3315"/>
<text text-anchor="middle" x="397.6616" y="-485.495" font-family="Times,serif" font-size="14.00" fill="#000000">MQTT Broker</text>
<text text-anchor="middle" x="397.6616" y="-468.695" font-family="Times,serif" font-size="14.00" fill="#000000">(Mosquitto)</text>
</g>
<!-- Broker3&#45;&gt;Adapter -->
<g id="edge5" class="edge">
<title>Broker3&#45;&gt;Adapter</title>
<path fill="none" stroke="#c0c0c0" d="M447.2013,-510.512C475.2501,-527.0543 510.5585,-547.8782 540.2815,-565.4079"/>
<polygon fill="#c0c0c0" stroke="#c0c0c0" points="448.7392,-507.3557 438.3476,-505.2904 445.1832,-513.3852 448.7392,-507.3557"/>
<polygon fill="#c0c0c0" stroke="#c0c0c0" points="538.5164,-568.4302 548.908,-570.4956 542.0725,-562.4007 538.5164,-568.4302"/>
<text text-anchor="middle" x="496.9768" y="-554.895" font-family="Times,serif" font-size="12.00" fill="#4d4d4d">MQTT</text>
</g>
<!-- Broker4&#45;&gt;Adapter -->
<g id="edge6" class="edge">
<title>Broker4&#45;&gt;Adapter</title>
<path fill="none" stroke="#c0c0c0" d="M449.415,-425.9701C455.5557,-430.1415 461.5588,-434.6182 466.9784,-439.295 501.6398,-469.2055 534.5273,-508.6748 559.0648,-541.1661"/>
<polygon fill="#c0c0c0" stroke="#c0c0c0" points="451.2861,-423.0119 440.998,-420.4809 447.4623,-428.8752 451.2861,-423.0119"/>
<polygon fill="#c0c0c0" stroke="#c0c0c0" points="556.3288,-543.3518 565.1192,-549.2661 561.9357,-539.1609 556.3288,-543.3518"/>
<text text-anchor="middle" x="496.9768" y="-490.895" font-family="Times,serif" font-size="12.00" fill="#4d4d4d">MQTT</text>
</g>
<!-- OldMachine1 -->
<g id="node11" class="node">
<title>OldMachine1</title>
<ellipse fill="#e6e6fa" stroke="#c0c0c0" cx="68.9618" cy="-481.295" rx="68.9235" ry="18"/>
<text text-anchor="middle" x="68.9618" y="-477.095" font-family="Times,serif" font-size="14.00" fill="#000000">Old Machine 1</text>
</g>
<!-- PLC4X -->
<g id="node12" class="node">
<title>PLC4X</title>
<ellipse fill="#ffffff" stroke="#c0c0c0" cx="216.6319" cy="-481.295" rx="41.6253" ry="29.3315"/>
<text text-anchor="middle" x="216.6319" y="-485.495" font-family="Times,serif" font-size="14.00" fill="#000000">PLC4X</text>
<text text-anchor="middle" x="216.6319" y="-468.695" font-family="Times,serif" font-size="14.00" fill="#000000">(Java)</text>
</g>
<!-- OldMachine1&#45;&gt;PLC4X -->
<g id="edge7" class="edge">
<title>OldMachine1&#45;&gt;PLC4X</title>
<path fill="none" stroke="#c0c0c0" d="M138.0409,-481.295C147.0063,-481.295 156.0657,-481.295 164.6873,-481.295"/>
<polygon fill="#c0c0c0" stroke="#c0c0c0" points="164.9508,-484.7951 174.9508,-481.295 164.9508,-477.7951 164.9508,-484.7951"/>
</g>
<!-- PLC4X&#45;&gt;Broker3 -->
<g id="edge8" class="edge">
<title>PLC4X&#45;&gt;Broker3</title>
<path fill="none" stroke="#c0c0c0" d="M258.6188,-481.295C276.3915,-481.295 297.7081,-481.295 318.2501,-481.295"/>
<polygon fill="#c0c0c0" stroke="#c0c0c0" points="318.2533,-484.7951 328.2532,-481.295 318.2532,-477.7951 318.2533,-484.7951"/>
</g>
<!-- DiodeSender -->
<g id="node14" class="node">
<title>DiodeSender</title>
<ellipse fill="#ffffff" stroke="#c0c0c0" cx="847.7107" cy="-591.295" rx="83.3394" ry="29.3315"/>
<text text-anchor="middle" x="847.7107" y="-595.495" font-family="Times,serif" font-size="14.00" fill="#000000">Diode Sender</text>
<text text-anchor="middle" x="847.7107" y="-578.695" font-family="Times,serif" font-size="14.00" fill="#000000">(Java+RabbitMQ)</text>
</g>
<!-- Adapter&#45;&gt;DiodeSender -->
<g id="edge14" class="edge">
<title>Adapter&#45;&gt;DiodeSender</title>
<path fill="none" stroke="#c0c0c0" stroke-dasharray="1,5" d="M670.6191,-598.477C696.6441,-597.4215 726.6478,-596.2047 754.4761,-595.0761"/>
<polygon fill="#c0c0c0" stroke="#c0c0c0" points="670.3566,-594.9846 660.5067,-598.8871 670.6404,-601.9789 670.3566,-594.9846"/>
<polygon fill="#c0c0c0" stroke="#c0c0c0" points="754.7688,-598.5673 764.6188,-594.6648 754.4851,-591.573 754.7688,-598.5673"/>
<text text-anchor="middle" x="719.7888" y="-615.295" font-family="Times,serif" font-size="12.00" fill="#4d4d4d">SHDR / &#160;&#160;</text>
<text text-anchor="middle" x="719.7888" y="-600.895" font-family="Times,serif" font-size="12.00" fill="#4d4d4d">TCP 7878 &#160;&#160;&#160;&#160;&#160;</text>
</g>
<!-- Agent -->
<g id="node16" class="node">
<title>Agent</title>
<ellipse fill="#ffffff" stroke="#c0c0c0" cx="601.1309" cy="-441.295" rx="74.3117" ry="41.0911"/>
<text text-anchor="middle" x="601.1309" y="-453.895" font-family="Times,serif" font-size="14.00" fill="#000000">MTConnect</text>
<text text-anchor="middle" x="601.1309" y="-437.095" font-family="Times,serif" font-size="14.00" fill="#000000">Agent</text>
<text text-anchor="middle" x="601.1309" y="-420.295" font-family="Times,serif" font-size="14.00" fill="#000000">(C++/cppagent)</text>
</g>
<!-- Adapter&#45;&gt;Agent -->
<g id="edge13" class="edge">
<title>Adapter&#45;&gt;Agent</title>
<path fill="none" stroke="#c0c0c0" d="M601.1309,-525.8793C601.1309,-514.7846 601.1309,-503.572 601.1309,-493.0987"/>
<polygon fill="#c0c0c0" stroke="#c0c0c0" points="597.631,-526.0105 601.1309,-536.0105 604.631,-526.0105 597.631,-526.0105"/>
<polygon fill="#c0c0c0" stroke="#c0c0c0" points="604.631,-492.9154 601.1309,-482.9155 597.631,-492.9155 604.631,-492.9154"/>
<text text-anchor="middle" x="583.7309" y="-513.0156" font-family="Times,serif" font-size="12.00" fill="#4d4d4d">SHDR / &#160;&#160;</text>
<text text-anchor="middle" x="583.7309" y="-498.6156" font-family="Times,serif" font-size="12.00" fill="#4d4d4d">TCP 7878 &#160;&#160;&#160;&#160;&#160;</text>
</g>
<!-- DiodeReceiver -->
<g id="node15" class="node">
<title>DiodeReceiver</title>
<ellipse fill="#ffffff" stroke="#c0c0c0" cx="847.7107" cy="-470.295" rx="83.3394" ry="29.3315"/>
<text text-anchor="middle" x="847.7107" y="-474.495" font-family="Times,serif" font-size="14.00" fill="#000000">Diode Receiver</text>
<text text-anchor="middle" x="847.7107" y="-457.695" font-family="Times,serif" font-size="14.00" fill="#000000">(Java+RabbitMQ)</text>
</g>
<!-- DiodeSender&#45;&gt;DiodeReceiver -->
<g id="edge15" class="edge">
<title>DiodeSender&#45;&gt;DiodeReceiver</title>
<path fill="none" stroke="#c0c0c0" stroke-dasharray="1,5" d="M847.7107,-561.5813C847.7107,-546.0355 847.7107,-526.7924 847.7107,-509.9881"/>
<polygon fill="#c0c0c0" stroke="#c0c0c0" points="851.2108,-509.8949 847.7107,-499.895 844.2108,-509.895 851.2108,-509.8949"/>
<text text-anchor="middle" x="837.5107" y="-527.195" font-family="Times,serif" font-size="12.00" fill="#4d4d4d">UDP &#160;&#160;&#160;</text>
</g>
<!-- DiodeReceiver&#45;&gt;Agent -->
<g id="edge16" class="edge">
<title>DiodeReceiver&#45;&gt;Agent</title>
<path fill="none" stroke="#c0c0c0" stroke-dasharray="1,5" d="M768.2596,-460.9509C741.3419,-457.7851 711.2189,-454.2424 684.0393,-451.0458"/>
<polygon fill="#c0c0c0" stroke="#c0c0c0" points="684.1197,-447.5312 673.7793,-449.8391 683.302,-454.4833 684.1197,-447.5312"/>
<text text-anchor="middle" x="719.7888" y="-476.295" font-family="Times,serif" font-size="12.00" fill="#4d4d4d">SHDR / &#160;&#160;&#160;</text>
<text text-anchor="middle" x="719.7888" y="-461.895" font-family="Times,serif" font-size="12.00" fill="#4d4d4d">TCP 7878 &#160;&#160;&#160;&#160;&#160;&#160;&#160;</text>
</g>
<!-- Application -->
<g id="node17" class="node">
<title>Application</title>
<ellipse fill="#ffffff" stroke="#c0c0c0" cx="601.1309" cy="-305.295" rx="59.3044" ry="41.0911"/>
<text text-anchor="middle" x="601.1309" y="-317.895" font-family="Times,serif" font-size="14.00" fill="#000000">MTConnect</text>
<text text-anchor="middle" x="601.1309" y="-301.095" font-family="Times,serif" font-size="14.00" fill="#000000">Application</text>
<text text-anchor="middle" x="601.1309" y="-284.295" font-family="Times,serif" font-size="14.00" fill="#000000">(NodeJS)</text>
</g>
<!-- Agent&#45;&gt;Application -->
<g id="edge17" class="edge">
<title>Agent&#45;&gt;Application</title>
<path fill="none" stroke="#c0c0c0" d="M601.1309,-389.503C601.1309,-378.817 601.1309,-367.564 601.1309,-356.8852"/>
<polygon fill="#c0c0c0" stroke="#c0c0c0" points="597.631,-389.5373 601.1309,-399.5373 604.631,-389.5374 597.631,-389.5373"/>
<polygon fill="#c0c0c0" stroke="#c0c0c0" points="604.631,-356.8385 601.1309,-346.8385 597.631,-356.8385 604.631,-356.8385"/>
<text text-anchor="middle" x="583.7309" y="-376.895" font-family="Times,serif" font-size="12.00" fill="#4d4d4d">XML / </text>
<text text-anchor="middle" x="583.7309" y="-362.495" font-family="Times,serif" font-size="12.00" fill="#4d4d4d">HTTP 5000 &#160;&#160;&#160;&#160;&#160;&#160;&#160;&#160;&#160;</text>
</g>
<!-- Database -->
<g id="node18" class="node">
<title>Database</title>
<ellipse fill="#ffffff" stroke="#c0c0c0" cx="601.1309" cy="-173.295" rx="69.0714" ry="41.0911"/>
<text text-anchor="middle" x="601.1309" y="-185.895" font-family="Times,serif" font-size="14.00" fill="#000000">Database</text>
<text text-anchor="middle" x="601.1309" y="-169.095" font-family="Times,serif" font-size="14.00" fill="#000000">(InfluxDB/</text>
<text text-anchor="middle" x="601.1309" y="-152.295" font-family="Times,serif" font-size="14.00" fill="#000000">TimescaleDB)</text>
</g>
<!-- Application&#45;&gt;Database -->
<g id="edge18" class="edge">
<title>Application&#45;&gt;Database</title>
<path fill="none" stroke="#c0c0c0" d="M601.1309,-253.639C601.1309,-244.1484 601.1309,-234.6577 601.1309,-225.1671"/>
<polygon fill="#c0c0c0" stroke="#c0c0c0" points="597.631,-253.9372 601.1309,-263.9373 604.631,-253.9373 597.631,-253.9372"/>
<polygon fill="#c0c0c0" stroke="#c0c0c0" points="604.631,-224.8028 601.1309,-214.8028 597.631,-224.8029 604.631,-224.8028"/>
</g>
<!-- Visualizer -->
<g id="node19" class="node">
<title>Visualizer</title>
<ellipse fill="#ffffff" stroke="#c0c0c0" cx="601.1309" cy="-41.295" rx="51.9834" ry="41.0911"/>
<text text-anchor="middle" x="601.1309" y="-53.895" font-family="Times,serif" font-size="14.00" fill="#000000">Visualizer</text>
<text text-anchor="middle" x="601.1309" y="-37.095" font-family="Times,serif" font-size="14.00" fill="#000000">(Grafana/</text>
<text text-anchor="middle" x="601.1309" y="-20.295" font-family="Times,serif" font-size="14.00" fill="#000000">Superset)</text>
</g>
<!-- Database&#45;&gt;Visualizer -->
<g id="edge19" class="edge">
<title>Database&#45;&gt;Visualizer</title>
<path fill="none" stroke="#c0c0c0" d="M601.1309,-121.639C601.1309,-112.1484 601.1309,-102.6577 601.1309,-93.1671"/>
<polygon fill="#c0c0c0" stroke="#c0c0c0" points="597.631,-121.9372 601.1309,-131.9373 604.631,-121.9373 597.631,-121.9372"/>
<polygon fill="#c0c0c0" stroke="#c0c0c0" points="604.631,-92.8028 601.1309,-82.8028 597.631,-92.8029 604.631,-92.8028"/>
</g>
<!-- Cloud -->
<g id="node20" class="node">
<title>Cloud</title>
<ellipse fill="#ffffff" stroke="#c0c0c0" cx="847.7107" cy="-173.295" rx="68.4585" ry="29.3315"/>
<text text-anchor="middle" x="847.7107" y="-177.495" font-family="Times,serif" font-size="14.00" fill="#000000">Cloud Storage</text>
<text text-anchor="middle" x="847.7107" y="-160.695" font-family="Times,serif" font-size="14.00" fill="#000000">(AWS/GCP)</text>
</g>
<!-- Database&#45;&gt;Cloud -->
<g id="edge20" class="edge">
<title>Database&#45;&gt;Cloud</title>
<path fill="none" stroke="#c0c0c0" d="M670.4733,-173.295C701.1932,-173.295 737.4792,-173.295 769.192,-173.295"/>
<polygon fill="#c0c0c0" stroke="#c0c0c0" points="769.3149,-176.7951 779.3149,-173.295 769.3148,-169.7951 769.3149,-176.7951"/>
</g>
<!-- Admin -->
<g id="node21" class="node">
<title>Admin</title>
<ellipse fill="#ffffe0" stroke="#c0c0c0" cx="847.7107" cy="-41.295" rx="37.7217" ry="18"/>
<text text-anchor="middle" x="847.7107" y="-37.095" font-family="Times,serif" font-size="14.00" fill="#000000">Admin</text>
</g>
<!-- Visualizer&#45;&gt;Admin -->
<g id="edge21" class="edge">
<title>Visualizer&#45;&gt;Admin</title>
<path fill="none" stroke="#c0c0c0" d="M663.2814,-41.295C705.5019,-41.295 760.5302,-41.295 799.4554,-41.295"/>
<polygon fill="#c0c0c0" stroke="#c0c0c0" points="663.1229,-37.7951 653.1229,-41.295 663.1228,-44.7951 663.1229,-37.7951"/>
<polygon fill="#c0c0c0" stroke="#c0c0c0" points="799.4843,-44.7951 809.4843,-41.295 799.4842,-37.7951 799.4843,-44.7951"/>
</g>
</g>
</svg>
