<?xml version="1.0" encoding="UTF-8" standalone="no"?>
<!DOCTYPE svg PUBLIC "-//W3C//DTD SVG 1.1//EN"
 "http://www.w3.org/Graphics/SVG/1.1/DTD/svg11.dtd">
<!-- Generated by graphviz version 2.40.1 (20161225.0304)
 -->
<!-- Title: ladder99&#45;adapter Pages: 1 -->
<svg width="864pt" height="862pt"
 viewBox="0.00 0.00 863.93 861.71" xmlns="http://www.w3.org/2000/svg" xmlns:xlink="http://www.w3.org/1999/xlink">
<g id="graph0" class="graph" transform="scale(1 1) rotate(0) translate(4 857.7107)">
<title>ladder99&#45;adapter</title>
<polygon fill="#ffffff" stroke="transparent" points="-4,4 -4,-857.7107 859.93,-857.7107 859.93,4 -4,4"/>
<text text-anchor="middle" x="427.965" y="-831.7107" font-family="Times,serif" font-size="20.00" fill="#000000">Ladder99 MTConnect data flow</text>
<text text-anchor="middle" x="427.965" y="-807.7107" font-family="Times,serif" font-size="20.00" fill="#000000"> </text>
<!-- PA -->
<g id="node1" class="node">
<title>PA</title>
<ellipse fill="#e6e6fa" stroke="#c0c0c0" cx="162.9905" cy="-778.295" rx="51.6026" ry="18"/>
<text text-anchor="middle" x="162.9905" y="-774.095" font-family="Times,serif" font-size="14.00" fill="#000000">CCS P&amp;A</text>
</g>
<!-- Broker1 -->
<g id="node10" class="node">
<title>Broker1</title>
<ellipse fill="#ffffff" stroke="#c0c0c0" cx="368.852" cy="-768.295" rx="69.1341" ry="29.3315"/>
<text text-anchor="middle" x="368.852" y="-772.495" font-family="Times,serif" font-size="14.00" fill="#000000">MQTT Broker</text>
<text text-anchor="middle" x="368.852" y="-755.695" font-family="Times,serif" font-size="14.00" fill="#000000">(Mosquitto)</text>
</g>
<!-- PA&#45;&gt;Broker1 -->
<g id="edge1" class="edge">
<title>PA&#45;&gt;Broker1</title>
<path fill="none" stroke="#c0c0c0" d="M224.4078,-775.3116C244.8606,-774.3181 267.9403,-773.197 289.551,-772.1472"/>
<polygon fill="#c0c0c0" stroke="#c0c0c0" points="223.9605,-771.8291 214.1421,-775.8103 224.3002,-778.8209 223.9605,-771.8291"/>
<polygon fill="#c0c0c0" stroke="#c0c0c0" points="289.8734,-775.6357 299.6918,-771.6546 289.5337,-768.644 289.8734,-775.6357"/>
<text text-anchor="middle" x="265.8779" y="-777.895" font-family="Times,serif" font-size="12.00" fill="#4d4d4d"> &#160;TCP &#160;</text>
</g>
<!-- HMI -->
<g id="node2" class="node">
<title>HMI</title>
<ellipse fill="#e6e6fa" stroke="#c0c0c0" cx="162.9905" cy="-717.295" rx="69.4612" ry="18"/>
<text text-anchor="middle" x="162.9905" y="-713.095" font-family="Times,serif" font-size="14.00" fill="#000000">Rockwell HMI</text>
</g>
<!-- Kepware1 -->
<g id="node6" class="node">
<title>Kepware1</title>
<ellipse fill="#ffffff" stroke="#c0c0c0" cx="368.852" cy="-673.295" rx="55.6916" ry="29.3315"/>
<text text-anchor="middle" x="368.852" y="-677.495" font-family="Times,serif" font-size="14.00" fill="#000000">Kepware</text>
<text text-anchor="middle" x="368.852" y="-660.695" font-family="Times,serif" font-size="14.00" fill="#000000">(Windows)</text>
</g>
<!-- HMI&#45;&gt;Kepware1 -->
<g id="edge7" class="edge">
<title>HMI&#45;&gt;Kepware1</title>
<path fill="none" stroke="#c0c0c0" d="M216.5408,-705.8494C244.2484,-699.9273 278.2123,-692.668 307.0313,-686.5083"/>
<polygon fill="#c0c0c0" stroke="#c0c0c0" points="307.9441,-689.8924 316.9917,-684.3794 306.481,-683.047 307.9441,-689.8924"/>
<text text-anchor="middle" x="265.8779" y="-703.895" font-family="Times,serif" font-size="12.00" fill="#4d4d4d">ethernet/ip</text>
</g>
<!-- Motor -->
<g id="node3" class="node">
<title>Motor</title>
<ellipse fill="#e6e6fa" stroke="#c0c0c0" cx="162.9905" cy="-656.295" rx="56.8026" ry="18"/>
<text text-anchor="middle" x="162.9905" y="-652.095" font-family="Times,serif" font-size="14.00" fill="#000000">VFD Motor</text>
</g>
<!-- Motor&#45;&gt;Kepware1 -->
<g id="edge8" class="edge">
<title>Motor&#45;&gt;Kepware1</title>
<path fill="none" stroke="#c0c0c0" d="M218.1576,-660.8507C244.3482,-663.0135 275.84,-665.6141 303.2478,-667.8775"/>
<polygon fill="#c0c0c0" stroke="#c0c0c0" points="303.2784,-671.3918 313.5326,-668.7268 303.8546,-664.4156 303.2784,-671.3918"/>
<text text-anchor="middle" x="265.8779" y="-669.895" font-family="Times,serif" font-size="12.00" fill="#4d4d4d">modbus</text>
</g>
<!-- OldMachine3 -->
<g id="node4" class="node">
<title>OldMachine3</title>
<ellipse fill="#e6e6fa" stroke="#c0c0c0" cx="38.3801" cy="-445.295" rx="38.2607" ry="18"/>
<text text-anchor="middle" x="38.3801" y="-441.095" font-family="Times,serif" font-size="14.00" fill="#000000">Device</text>
</g>
<!-- Kepware2 -->
<g id="node7" class="node">
<title>Kepware2</title>
<ellipse fill="#ffffff" stroke="#c0c0c0" cx="162.9905" cy="-445.295" rx="63.0176" ry="41.0911"/>
<text text-anchor="middle" x="162.9905" y="-457.895" font-family="Times,serif" font-size="14.00" fill="#000000">Kepware+</text>
<text text-anchor="middle" x="162.9905" y="-441.095" font-family="Times,serif" font-size="14.00" fill="#000000">IoT Gateway</text>
<text text-anchor="middle" x="162.9905" y="-424.295" font-family="Times,serif" font-size="14.00" fill="#000000">(Windows)</text>
</g>
<!-- OldMachine3&#45;&gt;Kepware2 -->
<g id="edge11" class="edge">
<title>OldMachine3&#45;&gt;Kepware2</title>
<path fill="none" stroke="#c0c0c0" d="M76.7841,-445.295C80.8871,-445.295 85.153,-445.295 89.4938,-445.295"/>
<polygon fill="#c0c0c0" stroke="#c0c0c0" points="89.7171,-448.7951 99.7171,-445.295 89.717,-441.7951 89.7171,-448.7951"/>
</g>
<!-- Camera -->
<g id="node5" class="node">
<title>Camera</title>
<ellipse fill="#e6e6fa" stroke="#c0c0c0" cx="162.9905" cy="-529.295" rx="41.1277" ry="18"/>
<text text-anchor="middle" x="162.9905" y="-525.095" font-family="Times,serif" font-size="14.00" fill="#000000">Camera</text>
</g>
<!-- Broker3 -->
<g id="node11" class="node">
<title>Broker3</title>
<ellipse fill="#ffffff" stroke="#c0c0c0" cx="368.852" cy="-529.295" rx="69.1341" ry="29.3315"/>
<text text-anchor="middle" x="368.852" y="-533.495" font-family="Times,serif" font-size="14.00" fill="#000000">MQTT Broker</text>
<text text-anchor="middle" x="368.852" y="-516.695" font-family="Times,serif" font-size="14.00" fill="#000000">(Mosquitto)</text>
</g>
<!-- Camera&#45;&gt;Broker3 -->
<g id="edge2" class="edge">
<title>Camera&#45;&gt;Broker3</title>
<path fill="none" stroke="#c0c0c0" d="M214.4217,-529.295C237.0038,-529.295 264.0408,-529.295 289.1357,-529.295"/>
<polygon fill="#c0c0c0" stroke="#c0c0c0" points="214.1549,-525.7951 204.1549,-529.295 214.1548,-532.7951 214.1549,-525.7951"/>
<polygon fill="#c0c0c0" stroke="#c0c0c0" points="289.3809,-532.7951 299.3809,-529.295 289.3809,-525.7951 289.3809,-532.7951"/>
<text text-anchor="middle" x="265.8779" y="-532.895" font-family="Times,serif" font-size="12.00" fill="#4d4d4d"> &#160;TCP &#160;</text>
</g>
<!-- Adapter -->
<g id="node13" class="node">
<title>Adapter</title>
<ellipse fill="#ffffff" stroke="#c0c0c0" cx="572.3213" cy="-601.295" rx="70.8664" ry="65.1077"/>
<text text-anchor="middle" x="572.3213" y="-630.695" font-family="Times,serif" font-size="14.00" fill="#000000">MTConnect</text>
<text text-anchor="middle" x="572.3213" y="-613.895" font-family="Times,serif" font-size="14.00" fill="#000000">Adapter</text>
<text text-anchor="middle" x="572.3213" y="-597.095" font-family="Times,serif" font-size="14.00" fill="#000000">with cache and</text>
<text text-anchor="middle" x="572.3213" y="-580.295" font-family="Times,serif" font-size="14.00" fill="#000000">plugins</text>
<text text-anchor="middle" x="572.3213" y="-563.495" font-family="Times,serif" font-size="14.00" fill="#000000">(NodeJS)</text>
</g>
<!-- Kepware1&#45;&gt;Adapter -->
<g id="edge9" class="edge">
<title>Kepware1&#45;&gt;Adapter</title>
<path fill="none" stroke="#c0c0c0" d="M415.2769,-656.867C439.3033,-648.365 469.2429,-637.7705 496.518,-628.1189"/>
<polygon fill="#c0c0c0" stroke="#c0c0c0" points="497.7808,-631.3848 506.0404,-624.7493 495.4456,-624.7858 497.7808,-631.3848"/>
<text text-anchor="middle" x="468.1672" y="-648.895" font-family="Times,serif" font-size="12.00" fill="#4d4d4d">OPC/UA</text>
</g>
<!-- Broker4 -->
<g id="node12" class="node">
<title>Broker4</title>
<ellipse fill="#ffffff" stroke="#c0c0c0" cx="368.852" cy="-445.295" rx="69.1341" ry="29.3315"/>
<text text-anchor="middle" x="368.852" y="-449.495" font-family="Times,serif" font-size="14.00" fill="#000000">MQTT Broker</text>
<text text-anchor="middle" x="368.852" y="-432.695" font-family="Times,serif" font-size="14.00" fill="#000000">(Mosquitto)</text>
</g>
<!-- Kepware2&#45;&gt;Broker4 -->
<g id="edge12" class="edge">
<title>Kepware2&#45;&gt;Broker4</title>
<path fill="none" stroke="#c0c0c0" d="M226.4355,-445.295C246.3345,-445.295 268.5541,-445.295 289.4139,-445.295"/>
<polygon fill="#c0c0c0" stroke="#c0c0c0" points="289.5289,-448.7951 299.5288,-445.295 289.5288,-441.7951 289.5289,-448.7951"/>
<text text-anchor="middle" x="265.8779" y="-448.895" font-family="Times,serif" font-size="12.00" fill="#4d4d4d">MQTT</text>
</g>
<!-- Autoclave -->
<g id="node8" class="node">
<title>Autoclave</title>
<ellipse fill="#e6e6fa" stroke="#c0c0c0" cx="162.9905" cy="-595.295" rx="50.9425" ry="18"/>
<text text-anchor="middle" x="162.9905" y="-591.095" font-family="Times,serif" font-size="14.00" fill="#000000">Autoclave</text>
</g>
<!-- CPC -->
<g id="node9" class="node">
<title>CPC</title>
<ellipse fill="#ffffff" stroke="#c0c0c0" cx="368.852" cy="-601.295" rx="50.4587" ry="18"/>
<text text-anchor="middle" x="368.852" y="-597.095" font-family="Times,serif" font-size="14.00" fill="#000000">ASC CPC</text>
</g>
<!-- Autoclave&#45;&gt;CPC -->
<g id="edge3" class="edge">
<title>Autoclave&#45;&gt;CPC</title>
<path fill="none" stroke="#c0c0c0" d="M223.9919,-597.073C250.5482,-597.847 281.5959,-598.7519 308.1215,-599.525"/>
<polygon fill="#c0c0c0" stroke="#c0c0c0" points="223.7113,-593.5634 213.6136,-596.7705 223.5073,-600.5604 223.7113,-593.5634"/>
<polygon fill="#c0c0c0" stroke="#c0c0c0" points="308.3269,-603.0324 318.4247,-599.8253 308.5309,-596.0353 308.3269,-603.0324"/>
</g>
<!-- CPC&#45;&gt;Adapter -->
<g id="edge10" class="edge">
<title>CPC&#45;&gt;Adapter</title>
<path fill="none" stroke="#c0c0c0" d="M419.4092,-601.295C441.0357,-601.295 466.8343,-601.295 491.0249,-601.295"/>
<polygon fill="#c0c0c0" stroke="#c0c0c0" points="491.277,-604.7951 501.277,-601.295 491.277,-597.7951 491.277,-604.7951"/>
<text text-anchor="middle" x="468.1672" y="-604.895" font-family="Times,serif" font-size="12.00" fill="#4d4d4d">text</text>
</g>
<!-- Broker1&#45;&gt;Adapter -->
<g id="edge4" class="edge">
<title>Broker1&#45;&gt;Adapter</title>
<path fill="none" stroke="#c0c0c0" d="M411.3744,-736.3321C420.2924,-729.4756 429.5913,-722.2111 438.1688,-715.295 463.0725,-695.2151 490.0377,-672.4979 513.2156,-652.6568"/>
<polygon fill="#c0c0c0" stroke="#c0c0c0" points="409.1381,-733.6362 403.3231,-742.4926 413.3918,-739.1955 409.1381,-733.6362"/>
<polygon fill="#c0c0c0" stroke="#c0c0c0" points="515.6108,-655.2135 520.9223,-646.0463 511.0533,-649.9003 515.6108,-655.2135"/>
<text text-anchor="middle" x="468.1672" y="-709.895" font-family="Times,serif" font-size="12.00" fill="#4d4d4d">MQTT</text>
</g>
<!-- Broker3&#45;&gt;Adapter -->
<g id="edge5" class="edge">
<title>Broker3&#45;&gt;Adapter</title>
<path fill="none" stroke="#c0c0c0" d="M431.8543,-551.5891C452.3003,-558.8242 475.1997,-566.9274 496.48,-574.4577"/>
<polygon fill="#c0c0c0" stroke="#c0c0c0" points="432.9059,-548.2487 422.3111,-548.2122 430.5707,-554.8477 432.9059,-548.2487"/>
<polygon fill="#c0c0c0" stroke="#c0c0c0" points="495.5341,-577.8356 506.1288,-577.8721 497.8692,-571.2366 495.5341,-577.8356"/>
<text text-anchor="middle" x="468.1672" y="-574.895" font-family="Times,serif" font-size="12.00" fill="#4d4d4d">MQTT</text>
</g>
<!-- Broker4&#45;&gt;Adapter -->
<g id="edge6" class="edge">
<title>Broker4&#45;&gt;Adapter</title>
<path fill="none" stroke="#c0c0c0" d="M419.3508,-474.5907C425.7876,-478.7022 432.2047,-482.996 438.1688,-487.295 464.1202,-506.0013 491.2764,-528.468 514.314,-548.4931"/>
<polygon fill="#c0c0c0" stroke="#c0c0c0" points="420.9353,-471.4533 410.602,-469.1135 417.2208,-477.3865 420.9353,-471.4533"/>
<polygon fill="#c0c0c0" stroke="#c0c0c0" points="512.1298,-551.2326 521.9612,-555.1817 516.7383,-545.9636 512.1298,-551.2326"/>
<text text-anchor="middle" x="468.1672" y="-528.895" font-family="Times,serif" font-size="12.00" fill="#4d4d4d">MQTT</text>
</g>
<!-- Agent -->
<g id="node14" class="node">
<title>Agent</title>
<ellipse fill="#ffffff" stroke="#c0c0c0" cx="572.3213" cy="-441.295" rx="74.3117" ry="41.0911"/>
<text text-anchor="middle" x="572.3213" y="-453.895" font-family="Times,serif" font-size="14.00" fill="#000000">MTConnect</text>
<text text-anchor="middle" x="572.3213" y="-437.095" font-family="Times,serif" font-size="14.00" fill="#000000">Agent</text>
<text text-anchor="middle" x="572.3213" y="-420.295" font-family="Times,serif" font-size="14.00" fill="#000000">(C++/cppagent)</text>
</g>
<!-- Adapter&#45;&gt;Agent -->
<g id="edge13" class="edge">
<title>Adapter&#45;&gt;Agent</title>
<path fill="none" stroke="#c0c0c0" d="M572.3213,-525.8793C572.3213,-514.7846 572.3213,-503.572 572.3213,-493.0987"/>
<polygon fill="#c0c0c0" stroke="#c0c0c0" points="568.8214,-526.0105 572.3213,-536.0105 575.8214,-526.0105 568.8214,-526.0105"/>
<polygon fill="#c0c0c0" stroke="#c0c0c0" points="575.8214,-492.9154 572.3213,-482.9155 568.8214,-492.9155 575.8214,-492.9154"/>
<text text-anchor="middle" x="554.9213" y="-513.0156" font-family="Times,serif" font-size="12.00" fill="#4d4d4d">SHDR / &#160;&#160;</text>
<text text-anchor="middle" x="554.9213" y="-498.6156" font-family="Times,serif" font-size="12.00" fill="#4d4d4d">TCP 7878+ &#160;&#160;&#160;&#160;&#160;&#160;&#160;&#160;</text>
</g>
<!-- Application -->
<g id="node15" class="node">
<title>Application</title>
<ellipse fill="#ffffff" stroke="#c0c0c0" cx="572.3213" cy="-305.295" rx="59.3044" ry="41.0911"/>
<text text-anchor="middle" x="572.3213" y="-317.895" font-family="Times,serif" font-size="14.00" fill="#000000">MTConnect</text>
<text text-anchor="middle" x="572.3213" y="-301.095" font-family="Times,serif" font-size="14.00" fill="#000000">Application</text>
<text text-anchor="middle" x="572.3213" y="-284.295" font-family="Times,serif" font-size="14.00" fill="#000000">(NodeJS)</text>
</g>
<!-- Agent&#45;&gt;Application -->
<g id="edge14" class="edge">
<title>Agent&#45;&gt;Application</title>
<path fill="none" stroke="#c0c0c0" d="M572.3213,-389.503C572.3213,-378.817 572.3213,-367.564 572.3213,-356.8852"/>
<polygon fill="#c0c0c0" stroke="#c0c0c0" points="568.8214,-389.5373 572.3213,-399.5373 575.8214,-389.5374 568.8214,-389.5373"/>
<polygon fill="#c0c0c0" stroke="#c0c0c0" points="575.8214,-356.8385 572.3213,-346.8385 568.8214,-356.8385 575.8214,-356.8385"/>
<text text-anchor="middle" x="554.9213" y="-376.895" font-family="Times,serif" font-size="12.00" fill="#4d4d4d">XML / </text>
<text text-anchor="middle" x="554.9213" y="-362.495" font-family="Times,serif" font-size="12.00" fill="#4d4d4d">HTTP 5000 &#160;&#160;&#160;&#160;&#160;&#160;&#160;&#160;&#160;</text>
</g>
<!-- Browser -->
<g id="node19" class="node">
<title>Browser</title>
<ellipse fill="#ffffff" stroke="#c0c0c0" cx="787.7011" cy="-441.295" rx="43.9983" ry="18"/>
<text text-anchor="middle" x="787.7011" y="-437.095" font-family="Times,serif" font-size="14.00" fill="#000000">Browser</text>
</g>
<!-- Agent&#45;&gt;Browser -->
<g id="edge15" class="edge">
<title>Agent&#45;&gt;Browser</title>
<path fill="none" stroke="#c0c0c0" d="M646.7444,-441.295C675.2974,-441.295 707.3102,-441.295 733.6029,-441.295"/>
<polygon fill="#c0c0c0" stroke="#c0c0c0" points="733.7496,-444.7951 743.7495,-441.295 733.7495,-437.7951 733.7496,-444.7951"/>
<text text-anchor="middle" x="682.9746" y="-459.295" font-family="Times,serif" font-size="12.00" fill="#4d4d4d">HTML /</text>
<text text-anchor="middle" x="682.9746" y="-444.895" font-family="Times,serif" font-size="12.00" fill="#4d4d4d">HTTP 5000</text>
</g>
<!-- Database -->
<g id="node16" class="node">
<title>Database</title>
<ellipse fill="#ffffff" stroke="#c0c0c0" cx="572.3213" cy="-173.295" rx="69.0714" ry="41.0911"/>
<text text-anchor="middle" x="572.3213" y="-185.895" font-family="Times,serif" font-size="14.00" fill="#000000">Database</text>
<text text-anchor="middle" x="572.3213" y="-169.095" font-family="Times,serif" font-size="14.00" fill="#000000">(InfluxDB/</text>
<text text-anchor="middle" x="572.3213" y="-152.295" font-family="Times,serif" font-size="14.00" fill="#000000">TimescaleDB)</text>
</g>
<!-- Application&#45;&gt;Database -->
<g id="edge16" class="edge">
<title>Application&#45;&gt;Database</title>
<path fill="none" stroke="#c0c0c0" d="M572.3213,-253.639C572.3213,-244.1484 572.3213,-234.6577 572.3213,-225.1671"/>
<polygon fill="#c0c0c0" stroke="#c0c0c0" points="568.8214,-253.9372 572.3213,-263.9373 575.8214,-253.9373 568.8214,-253.9372"/>
<polygon fill="#c0c0c0" stroke="#c0c0c0" points="575.8214,-224.8028 572.3213,-214.8028 568.8214,-224.8029 575.8214,-224.8028"/>
</g>
<!-- Visualizer -->
<g id="node17" class="node">
<title>Visualizer</title>
<ellipse fill="#ffffff" stroke="#c0c0c0" cx="572.3213" cy="-41.295" rx="51.9834" ry="41.0911"/>
<text text-anchor="middle" x="572.3213" y="-53.895" font-family="Times,serif" font-size="14.00" fill="#000000">Visualizer</text>
<text text-anchor="middle" x="572.3213" y="-37.095" font-family="Times,serif" font-size="14.00" fill="#000000">(Grafana/</text>
<text text-anchor="middle" x="572.3213" y="-20.295" font-family="Times,serif" font-size="14.00" fill="#000000">Superset)</text>
</g>
<!-- Database&#45;&gt;Visualizer -->
<g id="edge17" class="edge">
<title>Database&#45;&gt;Visualizer</title>
<path fill="none" stroke="#c0c0c0" d="M572.3213,-121.639C572.3213,-112.1484 572.3213,-102.6577 572.3213,-93.1671"/>
<polygon fill="#c0c0c0" stroke="#c0c0c0" points="568.8214,-121.9372 572.3213,-131.9373 575.8214,-121.9373 568.8214,-121.9372"/>
<polygon fill="#c0c0c0" stroke="#c0c0c0" points="575.8214,-92.8028 572.3213,-82.8028 568.8214,-92.8029 575.8214,-92.8028"/>
</g>
<!-- Cloud -->
<g id="node18" class="node">
<title>Cloud</title>
<ellipse fill="#ffffff" stroke="#c0c0c0" cx="787.7011" cy="-173.295" rx="68.4585" ry="29.3315"/>
<text text-anchor="middle" x="787.7011" y="-177.495" font-family="Times,serif" font-size="14.00" fill="#000000">Cloud Storage</text>
<text text-anchor="middle" x="787.7011" y="-160.695" font-family="Times,serif" font-size="14.00" fill="#000000">(AWS/GCP)</text>
</g>
<!-- Database&#45;&gt;Cloud -->
<g id="edge18" class="edge">
<title>Database&#45;&gt;Cloud</title>
<path fill="none" stroke="#c0c0c0" d="M641.3575,-173.295C663.0178,-173.295 687.0836,-173.295 709.3401,-173.295"/>
<polygon fill="#c0c0c0" stroke="#c0c0c0" points="709.4236,-176.7951 719.4236,-173.295 709.4235,-169.7951 709.4236,-176.7951"/>
</g>
</g>
</svg>
