<?xml version="1.0" encoding="UTF-8" standalone="no"?>
<!DOCTYPE svg PUBLIC "-//W3C//DTD SVG 1.1//EN"
 "http://www.w3.org/Graphics/SVG/1.1/DTD/svg11.dtd">
<!-- Generated by graphviz version 2.40.1 (20161225.0304)
 -->
<!-- Title: ladder99&#45;adapter Pages: 1 -->
<svg width="881pt" height="875pt"
 viewBox="0.00 0.00 881.07 874.71" xmlns="http://www.w3.org/2000/svg" xmlns:xlink="http://www.w3.org/1999/xlink">
<g id="graph0" class="graph" transform="scale(1 1) rotate(0) translate(4 870.7107)">
<title>ladder99&#45;adapter</title>
<polygon fill="#ffffff" stroke="transparent" points="-4,4 -4,-870.7107 877.0669,-870.7107 877.0669,4 -4,4"/>
<text text-anchor="middle" x="436.5335" y="-844.7107" font-family="Times,serif" font-size="20.00" fill="#000000">Ladder99 MTConnect data flow</text>
<text text-anchor="middle" x="436.5335" y="-820.7107" font-family="Times,serif" font-size="20.00" fill="#000000"> </text>
<!-- PA1 -->
<g id="node1" class="node">
<title>PA1</title>
<ellipse fill="#e6e6fa" stroke="#c0c0c0" cx="157.0186" cy="-781.295" rx="58.5886" ry="18"/>
<text text-anchor="middle" x="157.0186" y="-777.095" font-family="Times,serif" font-size="14.00" fill="#000000">CCS P&amp;A 1</text>
</g>
<!-- Broker1 -->
<g id="node10" class="node">
<title>Broker1</title>
<ellipse fill="#ffffff" stroke="#c0c0c0" cx="339.5982" cy="-781.295" rx="69.1341" ry="29.3315"/>
<text text-anchor="middle" x="339.5982" y="-785.495" font-family="Times,serif" font-size="14.00" fill="#000000">MQTT Broker</text>
<text text-anchor="middle" x="339.5982" y="-768.695" font-family="Times,serif" font-size="14.00" fill="#000000">(Mosquitto)</text>
</g>
<!-- PA1&#45;&gt;Broker1 -->
<g id="edge1" class="edge">
<title>PA1&#45;&gt;Broker1</title>
<path fill="none" stroke="#c0c0c0" d="M226.3594,-781.295C237.3715,-781.295 248.8366,-781.295 260.0607,-781.295"/>
<polygon fill="#c0c0c0" stroke="#c0c0c0" points="226.0449,-777.7951 216.0448,-781.295 226.0448,-784.7951 226.0449,-777.7951"/>
<polygon fill="#c0c0c0" stroke="#c0c0c0" points="260.2809,-784.7951 270.2808,-781.295 260.2808,-777.7951 260.2809,-784.7951"/>
<text text-anchor="middle" x="245.2792" y="-784.895" font-family="Times,serif" font-size="12.00" fill="#4d4d4d"> &#160;TCP &#160;</text>
</g>
<!-- PA2 -->
<g id="node2" class="node">
<title>PA2</title>
<ellipse fill="#e6e6fa" stroke="#c0c0c0" cx="157.0186" cy="-553.295" rx="58.5886" ry="18"/>
<text text-anchor="middle" x="157.0186" y="-549.095" font-family="Times,serif" font-size="14.00" fill="#000000">CCS P&amp;A 2</text>
</g>
<!-- Broker2 -->
<g id="node11" class="node">
<title>Broker2</title>
<ellipse fill="#ffffff" stroke="#c0c0c0" cx="339.5982" cy="-553.295" rx="69.1341" ry="29.3315"/>
<text text-anchor="middle" x="339.5982" y="-557.495" font-family="Times,serif" font-size="14.00" fill="#000000">MQTT Broker</text>
<text text-anchor="middle" x="339.5982" y="-540.695" font-family="Times,serif" font-size="14.00" fill="#000000">(Mosquitto)</text>
</g>
<!-- PA2&#45;&gt;Broker2 -->
<g id="edge2" class="edge">
<title>PA2&#45;&gt;Broker2</title>
<path fill="none" stroke="#c0c0c0" d="M226.3594,-553.295C237.3715,-553.295 248.8366,-553.295 260.0607,-553.295"/>
<polygon fill="#c0c0c0" stroke="#c0c0c0" points="226.0449,-549.7951 216.0448,-553.295 226.0448,-556.7951 226.0449,-549.7951"/>
<polygon fill="#c0c0c0" stroke="#c0c0c0" points="260.2809,-556.7951 270.2808,-553.295 260.2808,-549.7951 260.2809,-556.7951"/>
<text text-anchor="middle" x="245.2792" y="-556.895" font-family="Times,serif" font-size="12.00" fill="#4d4d4d"> &#160;TCP &#160;</text>
</g>
<!-- OldMachine2 -->
<g id="node3" class="node">
<title>OldMachine2</title>
<ellipse fill="#e6e6fa" stroke="#c0c0c0" cx="157.0186" cy="-697.295" rx="38.2607" ry="18"/>
<text text-anchor="middle" x="157.0186" y="-693.095" font-family="Times,serif" font-size="14.00" fill="#000000">Device</text>
</g>
<!-- Kepware1 -->
<g id="node6" class="node">
<title>Kepware1</title>
<ellipse fill="#ffffff" stroke="#c0c0c0" cx="339.5982" cy="-697.295" rx="55.6916" ry="29.3315"/>
<text text-anchor="middle" x="339.5982" y="-701.495" font-family="Times,serif" font-size="14.00" fill="#000000">Kepware</text>
<text text-anchor="middle" x="339.5982" y="-684.695" font-family="Times,serif" font-size="14.00" fill="#000000">(Windows)</text>
</g>
<!-- OldMachine2&#45;&gt;Kepware1 -->
<g id="edge9" class="edge">
<title>OldMachine2&#45;&gt;Kepware1</title>
<path fill="none" stroke="#c0c0c0" d="M195.7391,-697.295C218.2871,-697.295 247.3258,-697.295 273.4027,-697.295"/>
<polygon fill="#c0c0c0" stroke="#c0c0c0" points="273.6087,-700.7951 283.6086,-697.295 273.6086,-693.7951 273.6087,-700.7951"/>
</g>
<!-- OldMachine3 -->
<g id="node4" class="node">
<title>OldMachine3</title>
<ellipse fill="#e6e6fa" stroke="#c0c0c0" cx="38.3801" cy="-385.295" rx="38.2607" ry="18"/>
<text text-anchor="middle" x="38.3801" y="-381.095" font-family="Times,serif" font-size="14.00" fill="#000000">Device</text>
</g>
<!-- Kepware2 -->
<g id="node7" class="node">
<title>Kepware2</title>
<ellipse fill="#ffffff" stroke="#c0c0c0" cx="157.0186" cy="-385.295" rx="63.0176" ry="41.0911"/>
<text text-anchor="middle" x="157.0186" y="-397.895" font-family="Times,serif" font-size="14.00" fill="#000000">Kepware+</text>
<text text-anchor="middle" x="157.0186" y="-381.095" font-family="Times,serif" font-size="14.00" fill="#000000">IoT Gateway</text>
<text text-anchor="middle" x="157.0186" y="-364.295" font-family="Times,serif" font-size="14.00" fill="#000000">(Windows)</text>
</g>
<!-- OldMachine3&#45;&gt;Kepware2 -->
<g id="edge12" class="edge">
<title>OldMachine3&#45;&gt;Kepware2</title>
<path fill="none" stroke="#c0c0c0" d="M76.8987,-385.295C79.0976,-385.295 81.3402,-385.295 83.6121,-385.295"/>
<polygon fill="#c0c0c0" stroke="#c0c0c0" points="83.7159,-388.7951 93.7158,-385.295 83.7158,-381.7951 83.7159,-388.7951"/>
</g>
<!-- Camera -->
<g id="node5" class="node">
<title>Camera</title>
<ellipse fill="#e6e6fa" stroke="#c0c0c0" cx="157.0186" cy="-469.295" rx="41.1277" ry="18"/>
<text text-anchor="middle" x="157.0186" y="-465.095" font-family="Times,serif" font-size="14.00" fill="#000000">Camera</text>
</g>
<!-- Broker3 -->
<g id="node12" class="node">
<title>Broker3</title>
<ellipse fill="#ffffff" stroke="#c0c0c0" cx="339.5982" cy="-469.295" rx="69.1341" ry="29.3315"/>
<text text-anchor="middle" x="339.5982" y="-473.495" font-family="Times,serif" font-size="14.00" fill="#000000">MQTT Broker</text>
<text text-anchor="middle" x="339.5982" y="-456.695" font-family="Times,serif" font-size="14.00" fill="#000000">(Mosquitto)</text>
</g>
<!-- Camera&#45;&gt;Broker3 -->
<g id="edge3" class="edge">
<title>Camera&#45;&gt;Broker3</title>
<path fill="none" stroke="#c0c0c0" d="M208.711,-469.295C224.6362,-469.295 242.5554,-469.295 259.9065,-469.295"/>
<polygon fill="#c0c0c0" stroke="#c0c0c0" points="208.4488,-465.7951 198.4488,-469.295 208.4487,-472.7951 208.4488,-465.7951"/>
<polygon fill="#c0c0c0" stroke="#c0c0c0" points="260.0376,-472.7951 270.0376,-469.295 260.0376,-465.7951 260.0376,-472.7951"/>
<text text-anchor="middle" x="245.2792" y="-472.895" font-family="Times,serif" font-size="12.00" fill="#4d4d4d"> &#160;TCP &#160;</text>
</g>
<!-- Adapter -->
<g id="node14" class="node">
<title>Adapter</title>
<ellipse fill="#ffffff" stroke="#c0c0c0" cx="543.0675" cy="-589.295" rx="60.5759" ry="53.3494"/>
<text text-anchor="middle" x="543.0675" y="-610.295" font-family="Times,serif" font-size="14.00" fill="#000000">MTConnect</text>
<text text-anchor="middle" x="543.0675" y="-593.495" font-family="Times,serif" font-size="14.00" fill="#000000">Adapter</text>
<text text-anchor="middle" x="543.0675" y="-576.695" font-family="Times,serif" font-size="14.00" fill="#000000">with plugins</text>
<text text-anchor="middle" x="543.0675" y="-559.895" font-family="Times,serif" font-size="14.00" fill="#000000">(NodeJS)</text>
</g>
<!-- Kepware1&#45;&gt;Adapter -->
<g id="edge10" class="edge">
<title>Kepware1&#45;&gt;Adapter</title>
<path fill="none" stroke="#c0c0c0" d="M379.3122,-676.2152C408.4887,-660.7285 448.6706,-639.4002 481.9287,-621.7471"/>
<polygon fill="#c0c0c0" stroke="#c0c0c0" points="483.9188,-624.6533 491.1106,-616.8734 480.6368,-618.4703 483.9188,-624.6533"/>
<text text-anchor="middle" x="438.9134" y="-658.895" font-family="Times,serif" font-size="12.00" fill="#4d4d4d">OPC/UA</text>
</g>
<!-- Broker4 -->
<g id="node13" class="node">
<title>Broker4</title>
<ellipse fill="#ffffff" stroke="#c0c0c0" cx="339.5982" cy="-385.295" rx="69.1341" ry="29.3315"/>
<text text-anchor="middle" x="339.5982" y="-389.495" font-family="Times,serif" font-size="14.00" fill="#000000">MQTT Broker</text>
<text text-anchor="middle" x="339.5982" y="-372.695" font-family="Times,serif" font-size="14.00" fill="#000000">(Mosquitto)</text>
</g>
<!-- Kepware2&#45;&gt;Broker4 -->
<g id="edge13" class="edge">
<title>Kepware2&#45;&gt;Broker4</title>
<path fill="none" stroke="#c0c0c0" d="M220.3637,-385.295C233.1672,-385.295 246.7824,-385.295 260.0603,-385.295"/>
<polygon fill="#c0c0c0" stroke="#c0c0c0" points="260.1292,-388.7951 270.1292,-385.295 260.1292,-381.7951 260.1292,-388.7951"/>
<text text-anchor="middle" x="245.2792" y="-388.895" font-family="Times,serif" font-size="12.00" fill="#4d4d4d">MQTT</text>
</g>
<!-- Autoclave -->
<g id="node8" class="node">
<title>Autoclave</title>
<ellipse fill="#e6e6fa" stroke="#c0c0c0" cx="157.0186" cy="-625.295" rx="50.9425" ry="18"/>
<text text-anchor="middle" x="157.0186" y="-621.095" font-family="Times,serif" font-size="14.00" fill="#000000">Autoclave</text>
</g>
<!-- CPC -->
<g id="node9" class="node">
<title>CPC</title>
<ellipse fill="#ffffff" stroke="#c0c0c0" cx="339.5982" cy="-625.295" rx="50.4587" ry="18"/>
<text text-anchor="middle" x="339.5982" y="-621.095" font-family="Times,serif" font-size="14.00" fill="#000000">ASC CPC</text>
</g>
<!-- Autoclave&#45;&gt;CPC -->
<g id="edge4" class="edge">
<title>Autoclave&#45;&gt;CPC</title>
<path fill="none" stroke="#c0c0c0" d="M217.9073,-625.295C237.5582,-625.295 259.3308,-625.295 278.9634,-625.295"/>
<polygon fill="#c0c0c0" stroke="#c0c0c0" points="217.8773,-621.7951 207.8772,-625.295 217.8772,-628.7951 217.8773,-621.7951"/>
<polygon fill="#c0c0c0" stroke="#c0c0c0" points="279.0124,-628.7951 289.0124,-625.295 279.0123,-621.7951 279.0124,-628.7951"/>
</g>
<!-- CPC&#45;&gt;Adapter -->
<g id="edge11" class="edge">
<title>CPC&#45;&gt;Adapter</title>
<path fill="none" stroke="#c0c0c0" d="M385.0074,-617.2607C410.9905,-612.6635 444.1312,-606.7999 473.349,-601.6304"/>
<polygon fill="#c0c0c0" stroke="#c0c0c0" points="474.2646,-605.0228 483.5019,-599.834 473.045,-598.1299 474.2646,-605.0228"/>
<text text-anchor="middle" x="438.9134" y="-614.895" font-family="Times,serif" font-size="12.00" fill="#4d4d4d">text</text>
</g>
<!-- Broker1&#45;&gt;Adapter -->
<g id="edge5" class="edge">
<title>Broker1&#45;&gt;Adapter</title>
<path fill="none" stroke="#c0c0c0" d="M390.932,-752.5874C397.1875,-748.4012 403.333,-743.9297 408.915,-739.295 443.8299,-710.3059 477.8509,-672.1174 502.8964,-641.5281"/>
<polygon fill="#c0c0c0" stroke="#c0c0c0" points="388.8816,-749.7449 382.3761,-758.1073 392.6766,-755.627 388.8816,-749.7449"/>
<polygon fill="#c0c0c0" stroke="#c0c0c0" points="505.8092,-643.493 509.3899,-633.5216 500.3724,-639.0836 505.8092,-643.493"/>
<text text-anchor="middle" x="438.9134" y="-734.895" font-family="Times,serif" font-size="12.00" fill="#4d4d4d">MQTT</text>
</g>
<!-- Broker2&#45;&gt;Adapter -->
<g id="edge6" class="edge">
<title>Broker2&#45;&gt;Adapter</title>
<path fill="none" stroke="#c0c0c0" d="M414.7674,-564.9969C430.0552,-567.5013 446.0143,-570.2056 460.9118,-572.895 465.0984,-573.6508 469.4009,-574.448 473.738,-575.2673"/>
<polygon fill="#c0c0c0" stroke="#c0c0c0" points="415.2681,-561.5324 404.836,-563.3822 414.1447,-568.4417 415.2681,-561.5324"/>
<polygon fill="#c0c0c0" stroke="#c0c0c0" points="473.403,-578.7666 483.8828,-577.2098 474.7195,-571.8916 473.403,-578.7666"/>
<text text-anchor="middle" x="438.9134" y="-575.895" font-family="Times,serif" font-size="12.00" fill="#4d4d4d">MQTT</text>
</g>
<!-- Broker3&#45;&gt;Adapter -->
<g id="edge7" class="edge">
<title>Broker3&#45;&gt;Adapter</title>
<path fill="none" stroke="#c0c0c0" d="M388.9006,-498.3721C417.5417,-515.2638 453.8126,-536.6552 483.9767,-554.445"/>
<polygon fill="#c0c0c0" stroke="#c0c0c0" points="390.6758,-495.3557 380.2842,-493.2904 387.1198,-501.3852 390.6758,-495.3557"/>
<polygon fill="#c0c0c0" stroke="#c0c0c0" points="482.326,-557.5349 492.7176,-559.6002 485.8821,-551.5054 482.326,-557.5349"/>
<text text-anchor="middle" x="438.9134" y="-542.895" font-family="Times,serif" font-size="12.00" fill="#4d4d4d">MQTT</text>
</g>
<!-- Broker4&#45;&gt;Adapter -->
<g id="edge8" class="edge">
<title>Broker4&#45;&gt;Adapter</title>
<path fill="none" stroke="#c0c0c0" d="M391.3516,-413.9701C397.4922,-418.1415 403.4954,-422.6182 408.915,-427.295 419.6183,-436.5313 466.4635,-493.8748 501.8075,-537.7429"/>
<polygon fill="#c0c0c0" stroke="#c0c0c0" points="393.2227,-411.0119 382.9346,-408.4809 389.3989,-416.8752 393.2227,-411.0119"/>
<polygon fill="#c0c0c0" stroke="#c0c0c0" points="499.2654,-540.1666 508.2618,-545.7626 504.7186,-535.7777 499.2654,-540.1666"/>
<text text-anchor="middle" x="438.9134" y="-489.895" font-family="Times,serif" font-size="12.00" fill="#4d4d4d">MQTT</text>
</g>
<!-- DiodeSender -->
<g id="node15" class="node">
<title>DiodeSender</title>
<ellipse fill="#ffffff" stroke="#c0c0c0" cx="789.6473" cy="-581.295" rx="83.3394" ry="29.3315"/>
<text text-anchor="middle" x="789.6473" y="-585.495" font-family="Times,serif" font-size="14.00" fill="#000000">Diode Sender</text>
<text text-anchor="middle" x="789.6473" y="-568.695" font-family="Times,serif" font-size="14.00" fill="#000000">(Java+RabbitMQ)</text>
</g>
<!-- Adapter&#45;&gt;DiodeSender -->
<g id="edge15" class="edge">
<title>Adapter&#45;&gt;DiodeSender</title>
<path fill="none" stroke="#c0c0c0" stroke-dasharray="1,5" d="M613.72,-587.0028C639.3616,-586.1709 668.7431,-585.2176 696.0568,-584.3315"/>
<polygon fill="#c0c0c0" stroke="#c0c0c0" points="613.5847,-583.5052 603.7035,-587.3278 613.8118,-590.5016 613.5847,-583.5052"/>
<polygon fill="#c0c0c0" stroke="#c0c0c0" points="696.5305,-587.818 706.4117,-583.9955 696.3035,-580.8217 696.5305,-587.818"/>
<text text-anchor="middle" x="661.7254" y="-604.295" font-family="Times,serif" font-size="12.00" fill="#4d4d4d">SHDR / &#160;&#160;</text>
<text text-anchor="middle" x="661.7254" y="-589.895" font-family="Times,serif" font-size="12.00" fill="#4d4d4d">TCP 7878 &#160;&#160;&#160;&#160;&#160;</text>
</g>
<!-- Agent -->
<g id="node17" class="node">
<title>Agent</title>
<ellipse fill="#ffffff" stroke="#c0c0c0" cx="543.0675" cy="-441.295" rx="74.3117" ry="41.0911"/>
<text text-anchor="middle" x="543.0675" y="-453.895" font-family="Times,serif" font-size="14.00" fill="#000000">MTConnect</text>
<text text-anchor="middle" x="543.0675" y="-437.095" font-family="Times,serif" font-size="14.00" fill="#000000">Agent</text>
<text text-anchor="middle" x="543.0675" y="-420.295" font-family="Times,serif" font-size="14.00" fill="#000000">(C++/cppagent)</text>
</g>
<!-- Adapter&#45;&gt;Agent -->
<g id="edge14" class="edge">
<title>Adapter&#45;&gt;Agent</title>
<path fill="none" stroke="#c0c0c0" d="M543.0675,-525.7997C543.0675,-514.9425 543.0675,-503.7775 543.0675,-493.2651"/>
<polygon fill="#c0c0c0" stroke="#c0c0c0" points="539.5676,-526.0833 543.0675,-536.0833 546.5676,-526.0834 539.5676,-526.0833"/>
<polygon fill="#c0c0c0" stroke="#c0c0c0" points="546.5676,-492.9151 543.0675,-482.9151 539.5676,-492.9152 546.5676,-492.9151"/>
<text text-anchor="middle" x="525.6675" y="-512.9553" font-family="Times,serif" font-size="12.00" fill="#4d4d4d">SHDR / &#160;&#160;</text>
<text text-anchor="middle" x="525.6675" y="-498.5553" font-family="Times,serif" font-size="12.00" fill="#4d4d4d">TCP 7878 &#160;&#160;&#160;&#160;&#160;</text>
</g>
<!-- DiodeReceiver -->
<g id="node16" class="node">
<title>DiodeReceiver</title>
<ellipse fill="#ffffff" stroke="#c0c0c0" cx="789.6473" cy="-463.295" rx="83.3394" ry="29.3315"/>
<text text-anchor="middle" x="789.6473" y="-467.495" font-family="Times,serif" font-size="14.00" fill="#000000">Diode Receiver</text>
<text text-anchor="middle" x="789.6473" y="-450.695" font-family="Times,serif" font-size="14.00" fill="#000000">(Java+RabbitMQ)</text>
</g>
<!-- DiodeSender&#45;&gt;DiodeReceiver -->
<g id="edge16" class="edge">
<title>DiodeSender&#45;&gt;DiodeReceiver</title>
<path fill="none" stroke="#c0c0c0" stroke-dasharray="1,5" d="M789.6473,-551.7898C789.6473,-537.0015 789.6473,-518.885 789.6473,-502.904"/>
<polygon fill="#c0c0c0" stroke="#c0c0c0" points="793.1474,-502.767 789.6473,-492.767 786.1474,-502.7671 793.1474,-502.767"/>
<text text-anchor="middle" x="779.4473" y="-518.695" font-family="Times,serif" font-size="12.00" fill="#4d4d4d">UDP &#160;&#160;&#160;</text>
</g>
<!-- DiodeReceiver&#45;&gt;Agent -->
<g id="edge17" class="edge">
<title>DiodeReceiver&#45;&gt;Agent</title>
<path fill="none" stroke="#c0c0c0" stroke-dasharray="1,5" d="M708.4221,-456.0481C682.0947,-453.6991 652.8596,-451.0908 626.3827,-448.7285"/>
<polygon fill="#c0c0c0" stroke="#c0c0c0" points="626.6535,-445.2388 616.382,-447.8362 626.0313,-452.2111 626.6535,-445.2388"/>
<text text-anchor="middle" x="661.7254" y="-472.295" font-family="Times,serif" font-size="12.00" fill="#4d4d4d">SHDR / &#160;&#160;&#160;</text>
<text text-anchor="middle" x="661.7254" y="-457.895" font-family="Times,serif" font-size="12.00" fill="#4d4d4d">TCP 7878 &#160;&#160;&#160;&#160;&#160;&#160;&#160;</text>
</g>
<!-- Application -->
<g id="node18" class="node">
<title>Application</title>
<ellipse fill="#ffffff" stroke="#c0c0c0" cx="543.0675" cy="-305.295" rx="59.3044" ry="41.0911"/>
<text text-anchor="middle" x="543.0675" y="-317.895" font-family="Times,serif" font-size="14.00" fill="#000000">MTConnect</text>
<text text-anchor="middle" x="543.0675" y="-301.095" font-family="Times,serif" font-size="14.00" fill="#000000">Application</text>
<text text-anchor="middle" x="543.0675" y="-284.295" font-family="Times,serif" font-size="14.00" fill="#000000">(NodeJS)</text>
</g>
<!-- Agent&#45;&gt;Application -->
<g id="edge18" class="edge">
<title>Agent&#45;&gt;Application</title>
<path fill="none" stroke="#c0c0c0" d="M543.0675,-389.503C543.0675,-378.817 543.0675,-367.564 543.0675,-356.8852"/>
<polygon fill="#c0c0c0" stroke="#c0c0c0" points="539.5676,-389.5373 543.0675,-399.5373 546.5676,-389.5374 539.5676,-389.5373"/>
<polygon fill="#c0c0c0" stroke="#c0c0c0" points="546.5676,-356.8385 543.0675,-346.8385 539.5676,-356.8385 546.5676,-356.8385"/>
<text text-anchor="middle" x="525.6675" y="-376.895" font-family="Times,serif" font-size="12.00" fill="#4d4d4d">XML / </text>
<text text-anchor="middle" x="525.6675" y="-362.495" font-family="Times,serif" font-size="12.00" fill="#4d4d4d">HTTP 5000 &#160;&#160;&#160;&#160;&#160;&#160;&#160;&#160;&#160;</text>
</g>
<!-- Database -->
<g id="node19" class="node">
<title>Database</title>
<ellipse fill="#ffffff" stroke="#c0c0c0" cx="543.0675" cy="-173.295" rx="69.0714" ry="41.0911"/>
<text text-anchor="middle" x="543.0675" y="-185.895" font-family="Times,serif" font-size="14.00" fill="#000000">Database</text>
<text text-anchor="middle" x="543.0675" y="-169.095" font-family="Times,serif" font-size="14.00" fill="#000000">(InfluxDB/</text>
<text text-anchor="middle" x="543.0675" y="-152.295" font-family="Times,serif" font-size="14.00" fill="#000000">TimescaleDB)</text>
</g>
<!-- Application&#45;&gt;Database -->
<g id="edge19" class="edge">
<title>Application&#45;&gt;Database</title>
<path fill="none" stroke="#c0c0c0" d="M543.0675,-253.639C543.0675,-244.1484 543.0675,-234.6577 543.0675,-225.1671"/>
<polygon fill="#c0c0c0" stroke="#c0c0c0" points="539.5676,-253.9372 543.0675,-263.9373 546.5676,-253.9373 539.5676,-253.9372"/>
<polygon fill="#c0c0c0" stroke="#c0c0c0" points="546.5676,-224.8028 543.0675,-214.8028 539.5676,-224.8029 546.5676,-224.8028"/>
</g>
<!-- Visualizer -->
<g id="node20" class="node">
<title>Visualizer</title>
<ellipse fill="#ffffff" stroke="#c0c0c0" cx="543.0675" cy="-41.295" rx="51.9834" ry="41.0911"/>
<text text-anchor="middle" x="543.0675" y="-53.895" font-family="Times,serif" font-size="14.00" fill="#000000">Visualizer</text>
<text text-anchor="middle" x="543.0675" y="-37.095" font-family="Times,serif" font-size="14.00" fill="#000000">(Grafana/</text>
<text text-anchor="middle" x="543.0675" y="-20.295" font-family="Times,serif" font-size="14.00" fill="#000000">Superset)</text>
</g>
<!-- Database&#45;&gt;Visualizer -->
<g id="edge20" class="edge">
<title>Database&#45;&gt;Visualizer</title>
<path fill="none" stroke="#c0c0c0" d="M543.0675,-121.639C543.0675,-112.1484 543.0675,-102.6577 543.0675,-93.1671"/>
<polygon fill="#c0c0c0" stroke="#c0c0c0" points="539.5676,-121.9372 543.0675,-131.9373 546.5676,-121.9373 539.5676,-121.9372"/>
<polygon fill="#c0c0c0" stroke="#c0c0c0" points="546.5676,-92.8028 543.0675,-82.8028 539.5676,-92.8029 546.5676,-92.8028"/>
</g>
<!-- Cloud -->
<g id="node21" class="node">
<title>Cloud</title>
<ellipse fill="#ffffff" stroke="#c0c0c0" cx="789.6473" cy="-173.295" rx="68.4585" ry="29.3315"/>
<text text-anchor="middle" x="789.6473" y="-177.495" font-family="Times,serif" font-size="14.00" fill="#000000">Cloud Storage</text>
<text text-anchor="middle" x="789.6473" y="-160.695" font-family="Times,serif" font-size="14.00" fill="#000000">(AWS/GCP)</text>
</g>
<!-- Database&#45;&gt;Cloud -->
<g id="edge21" class="edge">
<title>Database&#45;&gt;Cloud</title>
<path fill="none" stroke="#c0c0c0" d="M612.4099,-173.295C643.1298,-173.295 679.4158,-173.295 711.1286,-173.295"/>
<polygon fill="#c0c0c0" stroke="#c0c0c0" points="711.2515,-176.7951 721.2515,-173.295 711.2514,-169.7951 711.2515,-176.7951"/>
</g>
<!-- Admin -->
<g id="node22" class="node">
<title>Admin</title>
<ellipse fill="#ffffe0" stroke="#c0c0c0" cx="789.6473" cy="-41.295" rx="37.7217" ry="18"/>
<text text-anchor="middle" x="789.6473" y="-37.095" font-family="Times,serif" font-size="14.00" fill="#000000">Admin</text>
</g>
<!-- Visualizer&#45;&gt;Admin -->
<g id="edge22" class="edge">
<title>Visualizer&#45;&gt;Admin</title>
<path fill="none" stroke="#c0c0c0" d="M605.218,-41.295C647.4385,-41.295 702.4668,-41.295 741.392,-41.295"/>
<polygon fill="#c0c0c0" stroke="#c0c0c0" points="605.0595,-37.7951 595.0595,-41.295 605.0594,-44.7951 605.0595,-37.7951"/>
<polygon fill="#c0c0c0" stroke="#c0c0c0" points="741.4209,-44.7951 751.4209,-41.295 741.4208,-37.7951 741.4209,-44.7951"/>
</g>
</g>
</svg>
