<?xml version="1.0" encoding="UTF-8" standalone="no"?>
<!DOCTYPE svg PUBLIC "-//W3C//DTD SVG 1.1//EN"
 "http://www.w3.org/Graphics/SVG/1.1/DTD/svg11.dtd">
<!-- Generated by graphviz version 2.40.1 (20161225.0304)
 -->
<!-- Title: %0 Pages: 1 -->
<svg width="877pt" height="803pt"
 viewBox="0.00 0.00 877.26 802.71" xmlns="http://www.w3.org/2000/svg" xmlns:xlink="http://www.w3.org/1999/xlink">
<g id="graph0" class="graph" transform="scale(1 1) rotate(0) translate(4 798.7107)">
<title>%0</title>
<polygon fill="#ffffff" stroke="transparent" points="-4,4 -4,-798.7107 873.256,-798.7107 873.256,4 -4,4"/>
<text text-anchor="middle" x="434.628" y="-772.7107" font-family="sans-serif" font-size="20.00" fill="#000000">Ladder99 Architecture</text>
<text text-anchor="middle" x="434.628" y="-748.7107" font-family="sans-serif" font-size="20.00" fill="#000000"> </text>
<!-- PA -->
<g id="node1" class="node">
<title>PA</title>
<ellipse fill="#e6e6fa" stroke="#c0c0c0" cx="162.9905" cy="-709.295" rx="51.6026" ry="18"/>
<text text-anchor="middle" x="162.9905" y="-705.095" font-family="sans-serif" font-size="14.00" fill="#4d4d4d">CCS P&amp;A</text>
</g>
<!-- Broker1 -->
<g id="node7" class="node">
<title>Broker1</title>
<ellipse fill="#add8e6" stroke="#c0c0c0" cx="368.852" cy="-709.295" rx="69.1341" ry="29.3315"/>
<text text-anchor="middle" x="368.852" y="-713.495" font-family="sans-serif" font-size="14.00" fill="#4d4d4d">MQTT Broker</text>
<text text-anchor="middle" x="368.852" y="-696.695" font-family="sans-serif" font-size="14.00" fill="#4d4d4d">(Mosquitto)</text>
</g>
<!-- PA&#45;&gt;Broker1 -->
<g id="edge1" class="edge">
<title>PA&#45;&gt;Broker1</title>
<path fill="none" stroke="#c0c0c0" d="M224.8383,-709.295C245.0801,-709.295 267.8577,-709.295 289.2219,-709.295"/>
<polygon fill="#c0c0c0" stroke="#c0c0c0" points="224.6724,-705.7951 214.6723,-709.295 224.6723,-712.7951 224.6724,-705.7951"/>
<polygon fill="#c0c0c0" stroke="#c0c0c0" points="289.2503,-712.7951 299.2503,-709.295 289.2503,-705.7951 289.2503,-712.7951"/>
<text text-anchor="middle" x="265.8779" y="-712.895" font-family="sans-serif" font-size="12.00" fill="#4d4d4d"> &#160;TCP &#160;</text>
</g>
<!-- HMI -->
<g id="node2" class="node">
<title>HMI</title>
<ellipse fill="#e6e6fa" stroke="#c0c0c0" cx="162.9905" cy="-457.295" rx="69.4612" ry="18"/>
<text text-anchor="middle" x="162.9905" y="-453.095" font-family="sans-serif" font-size="14.00" fill="#4d4d4d">Rockwell HMI</text>
</g>
<!-- Kepware1 -->
<g id="node10" class="node">
<title>Kepware1</title>
<ellipse fill="#add8e6" stroke="#c0c0c0" cx="368.852" cy="-457.295" rx="55.6916" ry="29.3315"/>
<text text-anchor="middle" x="368.852" y="-461.495" font-family="sans-serif" font-size="14.00" fill="#4d4d4d">Kepware</text>
<text text-anchor="middle" x="368.852" y="-444.695" font-family="sans-serif" font-size="14.00" fill="#4d4d4d">(Windows)</text>
</g>
<!-- HMI&#45;&gt;Kepware1 -->
<g id="edge7" class="edge">
<title>HMI&#45;&gt;Kepware1</title>
<path fill="none" stroke="#c0c0c0" d="M232.3988,-457.295C255.0729,-457.295 280.1832,-457.295 302.6175,-457.295"/>
<polygon fill="#c0c0c0" stroke="#c0c0c0" points="302.7185,-460.7951 312.7184,-457.295 302.7184,-453.7951 302.7185,-460.7951"/>
<text text-anchor="middle" x="265.8779" y="-460.895" font-family="sans-serif" font-size="12.00" fill="#4d4d4d">ethernet/ip</text>
</g>
<!-- Motor -->
<g id="node3" class="node">
<title>Motor</title>
<ellipse fill="#e6e6fa" stroke="#c0c0c0" cx="162.9905" cy="-396.295" rx="56.8026" ry="18"/>
<text text-anchor="middle" x="162.9905" y="-392.095" font-family="sans-serif" font-size="14.00" fill="#4d4d4d">VFD Motor</text>
</g>
<!-- Motor&#45;&gt;Kepware1 -->
<g id="edge8" class="edge">
<title>Motor&#45;&gt;Kepware1</title>
<path fill="none" stroke="#c0c0c0" d="M204.6497,-408.6393C235.0182,-417.638 276.5747,-429.9518 310.2824,-439.9399"/>
<polygon fill="#c0c0c0" stroke="#c0c0c0" points="309.4344,-443.339 320.0168,-442.8244 311.4232,-436.6275 309.4344,-443.339"/>
<text text-anchor="middle" x="265.8779" y="-436.895" font-family="sans-serif" font-size="12.00" fill="#4d4d4d">modbus</text>
</g>
<!-- OldMachine3 -->
<g id="node4" class="node">
<title>OldMachine3</title>
<ellipse fill="#e6e6fa" stroke="#c0c0c0" cx="38.3801" cy="-541.295" rx="38.2607" ry="18"/>
<text text-anchor="middle" x="38.3801" y="-537.095" font-family="sans-serif" font-size="14.00" fill="#4d4d4d">Device</text>
</g>
<!-- Kepware2 -->
<g id="node11" class="node">
<title>Kepware2</title>
<ellipse fill="#add8e6" stroke="#c0c0c0" cx="162.9905" cy="-541.295" rx="63.0176" ry="41.0911"/>
<text text-anchor="middle" x="162.9905" y="-553.895" font-family="sans-serif" font-size="14.00" fill="#4d4d4d">Kepware+</text>
<text text-anchor="middle" x="162.9905" y="-537.095" font-family="sans-serif" font-size="14.00" fill="#4d4d4d">IoT Gateway</text>
<text text-anchor="middle" x="162.9905" y="-520.295" font-family="sans-serif" font-size="14.00" fill="#4d4d4d">(Windows)</text>
</g>
<!-- OldMachine3&#45;&gt;Kepware2 -->
<g id="edge11" class="edge">
<title>OldMachine3&#45;&gt;Kepware2</title>
<path fill="none" stroke="#c0c0c0" d="M76.7841,-541.295C80.8871,-541.295 85.153,-541.295 89.4938,-541.295"/>
<polygon fill="#c0c0c0" stroke="#c0c0c0" points="89.7171,-544.7951 99.7171,-541.295 89.717,-537.7951 89.7171,-544.7951"/>
</g>
<!-- Camera -->
<g id="node5" class="node">
<title>Camera</title>
<ellipse fill="#e6e6fa" stroke="#c0c0c0" cx="162.9905" cy="-625.295" rx="41.1277" ry="18"/>
<text text-anchor="middle" x="162.9905" y="-621.095" font-family="sans-serif" font-size="14.00" fill="#4d4d4d">Camera</text>
</g>
<!-- Broker3 -->
<g id="node8" class="node">
<title>Broker3</title>
<ellipse fill="#add8e6" stroke="#c0c0c0" cx="368.852" cy="-625.295" rx="69.1341" ry="29.3315"/>
<text text-anchor="middle" x="368.852" y="-629.495" font-family="sans-serif" font-size="14.00" fill="#4d4d4d">MQTT Broker</text>
<text text-anchor="middle" x="368.852" y="-612.695" font-family="sans-serif" font-size="14.00" fill="#4d4d4d">(Mosquitto)</text>
</g>
<!-- Camera&#45;&gt;Broker3 -->
<g id="edge2" class="edge">
<title>Camera&#45;&gt;Broker3</title>
<path fill="none" stroke="#c0c0c0" d="M214.4217,-625.295C237.0038,-625.295 264.0408,-625.295 289.1357,-625.295"/>
<polygon fill="#c0c0c0" stroke="#c0c0c0" points="214.1549,-621.7951 204.1549,-625.295 214.1548,-628.7951 214.1549,-621.7951"/>
<polygon fill="#c0c0c0" stroke="#c0c0c0" points="289.3809,-628.7951 299.3809,-625.295 289.3809,-621.7951 289.3809,-628.7951"/>
<text text-anchor="middle" x="265.8779" y="-628.895" font-family="sans-serif" font-size="12.00" fill="#4d4d4d"> &#160;TCP &#160;</text>
</g>
<!-- Autoclave -->
<g id="node6" class="node">
<title>Autoclave</title>
<ellipse fill="#e6e6fa" stroke="#c0c0c0" cx="162.9905" cy="-335.295" rx="50.9425" ry="18"/>
<text text-anchor="middle" x="162.9905" y="-331.095" font-family="sans-serif" font-size="14.00" fill="#4d4d4d">Autoclave</text>
</g>
<!-- CPC -->
<g id="node12" class="node">
<title>CPC</title>
<ellipse fill="#add8e6" stroke="#c0c0c0" cx="368.852" cy="-360.295" rx="50.4587" ry="18"/>
<text text-anchor="middle" x="368.852" y="-356.095" font-family="sans-serif" font-size="14.00" fill="#4d4d4d">ASC CPC</text>
</g>
<!-- Autoclave&#45;&gt;CPC -->
<g id="edge3" class="edge">
<title>Autoclave&#45;&gt;CPC</title>
<path fill="none" stroke="#c0c0c0" d="M220.958,-342.3347C249.0132,-345.7417 282.6153,-349.8224 310.6954,-353.2324"/>
<polygon fill="#c0c0c0" stroke="#c0c0c0" points="221.3451,-338.856 210.9961,-341.1249 220.5012,-345.805 221.3451,-338.856"/>
<polygon fill="#c0c0c0" stroke="#c0c0c0" points="310.4213,-356.7248 320.7703,-354.456 311.2652,-349.7758 310.4213,-356.7248"/>
</g>
<!-- Adapter -->
<g id="node13" class="node">
<title>Adapter</title>
<ellipse fill="#adff2f" stroke="#c0c0c0" cx="572.3213" cy="-541.295" rx="70.8664" ry="53.3494"/>
<text text-anchor="middle" x="572.3213" y="-562.295" font-family="sans-serif" font-size="14.00" fill="#4d4d4d">Adapter</text>
<text text-anchor="middle" x="572.3213" y="-545.495" font-family="sans-serif" font-size="14.00" fill="#4d4d4d">with cache and</text>
<text text-anchor="middle" x="572.3213" y="-528.695" font-family="sans-serif" font-size="14.00" fill="#4d4d4d">plugins</text>
<text text-anchor="middle" x="572.3213" y="-511.895" font-family="sans-serif" font-size="14.00" fill="#4d4d4d">(NodeJS)</text>
</g>
<!-- Broker1&#45;&gt;Adapter -->
<g id="edge4" class="edge">
<title>Broker1&#45;&gt;Adapter</title>
<path fill="none" stroke="#c0c0c0" d="M419.5574,-680.2785C425.9606,-676.1216 432.3134,-671.741 438.1688,-667.295 468.1499,-644.531 498.9481,-616.0338 523.4616,-591.9015"/>
<polygon fill="#c0c0c0" stroke="#c0c0c0" points="417.4176,-677.4905 410.8364,-685.7934 421.159,-683.4068 417.4176,-677.4905"/>
<polygon fill="#c0c0c0" stroke="#c0c0c0" points="526.2246,-594.0907 530.8596,-584.5635 521.295,-589.1208 526.2246,-594.0907"/>
<text text-anchor="middle" x="468.1672" y="-660.895" font-family="sans-serif" font-size="12.00" fill="#4d4d4d">MQTT</text>
</g>
<!-- Broker3&#45;&gt;Adapter -->
<g id="edge5" class="edge">
<title>Broker3&#45;&gt;Adapter</title>
<path fill="none" stroke="#c0c0c0" d="M427.9332,-600.904C450.7599,-591.4803 477.0849,-580.6123 500.9545,-570.758"/>
<polygon fill="#c0c0c0" stroke="#c0c0c0" points="426.5338,-597.6951 418.6262,-604.7463 429.2051,-604.1654 426.5338,-597.6951"/>
<polygon fill="#c0c0c0" stroke="#c0c0c0" points="502.4087,-573.9442 510.3164,-566.893 499.7375,-567.4739 502.4087,-573.9442"/>
<text text-anchor="middle" x="468.1672" y="-595.895" font-family="sans-serif" font-size="12.00" fill="#4d4d4d">MQTT</text>
</g>
<!-- Broker4 -->
<g id="node9" class="node">
<title>Broker4</title>
<ellipse fill="#add8e6" stroke="#c0c0c0" cx="368.852" cy="-541.295" rx="69.1341" ry="29.3315"/>
<text text-anchor="middle" x="368.852" y="-545.495" font-family="sans-serif" font-size="14.00" fill="#4d4d4d">MQTT Broker</text>
<text text-anchor="middle" x="368.852" y="-528.695" font-family="sans-serif" font-size="14.00" fill="#4d4d4d">(Mosquitto)</text>
</g>
<!-- Broker4&#45;&gt;Adapter -->
<g id="edge6" class="edge">
<title>Broker4&#45;&gt;Adapter</title>
<path fill="none" stroke="#c0c0c0" d="M448.4738,-541.295C462.5379,-541.295 477.1946,-541.295 491.2968,-541.295"/>
<polygon fill="#c0c0c0" stroke="#c0c0c0" points="448.3055,-537.7951 438.3055,-541.295 448.3054,-544.7951 448.3055,-537.7951"/>
<polygon fill="#c0c0c0" stroke="#c0c0c0" points="491.4511,-544.7951 501.451,-541.295 491.451,-537.7951 491.4511,-544.7951"/>
<text text-anchor="middle" x="468.1672" y="-544.895" font-family="sans-serif" font-size="12.00" fill="#4d4d4d">MQTT</text>
</g>
<!-- Kepware1&#45;&gt;Adapter -->
<g id="edge9" class="edge">
<title>Kepware1&#45;&gt;Adapter</title>
<path fill="none" stroke="#c0c0c0" d="M413.0018,-475.5218C438.6297,-486.102 471.5272,-499.6833 500.7673,-511.7548"/>
<polygon fill="#c0c0c0" stroke="#c0c0c0" points="499.5395,-515.0344 510.1184,-515.6153 502.2107,-508.5641 499.5395,-515.0344"/>
<text text-anchor="middle" x="468.1672" y="-509.895" font-family="sans-serif" font-size="12.00" fill="#4d4d4d">OPC/UA</text>
</g>
<!-- Kepware2&#45;&gt;Broker4 -->
<g id="edge12" class="edge">
<title>Kepware2&#45;&gt;Broker4</title>
<path fill="none" stroke="#c0c0c0" d="M226.4355,-541.295C246.3345,-541.295 268.5541,-541.295 289.4139,-541.295"/>
<polygon fill="#c0c0c0" stroke="#c0c0c0" points="289.5289,-544.7951 299.5288,-541.295 289.5288,-537.7951 289.5289,-544.7951"/>
<text text-anchor="middle" x="265.8779" y="-544.895" font-family="sans-serif" font-size="12.00" fill="#4d4d4d">MQTT</text>
</g>
<!-- CPC&#45;&gt;Adapter -->
<g id="edge10" class="edge">
<title>CPC&#45;&gt;Adapter</title>
<path fill="none" stroke="#c0c0c0" d="M390.4608,-376.695C404.3283,-387.4008 422.59,-401.8393 438.1688,-415.295 466.4383,-439.7119 496.865,-468.1046 521.5832,-491.7498"/>
<polygon fill="#c0c0c0" stroke="#c0c0c0" points="519.4234,-494.528 529.0624,-498.9259 524.2698,-489.477 519.4234,-494.528"/>
<text text-anchor="middle" x="468.1672" y="-461.895" font-family="sans-serif" font-size="12.00" fill="#4d4d4d">text</text>
</g>
<!-- Agent -->
<g id="node14" class="node">
<title>Agent</title>
<ellipse fill="#adff2f" stroke="#c0c0c0" cx="572.3213" cy="-405.295" rx="74.3117" ry="29.3315"/>
<text text-anchor="middle" x="572.3213" y="-409.495" font-family="sans-serif" font-size="14.00" fill="#4d4d4d">Agent</text>
<text text-anchor="middle" x="572.3213" y="-392.695" font-family="sans-serif" font-size="14.00" fill="#4d4d4d">(C++/cppagent)</text>
</g>
<!-- Adapter&#45;&gt;Agent -->
<g id="edge13" class="edge">
<title>Adapter&#45;&gt;Agent</title>
<path fill="none" stroke="#c0c0c0" d="M572.3213,-477.8388C572.3213,-466.6967 572.3213,-455.3911 572.3213,-445.1259"/>
<polygon fill="#c0c0c0" stroke="#c0c0c0" points="568.8214,-477.9909 572.3213,-487.991 575.8214,-477.991 568.8214,-477.9909"/>
<polygon fill="#c0c0c0" stroke="#c0c0c0" points="575.8214,-444.805 572.3213,-434.805 568.8214,-444.805 575.8214,-444.805"/>
<text text-anchor="middle" x="554.9213" y="-465.0156" font-family="sans-serif" font-size="12.00" fill="#4d4d4d">SHDR / &#160;&#160;</text>
<text text-anchor="middle" x="554.9213" y="-450.6156" font-family="sans-serif" font-size="12.00" fill="#4d4d4d">TCP 7878+ &#160;&#160;&#160;&#160;&#160;&#160;&#160;&#160;</text>
</g>
<!-- Relay -->
<g id="node15" class="node">
<title>Relay</title>
<ellipse fill="#adff2f" stroke="#c0c0c0" cx="572.3213" cy="-293.295" rx="48.8971" ry="29.3315"/>
<text text-anchor="middle" x="572.3213" y="-297.495" font-family="sans-serif" font-size="14.00" fill="#4d4d4d">Relay</text>
<text text-anchor="middle" x="572.3213" y="-280.695" font-family="sans-serif" font-size="14.00" fill="#4d4d4d">(NodeJS)</text>
</g>
<!-- Agent&#45;&gt;Relay -->
<g id="edge14" class="edge">
<title>Agent&#45;&gt;Relay</title>
<path fill="none" stroke="#c0c0c0" d="M572.3213,-365.4945C572.3213,-354.9728 572.3213,-343.6164 572.3213,-333.0948"/>
<polygon fill="#c0c0c0" stroke="#c0c0c0" points="568.8214,-365.676 572.3213,-375.676 575.8214,-365.6761 568.8214,-365.676"/>
<polygon fill="#c0c0c0" stroke="#c0c0c0" points="575.8214,-332.7217 572.3213,-322.7217 568.8214,-332.7218 575.8214,-332.7217"/>
<text text-anchor="middle" x="554.9213" y="-352.895" font-family="sans-serif" font-size="12.00" fill="#4d4d4d">XML / </text>
<text text-anchor="middle" x="554.9213" y="-338.495" font-family="sans-serif" font-size="12.00" fill="#4d4d4d">HTTP 5000 &#160;&#160;&#160;&#160;&#160;&#160;&#160;&#160;&#160;</text>
</g>
<!-- Browser -->
<g id="node19" class="node">
<title>Browser</title>
<ellipse fill="#e5e5e5" stroke="#c0c0c0" cx="801.0271" cy="-405.295" rx="43.9983" ry="18"/>
<text text-anchor="middle" x="801.0271" y="-401.095" font-family="sans-serif" font-size="14.00" fill="#4d4d4d">Browser</text>
</g>
<!-- Agent&#45;&gt;Browser -->
<g id="edge15" class="edge">
<title>Agent&#45;&gt;Browser</title>
<path fill="none" stroke="#c0c0c0" d="M646.5755,-405.295C679.2444,-405.295 716.9126,-405.295 746.8707,-405.295"/>
<polygon fill="#c0c0c0" stroke="#c0c0c0" points="747.1249,-408.7951 757.1249,-405.295 747.1248,-401.7951 747.1249,-408.7951"/>
<text text-anchor="middle" x="689.6376" y="-423.295" font-family="sans-serif" font-size="12.00" fill="#4d4d4d">XML/HTML /</text>
<text text-anchor="middle" x="689.6376" y="-408.895" font-family="sans-serif" font-size="12.00" fill="#4d4d4d">HTTP 5000</text>
</g>
<!-- Database -->
<g id="node16" class="node">
<title>Database</title>
<ellipse fill="#adff2f" stroke="#c0c0c0" cx="572.3213" cy="-173.295" rx="69.0714" ry="41.0911"/>
<text text-anchor="middle" x="572.3213" y="-185.895" font-family="sans-serif" font-size="14.00" fill="#4d4d4d">Database</text>
<text text-anchor="middle" x="572.3213" y="-169.095" font-family="sans-serif" font-size="14.00" fill="#4d4d4d">(Postgres/</text>
<text text-anchor="middle" x="572.3213" y="-152.295" font-family="sans-serif" font-size="14.00" fill="#4d4d4d">TimescaleDB)</text>
</g>
<!-- Relay&#45;&gt;Database -->
<g id="edge16" class="edge">
<title>Relay&#45;&gt;Database</title>
<path fill="none" stroke="#c0c0c0" d="M572.3213,-253.5709C572.3213,-244.3078 572.3213,-234.3141 572.3213,-224.6282"/>
<polygon fill="#c0c0c0" stroke="#c0c0c0" points="568.8214,-253.6634 572.3213,-263.6634 575.8214,-253.6634 568.8214,-253.6634"/>
<polygon fill="#c0c0c0" stroke="#c0c0c0" points="575.8214,-224.5922 572.3213,-214.5922 568.8214,-224.5923 575.8214,-224.5922"/>
<text text-anchor="middle" x="562.1213" y="-235.6347" font-family="sans-serif" font-size="12.00" fill="#4d4d4d">SQL</text>
</g>
<!-- Dashboard -->
<g id="node17" class="node">
<title>Dashboard</title>
<ellipse fill="#adff2f" stroke="#c0c0c0" cx="572.3213" cy="-41.295" rx="54.3874" ry="41.0911"/>
<text text-anchor="middle" x="572.3213" y="-53.895" font-family="sans-serif" font-size="14.00" fill="#4d4d4d">Dashboard</text>
<text text-anchor="middle" x="572.3213" y="-37.095" font-family="sans-serif" font-size="14.00" fill="#4d4d4d">(Grafana/</text>
<text text-anchor="middle" x="572.3213" y="-20.295" font-family="sans-serif" font-size="14.00" fill="#4d4d4d">Superset)</text>
</g>
<!-- Database&#45;&gt;Dashboard -->
<g id="edge17" class="edge">
<title>Database&#45;&gt;Dashboard</title>
<path fill="none" stroke="#c0c0c0" d="M572.3213,-121.5353C572.3213,-112.0904 572.3213,-102.237 572.3213,-92.7996"/>
<polygon fill="#c0c0c0" stroke="#c0c0c0" points="568.8214,-121.5846 572.3213,-131.5846 575.8214,-121.5847 568.8214,-121.5846"/>
<polygon fill="#c0c0c0" stroke="#c0c0c0" points="575.8214,-92.6985 572.3213,-82.6985 568.8214,-92.6985 575.8214,-92.6985"/>
<text text-anchor="middle" x="562.1213" y="-103.695" font-family="sans-serif" font-size="12.00" fill="#4d4d4d">SQL</text>
</g>
<!-- Cloud -->
<g id="node18" class="node">
<title>Cloud</title>
<ellipse fill="#e5e5e5" stroke="#c0c0c0" cx="801.0271" cy="-173.295" rx="68.4585" ry="29.3315"/>
<text text-anchor="middle" x="801.0271" y="-177.495" font-family="sans-serif" font-size="14.00" fill="#4d4d4d">Cloud Storage</text>
<text text-anchor="middle" x="801.0271" y="-160.695" font-family="sans-serif" font-size="14.00" fill="#4d4d4d">(AWS/GCP)</text>
</g>
<!-- Database&#45;&gt;Cloud -->
<g id="edge18" class="edge">
<title>Database&#45;&gt;Cloud</title>
<path fill="none" stroke="#c0c0c0" d="M641.5612,-173.295C666.9796,-173.295 695.9396,-173.295 722.1421,-173.295"/>
<polygon fill="#c0c0c0" stroke="#c0c0c0" points="722.4163,-176.7951 732.4163,-173.295 722.4162,-169.7951 722.4163,-176.7951"/>
</g>
<!-- Browser2 -->
<g id="node20" class="node">
<title>Browser2</title>
<ellipse fill="#e5e5e5" stroke="#c0c0c0" cx="801.0271" cy="-41.295" rx="43.9983" ry="18"/>
<text text-anchor="middle" x="801.0271" y="-37.095" font-family="sans-serif" font-size="14.00" fill="#4d4d4d">Browser</text>
</g>
<!-- Dashboard&#45;&gt;Browser2 -->
<g id="edge19" class="edge">
<title>Dashboard&#45;&gt;Browser2</title>
<path fill="none" stroke="#c0c0c0" d="M636.5976,-41.295C671.3293,-41.295 713.7411,-41.295 746.7913,-41.295"/>
<polygon fill="#c0c0c0" stroke="#c0c0c0" points="636.5214,-37.7951 626.5214,-41.295 636.5213,-44.7951 636.5214,-37.7951"/>
<polygon fill="#c0c0c0" stroke="#c0c0c0" points="747.1714,-44.7951 757.1713,-41.295 747.1713,-37.7951 747.1714,-44.7951"/>
</g>
</g>
</svg>
