<?xml version="1.0" encoding="UTF-8" standalone="no"?>
<!DOCTYPE svg PUBLIC "-//W3C//DTD SVG 1.1//EN"
 "http://www.w3.org/Graphics/SVG/1.1/DTD/svg11.dtd">
<!-- Generated by graphviz version 2.40.1 (20161225.0304)
 -->
<!-- Title: ladder99&#45;adapter Pages: 1 -->
<svg width="881pt" height="810pt"
 viewBox="0.00 0.00 881.07 809.71" xmlns="http://www.w3.org/2000/svg" xmlns:xlink="http://www.w3.org/1999/xlink">
<g id="graph0" class="graph" transform="scale(1 1) rotate(0) translate(4 805.7107)">
<title>ladder99&#45;adapter</title>
<polygon fill="#ffffff" stroke="transparent" points="-4,4 -4,-805.7107 877.0669,-805.7107 877.0669,4 -4,4"/>
<text text-anchor="middle" x="436.5335" y="-779.7107" font-family="Times,serif" font-size="20.00" fill="#000000">Ladder99 MTConnect data flow</text>
<text text-anchor="middle" x="436.5335" y="-755.7107" font-family="Times,serif" font-size="20.00" fill="#000000"> </text>
<!-- PA1 -->
<g id="node1" class="node">
<title>PA1</title>
<ellipse fill="#e6e6fa" stroke="#c0c0c0" cx="157.0186" cy="-716.295" rx="51.6026" ry="18"/>
<text text-anchor="middle" x="157.0186" y="-712.095" font-family="Times,serif" font-size="14.00" fill="#000000">CCS P&amp;A</text>
</g>
<!-- Broker1 -->
<g id="node7" class="node">
<title>Broker1</title>
<ellipse fill="#ffffff" stroke="#c0c0c0" cx="339.5982" cy="-716.295" rx="69.1341" ry="29.3315"/>
<text text-anchor="middle" x="339.5982" y="-720.495" font-family="Times,serif" font-size="14.00" fill="#000000">MQTT Broker</text>
<text text-anchor="middle" x="339.5982" y="-703.695" font-family="Times,serif" font-size="14.00" fill="#000000">(Mosquitto)</text>
</g>
<!-- PA1&#45;&gt;Broker1 -->
<g id="edge1" class="edge">
<title>PA1&#45;&gt;Broker1</title>
<path fill="none" stroke="#c0c0c0" d="M218.9196,-716.295C232.0726,-716.295 246.1367,-716.295 259.8479,-716.295"/>
<polygon fill="#c0c0c0" stroke="#c0c0c0" points="218.8503,-712.7951 208.8502,-716.295 218.8502,-719.7951 218.8503,-712.7951"/>
<polygon fill="#c0c0c0" stroke="#c0c0c0" points="260.2432,-719.7951 270.2432,-716.295 260.2431,-712.7951 260.2432,-719.7951"/>
<text text-anchor="middle" x="245.2792" y="-719.895" font-family="Times,serif" font-size="12.00" fill="#4d4d4d"> &#160;TCP &#160;</text>
</g>
<!-- OldMachine2 -->
<g id="node2" class="node">
<title>OldMachine2</title>
<ellipse fill="#e6e6fa" stroke="#c0c0c0" cx="157.0186" cy="-632.295" rx="38.2607" ry="18"/>
<text text-anchor="middle" x="157.0186" y="-628.095" font-family="Times,serif" font-size="14.00" fill="#000000">Device</text>
</g>
<!-- Kepware1 -->
<g id="node4" class="node">
<title>Kepware1</title>
<ellipse fill="#ffffff" stroke="#c0c0c0" cx="339.5982" cy="-632.295" rx="55.6916" ry="29.3315"/>
<text text-anchor="middle" x="339.5982" y="-636.495" font-family="Times,serif" font-size="14.00" fill="#000000">Kepware</text>
<text text-anchor="middle" x="339.5982" y="-619.695" font-family="Times,serif" font-size="14.00" fill="#000000">(Windows)</text>
</g>
<!-- OldMachine2&#45;&gt;Kepware1 -->
<g id="edge4" class="edge">
<title>OldMachine2&#45;&gt;Kepware1</title>
<path fill="none" stroke="#c0c0c0" d="M195.7391,-632.295C218.2871,-632.295 247.3258,-632.295 273.4027,-632.295"/>
<polygon fill="#c0c0c0" stroke="#c0c0c0" points="273.6087,-635.7951 283.6086,-632.295 273.6086,-628.7951 273.6087,-635.7951"/>
</g>
<!-- OldMachine3 -->
<g id="node3" class="node">
<title>OldMachine3</title>
<ellipse fill="#e6e6fa" stroke="#c0c0c0" cx="38.3801" cy="-488.295" rx="38.2607" ry="18"/>
<text text-anchor="middle" x="38.3801" y="-484.095" font-family="Times,serif" font-size="14.00" fill="#000000">Device</text>
</g>
<!-- Kepware2 -->
<g id="node5" class="node">
<title>Kepware2</title>
<ellipse fill="#ffffff" stroke="#c0c0c0" cx="157.0186" cy="-488.295" rx="63.0176" ry="41.0911"/>
<text text-anchor="middle" x="157.0186" y="-500.895" font-family="Times,serif" font-size="14.00" fill="#000000">Kepware+</text>
<text text-anchor="middle" x="157.0186" y="-484.095" font-family="Times,serif" font-size="14.00" fill="#000000">IoT Gateway</text>
<text text-anchor="middle" x="157.0186" y="-467.295" font-family="Times,serif" font-size="14.00" fill="#000000">(Windows)</text>
</g>
<!-- OldMachine3&#45;&gt;Kepware2 -->
<g id="edge7" class="edge">
<title>OldMachine3&#45;&gt;Kepware2</title>
<path fill="none" stroke="#c0c0c0" d="M76.8987,-488.295C79.0976,-488.295 81.3402,-488.295 83.6121,-488.295"/>
<polygon fill="#c0c0c0" stroke="#c0c0c0" points="83.7159,-491.7951 93.7158,-488.295 83.7158,-484.7951 83.7159,-491.7951"/>
</g>
<!-- Adapter -->
<g id="node9" class="node">
<title>Adapter</title>
<ellipse fill="#ffffff" stroke="#c0c0c0" cx="543.0675" cy="-589.295" rx="60.5759" ry="53.3494"/>
<text text-anchor="middle" x="543.0675" y="-610.295" font-family="Times,serif" font-size="14.00" fill="#000000">MTConnect</text>
<text text-anchor="middle" x="543.0675" y="-593.495" font-family="Times,serif" font-size="14.00" fill="#000000">Adapter</text>
<text text-anchor="middle" x="543.0675" y="-576.695" font-family="Times,serif" font-size="14.00" fill="#000000">with plugins</text>
<text text-anchor="middle" x="543.0675" y="-559.895" font-family="Times,serif" font-size="14.00" fill="#000000">(NodeJS)</text>
</g>
<!-- Kepware1&#45;&gt;Adapter -->
<g id="edge5" class="edge">
<title>Kepware1&#45;&gt;Adapter</title>
<path fill="none" stroke="#c0c0c0" d="M391.4686,-621.3331C416.6355,-616.0144 447.2112,-609.5527 474.2932,-603.8294"/>
<polygon fill="#c0c0c0" stroke="#c0c0c0" points="475.036,-607.2498 484.0962,-601.7577 473.5886,-600.4011 475.036,-607.2498"/>
<text text-anchor="middle" x="438.9134" y="-618.895" font-family="Times,serif" font-size="12.00" fill="#4d4d4d">OPC/UA</text>
</g>
<!-- Broker4 -->
<g id="node8" class="node">
<title>Broker4</title>
<ellipse fill="#ffffff" stroke="#c0c0c0" cx="339.5982" cy="-488.295" rx="69.1341" ry="29.3315"/>
<text text-anchor="middle" x="339.5982" y="-492.495" font-family="Times,serif" font-size="14.00" fill="#000000">MQTT Broker</text>
<text text-anchor="middle" x="339.5982" y="-475.695" font-family="Times,serif" font-size="14.00" fill="#000000">(Mosquitto)</text>
</g>
<!-- Kepware2&#45;&gt;Broker4 -->
<g id="edge8" class="edge">
<title>Kepware2&#45;&gt;Broker4</title>
<path fill="none" stroke="#c0c0c0" d="M220.3637,-488.295C233.1672,-488.295 246.7824,-488.295 260.0603,-488.295"/>
<polygon fill="#c0c0c0" stroke="#c0c0c0" points="260.1292,-491.7951 270.1292,-488.295 260.1292,-484.7951 260.1292,-491.7951"/>
<text text-anchor="middle" x="245.2792" y="-491.895" font-family="Times,serif" font-size="12.00" fill="#4d4d4d">MQTT</text>
</g>
<!-- CPC -->
<g id="node6" class="node">
<title>CPC</title>
<ellipse fill="#e6e6fa" stroke="#c0c0c0" cx="339.5982" cy="-560.295" rx="50.4587" ry="18"/>
<text text-anchor="middle" x="339.5982" y="-556.095" font-family="Times,serif" font-size="14.00" fill="#000000">ASC CPC</text>
</g>
<!-- CPC&#45;&gt;Adapter -->
<g id="edge6" class="edge">
<title>CPC&#45;&gt;Adapter</title>
<path fill="none" stroke="#c0c0c0" d="M389.0168,-564.3723C411.0786,-566.4639 437.3587,-569.329 460.9118,-572.895 465.1182,-573.5319 469.4358,-574.2373 473.7845,-574.9873"/>
<polygon fill="#c0c0c0" stroke="#c0c0c0" points="473.4893,-578.49 483.9496,-576.807 474.7228,-571.5996 473.4893,-578.49"/>
<text text-anchor="middle" x="438.9134" y="-575.895" font-family="Times,serif" font-size="12.00" fill="#4d4d4d">text</text>
</g>
<!-- Broker1&#45;&gt;Adapter -->
<g id="edge2" class="edge">
<title>Broker1&#45;&gt;Adapter</title>
<path fill="none" stroke="#c0c0c0" d="M388.3206,-686.9416C395.2472,-682.7197 402.2713,-678.412 408.915,-674.295 434.0675,-658.7087 461.7078,-641.2522 485.3296,-626.2328"/>
<polygon fill="#c0c0c0" stroke="#c0c0c0" points="386.3612,-684.0367 379.635,-692.2226 389.998,-690.0179 386.3612,-684.0367"/>
<polygon fill="#c0c0c0" stroke="#c0c0c0" points="487.2813,-629.1394 493.8386,-620.8176 483.5229,-623.234 487.2813,-629.1394"/>
<text text-anchor="middle" x="438.9134" y="-670.895" font-family="Times,serif" font-size="12.00" fill="#4d4d4d">MQTT</text>
</g>
<!-- Broker4&#45;&gt;Adapter -->
<g id="edge3" class="edge">
<title>Broker4&#45;&gt;Adapter</title>
<path fill="none" stroke="#c0c0c0" d="M395.1117,-514.7306C415.8222,-524.6927 439.4996,-536.2005 460.9118,-546.895 467.526,-550.1986 474.4199,-553.686 481.2786,-557.1842"/>
<polygon fill="#c0c0c0" stroke="#c0c0c0" points="396.3532,-511.4442 385.8236,-510.2707 393.3231,-517.7545 396.3532,-511.4442"/>
<polygon fill="#c0c0c0" stroke="#c0c0c0" points="480.0835,-560.5043 490.58,-561.9449 483.2728,-554.2731 480.0835,-560.5043"/>
<text text-anchor="middle" x="438.9134" y="-549.895" font-family="Times,serif" font-size="12.00" fill="#4d4d4d">MQTT</text>
</g>
<!-- DiodeSender -->
<g id="node10" class="node">
<title>DiodeSender</title>
<ellipse fill="#ffffff" stroke="#c0c0c0" cx="789.6473" cy="-581.295" rx="83.3394" ry="29.3315"/>
<text text-anchor="middle" x="789.6473" y="-585.495" font-family="Times,serif" font-size="14.00" fill="#000000">Diode Sender</text>
<text text-anchor="middle" x="789.6473" y="-568.695" font-family="Times,serif" font-size="14.00" fill="#000000">(Java+RabbitMQ)</text>
</g>
<!-- Adapter&#45;&gt;DiodeSender -->
<g id="edge10" class="edge">
<title>Adapter&#45;&gt;DiodeSender</title>
<path fill="none" stroke="#c0c0c0" stroke-dasharray="1,5" d="M613.72,-587.0028C639.3616,-586.1709 668.7431,-585.2176 696.0568,-584.3315"/>
<polygon fill="#c0c0c0" stroke="#c0c0c0" points="613.5847,-583.5052 603.7035,-587.3278 613.8118,-590.5016 613.5847,-583.5052"/>
<polygon fill="#c0c0c0" stroke="#c0c0c0" points="696.5305,-587.818 706.4117,-583.9955 696.3035,-580.8217 696.5305,-587.818"/>
<text text-anchor="middle" x="661.7254" y="-604.295" font-family="Times,serif" font-size="12.00" fill="#4d4d4d">SHDR / &#160;&#160;</text>
<text text-anchor="middle" x="661.7254" y="-589.895" font-family="Times,serif" font-size="12.00" fill="#4d4d4d">TCP 7878 &#160;&#160;&#160;&#160;&#160;</text>
</g>
<!-- Agent -->
<g id="node12" class="node">
<title>Agent</title>
<ellipse fill="#ffffff" stroke="#c0c0c0" cx="543.0675" cy="-441.295" rx="74.3117" ry="41.0911"/>
<text text-anchor="middle" x="543.0675" y="-453.895" font-family="Times,serif" font-size="14.00" fill="#000000">MTConnect</text>
<text text-anchor="middle" x="543.0675" y="-437.095" font-family="Times,serif" font-size="14.00" fill="#000000">Agent</text>
<text text-anchor="middle" x="543.0675" y="-420.295" font-family="Times,serif" font-size="14.00" fill="#000000">(C++/cppagent)</text>
</g>
<!-- Adapter&#45;&gt;Agent -->
<g id="edge9" class="edge">
<title>Adapter&#45;&gt;Agent</title>
<path fill="none" stroke="#c0c0c0" d="M543.0675,-525.7997C543.0675,-514.9425 543.0675,-503.7775 543.0675,-493.2651"/>
<polygon fill="#c0c0c0" stroke="#c0c0c0" points="539.5676,-526.0833 543.0675,-536.0833 546.5676,-526.0834 539.5676,-526.0833"/>
<polygon fill="#c0c0c0" stroke="#c0c0c0" points="546.5676,-492.9151 543.0675,-482.9151 539.5676,-492.9152 546.5676,-492.9151"/>
<text text-anchor="middle" x="525.6675" y="-512.9553" font-family="Times,serif" font-size="12.00" fill="#4d4d4d">SHDR / &#160;&#160;</text>
<text text-anchor="middle" x="525.6675" y="-498.5553" font-family="Times,serif" font-size="12.00" fill="#4d4d4d">TCP 7878 &#160;&#160;&#160;&#160;&#160;</text>
</g>
<!-- DiodeReceiver -->
<g id="node11" class="node">
<title>DiodeReceiver</title>
<ellipse fill="#ffffff" stroke="#c0c0c0" cx="789.6473" cy="-463.295" rx="83.3394" ry="29.3315"/>
<text text-anchor="middle" x="789.6473" y="-467.495" font-family="Times,serif" font-size="14.00" fill="#000000">Diode Receiver</text>
<text text-anchor="middle" x="789.6473" y="-450.695" font-family="Times,serif" font-size="14.00" fill="#000000">(Java+RabbitMQ)</text>
</g>
<!-- DiodeSender&#45;&gt;DiodeReceiver -->
<g id="edge11" class="edge">
<title>DiodeSender&#45;&gt;DiodeReceiver</title>
<path fill="none" stroke="#c0c0c0" stroke-dasharray="1,5" d="M789.6473,-551.7898C789.6473,-537.0015 789.6473,-518.885 789.6473,-502.904"/>
<polygon fill="#c0c0c0" stroke="#c0c0c0" points="793.1474,-502.767 789.6473,-492.767 786.1474,-502.7671 793.1474,-502.767"/>
<text text-anchor="middle" x="779.4473" y="-518.695" font-family="Times,serif" font-size="12.00" fill="#4d4d4d">UDP &#160;&#160;&#160;</text>
</g>
<!-- DiodeReceiver&#45;&gt;Agent -->
<g id="edge12" class="edge">
<title>DiodeReceiver&#45;&gt;Agent</title>
<path fill="none" stroke="#c0c0c0" stroke-dasharray="1,5" d="M708.4221,-456.0481C682.0947,-453.6991 652.8596,-451.0908 626.3827,-448.7285"/>
<polygon fill="#c0c0c0" stroke="#c0c0c0" points="626.6535,-445.2388 616.382,-447.8362 626.0313,-452.2111 626.6535,-445.2388"/>
<text text-anchor="middle" x="661.7254" y="-473.295" font-family="Times,serif" font-size="12.00" fill="#4d4d4d">SHDR / &#160;&#160;&#160;</text>
<text text-anchor="middle" x="661.7254" y="-458.895" font-family="Times,serif" font-size="12.00" fill="#4d4d4d">TCP 7878 &#160;&#160;&#160;&#160;&#160;&#160;&#160;</text>
</g>
<!-- Application -->
<g id="node13" class="node">
<title>Application</title>
<ellipse fill="#ffffff" stroke="#c0c0c0" cx="543.0675" cy="-305.295" rx="59.3044" ry="41.0911"/>
<text text-anchor="middle" x="543.0675" y="-317.895" font-family="Times,serif" font-size="14.00" fill="#000000">MTConnect</text>
<text text-anchor="middle" x="543.0675" y="-301.095" font-family="Times,serif" font-size="14.00" fill="#000000">Application</text>
<text text-anchor="middle" x="543.0675" y="-284.295" font-family="Times,serif" font-size="14.00" fill="#000000">(NodeJS)</text>
</g>
<!-- Agent&#45;&gt;Application -->
<g id="edge13" class="edge">
<title>Agent&#45;&gt;Application</title>
<path fill="none" stroke="#c0c0c0" d="M543.0675,-389.503C543.0675,-378.817 543.0675,-367.564 543.0675,-356.8852"/>
<polygon fill="#c0c0c0" stroke="#c0c0c0" points="539.5676,-389.5373 543.0675,-399.5373 546.5676,-389.5374 539.5676,-389.5373"/>
<polygon fill="#c0c0c0" stroke="#c0c0c0" points="546.5676,-356.8385 543.0675,-346.8385 539.5676,-356.8385 546.5676,-356.8385"/>
<text text-anchor="middle" x="525.6675" y="-376.895" font-family="Times,serif" font-size="12.00" fill="#4d4d4d">XML / </text>
<text text-anchor="middle" x="525.6675" y="-362.495" font-family="Times,serif" font-size="12.00" fill="#4d4d4d">HTTP 5000 &#160;&#160;&#160;&#160;&#160;&#160;&#160;&#160;&#160;</text>
</g>
<!-- Database -->
<g id="node14" class="node">
<title>Database</title>
<ellipse fill="#ffffff" stroke="#c0c0c0" cx="543.0675" cy="-173.295" rx="69.0714" ry="41.0911"/>
<text text-anchor="middle" x="543.0675" y="-185.895" font-family="Times,serif" font-size="14.00" fill="#000000">Database</text>
<text text-anchor="middle" x="543.0675" y="-169.095" font-family="Times,serif" font-size="14.00" fill="#000000">(InfluxDB/</text>
<text text-anchor="middle" x="543.0675" y="-152.295" font-family="Times,serif" font-size="14.00" fill="#000000">TimescaleDB)</text>
</g>
<!-- Application&#45;&gt;Database -->
<g id="edge14" class="edge">
<title>Application&#45;&gt;Database</title>
<path fill="none" stroke="#c0c0c0" d="M543.0675,-253.639C543.0675,-244.1484 543.0675,-234.6577 543.0675,-225.1671"/>
<polygon fill="#c0c0c0" stroke="#c0c0c0" points="539.5676,-253.9372 543.0675,-263.9373 546.5676,-253.9373 539.5676,-253.9372"/>
<polygon fill="#c0c0c0" stroke="#c0c0c0" points="546.5676,-224.8028 543.0675,-214.8028 539.5676,-224.8029 546.5676,-224.8028"/>
</g>
<!-- Visualizer -->
<g id="node15" class="node">
<title>Visualizer</title>
<ellipse fill="#ffffff" stroke="#c0c0c0" cx="543.0675" cy="-41.295" rx="51.9834" ry="41.0911"/>
<text text-anchor="middle" x="543.0675" y="-53.895" font-family="Times,serif" font-size="14.00" fill="#000000">Visualizer</text>
<text text-anchor="middle" x="543.0675" y="-37.095" font-family="Times,serif" font-size="14.00" fill="#000000">(Grafana/</text>
<text text-anchor="middle" x="543.0675" y="-20.295" font-family="Times,serif" font-size="14.00" fill="#000000">Superset)</text>
</g>
<!-- Database&#45;&gt;Visualizer -->
<g id="edge15" class="edge">
<title>Database&#45;&gt;Visualizer</title>
<path fill="none" stroke="#c0c0c0" d="M543.0675,-121.639C543.0675,-112.1484 543.0675,-102.6577 543.0675,-93.1671"/>
<polygon fill="#c0c0c0" stroke="#c0c0c0" points="539.5676,-121.9372 543.0675,-131.9373 546.5676,-121.9373 539.5676,-121.9372"/>
<polygon fill="#c0c0c0" stroke="#c0c0c0" points="546.5676,-92.8028 543.0675,-82.8028 539.5676,-92.8029 546.5676,-92.8028"/>
</g>
<!-- Cloud -->
<g id="node16" class="node">
<title>Cloud</title>
<ellipse fill="#ffffff" stroke="#c0c0c0" cx="789.6473" cy="-173.295" rx="68.4585" ry="29.3315"/>
<text text-anchor="middle" x="789.6473" y="-177.495" font-family="Times,serif" font-size="14.00" fill="#000000">Cloud Storage</text>
<text text-anchor="middle" x="789.6473" y="-160.695" font-family="Times,serif" font-size="14.00" fill="#000000">(AWS/GCP)</text>
</g>
<!-- Database&#45;&gt;Cloud -->
<g id="edge16" class="edge">
<title>Database&#45;&gt;Cloud</title>
<path fill="none" stroke="#c0c0c0" d="M612.4099,-173.295C643.1298,-173.295 679.4158,-173.295 711.1286,-173.295"/>
<polygon fill="#c0c0c0" stroke="#c0c0c0" points="711.2515,-176.7951 721.2515,-173.295 711.2514,-169.7951 711.2515,-176.7951"/>
</g>
<!-- Admin -->
<g id="node17" class="node">
<title>Admin</title>
<ellipse fill="#ffffe0" stroke="#c0c0c0" cx="789.6473" cy="-41.295" rx="37.7217" ry="18"/>
<text text-anchor="middle" x="789.6473" y="-37.095" font-family="Times,serif" font-size="14.00" fill="#000000">Admin</text>
</g>
<!-- Visualizer&#45;&gt;Admin -->
<g id="edge17" class="edge">
<title>Visualizer&#45;&gt;Admin</title>
<path fill="none" stroke="#c0c0c0" d="M605.218,-41.295C647.4385,-41.295 702.4668,-41.295 741.392,-41.295"/>
<polygon fill="#c0c0c0" stroke="#c0c0c0" points="605.0595,-37.7951 595.0595,-41.295 605.0594,-44.7951 605.0595,-37.7951"/>
<polygon fill="#c0c0c0" stroke="#c0c0c0" points="741.4209,-44.7951 751.4209,-41.295 741.4208,-37.7951 741.4209,-44.7951"/>
</g>
</g>
</svg>
