<?xml version="1.0" encoding="UTF-8" standalone="no"?>
<!DOCTYPE svg PUBLIC "-//W3C//DTD SVG 1.1//EN"
 "http://www.w3.org/Graphics/SVG/1.1/DTD/svg11.dtd">
<!-- Generated by graphviz version 2.40.1 (20161225.0304)
 -->
<!-- Title: ladder99&#45;adapter Pages: 1 -->
<svg width="1005pt" height="889pt"
 viewBox="0.00 0.00 1005.47 888.71" xmlns="http://www.w3.org/2000/svg" xmlns:xlink="http://www.w3.org/1999/xlink">
<g id="graph0" class="graph" transform="scale(1 1) rotate(0) translate(4 884.7107)">
<title>ladder99&#45;adapter</title>
<polygon fill="#ffffff" stroke="transparent" points="-4,4 -4,-884.7107 1001.4658,-884.7107 1001.4658,4 -4,4"/>
<text text-anchor="middle" x="498.7329" y="-858.7107" font-family="Times,serif" font-size="20.00" fill="#000000">Ladder99 MTConnect data flow</text>
<text text-anchor="middle" x="498.7329" y="-834.7107" font-family="Times,serif" font-size="20.00" fill="#000000"> </text>
<!-- PA1 -->
<g id="node1" class="node">
<title>PA1</title>
<ellipse fill="#e6e6fa" stroke="#c0c0c0" cx="266.0251" cy="-795.295" rx="58.5886" ry="18"/>
<text text-anchor="middle" x="266.0251" y="-791.095" font-family="Times,serif" font-size="14.00" fill="#000000">CCS P&amp;A 1</text>
</g>
<!-- Broker1 -->
<g id="node10" class="node">
<title>Broker1</title>
<ellipse fill="#ffffff" stroke="#c0c0c0" cx="451.5649" cy="-795.295" rx="76.9837" ry="29.3315"/>
<text text-anchor="middle" x="451.5649" y="-799.495" font-family="Times,serif" font-size="14.00" fill="#000000">MQTT Broker 1</text>
<text text-anchor="middle" x="451.5649" y="-782.695" font-family="Times,serif" font-size="14.00" fill="#000000">(Mosquitto)</text>
</g>
<!-- PA1&#45;&gt;Broker1 -->
<g id="edge1" class="edge">
<title>PA1&#45;&gt;Broker1</title>
<path fill="none" stroke="#c0c0c0" d="M335.1728,-795.295C344.749,-795.295 354.685,-795.295 364.5344,-795.295"/>
<polygon fill="#c0c0c0" stroke="#c0c0c0" points="334.986,-791.7951 324.986,-795.295 334.9859,-798.7951 334.986,-791.7951"/>
<polygon fill="#c0c0c0" stroke="#c0c0c0" points="364.7485,-798.7951 374.7484,-795.295 364.7484,-791.7951 364.7485,-798.7951"/>
<text text-anchor="middle" x="349.8212" y="-798.895" font-family="Times,serif" font-size="12.00" fill="#4d4d4d"> &#160;TCP &#160;</text>
</g>
<!-- PA2 -->
<g id="node2" class="node">
<title>PA2</title>
<ellipse fill="#e6e6fa" stroke="#c0c0c0" cx="266.0251" cy="-529.295" rx="58.5886" ry="18"/>
<text text-anchor="middle" x="266.0251" y="-525.095" font-family="Times,serif" font-size="14.00" fill="#000000">CCS P&amp;A 2</text>
</g>
<!-- Broker2 -->
<g id="node11" class="node">
<title>Broker2</title>
<ellipse fill="#ffffff" stroke="#c0c0c0" cx="451.5649" cy="-529.295" rx="76.9837" ry="29.3315"/>
<text text-anchor="middle" x="451.5649" y="-533.495" font-family="Times,serif" font-size="14.00" fill="#000000">MQTT Broker 2</text>
<text text-anchor="middle" x="451.5649" y="-516.695" font-family="Times,serif" font-size="14.00" fill="#000000">(Mosquitto)</text>
</g>
<!-- PA2&#45;&gt;Broker2 -->
<g id="edge2" class="edge">
<title>PA2&#45;&gt;Broker2</title>
<path fill="none" stroke="#c0c0c0" d="M335.1728,-529.295C344.749,-529.295 354.685,-529.295 364.5344,-529.295"/>
<polygon fill="#c0c0c0" stroke="#c0c0c0" points="334.986,-525.7951 324.986,-529.295 334.9859,-532.7951 334.986,-525.7951"/>
<polygon fill="#c0c0c0" stroke="#c0c0c0" points="364.7485,-532.7951 374.7484,-529.295 364.7484,-525.7951 364.7485,-532.7951"/>
<text text-anchor="middle" x="349.8212" y="-532.895" font-family="Times,serif" font-size="12.00" fill="#4d4d4d"> &#160;TCP &#160;</text>
</g>
<!-- OldMachine1 -->
<g id="node3" class="node">
<title>OldMachine1</title>
<ellipse fill="#e6e6fa" stroke="#c0c0c0" cx="68.9618" cy="-445.295" rx="68.9235" ry="18"/>
<text text-anchor="middle" x="68.9618" y="-441.095" font-family="Times,serif" font-size="14.00" fill="#000000">Old Machine 1</text>
</g>
<!-- PLC4X -->
<g id="node4" class="node">
<title>PLC4X</title>
<ellipse fill="#ffffff" stroke="#c0c0c0" cx="266.0251" cy="-445.295" rx="41.6253" ry="29.3315"/>
<text text-anchor="middle" x="266.0251" y="-449.495" font-family="Times,serif" font-size="14.00" fill="#000000">PLC4X</text>
<text text-anchor="middle" x="266.0251" y="-432.695" font-family="Times,serif" font-size="14.00" fill="#000000">(Java)</text>
</g>
<!-- OldMachine1&#45;&gt;PLC4X -->
<g id="edge3" class="edge">
<title>OldMachine1&#45;&gt;PLC4X</title>
<path fill="none" stroke="#c0c0c0" d="M138.1618,-445.295C163.1828,-445.295 190.9804,-445.295 214.2491,-445.295"/>
<polygon fill="#c0c0c0" stroke="#c0c0c0" points="214.258,-448.7951 224.258,-445.295 214.2579,-441.7951 214.258,-448.7951"/>
<text text-anchor="middle" x="172.5773" y="-463.295" font-family="Times,serif" font-size="12.00" fill="#4d4d4d">proprietary</text>
<text text-anchor="middle" x="172.5773" y="-448.895" font-family="Times,serif" font-size="12.00" fill="#4d4d4d">protocol</text>
</g>
<!-- Broker3 -->
<g id="node12" class="node">
<title>Broker3</title>
<ellipse fill="#ffffff" stroke="#c0c0c0" cx="451.5649" cy="-445.295" rx="76.9837" ry="29.3315"/>
<text text-anchor="middle" x="451.5649" y="-449.495" font-family="Times,serif" font-size="14.00" fill="#000000">MQTT Broker 3</text>
<text text-anchor="middle" x="451.5649" y="-432.695" font-family="Times,serif" font-size="14.00" fill="#000000">(Mosquitto)</text>
</g>
<!-- PLC4X&#45;&gt;Broker3 -->
<g id="edge4" class="edge">
<title>PLC4X&#45;&gt;Broker3</title>
<path fill="none" stroke="#c0c0c0" d="M307.6638,-445.295C324.5729,-445.295 344.7778,-445.295 364.6253,-445.295"/>
<polygon fill="#c0c0c0" stroke="#c0c0c0" points="364.6369,-448.7951 374.6369,-445.295 364.6368,-441.7951 364.6369,-448.7951"/>
</g>
<!-- Various -->
<g id="node5" class="node">
<title>Various</title>
<ellipse fill="#ffffff" stroke="#c0c0c0" cx="68.9618" cy="-662.295" rx="64.1561" ry="29.3315"/>
<text text-anchor="middle" x="68.9618" y="-666.495" font-family="Times,serif" font-size="14.00" fill="#000000">Operator,</text>
<text text-anchor="middle" x="68.9618" y="-649.695" font-family="Times,serif" font-size="14.00" fill="#000000">Database, etc</text>
</g>
<!-- Kepware -->
<g id="node6" class="node">
<title>Kepware</title>
<ellipse fill="#ffffff" stroke="#c0c0c0" cx="266.0251" cy="-662.295" rx="55.6916" ry="29.3315"/>
<text text-anchor="middle" x="266.0251" y="-666.495" font-family="Times,serif" font-size="14.00" fill="#000000">Kepware</text>
<text text-anchor="middle" x="266.0251" y="-649.695" font-family="Times,serif" font-size="14.00" fill="#000000">(Windows)</text>
</g>
<!-- Various&#45;&gt;Kepware -->
<g id="edge5" class="edge">
<title>Various&#45;&gt;Kepware</title>
<path fill="none" stroke="#c0c0c0" d="M133.215,-662.295C154.6436,-662.295 178.5433,-662.295 200.0971,-662.295"/>
<polygon fill="#c0c0c0" stroke="#c0c0c0" points="200.1419,-665.7951 210.1419,-662.295 200.1419,-658.7951 200.1419,-665.7951"/>
</g>
<!-- OPC -->
<g id="node7" class="node">
<title>OPC</title>
<ellipse fill="#ffffff" stroke="#c0c0c0" cx="451.5649" cy="-723.295" rx="46.3855" ry="18"/>
<text text-anchor="middle" x="451.5649" y="-719.095" font-family="Times,serif" font-size="14.00" fill="#000000">OPC/UA</text>
</g>
<!-- Kepware&#45;&gt;OPC -->
<g id="edge6" class="edge">
<title>Kepware&#45;&gt;OPC</title>
<path fill="none" stroke="#c0c0c0" d="M313.8062,-678.0041C342.3322,-687.3825 378.3462,-699.2229 406.3965,-708.445"/>
<polygon fill="#c0c0c0" stroke="#c0c0c0" points="405.3679,-711.7911 415.9608,-711.5895 407.5542,-705.1412 405.3679,-711.7911"/>
</g>
<!-- CPC -->
<g id="node8" class="node">
<title>CPC</title>
<ellipse fill="#ffffff" stroke="#c0c0c0" cx="451.5649" cy="-662.295" rx="50.4587" ry="18"/>
<text text-anchor="middle" x="451.5649" y="-658.095" font-family="Times,serif" font-size="14.00" fill="#000000">ASC CPC</text>
</g>
<!-- Kepware&#45;&gt;CPC -->
<g id="edge7" class="edge">
<title>Kepware&#45;&gt;CPC</title>
<path fill="none" stroke="#c0c0c0" d="M321.9448,-662.295C343.5913,-662.295 368.4341,-662.295 390.5417,-662.295"/>
<polygon fill="#c0c0c0" stroke="#c0c0c0" points="390.816,-665.7951 400.816,-662.295 390.8159,-658.7951 390.816,-665.7951"/>
</g>
<!-- Gateway -->
<g id="node9" class="node">
<title>Gateway</title>
<ellipse fill="#ffffff" stroke="#c0c0c0" cx="451.5649" cy="-601.295" rx="61.9176" ry="18"/>
<text text-anchor="middle" x="451.5649" y="-597.095" font-family="Times,serif" font-size="14.00" fill="#000000">IoT Gateway</text>
</g>
<!-- Kepware&#45;&gt;Gateway -->
<g id="edge8" class="edge">
<title>Kepware&#45;&gt;Gateway</title>
<path fill="none" stroke="#c0c0c0" d="M313.8062,-646.586C340.4863,-637.8144 373.7168,-626.8892 400.8554,-617.9668"/>
<polygon fill="#c0c0c0" stroke="#c0c0c0" points="402.1482,-621.2262 410.5548,-614.7779 399.9619,-614.5763 402.1482,-621.2262"/>
</g>
<!-- Adapter -->
<g id="node14" class="node">
<title>Adapter</title>
<ellipse fill="#ffffff" stroke="#c0c0c0" cx="667.4664" cy="-601.295" rx="59.3044" ry="65.1077"/>
<text text-anchor="middle" x="667.4664" y="-630.695" font-family="Times,serif" font-size="14.00" fill="#000000">MTConnect</text>
<text text-anchor="middle" x="667.4664" y="-613.895" font-family="Times,serif" font-size="14.00" fill="#000000">Adapter</text>
<text text-anchor="middle" x="667.4664" y="-597.095" font-family="Times,serif" font-size="14.00" fill="#000000">with cache</text>
<text text-anchor="middle" x="667.4664" y="-580.295" font-family="Times,serif" font-size="14.00" fill="#000000">and plugins</text>
<text text-anchor="middle" x="667.4664" y="-563.495" font-family="Times,serif" font-size="14.00" fill="#000000">(NodeJS)</text>
</g>
<!-- OPC&#45;&gt;Adapter -->
<g id="edge9" class="edge">
<title>OPC&#45;&gt;Adapter</title>
<path fill="none" stroke="#c0c0c0" d="M486.633,-711.3692C499.9577,-706.3793 515.0994,-700.1439 528.3063,-693.295 556.1351,-678.8636 585.3084,-660.1892 609.7146,-643.4396"/>
<polygon fill="#c0c0c0" stroke="#c0c0c0" points="611.9103,-646.1763 618.1385,-637.6054 607.9248,-640.4217 611.9103,-646.1763"/>
</g>
<!-- CPC&#45;&gt;Adapter -->
<g id="edge10" class="edge">
<title>CPC&#45;&gt;Adapter</title>
<path fill="none" stroke="#c0c0c0" d="M491.1646,-651.1067C521.5425,-642.5238 564.188,-630.4749 599.9271,-620.3774"/>
<polygon fill="#c0c0c0" stroke="#c0c0c0" points="601.1366,-623.6727 609.8082,-617.5856 599.2333,-616.9364 601.1366,-623.6727"/>
</g>
<!-- Gateway&#45;&gt;Adapter -->
<g id="edge11" class="edge">
<title>Gateway&#45;&gt;Adapter</title>
<path fill="none" stroke="#c0c0c0" d="M513.4336,-601.295C539.8409,-601.295 570.7774,-601.295 597.9694,-601.295"/>
<polygon fill="#c0c0c0" stroke="#c0c0c0" points="598.1904,-604.7951 608.1904,-601.295 598.1904,-597.7951 598.1904,-604.7951"/>
</g>
<!-- Broker1&#45;&gt;Adapter -->
<g id="edge13" class="edge">
<title>Broker1&#45;&gt;Adapter</title>
<path fill="none" stroke="#c0c0c0" d="M509.2692,-767.2383C515.9004,-763.2145 522.3949,-758.8736 528.3063,-754.295 563.6158,-726.9468 597.4657,-690.0545 622.9385,-659.349"/>
<polygon fill="#c0c0c0" stroke="#c0c0c0" points="507.0691,-764.4689 500.1839,-772.5215 510.588,-770.5201 507.0691,-764.4689"/>
<polygon fill="#c0c0c0" stroke="#c0c0c0" points="625.9244,-661.2277 629.5618,-651.2767 620.5129,-656.7875 625.9244,-661.2277"/>
<text text-anchor="middle" x="560.8085" y="-765.295" font-family="Times,serif" font-size="12.00" fill="#4d4d4d">MQTT</text>
<text text-anchor="middle" x="560.8085" y="-750.895" font-family="Times,serif" font-size="12.00" fill="#4d4d4d">TCP 1883</text>
</g>
<!-- Broker2&#45;&gt;Adapter -->
<g id="edge14" class="edge">
<title>Broker2&#45;&gt;Adapter</title>
<path fill="none" stroke="#c0c0c0" d="M525.7917,-548.1008C545.3096,-553.5455 566.235,-559.8335 585.3107,-566.495 591.1649,-568.5394 597.197,-570.7953 603.2084,-573.1467"/>
<polygon fill="#c0c0c0" stroke="#c0c0c0" points="526.6057,-544.6947 516.0354,-545.4156 524.7481,-551.4438 526.6057,-544.6947"/>
<polygon fill="#c0c0c0" stroke="#c0c0c0" points="602.0244,-576.4426 612.6092,-576.9035 604.6221,-569.9424 602.0244,-576.4426"/>
<text text-anchor="middle" x="560.8085" y="-584.295" font-family="Times,serif" font-size="12.00" fill="#4d4d4d">MQTT</text>
<text text-anchor="middle" x="560.8085" y="-569.895" font-family="Times,serif" font-size="12.00" fill="#4d4d4d">TCP 1884</text>
</g>
<!-- Broker3&#45;&gt;Adapter -->
<g id="edge15" class="edge">
<title>Broker3&#45;&gt;Adapter</title>
<path fill="none" stroke="#c0c0c0" d="M511.1044,-471.9804C535.1709,-484.0179 562.5747,-499.382 585.3107,-516.495 597.0207,-525.3089 608.5982,-535.8144 619.2039,-546.379"/>
<polygon fill="#c0c0c0" stroke="#c0c0c0" points="512.5789,-468.8053 502.0608,-467.5331 509.4899,-475.0868 512.5789,-468.8053"/>
<polygon fill="#c0c0c0" stroke="#c0c0c0" points="616.8752,-549.0028 626.3807,-553.6823 621.8681,-544.0965 616.8752,-549.0028"/>
<text text-anchor="middle" x="560.8085" y="-534.295" font-family="Times,serif" font-size="12.00" fill="#4d4d4d">MQTT</text>
<text text-anchor="middle" x="560.8085" y="-519.895" font-family="Times,serif" font-size="12.00" fill="#4d4d4d">TCP 1885</text>
</g>
<!-- OldMachine3 -->
<g id="node13" class="node">
<title>OldMachine3</title>
<ellipse fill="#e6e6fa" stroke="#c0c0c0" cx="451.5649" cy="-373.295" rx="68.9235" ry="18"/>
<text text-anchor="middle" x="451.5649" y="-369.095" font-family="Times,serif" font-size="14.00" fill="#000000">Old Machine 3</text>
</g>
<!-- OldMachine3&#45;&gt;Adapter -->
<g id="edge12" class="edge">
<title>OldMachine3&#45;&gt;Adapter</title>
<path fill="none" stroke="#c0c0c0" d="M495.0035,-387.3255C506.2142,-391.7309 518.0145,-397.0929 528.3063,-403.295 556.9706,-420.569 568.6304,-423.4813 585.3107,-452.495 594.9559,-469.2718 585.8174,-477.453 593.3107,-495.295 600.5017,-512.4171 610.7839,-529.5371 621.4101,-544.8701"/>
<polygon fill="#c0c0c0" stroke="#c0c0c0" points="618.6825,-547.0739 627.3315,-553.1932 624.3863,-543.016 618.6825,-547.0739"/>
<text text-anchor="middle" x="560.8085" y="-471.295" font-family="Times,serif" font-size="12.00" fill="#4d4d4d">text</text>
<text text-anchor="middle" x="560.8085" y="-456.895" font-family="Times,serif" font-size="12.00" fill="#4d4d4d">TCP 1887</text>
</g>
<!-- DiodeSender -->
<g id="node15" class="node">
<title>DiodeSender</title>
<ellipse fill="#ffffff" stroke="#c0c0c0" cx="914.0462" cy="-591.295" rx="83.3394" ry="29.3315"/>
<text text-anchor="middle" x="914.0462" y="-595.495" font-family="Times,serif" font-size="14.00" fill="#000000">Diode Sender</text>
<text text-anchor="middle" x="914.0462" y="-578.695" font-family="Times,serif" font-size="14.00" fill="#000000">(Java+RabbitMQ)</text>
</g>
<!-- Adapter&#45;&gt;DiodeSender -->
<g id="edge17" class="edge">
<title>Adapter&#45;&gt;DiodeSender</title>
<path fill="none" stroke="#c0c0c0" stroke-dasharray="1,5" d="M736.9546,-598.477C762.9796,-597.4215 792.9833,-596.2047 820.8116,-595.0761"/>
<polygon fill="#c0c0c0" stroke="#c0c0c0" points="736.6922,-594.9846 726.8422,-598.8871 736.9759,-601.9789 736.6922,-594.9846"/>
<polygon fill="#c0c0c0" stroke="#c0c0c0" points="821.1043,-598.5673 830.9543,-594.6648 820.8206,-591.573 821.1043,-598.5673"/>
<text text-anchor="middle" x="786.1243" y="-615.295" font-family="Times,serif" font-size="12.00" fill="#4d4d4d">SHDR / &#160;&#160;</text>
<text text-anchor="middle" x="786.1243" y="-600.895" font-family="Times,serif" font-size="12.00" fill="#4d4d4d">TCP 7878 &#160;&#160;&#160;&#160;&#160;</text>
</g>
<!-- Agent -->
<g id="node17" class="node">
<title>Agent</title>
<ellipse fill="#ffffff" stroke="#c0c0c0" cx="667.4664" cy="-441.295" rx="74.3117" ry="41.0911"/>
<text text-anchor="middle" x="667.4664" y="-453.895" font-family="Times,serif" font-size="14.00" fill="#000000">MTConnect</text>
<text text-anchor="middle" x="667.4664" y="-437.095" font-family="Times,serif" font-size="14.00" fill="#000000">Agent</text>
<text text-anchor="middle" x="667.4664" y="-420.295" font-family="Times,serif" font-size="14.00" fill="#000000">(C++/cppagent)</text>
</g>
<!-- Adapter&#45;&gt;Agent -->
<g id="edge16" class="edge">
<title>Adapter&#45;&gt;Agent</title>
<path fill="none" stroke="#c0c0c0" d="M667.4664,-525.8793C667.4664,-514.7846 667.4664,-503.572 667.4664,-493.0987"/>
<polygon fill="#c0c0c0" stroke="#c0c0c0" points="663.9665,-526.0105 667.4664,-536.0105 670.9665,-526.0105 663.9665,-526.0105"/>
<polygon fill="#c0c0c0" stroke="#c0c0c0" points="670.9665,-492.9154 667.4664,-482.9155 663.9665,-492.9155 670.9665,-492.9154"/>
<text text-anchor="middle" x="650.0664" y="-513.0156" font-family="Times,serif" font-size="12.00" fill="#4d4d4d">SHDR / &#160;&#160;</text>
<text text-anchor="middle" x="650.0664" y="-498.6156" font-family="Times,serif" font-size="12.00" fill="#4d4d4d">TCP 7878 &#160;&#160;&#160;&#160;&#160;</text>
</g>
<!-- DiodeReceiver -->
<g id="node16" class="node">
<title>DiodeReceiver</title>
<ellipse fill="#ffffff" stroke="#c0c0c0" cx="914.0462" cy="-470.295" rx="83.3394" ry="29.3315"/>
<text text-anchor="middle" x="914.0462" y="-474.495" font-family="Times,serif" font-size="14.00" fill="#000000">Diode Receiver</text>
<text text-anchor="middle" x="914.0462" y="-457.695" font-family="Times,serif" font-size="14.00" fill="#000000">(Java+RabbitMQ)</text>
</g>
<!-- DiodeSender&#45;&gt;DiodeReceiver -->
<g id="edge18" class="edge">
<title>DiodeSender&#45;&gt;DiodeReceiver</title>
<path fill="none" stroke="#c0c0c0" stroke-dasharray="1,5" d="M914.0462,-561.5813C914.0462,-546.0355 914.0462,-526.7924 914.0462,-509.9881"/>
<polygon fill="#c0c0c0" stroke="#c0c0c0" points="917.5463,-509.8949 914.0462,-499.895 910.5463,-509.895 917.5463,-509.8949"/>
<text text-anchor="middle" x="903.8462" y="-527.195" font-family="Times,serif" font-size="12.00" fill="#4d4d4d">UDP &#160;&#160;&#160;</text>
</g>
<!-- DiodeReceiver&#45;&gt;Agent -->
<g id="edge19" class="edge">
<title>DiodeReceiver&#45;&gt;Agent</title>
<path fill="none" stroke="#c0c0c0" stroke-dasharray="1,5" d="M834.5951,-460.9509C807.6774,-457.7851 777.5544,-454.2424 750.3748,-451.0458"/>
<polygon fill="#c0c0c0" stroke="#c0c0c0" points="750.4552,-447.5312 740.1148,-449.8391 749.6375,-454.4833 750.4552,-447.5312"/>
<text text-anchor="middle" x="786.1243" y="-477.295" font-family="Times,serif" font-size="12.00" fill="#4d4d4d">SHDR / &#160;&#160;&#160;</text>
<text text-anchor="middle" x="786.1243" y="-462.895" font-family="Times,serif" font-size="12.00" fill="#4d4d4d">TCP 7878 &#160;&#160;&#160;&#160;&#160;&#160;&#160;</text>
</g>
<!-- Application -->
<g id="node18" class="node">
<title>Application</title>
<ellipse fill="#ffffff" stroke="#c0c0c0" cx="667.4664" cy="-305.295" rx="59.3044" ry="41.0911"/>
<text text-anchor="middle" x="667.4664" y="-317.895" font-family="Times,serif" font-size="14.00" fill="#000000">MTConnect</text>
<text text-anchor="middle" x="667.4664" y="-301.095" font-family="Times,serif" font-size="14.00" fill="#000000">Application</text>
<text text-anchor="middle" x="667.4664" y="-284.295" font-family="Times,serif" font-size="14.00" fill="#000000">(NodeJS)</text>
</g>
<!-- Agent&#45;&gt;Application -->
<g id="edge20" class="edge">
<title>Agent&#45;&gt;Application</title>
<path fill="none" stroke="#c0c0c0" d="M667.4664,-389.503C667.4664,-378.817 667.4664,-367.564 667.4664,-356.8852"/>
<polygon fill="#c0c0c0" stroke="#c0c0c0" points="663.9665,-389.5373 667.4664,-399.5373 670.9665,-389.5374 663.9665,-389.5373"/>
<polygon fill="#c0c0c0" stroke="#c0c0c0" points="670.9665,-356.8385 667.4664,-346.8385 663.9665,-356.8385 670.9665,-356.8385"/>
<text text-anchor="middle" x="650.0664" y="-376.895" font-family="Times,serif" font-size="12.00" fill="#4d4d4d">XML / </text>
<text text-anchor="middle" x="650.0664" y="-362.495" font-family="Times,serif" font-size="12.00" fill="#4d4d4d">HTTP 5000 &#160;&#160;&#160;&#160;&#160;&#160;&#160;&#160;&#160;</text>
</g>
<!-- Database -->
<g id="node19" class="node">
<title>Database</title>
<ellipse fill="#ffffff" stroke="#c0c0c0" cx="667.4664" cy="-173.295" rx="69.0714" ry="41.0911"/>
<text text-anchor="middle" x="667.4664" y="-185.895" font-family="Times,serif" font-size="14.00" fill="#000000">Database</text>
<text text-anchor="middle" x="667.4664" y="-169.095" font-family="Times,serif" font-size="14.00" fill="#000000">(InfluxDB/</text>
<text text-anchor="middle" x="667.4664" y="-152.295" font-family="Times,serif" font-size="14.00" fill="#000000">TimescaleDB)</text>
</g>
<!-- Application&#45;&gt;Database -->
<g id="edge21" class="edge">
<title>Application&#45;&gt;Database</title>
<path fill="none" stroke="#c0c0c0" d="M667.4664,-253.639C667.4664,-244.1484 667.4664,-234.6577 667.4664,-225.1671"/>
<polygon fill="#c0c0c0" stroke="#c0c0c0" points="663.9665,-253.9372 667.4664,-263.9373 670.9665,-253.9373 663.9665,-253.9372"/>
<polygon fill="#c0c0c0" stroke="#c0c0c0" points="670.9665,-224.8028 667.4664,-214.8028 663.9665,-224.8029 670.9665,-224.8028"/>
</g>
<!-- Visualizer -->
<g id="node20" class="node">
<title>Visualizer</title>
<ellipse fill="#ffffff" stroke="#c0c0c0" cx="667.4664" cy="-41.295" rx="51.9834" ry="41.0911"/>
<text text-anchor="middle" x="667.4664" y="-53.895" font-family="Times,serif" font-size="14.00" fill="#000000">Visualizer</text>
<text text-anchor="middle" x="667.4664" y="-37.095" font-family="Times,serif" font-size="14.00" fill="#000000">(Grafana/</text>
<text text-anchor="middle" x="667.4664" y="-20.295" font-family="Times,serif" font-size="14.00" fill="#000000">Superset)</text>
</g>
<!-- Database&#45;&gt;Visualizer -->
<g id="edge22" class="edge">
<title>Database&#45;&gt;Visualizer</title>
<path fill="none" stroke="#c0c0c0" d="M667.4664,-121.639C667.4664,-112.1484 667.4664,-102.6577 667.4664,-93.1671"/>
<polygon fill="#c0c0c0" stroke="#c0c0c0" points="663.9665,-121.9372 667.4664,-131.9373 670.9665,-121.9373 663.9665,-121.9372"/>
<polygon fill="#c0c0c0" stroke="#c0c0c0" points="670.9665,-92.8028 667.4664,-82.8028 663.9665,-92.8029 670.9665,-92.8028"/>
</g>
<!-- Cloud -->
<g id="node21" class="node">
<title>Cloud</title>
<ellipse fill="#ffffff" stroke="#c0c0c0" cx="914.0462" cy="-173.295" rx="68.4585" ry="29.3315"/>
<text text-anchor="middle" x="914.0462" y="-177.495" font-family="Times,serif" font-size="14.00" fill="#000000">Cloud Storage</text>
<text text-anchor="middle" x="914.0462" y="-160.695" font-family="Times,serif" font-size="14.00" fill="#000000">(AWS/GCP)</text>
</g>
<!-- Database&#45;&gt;Cloud -->
<g id="edge23" class="edge">
<title>Database&#45;&gt;Cloud</title>
<path fill="none" stroke="#c0c0c0" d="M736.8088,-173.295C767.5287,-173.295 803.8147,-173.295 835.5275,-173.295"/>
<polygon fill="#c0c0c0" stroke="#c0c0c0" points="835.6504,-176.7951 845.6504,-173.295 835.6503,-169.7951 835.6504,-176.7951"/>
</g>
<!-- Admin -->
<g id="node22" class="node">
<title>Admin</title>
<ellipse fill="#ffffe0" stroke="#c0c0c0" cx="914.0462" cy="-41.295" rx="37.7217" ry="18"/>
<text text-anchor="middle" x="914.0462" y="-37.095" font-family="Times,serif" font-size="14.00" fill="#000000">Admin</text>
</g>
<!-- Visualizer&#45;&gt;Admin -->
<g id="edge24" class="edge">
<title>Visualizer&#45;&gt;Admin</title>
<path fill="none" stroke="#c0c0c0" d="M729.6169,-41.295C771.8374,-41.295 826.8657,-41.295 865.7909,-41.295"/>
<polygon fill="#c0c0c0" stroke="#c0c0c0" points="729.4584,-37.7951 719.4584,-41.295 729.4583,-44.7951 729.4584,-37.7951"/>
<polygon fill="#c0c0c0" stroke="#c0c0c0" points="865.8198,-44.7951 875.8198,-41.295 865.8198,-37.7951 865.8198,-44.7951"/>
</g>
</g>
</svg>
