<?xml version="1.0" encoding="UTF-8" standalone="no"?>
<!DOCTYPE svg PUBLIC "-//W3C//DTD SVG 1.1//EN"
 "http://www.w3.org/Graphics/SVG/1.1/DTD/svg11.dtd">
<!-- Generated by graphviz version 2.40.1 (20161225.0304)
 -->
<!-- Title: ladder99&#45;adapter Pages: 1 -->
<svg width="999pt" height="851pt"
 viewBox="0.00 0.00 998.79 850.71" xmlns="http://www.w3.org/2000/svg" xmlns:xlink="http://www.w3.org/1999/xlink">
<g id="graph0" class="graph" transform="scale(1 1) rotate(0) translate(4 846.7107)">
<title>ladder99&#45;adapter</title>
<polygon fill="#ffffff" stroke="transparent" points="-4,4 -4,-846.7107 994.7926,-846.7107 994.7926,4 -4,4"/>
<text text-anchor="middle" x="495.3963" y="-820.7107" font-family="Times,serif" font-size="20.00" fill="#000000">Ladder99 MTConnect data flow</text>
<text text-anchor="middle" x="495.3963" y="-796.7107" font-family="Times,serif" font-size="20.00" fill="#000000"> </text>
<!-- PA1 -->
<g id="node1" class="node">
<title>PA1</title>
<ellipse fill="#e6e6fa" stroke="#c0c0c0" cx="266.0251" cy="-715.295" rx="58.5886" ry="18"/>
<text text-anchor="middle" x="266.0251" y="-711.095" font-family="Times,serif" font-size="14.00" fill="#000000">CCS P&amp;A 1</text>
</g>
<!-- Kepware -->
<g id="node5" class="node">
<title>Kepware</title>
<ellipse fill="#ffffff" stroke="#c0c0c0" cx="444.8917" cy="-757.295" rx="55.6916" ry="29.3315"/>
<text text-anchor="middle" x="444.8917" y="-761.495" font-family="Times,serif" font-size="14.00" fill="#000000">Kepware</text>
<text text-anchor="middle" x="444.8917" y="-744.695" font-family="Times,serif" font-size="14.00" fill="#000000">(Windows)</text>
</g>
<!-- PA1&#45;&gt;Kepware -->
<g id="edge2" class="edge">
<title>PA1&#45;&gt;Kepware</title>
<path fill="none" stroke="#c0c0c0" d="M322.8872,-728.6469C342.3578,-733.2189 364.2141,-738.351 383.991,-742.9948"/>
<polygon fill="#c0c0c0" stroke="#c0c0c0" points="323.5555,-725.2087 313.0202,-726.33 321.9553,-732.0234 323.5555,-725.2087"/>
<polygon fill="#c0c0c0" stroke="#c0c0c0" points="383.2799,-746.423 393.8153,-745.3017 384.8801,-739.6083 383.2799,-746.423"/>
</g>
<!-- Broker1 -->
<g id="node6" class="node">
<title>Broker1</title>
<ellipse fill="#ffffff" stroke="#c0c0c0" cx="444.8917" cy="-673.295" rx="76.9837" ry="29.3315"/>
<text text-anchor="middle" x="444.8917" y="-677.495" font-family="Times,serif" font-size="14.00" fill="#000000">MQTT Broker 1</text>
<text text-anchor="middle" x="444.8917" y="-660.695" font-family="Times,serif" font-size="14.00" fill="#000000">(Mosquitto)</text>
</g>
<!-- PA1&#45;&gt;Broker1 -->
<g id="edge1" class="edge">
<title>PA1&#45;&gt;Broker1</title>
<path fill="none" stroke="#c0c0c0" d="M322.7852,-701.9671C337.5478,-698.5007 353.6874,-694.7109 369.2555,-691.0553"/>
<polygon fill="#c0c0c0" stroke="#c0c0c0" points="321.9553,-698.5667 313.0202,-704.26 323.5555,-705.3813 321.9553,-698.5667"/>
<polygon fill="#c0c0c0" stroke="#c0c0c0" points="370.4481,-694.3705 379.3833,-688.6772 368.8479,-687.5559 370.4481,-694.3705"/>
<text text-anchor="middle" x="346.4846" y="-701.895" font-family="Times,serif" font-size="12.00" fill="#4d4d4d">TCP?</text>
</g>
<!-- PA2 -->
<g id="node2" class="node">
<title>PA2</title>
<ellipse fill="#e6e6fa" stroke="#c0c0c0" cx="266.0251" cy="-589.295" rx="58.5886" ry="18"/>
<text text-anchor="middle" x="266.0251" y="-585.095" font-family="Times,serif" font-size="14.00" fill="#000000">CCS P&amp;A 2</text>
</g>
<!-- Broker2 -->
<g id="node7" class="node">
<title>Broker2</title>
<ellipse fill="#ffffff" stroke="#c0c0c0" cx="444.8917" cy="-589.295" rx="76.9837" ry="29.3315"/>
<text text-anchor="middle" x="444.8917" y="-593.495" font-family="Times,serif" font-size="14.00" fill="#000000">MQTT Broker 2</text>
<text text-anchor="middle" x="444.8917" y="-576.695" font-family="Times,serif" font-size="14.00" fill="#000000">(Mosquitto)</text>
</g>
<!-- PA2&#45;&gt;Broker2 -->
<g id="edge3" class="edge">
<title>PA2&#45;&gt;Broker2</title>
<path fill="none" stroke="#c0c0c0" d="M335.2386,-589.295C342.7067,-589.295 350.3732,-589.295 358.0149,-589.295"/>
<polygon fill="#c0c0c0" stroke="#c0c0c0" points="335.0884,-585.7951 325.0884,-589.295 335.0884,-592.7951 335.0884,-585.7951"/>
<polygon fill="#c0c0c0" stroke="#c0c0c0" points="358.0276,-592.7951 368.0275,-589.295 358.0275,-585.7951 358.0276,-592.7951"/>
<text text-anchor="middle" x="346.4846" y="-592.895" font-family="Times,serif" font-size="12.00" fill="#4d4d4d">TCP?</text>
</g>
<!-- OldMachine -->
<g id="node3" class="node">
<title>OldMachine</title>
<ellipse fill="#e6e6fa" stroke="#c0c0c0" cx="68.9618" cy="-505.295" rx="68.9235" ry="18"/>
<text text-anchor="middle" x="68.9618" y="-501.095" font-family="Times,serif" font-size="14.00" fill="#000000">Old Machine 1</text>
</g>
<!-- PLC4X -->
<g id="node4" class="node">
<title>PLC4X</title>
<ellipse fill="#ffffff" stroke="#c0c0c0" cx="266.0251" cy="-505.295" rx="41.6253" ry="29.3315"/>
<text text-anchor="middle" x="266.0251" y="-509.495" font-family="Times,serif" font-size="14.00" fill="#000000">PLC4X</text>
<text text-anchor="middle" x="266.0251" y="-492.695" font-family="Times,serif" font-size="14.00" fill="#000000">(Java)</text>
</g>
<!-- OldMachine&#45;&gt;PLC4X -->
<g id="edge4" class="edge">
<title>OldMachine&#45;&gt;PLC4X</title>
<path fill="none" stroke="#c0c0c0" d="M138.1618,-505.295C163.1828,-505.295 190.9804,-505.295 214.2491,-505.295"/>
<polygon fill="#c0c0c0" stroke="#c0c0c0" points="214.258,-508.7951 224.258,-505.295 214.2579,-501.7951 214.258,-508.7951"/>
<text text-anchor="middle" x="172.5773" y="-523.295" font-family="Times,serif" font-size="12.00" fill="#4d4d4d">proprietary</text>
<text text-anchor="middle" x="172.5773" y="-508.895" font-family="Times,serif" font-size="12.00" fill="#4d4d4d">protocol</text>
</g>
<!-- Broker3 -->
<g id="node8" class="node">
<title>Broker3</title>
<ellipse fill="#ffffff" stroke="#c0c0c0" cx="444.8917" cy="-505.295" rx="76.9837" ry="29.3315"/>
<text text-anchor="middle" x="444.8917" y="-509.495" font-family="Times,serif" font-size="14.00" fill="#000000">MQTT Broker 3</text>
<text text-anchor="middle" x="444.8917" y="-492.695" font-family="Times,serif" font-size="14.00" fill="#000000">(Mosquitto)</text>
</g>
<!-- PLC4X&#45;&gt;Broker3 -->
<g id="edge5" class="edge">
<title>PLC4X&#45;&gt;Broker3</title>
<path fill="none" stroke="#c0c0c0" d="M307.9614,-505.295C322.9804,-505.295 340.5171,-505.295 357.9288,-505.295"/>
<polygon fill="#c0c0c0" stroke="#c0c0c0" points="358.1462,-508.7951 368.1462,-505.295 358.1462,-501.7951 358.1462,-508.7951"/>
<text text-anchor="middle" x="346.4846" y="-508.895" font-family="Times,serif" font-size="12.00" fill="#4d4d4d">?</text>
</g>
<!-- Adapter -->
<g id="node10" class="node">
<title>Adapter</title>
<ellipse fill="#ffffff" stroke="#c0c0c0" cx="660.7932" cy="-589.295" rx="60.5759" ry="53.3494"/>
<text text-anchor="middle" x="660.7932" y="-610.295" font-family="Times,serif" font-size="14.00" fill="#000000">MTConnect</text>
<text text-anchor="middle" x="660.7932" y="-593.495" font-family="Times,serif" font-size="14.00" fill="#000000">Adapter</text>
<text text-anchor="middle" x="660.7932" y="-576.695" font-family="Times,serif" font-size="14.00" fill="#000000">with plugins</text>
<text text-anchor="middle" x="660.7932" y="-559.895" font-family="Times,serif" font-size="14.00" fill="#000000">(NodeJS)</text>
</g>
<!-- Kepware&#45;&gt;Adapter -->
<g id="edge6" class="edge">
<title>Kepware&#45;&gt;Adapter</title>
<path fill="none" stroke="#c0c0c0" d="M484.7014,-736.3634C496.6952,-729.8286 509.8098,-722.4526 521.6331,-715.295 547.6805,-699.5265 555.4249,-697 578.6375,-677.295 592.0905,-665.8749 605.6059,-652.4158 617.6793,-639.5048"/>
<polygon fill="#c0c0c0" stroke="#c0c0c0" points="620.4058,-641.711 624.6099,-631.9859 615.2588,-636.9666 620.4058,-641.711"/>
<text text-anchor="middle" x="554.1353" y="-712.895" font-family="Times,serif" font-size="12.00" fill="#4d4d4d">text</text>
</g>
<!-- Broker1&#45;&gt;Adapter -->
<g id="edge8" class="edge">
<title>Broker1&#45;&gt;Adapter</title>
<path fill="none" stroke="#c0c0c0" d="M510.8718,-649.8867C532.5499,-641.9925 556.7059,-632.9775 578.6375,-624.295 584.5027,-621.9731 590.5787,-619.5051 596.6505,-616.9962"/>
<polygon fill="#c0c0c0" stroke="#c0c0c0" points="509.6331,-646.6128 501.4259,-653.313 512.0201,-653.1933 509.6331,-646.6128"/>
<polygon fill="#c0c0c0" stroke="#c0c0c0" points="598.2729,-620.1119 606.1575,-613.0349 595.5805,-613.6504 598.2729,-620.1119"/>
<text text-anchor="middle" x="554.1353" y="-660.295" font-family="Times,serif" font-size="12.00" fill="#4d4d4d">MQTT</text>
<text text-anchor="middle" x="554.1353" y="-645.895" font-family="Times,serif" font-size="12.00" fill="#4d4d4d">TCP 1883</text>
</g>
<!-- Broker2&#45;&gt;Adapter -->
<g id="edge9" class="edge">
<title>Broker2&#45;&gt;Adapter</title>
<path fill="none" stroke="#c0c0c0" d="M531.9642,-589.295C551.2372,-589.295 571.4332,-589.295 589.9668,-589.295"/>
<polygon fill="#c0c0c0" stroke="#c0c0c0" points="531.9228,-585.7951 521.9227,-589.295 531.9227,-592.7951 531.9228,-585.7951"/>
<polygon fill="#c0c0c0" stroke="#c0c0c0" points="590.0759,-592.7951 600.0758,-589.295 590.0758,-585.7951 590.0759,-592.7951"/>
<text text-anchor="middle" x="554.1353" y="-607.295" font-family="Times,serif" font-size="12.00" fill="#4d4d4d">MQTT</text>
<text text-anchor="middle" x="554.1353" y="-592.895" font-family="Times,serif" font-size="12.00" fill="#4d4d4d">TCP 1884</text>
</g>
<!-- Broker3&#45;&gt;Adapter -->
<g id="edge10" class="edge">
<title>Broker3&#45;&gt;Adapter</title>
<path fill="none" stroke="#c0c0c0" d="M510.8554,-528.8454C532.5325,-536.7748 556.6921,-545.8165 578.6375,-554.495 584.4984,-556.8128 590.5715,-559.2728 596.6414,-561.7714"/>
<polygon fill="#c0c0c0" stroke="#c0c0c0" points="512.0043,-525.539 501.4103,-525.403 509.6072,-532.1158 512.0043,-525.539"/>
<polygon fill="#c0c0c0" stroke="#c0c0c0" points="595.5683,-565.1154 606.1462,-565.7146 598.2507,-558.6497 595.5683,-565.1154"/>
<text text-anchor="middle" x="554.1353" y="-572.295" font-family="Times,serif" font-size="12.00" fill="#4d4d4d">MQTT</text>
<text text-anchor="middle" x="554.1353" y="-557.895" font-family="Times,serif" font-size="12.00" fill="#4d4d4d">TCP 1885</text>
</g>
<!-- OldMachine3 -->
<g id="node9" class="node">
<title>OldMachine3</title>
<ellipse fill="#e6e6fa" stroke="#c0c0c0" cx="444.8917" cy="-433.295" rx="68.9235" ry="18"/>
<text text-anchor="middle" x="444.8917" y="-429.095" font-family="Times,serif" font-size="14.00" fill="#000000">Old Machine 3</text>
</g>
<!-- OldMachine3&#45;&gt;Adapter -->
<g id="edge7" class="edge">
<title>OldMachine3&#45;&gt;Adapter</title>
<path fill="none" stroke="#c0c0c0" d="M486.6923,-447.6334C498.2526,-452.1329 510.6377,-457.4651 521.6331,-463.295 548.7984,-477.6985 555.2725,-482.5078 578.6375,-502.495 591.8179,-513.77 605.1506,-526.9368 617.1306,-539.5577"/>
<polygon fill="#c0c0c0" stroke="#c0c0c0" points="614.6252,-542.0027 624.0166,-546.9071 619.7335,-537.2167 614.6252,-542.0027"/>
<text text-anchor="middle" x="554.1353" y="-521.295" font-family="Times,serif" font-size="12.00" fill="#4d4d4d">text</text>
<text text-anchor="middle" x="554.1353" y="-506.895" font-family="Times,serif" font-size="12.00" fill="#4d4d4d">TCP 1887</text>
</g>
<!-- DiodeSender -->
<g id="node11" class="node">
<title>DiodeSender</title>
<ellipse fill="#ffffff" stroke="#c0c0c0" cx="907.373" cy="-581.295" rx="83.3394" ry="29.3315"/>
<text text-anchor="middle" x="907.373" y="-585.495" font-family="Times,serif" font-size="14.00" fill="#000000">Diode Sender</text>
<text text-anchor="middle" x="907.373" y="-568.695" font-family="Times,serif" font-size="14.00" fill="#000000">(Java+RabbitMQ)</text>
</g>
<!-- Adapter&#45;&gt;DiodeSender -->
<g id="edge12" class="edge">
<title>Adapter&#45;&gt;DiodeSender</title>
<path fill="none" stroke="#c0c0c0" stroke-dasharray="1,5" d="M731.4457,-587.0028C757.0874,-586.1709 786.4689,-585.2176 813.7826,-584.3315"/>
<polygon fill="#c0c0c0" stroke="#c0c0c0" points="731.3105,-583.5052 721.4292,-587.3278 731.5375,-590.5016 731.3105,-583.5052"/>
<polygon fill="#c0c0c0" stroke="#c0c0c0" points="814.2562,-587.818 824.1374,-583.9955 814.0292,-580.8217 814.2562,-587.818"/>
<text text-anchor="middle" x="779.4511" y="-604.295" font-family="Times,serif" font-size="12.00" fill="#4d4d4d">SHDR / &#160;&#160;</text>
<text text-anchor="middle" x="779.4511" y="-589.895" font-family="Times,serif" font-size="12.00" fill="#4d4d4d">TCP 7878 &#160;&#160;&#160;&#160;&#160;</text>
</g>
<!-- Agent -->
<g id="node13" class="node">
<title>Agent</title>
<ellipse fill="#ffffff" stroke="#c0c0c0" cx="660.7932" cy="-441.295" rx="74.3117" ry="41.0911"/>
<text text-anchor="middle" x="660.7932" y="-453.895" font-family="Times,serif" font-size="14.00" fill="#000000">MTConnect</text>
<text text-anchor="middle" x="660.7932" y="-437.095" font-family="Times,serif" font-size="14.00" fill="#000000">Agent</text>
<text text-anchor="middle" x="660.7932" y="-420.295" font-family="Times,serif" font-size="14.00" fill="#000000">(C++/cppagent)</text>
</g>
<!-- Adapter&#45;&gt;Agent -->
<g id="edge11" class="edge">
<title>Adapter&#45;&gt;Agent</title>
<path fill="none" stroke="#c0c0c0" d="M660.7932,-525.7997C660.7932,-514.9425 660.7932,-503.7775 660.7932,-493.2651"/>
<polygon fill="#c0c0c0" stroke="#c0c0c0" points="657.2933,-526.0833 660.7932,-536.0833 664.2933,-526.0834 657.2933,-526.0833"/>
<polygon fill="#c0c0c0" stroke="#c0c0c0" points="664.2933,-492.9151 660.7932,-482.9151 657.2933,-492.9152 664.2933,-492.9151"/>
<text text-anchor="middle" x="643.3932" y="-512.9553" font-family="Times,serif" font-size="12.00" fill="#4d4d4d">SHDR / &#160;&#160;</text>
<text text-anchor="middle" x="643.3932" y="-498.5553" font-family="Times,serif" font-size="12.00" fill="#4d4d4d">TCP 7878 &#160;&#160;&#160;&#160;&#160;</text>
</g>
<!-- DiodeReceiver -->
<g id="node12" class="node">
<title>DiodeReceiver</title>
<ellipse fill="#ffffff" stroke="#c0c0c0" cx="907.373" cy="-463.295" rx="83.3394" ry="29.3315"/>
<text text-anchor="middle" x="907.373" y="-467.495" font-family="Times,serif" font-size="14.00" fill="#000000">Diode Receiver</text>
<text text-anchor="middle" x="907.373" y="-450.695" font-family="Times,serif" font-size="14.00" fill="#000000">(Java+RabbitMQ)</text>
</g>
<!-- DiodeSender&#45;&gt;DiodeReceiver -->
<g id="edge13" class="edge">
<title>DiodeSender&#45;&gt;DiodeReceiver</title>
<path fill="none" stroke="#c0c0c0" stroke-dasharray="1,5" d="M907.373,-551.7898C907.373,-537.0015 907.373,-518.885 907.373,-502.904"/>
<polygon fill="#c0c0c0" stroke="#c0c0c0" points="910.8731,-502.767 907.373,-492.767 903.8731,-502.7671 910.8731,-502.767"/>
<text text-anchor="middle" x="897.173" y="-518.695" font-family="Times,serif" font-size="12.00" fill="#4d4d4d">UDP &#160;&#160;&#160;</text>
</g>
<!-- DiodeReceiver&#45;&gt;Agent -->
<g id="edge14" class="edge">
<title>DiodeReceiver&#45;&gt;Agent</title>
<path fill="none" stroke="#c0c0c0" stroke-dasharray="1,5" d="M826.1479,-456.0481C799.8204,-453.6991 770.5853,-451.0908 744.1084,-448.7285"/>
<polygon fill="#c0c0c0" stroke="#c0c0c0" points="744.3792,-445.2388 734.1077,-447.8362 743.7571,-452.2111 744.3792,-445.2388"/>
<text text-anchor="middle" x="779.4511" y="-473.295" font-family="Times,serif" font-size="12.00" fill="#4d4d4d">SHDR / &#160;&#160;&#160;</text>
<text text-anchor="middle" x="779.4511" y="-458.895" font-family="Times,serif" font-size="12.00" fill="#4d4d4d">TCP 7878 &#160;&#160;&#160;&#160;&#160;&#160;&#160;</text>
</g>
<!-- Application -->
<g id="node14" class="node">
<title>Application</title>
<ellipse fill="#ffffff" stroke="#c0c0c0" cx="660.7932" cy="-305.295" rx="59.3044" ry="41.0911"/>
<text text-anchor="middle" x="660.7932" y="-317.895" font-family="Times,serif" font-size="14.00" fill="#000000">MTConnect</text>
<text text-anchor="middle" x="660.7932" y="-301.095" font-family="Times,serif" font-size="14.00" fill="#000000">Application</text>
<text text-anchor="middle" x="660.7932" y="-284.295" font-family="Times,serif" font-size="14.00" fill="#000000">(NodeJS)</text>
</g>
<!-- Agent&#45;&gt;Application -->
<g id="edge15" class="edge">
<title>Agent&#45;&gt;Application</title>
<path fill="none" stroke="#c0c0c0" d="M660.7932,-389.503C660.7932,-378.817 660.7932,-367.564 660.7932,-356.8852"/>
<polygon fill="#c0c0c0" stroke="#c0c0c0" points="657.2933,-389.5373 660.7932,-399.5373 664.2933,-389.5374 657.2933,-389.5373"/>
<polygon fill="#c0c0c0" stroke="#c0c0c0" points="664.2933,-356.8385 660.7932,-346.8385 657.2933,-356.8385 664.2933,-356.8385"/>
<text text-anchor="middle" x="643.3932" y="-376.895" font-family="Times,serif" font-size="12.00" fill="#4d4d4d">XML / </text>
<text text-anchor="middle" x="643.3932" y="-362.495" font-family="Times,serif" font-size="12.00" fill="#4d4d4d">HTTP 5000 &#160;&#160;&#160;&#160;&#160;&#160;&#160;&#160;&#160;</text>
</g>
<!-- Database -->
<g id="node15" class="node">
<title>Database</title>
<ellipse fill="#ffffff" stroke="#c0c0c0" cx="660.7932" cy="-173.295" rx="69.0714" ry="41.0911"/>
<text text-anchor="middle" x="660.7932" y="-185.895" font-family="Times,serif" font-size="14.00" fill="#000000">Database</text>
<text text-anchor="middle" x="660.7932" y="-169.095" font-family="Times,serif" font-size="14.00" fill="#000000">(InfluxDB/</text>
<text text-anchor="middle" x="660.7932" y="-152.295" font-family="Times,serif" font-size="14.00" fill="#000000">TimescaleDB)</text>
</g>
<!-- Application&#45;&gt;Database -->
<g id="edge16" class="edge">
<title>Application&#45;&gt;Database</title>
<path fill="none" stroke="#c0c0c0" d="M660.7932,-253.639C660.7932,-244.1484 660.7932,-234.6577 660.7932,-225.1671"/>
<polygon fill="#c0c0c0" stroke="#c0c0c0" points="657.2933,-253.9372 660.7932,-263.9373 664.2933,-253.9373 657.2933,-253.9372"/>
<polygon fill="#c0c0c0" stroke="#c0c0c0" points="664.2933,-224.8028 660.7932,-214.8028 657.2933,-224.8029 664.2933,-224.8028"/>
</g>
<!-- Visualizer -->
<g id="node16" class="node">
<title>Visualizer</title>
<ellipse fill="#ffffff" stroke="#c0c0c0" cx="660.7932" cy="-41.295" rx="51.9834" ry="41.0911"/>
<text text-anchor="middle" x="660.7932" y="-53.895" font-family="Times,serif" font-size="14.00" fill="#000000">Visualizer</text>
<text text-anchor="middle" x="660.7932" y="-37.095" font-family="Times,serif" font-size="14.00" fill="#000000">(Grafana/</text>
<text text-anchor="middle" x="660.7932" y="-20.295" font-family="Times,serif" font-size="14.00" fill="#000000">Superset)</text>
</g>
<!-- Database&#45;&gt;Visualizer -->
<g id="edge17" class="edge">
<title>Database&#45;&gt;Visualizer</title>
<path fill="none" stroke="#c0c0c0" d="M660.7932,-121.639C660.7932,-112.1484 660.7932,-102.6577 660.7932,-93.1671"/>
<polygon fill="#c0c0c0" stroke="#c0c0c0" points="657.2933,-121.9372 660.7932,-131.9373 664.2933,-121.9373 657.2933,-121.9372"/>
<polygon fill="#c0c0c0" stroke="#c0c0c0" points="664.2933,-92.8028 660.7932,-82.8028 657.2933,-92.8029 664.2933,-92.8028"/>
</g>
<!-- Cloud -->
<g id="node17" class="node">
<title>Cloud</title>
<ellipse fill="#ffffff" stroke="#c0c0c0" cx="907.373" cy="-173.295" rx="68.4585" ry="29.3315"/>
<text text-anchor="middle" x="907.373" y="-177.495" font-family="Times,serif" font-size="14.00" fill="#000000">Cloud Storage</text>
<text text-anchor="middle" x="907.373" y="-160.695" font-family="Times,serif" font-size="14.00" fill="#000000">(AWS/GCP)</text>
</g>
<!-- Database&#45;&gt;Cloud -->
<g id="edge18" class="edge">
<title>Database&#45;&gt;Cloud</title>
<path fill="none" stroke="#c0c0c0" d="M730.1356,-173.295C760.8555,-173.295 797.1415,-173.295 828.8543,-173.295"/>
<polygon fill="#c0c0c0" stroke="#c0c0c0" points="828.9772,-176.7951 838.9772,-173.295 828.9771,-169.7951 828.9772,-176.7951"/>
</g>
<!-- Admin -->
<g id="node18" class="node">
<title>Admin</title>
<ellipse fill="#ffffe0" stroke="#c0c0c0" cx="907.373" cy="-41.295" rx="37.7217" ry="18"/>
<text text-anchor="middle" x="907.373" y="-37.095" font-family="Times,serif" font-size="14.00" fill="#000000">Admin</text>
</g>
<!-- Visualizer&#45;&gt;Admin -->
<g id="edge19" class="edge">
<title>Visualizer&#45;&gt;Admin</title>
<path fill="none" stroke="#c0c0c0" d="M722.9437,-41.295C765.1642,-41.295 820.1925,-41.295 859.1177,-41.295"/>
<polygon fill="#c0c0c0" stroke="#c0c0c0" points="722.7852,-37.7951 712.7852,-41.295 722.7851,-44.7951 722.7852,-37.7951"/>
<polygon fill="#c0c0c0" stroke="#c0c0c0" points="859.1466,-44.7951 869.1466,-41.295 859.1466,-37.7951 859.1466,-44.7951"/>
</g>
</g>
</svg>
