<?xml version="1.0" encoding="UTF-8" standalone="no"?>
<!DOCTYPE svg PUBLIC "-//W3C//DTD SVG 1.1//EN"
 "http://www.w3.org/Graphics/SVG/1.1/DTD/svg11.dtd">
<!-- Generated by graphviz version 2.40.1 (20161225.0304)
 -->
<!-- Title: ladder99&#45;adapter Pages: 1 -->
<svg width="807pt" height="772pt"
 viewBox="0.00 0.00 807.25 771.82" xmlns="http://www.w3.org/2000/svg" xmlns:xlink="http://www.w3.org/1999/xlink">
<g id="graph0" class="graph" transform="scale(1 1) rotate(0) translate(4 767.8156)">
<title>ladder99&#45;adapter</title>
<polygon fill="#ffffff" stroke="transparent" points="-4,4 -4,-767.8156 803.2522,-767.8156 803.2522,4 -4,4"/>
<text text-anchor="middle" x="399.6261" y="-747.2156" font-family="Times,serif" font-size="14.00" fill="#000000">Ladder99 MTConnect data flow</text>
<!-- PLC1 -->
<g id="node1" class="node">
<title>PLC1</title>
<ellipse fill="#e6e6fa" stroke="#d3d3d3" cx="65.465" cy="-705.4156" rx="61.9389" ry="18"/>
<text text-anchor="middle" x="65.465" y="-701.2156" font-family="Times,serif" font-size="14.00" fill="#000000">Old Machine</text>
</g>
<!-- PLC4X -->
<g id="node3" class="node">
<title>PLC4X</title>
<ellipse fill="#ffffff" stroke="#d3d3d3" cx="285.439" cy="-705.4156" rx="41.6253" ry="29.3315"/>
<text text-anchor="middle" x="285.439" y="-709.6156" font-family="Times,serif" font-size="14.00" fill="#000000">PLC4X</text>
<text text-anchor="middle" x="285.439" y="-692.8156" font-family="Times,serif" font-size="14.00" fill="#000000">(Java)</text>
</g>
<!-- PLC1&#45;&gt;PLC4X -->
<g id="edge2" class="edge">
<title>PLC1&#45;&gt;PLC4X</title>
<path fill="none" stroke="#d3d3d3" d="M127.3254,-705.4156C160.7771,-705.4156 201.6273,-705.4156 233.4254,-705.4156"/>
<polygon fill="#d3d3d3" stroke="#d3d3d3" points="233.8384,-708.9157 243.8383,-705.4156 233.8383,-701.9157 233.8384,-708.9157"/>
<text text-anchor="middle" x="173.5261" y="-726.4156" font-family="Times,serif" font-size="14.00" fill="#c0c0c0"> &#160;proprietary</text>
<text text-anchor="middle" x="173.5261" y="-709.6156" font-family="Times,serif" font-size="14.00" fill="#c0c0c0">protocol</text>
</g>
<!-- PLC2 -->
<g id="node2" class="node">
<title>PLC2</title>
<ellipse fill="#e6e6fa" stroke="#d3d3d3" cx="65.465" cy="-595.4156" rx="65.43" ry="18"/>
<text text-anchor="middle" x="65.465" y="-591.2156" font-family="Times,serif" font-size="14.00" fill="#000000">New Machine</text>
</g>
<!-- Broker -->
<g id="node4" class="node">
<title>Broker</title>
<ellipse fill="#ffffff" stroke="#d3d3d3" cx="285.439" cy="-595.4156" rx="69.1341" ry="29.3315"/>
<text text-anchor="middle" x="285.439" y="-599.6156" font-family="Times,serif" font-size="14.00" fill="#000000">MQTT Broker</text>
<text text-anchor="middle" x="285.439" y="-582.8156" font-family="Times,serif" font-size="14.00" fill="#000000">(NodeJS)</text>
</g>
<!-- PLC2&#45;&gt;Broker -->
<g id="edge1" class="edge">
<title>PLC2&#45;&gt;Broker</title>
<path fill="none" stroke="#d3d3d3" d="M131.1665,-595.4156C154.5399,-595.4156 181.1165,-595.4156 205.5471,-595.4156"/>
<polygon fill="#d3d3d3" stroke="#d3d3d3" points="205.8703,-598.9157 215.8703,-595.4156 205.8703,-591.9157 205.8703,-598.9157"/>
<text text-anchor="middle" x="173.5261" y="-616.4156" font-family="Times,serif" font-size="14.00" fill="#c0c0c0"> &#160;JSON/</text>
<text text-anchor="middle" x="173.5261" y="-599.6156" font-family="Times,serif" font-size="14.00" fill="#c0c0c0">MQTT &#160;</text>
</g>
<!-- PLC4X&#45;&gt;Broker -->
<g id="edge3" class="edge">
<title>PLC4X&#45;&gt;Broker</title>
<path fill="none" stroke="#d3d3d3" d="M285.439,-675.8563C285.439,-663.2697 285.439,-648.4033 285.439,-634.8968"/>
<polygon fill="#d3d3d3" stroke="#d3d3d3" points="288.9391,-634.8936 285.439,-624.8936 281.9391,-634.8937 288.9391,-634.8936"/>
<text text-anchor="middle" x="265.639" y="-654.6156" font-family="Times,serif" font-size="14.00" fill="#c0c0c0"> &#160;JSON/ &#160;</text>
<text text-anchor="middle" x="265.639" y="-637.8156" font-family="Times,serif" font-size="14.00" fill="#c0c0c0">MQTT &#160;</text>
</g>
<!-- Adapter -->
<g id="node5" class="node">
<title>Adapter</title>
<ellipse fill="#add8e6" stroke="#d3d3d3" cx="285.439" cy="-473.4156" rx="59.3044" ry="41.0911"/>
<text text-anchor="middle" x="285.439" y="-486.0156" font-family="Times,serif" font-size="14.00" fill="#000000">MTConnect</text>
<text text-anchor="middle" x="285.439" y="-469.2156" font-family="Times,serif" font-size="14.00" fill="#000000">Adapter</text>
<text text-anchor="middle" x="285.439" y="-452.4156" font-family="Times,serif" font-size="14.00" fill="#000000">(NodeJS)</text>
</g>
<!-- Broker&#45;&gt;Adapter -->
<g id="edge4" class="edge">
<title>Broker&#45;&gt;Adapter</title>
<path fill="none" stroke="#d3d3d3" d="M285.439,-565.7173C285.439,-553.3843 285.439,-538.7096 285.439,-524.7312"/>
<polygon fill="#d3d3d3" stroke="#d3d3d3" points="288.9391,-524.7192 285.439,-514.7193 281.9391,-524.7193 288.9391,-524.7192"/>
<text text-anchor="middle" x="265.639" y="-544.5553" font-family="Times,serif" font-size="14.00" fill="#c0c0c0"> &#160;JSON/ &#160;</text>
<text text-anchor="middle" x="265.639" y="-527.7553" font-family="Times,serif" font-size="14.00" fill="#c0c0c0">MQTT &#160;</text>
</g>
<!-- Diode -->
<g id="node6" class="node">
<title>Diode</title>
<ellipse fill="#ffffff" stroke="#d3d3d3" cx="285.439" cy="-351.4156" rx="56.833" ry="29.3315"/>
<text text-anchor="middle" x="285.439" y="-355.6156" font-family="Times,serif" font-size="14.00" fill="#000000">Data Diode</text>
<text text-anchor="middle" x="285.439" y="-338.8156" font-family="Times,serif" font-size="14.00" fill="#000000">(NodeJS)</text>
</g>
<!-- Adapter&#45;&gt;Diode -->
<g id="edge5" class="edge">
<title>Adapter&#45;&gt;Diode</title>
<path fill="none" stroke="#d3d3d3" d="M285.439,-431.7075C285.439,-418.5384 285.439,-404.0322 285.439,-391.0148"/>
<polygon fill="#d3d3d3" stroke="#d3d3d3" points="288.9391,-390.9484 285.439,-380.9484 281.9391,-390.9485 288.9391,-390.9484"/>
<text text-anchor="middle" x="265.639" y="-410.6759" font-family="Times,serif" font-size="14.00" fill="#c0c0c0"> &#160;SHDR/ &#160;</text>
<text text-anchor="middle" x="265.639" y="-393.8759" font-family="Times,serif" font-size="14.00" fill="#c0c0c0">UDP &#160;</text>
</g>
<!-- Agent -->
<g id="node7" class="node">
<title>Agent</title>
<ellipse fill="#add8e6" stroke="#d3d3d3" cx="285.439" cy="-229.4156" rx="59.3044" ry="41.0911"/>
<text text-anchor="middle" x="285.439" y="-242.0156" font-family="Times,serif" font-size="14.00" fill="#000000">MTConnect</text>
<text text-anchor="middle" x="285.439" y="-225.2156" font-family="Times,serif" font-size="14.00" fill="#000000">Agent</text>
<text text-anchor="middle" x="285.439" y="-208.4156" font-family="Times,serif" font-size="14.00" fill="#000000">(C++)</text>
</g>
<!-- Diode&#45;&gt;Agent -->
<g id="edge6" class="edge">
<title>Diode&#45;&gt;Agent</title>
<path fill="none" stroke="#d3d3d3" d="M285.439,-321.7173C285.439,-309.3843 285.439,-294.7096 285.439,-280.7312"/>
<polygon fill="#d3d3d3" stroke="#d3d3d3" points="288.9391,-280.7192 285.439,-270.7193 281.9391,-280.7193 288.9391,-280.7192"/>
<text text-anchor="middle" x="265.639" y="-300.5553" font-family="Times,serif" font-size="14.00" fill="#c0c0c0"> &#160;SHDR/ &#160;</text>
<text text-anchor="middle" x="265.639" y="-283.7553" font-family="Times,serif" font-size="14.00" fill="#c0c0c0">TCP &#160;</text>
</g>
<!-- Application -->
<g id="node8" class="node">
<title>Application</title>
<ellipse fill="#add8e6" stroke="#d3d3d3" cx="532.7723" cy="-229.4156" rx="59.3044" ry="41.0911"/>
<text text-anchor="middle" x="532.7723" y="-242.0156" font-family="Times,serif" font-size="14.00" fill="#000000">MTConnect</text>
<text text-anchor="middle" x="532.7723" y="-225.2156" font-family="Times,serif" font-size="14.00" fill="#000000">Application</text>
<text text-anchor="middle" x="532.7723" y="-208.4156" font-family="Times,serif" font-size="14.00" fill="#000000">(NodeJS)</text>
</g>
<!-- Agent&#45;&gt;Application -->
<g id="edge7" class="edge">
<title>Agent&#45;&gt;Application</title>
<path fill="none" stroke="#d3d3d3" d="M344.6815,-229.4156C380.3438,-229.4156 425.923,-229.4156 463.2812,-229.4156"/>
<polygon fill="#d3d3d3" stroke="#d3d3d3" points="463.5851,-232.9157 473.5851,-229.4156 463.5851,-225.9157 463.5851,-232.9157"/>
<text text-anchor="middle" x="387.253" y="-250.4156" font-family="Times,serif" font-size="14.00" fill="#c0c0c0"> &#160;XML/ &#160;</text>
<text text-anchor="middle" x="387.253" y="-233.6156" font-family="Times,serif" font-size="14.00" fill="#c0c0c0">HTTP &#160;</text>
</g>
<!-- Application&#45;&gt;Agent -->
<g id="edge8" class="edge">
<title>Application&#45;&gt;Agent</title>
<path fill="none" stroke="#d3d3d3" d="M476.8387,-215.4266C443.6594,-208.9104 400.7856,-203.5895 362.7558,-208.6156 358.57,-209.1688 354.289,-209.8836 349.9943,-210.7138"/>
<polygon fill="#d3d3d3" stroke="#d3d3d3" points="349.0419,-207.3379 339.987,-212.8387 350.4959,-214.1852 349.0419,-207.3379"/>
<text text-anchor="middle" x="387.253" y="-213.6156" font-family="Times,serif" font-size="14.00" fill="#c0c0c0"> &#160;HTTP</text>
</g>
<!-- Database -->
<g id="node9" class="node">
<title>Database</title>
<ellipse fill="#ffffff" stroke="#d3d3d3" cx="532.7723" cy="-123.4156" rx="113.0442" ry="29.3315"/>
<text text-anchor="middle" x="532.7723" y="-127.6156" font-family="Times,serif" font-size="14.00" fill="#000000">Database</text>
<text text-anchor="middle" x="532.7723" y="-110.8156" font-family="Times,serif" font-size="14.00" fill="#000000">(InfluxDB/TimescaleDB)</text>
</g>
<!-- Application&#45;&gt;Database -->
<g id="edge9" class="edge">
<title>Application&#45;&gt;Database</title>
<path fill="none" stroke="#d3d3d3" d="M532.7723,-188.0482C532.7723,-179.7966 532.7723,-171.5449 532.7723,-163.2933"/>
<polygon fill="#d3d3d3" stroke="#d3d3d3" points="536.2724,-163.2281 532.7723,-153.2281 529.2724,-163.2282 536.2724,-163.2281"/>
</g>
<!-- Visualizer -->
<g id="node10" class="node">
<title>Visualizer</title>
<ellipse fill="#ffffff" stroke="#d3d3d3" cx="532.7723" cy="-29.4156" rx="86.7286" ry="29.3315"/>
<text text-anchor="middle" x="532.7723" y="-33.6156" font-family="Times,serif" font-size="14.00" fill="#000000">Visualizer</text>
<text text-anchor="middle" x="532.7723" y="-16.8156" font-family="Times,serif" font-size="14.00" fill="#000000">(Grafana/Superset)</text>
</g>
<!-- Database&#45;&gt;Visualizer -->
<g id="edge10" class="edge">
<title>Database&#45;&gt;Visualizer</title>
<path fill="none" stroke="#d3d3d3" d="M532.7723,-93.7968C532.7723,-85.5881 532.7723,-77.3794 532.7723,-69.1707"/>
<polygon fill="#d3d3d3" stroke="#d3d3d3" points="536.2724,-69.1578 532.7723,-59.1578 529.2724,-69.1579 536.2724,-69.1578"/>
</g>
<!-- Cloud -->
<g id="node11" class="node">
<title>Cloud</title>
<ellipse fill="#ffffff" stroke="#d3d3d3" cx="731.0233" cy="-123.4156" rx="68.4585" ry="29.3315"/>
<text text-anchor="middle" x="731.0233" y="-127.6156" font-family="Times,serif" font-size="14.00" fill="#000000">Cloud Storage</text>
<text text-anchor="middle" x="731.0233" y="-110.8156" font-family="Times,serif" font-size="14.00" fill="#000000">(AWS/GCP)</text>
</g>
<!-- Database&#45;&gt;Cloud -->
<g id="edge11" class="edge">
<title>Database&#45;&gt;Cloud</title>
<path fill="none" stroke="#d3d3d3" d="M645.7965,-123.4156C648.0383,-123.4156 650.2705,-123.4156 652.4883,-123.4156"/>
<polygon fill="#d3d3d3" stroke="#d3d3d3" points="652.7446,-126.9157 662.7445,-123.4156 652.7445,-119.9157 652.7446,-126.9157"/>
</g>
<!-- Admin -->
<g id="node12" class="node">
<title>Admin</title>
<ellipse fill="#ffffe0" stroke="#d3d3d3" cx="731.0233" cy="-29.4156" rx="37.7217" ry="18"/>
<text text-anchor="middle" x="731.0233" y="-25.2156" font-family="Times,serif" font-size="14.00" fill="#000000">Admin</text>
</g>
<!-- Visualizer&#45;&gt;Admin -->
<g id="edge12" class="edge">
<title>Visualizer&#45;&gt;Admin</title>
<path fill="none" stroke="#d3d3d3" d="M619.4397,-29.4156C641.154,-29.4156 663.6786,-29.4156 682.7562,-29.4156"/>
<polygon fill="#d3d3d3" stroke="#d3d3d3" points="682.9732,-32.9157 692.9731,-29.4156 682.9731,-25.9157 682.9732,-32.9157"/>
</g>
</g>
</svg>
