<?xml version="1.0" encoding="UTF-8" standalone="no"?>
<!DOCTYPE svg PUBLIC "-//W3C//DTD SVG 1.1//EN"
 "http://www.w3.org/Graphics/SVG/1.1/DTD/svg11.dtd">
<!-- Generated by graphviz version 2.40.1 (20161225.0304)
 -->
<!-- Title: ladder99&#45;adapter Pages: 1 -->
<svg width="971pt" height="791pt"
 viewBox="0.00 0.00 970.95 790.71" xmlns="http://www.w3.org/2000/svg" xmlns:xlink="http://www.w3.org/1999/xlink">
<g id="graph0" class="graph" transform="scale(1 1) rotate(0) translate(4 786.7107)">
<title>ladder99&#45;adapter</title>
<polygon fill="#ffffff" stroke="transparent" points="-4,4 -4,-786.7107 966.9549,-786.7107 966.9549,4 -4,4"/>
<text text-anchor="middle" x="481.4775" y="-760.7107" font-family="Times,serif" font-size="20.00" fill="#000000">Ladder99 MTConnect data flow</text>
<text text-anchor="middle" x="481.4775" y="-736.7107" font-family="Times,serif" font-size="20.00" fill="#000000"> </text>
<!-- OldMachine -->
<g id="node1" class="node">
<title>OldMachine</title>
<ellipse fill="#e6e6fa" stroke="#c0c0c0" cx="65.465" cy="-697.295" rx="61.9389" ry="18"/>
<text text-anchor="middle" x="65.465" y="-693.095" font-family="Times,serif" font-size="14.00" fill="#000000">Old Machine</text>
</g>
<!-- PLC4X -->
<g id="node3" class="node">
<title>PLC4X</title>
<ellipse fill="#ffffff" stroke="#c0c0c0" cx="276.979" cy="-697.295" rx="41.6253" ry="29.3315"/>
<text text-anchor="middle" x="276.979" y="-701.495" font-family="Times,serif" font-size="14.00" fill="#000000">PLC4X</text>
<text text-anchor="middle" x="276.979" y="-684.695" font-family="Times,serif" font-size="14.00" fill="#000000">(Java)</text>
</g>
<!-- OldMachine&#45;&gt;PLC4X -->
<g id="edge1" class="edge">
<title>OldMachine&#45;&gt;PLC4X</title>
<path fill="none" stroke="#c0c0c0" d="M127.2122,-697.295C158.2987,-697.295 195.56,-697.295 225.1393,-697.295"/>
<polygon fill="#c0c0c0" stroke="#c0c0c0" points="225.2588,-700.7951 235.2587,-697.295 225.2587,-693.7951 225.2588,-700.7951"/>
<text text-anchor="middle" x="165.5838" y="-715.295" font-family="Times,serif" font-size="12.00" fill="#4d4d4d">proprietary</text>
<text text-anchor="middle" x="165.5838" y="-700.895" font-family="Times,serif" font-size="12.00" fill="#4d4d4d">protocol</text>
</g>
<!-- NewMachine -->
<g id="node2" class="node">
<title>NewMachine</title>
<ellipse fill="#e6e6fa" stroke="#c0c0c0" cx="65.465" cy="-577.295" rx="65.43" ry="18"/>
<text text-anchor="middle" x="65.465" y="-573.095" font-family="Times,serif" font-size="14.00" fill="#000000">New Machine</text>
</g>
<!-- Broker2 -->
<g id="node5" class="node">
<title>Broker2</title>
<ellipse fill="#ffffff" stroke="#c0c0c0" cx="276.979" cy="-577.295" rx="76.9837" ry="29.3315"/>
<text text-anchor="middle" x="276.979" y="-581.495" font-family="Times,serif" font-size="14.00" fill="#000000">MQTT Broker 2</text>
<text text-anchor="middle" x="276.979" y="-564.695" font-family="Times,serif" font-size="14.00" fill="#000000">(Mosquitto)</text>
</g>
<!-- NewMachine&#45;&gt;Broker2 -->
<g id="edge3" class="edge">
<title>NewMachine&#45;&gt;Broker2</title>
<path fill="none" stroke="#c0c0c0" d="M130.9408,-577.295C149.538,-577.295 170.089,-577.295 189.7571,-577.295"/>
<polygon fill="#c0c0c0" stroke="#c0c0c0" points="189.9468,-580.7951 199.9467,-577.295 189.9467,-573.7951 189.9468,-580.7951"/>
<text text-anchor="middle" x="165.5838" y="-580.895" font-family="Times,serif" font-size="12.00" fill="#4d4d4d">MQTT</text>
</g>
<!-- Broker1 -->
<g id="node4" class="node">
<title>Broker1</title>
<ellipse fill="#ffffff" stroke="#c0c0c0" cx="507.4531" cy="-697.295" rx="76.9837" ry="29.3315"/>
<text text-anchor="middle" x="507.4531" y="-701.495" font-family="Times,serif" font-size="14.00" fill="#000000">MQTT Broker 1</text>
<text text-anchor="middle" x="507.4531" y="-684.695" font-family="Times,serif" font-size="14.00" fill="#000000">(Mosquitto)</text>
</g>
<!-- PLC4X&#45;&gt;Broker1 -->
<g id="edge2" class="edge">
<title>PLC4X&#45;&gt;Broker1</title>
<path fill="none" stroke="#c0c0c0" d="M318.7161,-697.295C347.0517,-697.295 385.5629,-697.295 420.4095,-697.295"/>
<polygon fill="#c0c0c0" stroke="#c0c0c0" points="420.6085,-700.7951 430.6085,-697.295 420.6084,-693.7951 420.6085,-700.7951"/>
<text text-anchor="middle" x="392.2161" y="-700.895" font-family="Times,serif" font-size="12.00" fill="#4d4d4d">MQTT</text>
</g>
<!-- Client1 -->
<g id="node6" class="node">
<title>Client1</title>
<ellipse fill="#ffffff" stroke="#c0c0c0" cx="735.3415" cy="-697.295" rx="73.4077" ry="29.3315"/>
<text text-anchor="middle" x="735.3415" y="-701.495" font-family="Times,serif" font-size="14.00" fill="#000000">MQTT Client 1</text>
<text text-anchor="middle" x="735.3415" y="-684.695" font-family="Times,serif" font-size="14.00" fill="#000000">(NodeJS)</text>
</g>
<!-- Broker1&#45;&gt;Client1 -->
<g id="edge4" class="edge">
<title>Broker1&#45;&gt;Client1</title>
<path fill="none" stroke="#c0c0c0" d="M584.288,-697.295C605.8171,-697.295 629.3302,-697.295 651.2564,-697.295"/>
<polygon fill="#c0c0c0" stroke="#c0c0c0" points="651.5402,-700.7951 661.5402,-697.295 651.5401,-693.7951 651.5402,-700.7951"/>
<text text-anchor="middle" x="622.6902" y="-700.895" font-family="Times,serif" font-size="12.00" fill="#4d4d4d">MQTT 1883</text>
</g>
<!-- Client2 -->
<g id="node7" class="node">
<title>Client2</title>
<ellipse fill="#ffffff" stroke="#c0c0c0" cx="507.4531" cy="-577.295" rx="73.4077" ry="29.3315"/>
<text text-anchor="middle" x="507.4531" y="-581.495" font-family="Times,serif" font-size="14.00" fill="#000000">MQTT Client 2</text>
<text text-anchor="middle" x="507.4531" y="-564.695" font-family="Times,serif" font-size="14.00" fill="#000000">(NodeJS)</text>
</g>
<!-- Broker2&#45;&gt;Client2 -->
<g id="edge5" class="edge">
<title>Broker2&#45;&gt;Client2</title>
<path fill="none" stroke="#c0c0c0" d="M353.7235,-577.295C376.1948,-577.295 400.8724,-577.295 423.7528,-577.295"/>
<polygon fill="#c0c0c0" stroke="#c0c0c0" points="423.7795,-580.7951 433.7795,-577.295 423.7795,-573.7951 423.7795,-580.7951"/>
<text text-anchor="middle" x="392.2161" y="-580.895" font-family="Times,serif" font-size="12.00" fill="#4d4d4d">MQTT 1883</text>
</g>
<!-- Adapter -->
<g id="node8" class="node">
<title>Adapter</title>
<ellipse fill="#ffffff" stroke="#c0c0c0" cx="735.3415" cy="-577.295" rx="59.3044" ry="41.0911"/>
<text text-anchor="middle" x="735.3415" y="-589.895" font-family="Times,serif" font-size="14.00" fill="#000000">MTConnect</text>
<text text-anchor="middle" x="735.3415" y="-573.095" font-family="Times,serif" font-size="14.00" fill="#000000">Adapter</text>
<text text-anchor="middle" x="735.3415" y="-556.295" font-family="Times,serif" font-size="14.00" fill="#000000">(NodeJS)</text>
</g>
<!-- Client1&#45;&gt;Adapter -->
<g id="edge6" class="edge">
<title>Client1&#45;&gt;Adapter</title>
<path fill="none" stroke="#c0c0c0" d="M735.3415,-667.6634C735.3415,-655.8736 735.3415,-641.9593 735.3415,-628.6282"/>
<polygon fill="#c0c0c0" stroke="#c0c0c0" points="738.8416,-628.5922 735.3415,-618.5922 731.8416,-628.5923 738.8416,-628.5922"/>
<text text-anchor="middle" x="725.1415" y="-639.6347" font-family="Times,serif" font-size="12.00" fill="#4d4d4d">MQTT 1883</text>
</g>
<!-- Client2&#45;&gt;Adapter -->
<g id="edge7" class="edge">
<title>Client2&#45;&gt;Adapter</title>
<path fill="none" stroke="#c0c0c0" d="M581.1272,-577.295C608.3403,-577.295 639.0702,-577.295 665.8962,-577.295"/>
<polygon fill="#c0c0c0" stroke="#c0c0c0" points="665.9709,-580.7951 675.9709,-577.295 665.9708,-573.7951 665.9709,-580.7951"/>
<text text-anchor="middle" x="622.6902" y="-580.895" font-family="Times,serif" font-size="12.00" fill="#4d4d4d">MQTT 1883</text>
</g>
<!-- Agent -->
<g id="node9" class="node">
<title>Agent</title>
<ellipse fill="#ffffff" stroke="#c0c0c0" cx="735.3415" cy="-441.295" rx="74.3117" ry="41.0911"/>
<text text-anchor="middle" x="735.3415" y="-453.895" font-family="Times,serif" font-size="14.00" fill="#000000">MTConnect</text>
<text text-anchor="middle" x="735.3415" y="-437.095" font-family="Times,serif" font-size="14.00" fill="#000000">Agent</text>
<text text-anchor="middle" x="735.3415" y="-420.295" font-family="Times,serif" font-size="14.00" fill="#000000">(C++/cppagent)</text>
</g>
<!-- Adapter&#45;&gt;Agent -->
<g id="edge8" class="edge">
<title>Adapter&#45;&gt;Agent</title>
<path fill="none" stroke="#c0c0c0" d="M735.3415,-535.5373C735.3415,-522.0683 735.3415,-506.9768 735.3415,-492.8852"/>
<polygon fill="#c0c0c0" stroke="#c0c0c0" points="738.8416,-492.8385 735.3415,-482.8385 731.8416,-492.8385 738.8416,-492.8385"/>
<text text-anchor="middle" x="717.9415" y="-512.895" font-family="Times,serif" font-size="12.00" fill="#4d4d4d">SHDR / &#160;&#160;</text>
<text text-anchor="middle" x="717.9415" y="-498.495" font-family="Times,serif" font-size="12.00" fill="#4d4d4d">TCP 7878 &#160;&#160;&#160;&#160;&#160;</text>
</g>
<!-- Application -->
<g id="node10" class="node">
<title>Application</title>
<ellipse fill="#ffffff" stroke="#c0c0c0" cx="735.3415" cy="-305.295" rx="59.3044" ry="41.0911"/>
<text text-anchor="middle" x="735.3415" y="-317.895" font-family="Times,serif" font-size="14.00" fill="#000000">MTConnect</text>
<text text-anchor="middle" x="735.3415" y="-301.095" font-family="Times,serif" font-size="14.00" fill="#000000">Application</text>
<text text-anchor="middle" x="735.3415" y="-284.295" font-family="Times,serif" font-size="14.00" fill="#000000">(NodeJS)</text>
</g>
<!-- Agent&#45;&gt;Application -->
<g id="edge9" class="edge">
<title>Agent&#45;&gt;Application</title>
<path fill="none" stroke="#c0c0c0" d="M735.3415,-389.503C735.3415,-378.817 735.3415,-367.564 735.3415,-356.8852"/>
<polygon fill="#c0c0c0" stroke="#c0c0c0" points="731.8416,-389.5373 735.3415,-399.5373 738.8416,-389.5374 731.8416,-389.5373"/>
<polygon fill="#c0c0c0" stroke="#c0c0c0" points="738.8416,-356.8385 735.3415,-346.8385 731.8416,-356.8385 738.8416,-356.8385"/>
<text text-anchor="middle" x="717.9415" y="-376.895" font-family="Times,serif" font-size="12.00" fill="#4d4d4d">XML / </text>
<text text-anchor="middle" x="717.9415" y="-362.495" font-family="Times,serif" font-size="12.00" fill="#4d4d4d">HTTP 5000 &#160;&#160;&#160;&#160;&#160;&#160;&#160;&#160;&#160;</text>
</g>
<!-- Database -->
<g id="node11" class="node">
<title>Database</title>
<ellipse fill="#ffffff" stroke="#c0c0c0" cx="735.3415" cy="-173.295" rx="69.0714" ry="41.0911"/>
<text text-anchor="middle" x="735.3415" y="-185.895" font-family="Times,serif" font-size="14.00" fill="#000000">Database</text>
<text text-anchor="middle" x="735.3415" y="-169.095" font-family="Times,serif" font-size="14.00" fill="#000000">(InfluxDB/</text>
<text text-anchor="middle" x="735.3415" y="-152.295" font-family="Times,serif" font-size="14.00" fill="#000000">TimescaleDB)</text>
</g>
<!-- Application&#45;&gt;Database -->
<g id="edge10" class="edge">
<title>Application&#45;&gt;Database</title>
<path fill="none" stroke="#c0c0c0" d="M735.3415,-253.639C735.3415,-244.1484 735.3415,-234.6577 735.3415,-225.1671"/>
<polygon fill="#c0c0c0" stroke="#c0c0c0" points="731.8416,-253.9372 735.3415,-263.9373 738.8416,-253.9373 731.8416,-253.9372"/>
<polygon fill="#c0c0c0" stroke="#c0c0c0" points="738.8416,-224.8028 735.3415,-214.8028 731.8416,-224.8029 738.8416,-224.8028"/>
</g>
<!-- Visualizer -->
<g id="node12" class="node">
<title>Visualizer</title>
<ellipse fill="#ffffff" stroke="#c0c0c0" cx="735.3415" cy="-41.295" rx="51.9834" ry="41.0911"/>
<text text-anchor="middle" x="735.3415" y="-53.895" font-family="Times,serif" font-size="14.00" fill="#000000">Visualizer</text>
<text text-anchor="middle" x="735.3415" y="-37.095" font-family="Times,serif" font-size="14.00" fill="#000000">(Grafana/</text>
<text text-anchor="middle" x="735.3415" y="-20.295" font-family="Times,serif" font-size="14.00" fill="#000000">Superset)</text>
</g>
<!-- Database&#45;&gt;Visualizer -->
<g id="edge11" class="edge">
<title>Database&#45;&gt;Visualizer</title>
<path fill="none" stroke="#c0c0c0" d="M735.3415,-121.639C735.3415,-112.1484 735.3415,-102.6577 735.3415,-93.1671"/>
<polygon fill="#c0c0c0" stroke="#c0c0c0" points="731.8416,-121.9372 735.3415,-131.9373 738.8416,-121.9373 731.8416,-121.9372"/>
<polygon fill="#c0c0c0" stroke="#c0c0c0" points="738.8416,-92.8028 735.3415,-82.8028 731.8416,-92.8029 738.8416,-92.8028"/>
</g>
<!-- Cloud -->
<g id="node13" class="node">
<title>Cloud</title>
<ellipse fill="#ffffff" stroke="#c0c0c0" cx="894.726" cy="-173.295" rx="68.4585" ry="29.3315"/>
<text text-anchor="middle" x="894.726" y="-177.495" font-family="Times,serif" font-size="14.00" fill="#000000">Cloud Storage</text>
<text text-anchor="middle" x="894.726" y="-160.695" font-family="Times,serif" font-size="14.00" fill="#000000">(AWS/GCP)</text>
</g>
<!-- Database&#45;&gt;Cloud -->
<g id="edge12" class="edge">
<title>Database&#45;&gt;Cloud</title>
<path fill="none" stroke="#c0c0c0" d="M804.7862,-173.295C808.5743,-173.295 812.3938,-173.295 816.2097,-173.295"/>
<polygon fill="#c0c0c0" stroke="#c0c0c0" points="816.2782,-176.7951 826.2782,-173.295 816.2781,-169.7951 816.2782,-176.7951"/>
</g>
<!-- Admin -->
<g id="node14" class="node">
<title>Admin</title>
<ellipse fill="#ffffe0" stroke="#c0c0c0" cx="894.726" cy="-41.295" rx="37.7217" ry="18"/>
<text text-anchor="middle" x="894.726" y="-37.095" font-family="Times,serif" font-size="14.00" fill="#000000">Admin</text>
</g>
<!-- Visualizer&#45;&gt;Admin -->
<g id="edge13" class="edge">
<title>Visualizer&#45;&gt;Admin</title>
<path fill="none" stroke="#c0c0c0" d="M797.7491,-41.295C813.8833,-41.295 831.0104,-41.295 846.3097,-41.295"/>
<polygon fill="#c0c0c0" stroke="#c0c0c0" points="797.53,-37.7951 787.5299,-41.295 797.5299,-44.7951 797.53,-37.7951"/>
<polygon fill="#c0c0c0" stroke="#c0c0c0" points="846.5748,-44.7951 856.5748,-41.295 846.5748,-37.7951 846.5748,-44.7951"/>
</g>
</g>
</svg>
