<?xml version="1.0" encoding="UTF-8" standalone="no"?>
<!DOCTYPE svg PUBLIC "-//W3C//DTD SVG 1.1//EN"
 "http://www.w3.org/Graphics/SVG/1.1/DTD/svg11.dtd">
<!-- Generated by graphviz version 2.40.1 (20161225.0304)
 -->
<!-- Title: ladder99&#45;adapter Pages: 1 -->
<svg width="2013pt" height="309pt"
 viewBox="0.00 0.00 2013.35 309.22" xmlns="http://www.w3.org/2000/svg" xmlns:xlink="http://www.w3.org/1999/xlink">
<g id="graph0" class="graph" transform="scale(1 1) rotate(0) translate(4 305.2156)">
<title>ladder99&#45;adapter</title>
<polygon fill="#ffffff" stroke="transparent" points="-4,4 -4,-305.2156 2009.3531,-305.2156 2009.3531,4 -4,4"/>
<text text-anchor="middle" x="1002.6766" y="-284.6156" font-family="Times,serif" font-size="14.00" fill="#000000">Ladder99 MTConnect data flow</text>
<g id="clust2" class="cluster">
<title>cluster1a</title>
<polygon fill="none" stroke="#d3d3d3" points="291.8063,-50.4156 291.8063,-127.4156 386.2952,-127.4156 386.2952,-50.4156 291.8063,-50.4156"/>
<text text-anchor="middle" x="339.0508" y="-110.8156" font-family="Times,serif" font-size="14.00" fill="#000000">New Machine</text>
</g>
<g id="clust3" class="cluster">
<title>cluster1b</title>
<polygon fill="none" stroke="#d3d3d3" points="1,-152.4156 1,-229.4156 89.4889,-229.4156 89.4889,-152.4156 1,-152.4156"/>
<text text-anchor="middle" x="45.2444" y="-212.8156" font-family="Times,serif" font-size="14.00" fill="#000000">Old Machine</text>
</g>
<g id="clust4" class="cluster">
<title>cluster2</title>
<polygon fill="none" stroke="#d3d3d3" points="171.6811,-135.4156 171.6811,-258.4156 1294.6283,-258.4156 1294.6283,-135.4156 171.6811,-135.4156"/>
<text text-anchor="middle" x="733.1547" y="-241.8156" font-family="Times,serif" font-size="14.00" fill="#000000">Raspberry Pi 1</text>
</g>
<g id="clust5" class="cluster">
<title>cluster4</title>
<polygon fill="none" stroke="#d3d3d3" points="1349.6227,-15.4156 1349.6227,-268.4156 1839.8954,-268.4156 1839.8954,-15.4156 1349.6227,-15.4156"/>
<text text-anchor="middle" x="1594.759" y="-251.8156" font-family="Times,serif" font-size="14.00" fill="#000000">Raspberry Pi 2</text>
</g>
<!-- PLC1 -->
<g id="node1" class="node">
<title>PLC1</title>
<ellipse fill="#e6e6fa" stroke="#d3d3d3" cx="44.7444" cy="-178.4156" rx="28.991" ry="18"/>
<text text-anchor="middle" x="44.7444" y="-174.2156" font-family="Times,serif" font-size="14.00" fill="#000000">PLC</text>
</g>
<!-- PLC4X -->
<g id="node3" class="node">
<title>PLC4X</title>
<ellipse fill="#ffffff" stroke="#d3d3d3" cx="221.2437" cy="-178.4156" rx="41.6253" ry="29.3315"/>
<text text-anchor="middle" x="221.2437" y="-182.6156" font-family="Times,serif" font-size="14.00" fill="#000000">PLC4X</text>
<text text-anchor="middle" x="221.2437" y="-165.8156" font-family="Times,serif" font-size="14.00" fill="#000000">(Java)</text>
</g>
<!-- PLC1&#45;&gt;PLC4X -->
<g id="edge2" class="edge">
<title>PLC1&#45;&gt;PLC4X</title>
<path fill="none" stroke="#d3d3d3" d="M73.4949,-178.4156C99.3845,-178.4156 138.062,-178.4156 169.3505,-178.4156"/>
<polygon fill="#d3d3d3" stroke="#d3d3d3" points="169.649,-181.9157 179.6489,-178.4156 169.6489,-174.9157 169.649,-181.9157"/>
<text text-anchor="middle" x="130.585" y="-199.4156" font-family="Times,serif" font-size="14.00" fill="#c0c0c0">proprietary</text>
<text text-anchor="middle" x="130.585" y="-182.6156" font-family="Times,serif" font-size="14.00" fill="#c0c0c0">protocol</text>
</g>
<!-- PLC2 -->
<g id="node2" class="node">
<title>PLC2</title>
<ellipse fill="#e6e6fa" stroke="#d3d3d3" cx="338.5508" cy="-76.4156" rx="28.991" ry="18"/>
<text text-anchor="middle" x="338.5508" y="-72.2156" font-family="Times,serif" font-size="14.00" fill="#000000">PLC</text>
</g>
<!-- Broker -->
<g id="node4" class="node">
<title>Broker</title>
<ellipse fill="#ffffff" stroke="#d3d3d3" cx="523.2684" cy="-178.4156" rx="69.1341" ry="29.3315"/>
<text text-anchor="middle" x="523.2684" y="-182.6156" font-family="Times,serif" font-size="14.00" fill="#000000">MQTT Broker</text>
<text text-anchor="middle" x="523.2684" y="-165.8156" font-family="Times,serif" font-size="14.00" fill="#000000">(NodeJS)</text>
</g>
<!-- PLC2&#45;&gt;Broker -->
<g id="edge1" class="edge">
<title>PLC2&#45;&gt;Broker</title>
<path fill="none" stroke="#d3d3d3" d="M360.4657,-88.5169C387.6885,-103.5492 435.0141,-129.6821 471.6468,-149.9105"/>
<polygon fill="#d3d3d3" stroke="#d3d3d3" points="470.2652,-153.1457 480.7111,-154.9157 473.649,-147.0179 470.2652,-153.1457"/>
<text text-anchor="middle" x="416.1234" y="-148.4156" font-family="Times,serif" font-size="14.00" fill="#c0c0c0">JSON/</text>
<text text-anchor="middle" x="416.1234" y="-131.6156" font-family="Times,serif" font-size="14.00" fill="#c0c0c0">MQTT</text>
</g>
<!-- PLC4X&#45;&gt;Broker -->
<g id="edge3" class="edge">
<title>PLC4X&#45;&gt;Broker</title>
<path fill="none" stroke="#d3d3d3" d="M262.9218,-178.4156C309.4059,-178.4156 385.6796,-178.4156 443.6848,-178.4156"/>
<polygon fill="#d3d3d3" stroke="#d3d3d3" points="443.925,-181.9157 453.9249,-178.4156 443.9249,-174.9157 443.925,-181.9157"/>
<text text-anchor="middle" x="338.5508" y="-199.4156" font-family="Times,serif" font-size="14.00" fill="#c0c0c0">JSON/</text>
<text text-anchor="middle" x="338.5508" y="-182.6156" font-family="Times,serif" font-size="14.00" fill="#c0c0c0">MQTT</text>
</g>
<!-- Adapter -->
<g id="node5" class="node">
<title>Adapter</title>
<ellipse fill="#add8e6" stroke="#d3d3d3" cx="765.3937" cy="-184.4156" rx="59.3044" ry="41.0911"/>
<text text-anchor="middle" x="765.3937" y="-197.0156" font-family="Times,serif" font-size="14.00" fill="#000000">MTConnect</text>
<text text-anchor="middle" x="765.3937" y="-180.2156" font-family="Times,serif" font-size="14.00" fill="#000000">Adapter</text>
<text text-anchor="middle" x="765.3937" y="-163.4156" font-family="Times,serif" font-size="14.00" fill="#000000">(NodeJS)</text>
</g>
<!-- Broker&#45;&gt;Adapter -->
<g id="edge4" class="edge">
<title>Broker&#45;&gt;Adapter</title>
<path fill="none" stroke="#d3d3d3" d="M592.6518,-180.135C625.0581,-180.938 663.5465,-181.8918 695.9592,-182.695"/>
<polygon fill="#d3d3d3" stroke="#d3d3d3" points="696.1703,-186.2012 706.2539,-182.9501 696.3438,-179.2034 696.1703,-186.2012"/>
<text text-anchor="middle" x="649.4135" y="-202.4156" font-family="Times,serif" font-size="14.00" fill="#c0c0c0">JSON/</text>
<text text-anchor="middle" x="649.4135" y="-185.6156" font-family="Times,serif" font-size="14.00" fill="#c0c0c0">MQTT</text>
</g>
<!-- Receiver -->
<g id="node6" class="node">
<title>Receiver</title>
<ellipse fill="#ffffff" stroke="#d3d3d3" cx="996.435" cy="-184.4156" rx="56.833" ry="29.3315"/>
<text text-anchor="middle" x="996.435" y="-188.6156" font-family="Times,serif" font-size="14.00" fill="#000000">Data Diode</text>
<text text-anchor="middle" x="996.435" y="-171.8156" font-family="Times,serif" font-size="14.00" fill="#000000">(NodeJS)</text>
</g>
<!-- Adapter&#45;&gt;Receiver -->
<g id="edge5" class="edge">
<title>Adapter&#45;&gt;Receiver</title>
<path fill="none" stroke="#d3d3d3" d="M824.5925,-184.4156C856.5802,-184.4156 896.1959,-184.4156 929.326,-184.4156"/>
<polygon fill="#d3d3d3" stroke="#d3d3d3" points="929.3839,-187.9157 939.3839,-184.4156 929.3838,-180.9157 929.3839,-187.9157"/>
<text text-anchor="middle" x="882.1572" y="-205.4156" font-family="Times,serif" font-size="14.00" fill="#c0c0c0">SHDR/</text>
<text text-anchor="middle" x="882.1572" y="-188.6156" font-family="Times,serif" font-size="14.00" fill="#c0c0c0">UDP</text>
</g>
<!-- Agent -->
<g id="node7" class="node">
<title>Agent</title>
<ellipse fill="#add8e6" stroke="#d3d3d3" cx="1227.4763" cy="-184.4156" rx="59.3044" ry="41.0911"/>
<text text-anchor="middle" x="1227.4763" y="-197.0156" font-family="Times,serif" font-size="14.00" fill="#000000">MTConnect</text>
<text text-anchor="middle" x="1227.4763" y="-180.2156" font-family="Times,serif" font-size="14.00" fill="#000000">Agent</text>
<text text-anchor="middle" x="1227.4763" y="-163.4156" font-family="Times,serif" font-size="14.00" fill="#000000">(C++)</text>
</g>
<!-- Receiver&#45;&gt;Agent -->
<g id="edge6" class="edge">
<title>Receiver&#45;&gt;Agent</title>
<path fill="none" stroke="#d3d3d3" d="M1053.2499,-184.4156C1084.8533,-184.4156 1124.4403,-184.4156 1157.8896,-184.4156"/>
<polygon fill="#d3d3d3" stroke="#d3d3d3" points="1158.0578,-187.9157 1168.0577,-184.4156 1158.0577,-180.9157 1158.0578,-187.9157"/>
<text text-anchor="middle" x="1110.7127" y="-205.4156" font-family="Times,serif" font-size="14.00" fill="#c0c0c0">SHDR/</text>
<text text-anchor="middle" x="1110.7127" y="-188.6156" font-family="Times,serif" font-size="14.00" fill="#c0c0c0">TCP</text>
</g>
<!-- Application -->
<g id="node8" class="node">
<title>Application</title>
<ellipse fill="#add8e6" stroke="#d3d3d3" cx="1470.6448" cy="-194.4156" rx="59.3044" ry="41.0911"/>
<text text-anchor="middle" x="1470.6448" y="-207.0156" font-family="Times,serif" font-size="14.00" fill="#000000">MTConnect</text>
<text text-anchor="middle" x="1470.6448" y="-190.2156" font-family="Times,serif" font-size="14.00" fill="#000000">Application</text>
<text text-anchor="middle" x="1470.6448" y="-173.4156" font-family="Times,serif" font-size="14.00" fill="#000000">(NodeJS)</text>
</g>
<!-- Agent&#45;&gt;Application -->
<g id="edge7" class="edge">
<title>Agent&#45;&gt;Application</title>
<path fill="none" stroke="#d3d3d3" d="M1286.651,-186.8491C1321.218,-188.2707 1365.0186,-190.0719 1401.212,-191.5603"/>
<polygon fill="#d3d3d3" stroke="#d3d3d3" points="1401.0693,-195.0573 1411.2047,-191.9712 1401.357,-188.0632 1401.0693,-195.0573"/>
<text text-anchor="middle" x="1322.1255" y="-209.4156" font-family="Times,serif" font-size="14.00" fill="#c0c0c0">XML/</text>
<text text-anchor="middle" x="1322.1255" y="-192.6156" font-family="Times,serif" font-size="14.00" fill="#c0c0c0">HTTP</text>
</g>
<!-- Application&#45;&gt;Agent -->
<g id="edge8" class="edge">
<title>Application&#45;&gt;Agent</title>
<path fill="none" stroke="#d3d3d3" d="M1416.2644,-177.5297C1383.9473,-169.4431 1342.0847,-162.3508 1304.6283,-166.6156 1300.9278,-167.037 1297.1464,-167.5685 1293.3427,-168.1822"/>
<polygon fill="#d3d3d3" stroke="#d3d3d3" points="1292.4927,-164.7785 1283.2622,-169.9793 1293.7212,-171.6698 1292.4927,-164.7785"/>
<text text-anchor="middle" x="1322.1255" y="-170.6156" font-family="Times,serif" font-size="14.00" fill="#c0c0c0">HTTP</text>
</g>
<!-- LOI -->
<g id="node9" class="node">
<title>LOI</title>
<ellipse fill="#ffffff" stroke="#d3d3d3" cx="1745.2811" cy="-194.4156" rx="52.0032" ry="29.3315"/>
<text text-anchor="middle" x="1745.2811" y="-198.6156" font-family="Times,serif" font-size="14.00" fill="#000000">LOI</text>
<text text-anchor="middle" x="1745.2811" y="-181.8156" font-family="Times,serif" font-size="14.00" fill="#000000">(SvelteJS)</text>
</g>
<!-- Application&#45;&gt;LOI -->
<g id="edge12" class="edge">
<title>Application&#45;&gt;LOI</title>
<path fill="none" stroke="#d3d3d3" d="M1529.8987,-194.4156C1575.0513,-194.4156 1637.0661,-194.4156 1682.9595,-194.4156"/>
<polygon fill="#d3d3d3" stroke="#d3d3d3" points="1683.0815,-197.9157 1693.0814,-194.4156 1683.0814,-190.9157 1683.0815,-197.9157"/>
</g>
<!-- Database -->
<g id="node10" class="node">
<title>Database</title>
<ellipse fill="#ffffff" stroke="#d3d3d3" cx="1470.6448" cy="-52.4156" rx="113.0442" ry="29.3315"/>
<text text-anchor="middle" x="1470.6448" y="-56.6156" font-family="Times,serif" font-size="14.00" fill="#000000">Database</text>
<text text-anchor="middle" x="1470.6448" y="-39.8156" font-family="Times,serif" font-size="14.00" fill="#000000">(InfluxDB/TimescaleDB)</text>
</g>
<!-- Application&#45;&gt;Database -->
<g id="edge9" class="edge">
<title>Application&#45;&gt;Database</title>
<path fill="none" stroke="#d3d3d3" d="M1470.6448,-152.7328C1470.6448,-132.589 1470.6448,-112.4452 1470.6448,-92.3013"/>
<polygon fill="#d3d3d3" stroke="#d3d3d3" points="1474.1449,-92.0914 1470.6448,-82.0914 1467.1449,-92.0915 1474.1449,-92.0914"/>
</g>
<!-- Operator -->
<g id="node13" class="node">
<title>Operator</title>
<ellipse fill="#ffffe0" stroke="#d3d3d3" cx="1937.1242" cy="-194.4156" rx="45.2035" ry="18"/>
<text text-anchor="middle" x="1937.1242" y="-190.2156" font-family="Times,serif" font-size="14.00" fill="#000000">Operator</text>
</g>
<!-- LOI&#45;&gt;Operator -->
<g id="edge13" class="edge">
<title>LOI&#45;&gt;Operator</title>
<path fill="none" stroke="#d3d3d3" d="M1797.4497,-194.4156C1823.4069,-194.4156 1854.8044,-194.4156 1881.2512,-194.4156"/>
<polygon fill="#d3d3d3" stroke="#d3d3d3" points="1881.4972,-197.9157 1891.4971,-194.4156 1881.4971,-190.9157 1881.4972,-197.9157"/>
</g>
<!-- Visualizer -->
<g id="node11" class="node">
<title>Visualizer</title>
<ellipse fill="#ffffff" stroke="#d3d3d3" cx="1745.2811" cy="-90.4156" rx="86.7286" ry="29.3315"/>
<text text-anchor="middle" x="1745.2811" y="-94.6156" font-family="Times,serif" font-size="14.00" fill="#000000">Visualizer</text>
<text text-anchor="middle" x="1745.2811" y="-77.8156" font-family="Times,serif" font-size="14.00" fill="#000000">(Grafana/Superset)</text>
</g>
<!-- Database&#45;&gt;Visualizer -->
<g id="edge10" class="edge">
<title>Database&#45;&gt;Visualizer</title>
<path fill="none" stroke="#d3d3d3" d="M1570.5717,-66.242C1598.0429,-70.0431 1627.6752,-74.1431 1654.5946,-77.8678"/>
<polygon fill="#d3d3d3" stroke="#d3d3d3" points="1654.3833,-81.3718 1664.7686,-79.2755 1655.3428,-74.4379 1654.3833,-81.3718"/>
</g>
<!-- Cloud -->
<g id="node12" class="node">
<title>Cloud</title>
<ellipse fill="#ffffff" stroke="#d3d3d3" cx="1937.1242" cy="-29.4156" rx="68.4585" ry="29.3315"/>
<text text-anchor="middle" x="1937.1242" y="-33.6156" font-family="Times,serif" font-size="14.00" fill="#000000">Cloud Storage</text>
<text text-anchor="middle" x="1937.1242" y="-16.8156" font-family="Times,serif" font-size="14.00" fill="#000000">(AWS/GCP)</text>
</g>
<!-- Database&#45;&gt;Cloud -->
<g id="edge11" class="edge">
<title>Database&#45;&gt;Cloud</title>
<path fill="none" stroke="#d3d3d3" d="M1581.7856,-46.9358C1667.106,-42.729 1782.7837,-37.0255 1858.6487,-33.2849"/>
<polygon fill="#d3d3d3" stroke="#d3d3d3" points="1859.2666,-36.7588 1869.0821,-32.7705 1858.9218,-29.7673 1859.2666,-36.7588"/>
</g>
<!-- Admin -->
<g id="node14" class="node">
<title>Admin</title>
<ellipse fill="#ffffe0" stroke="#d3d3d3" cx="1937.1242" cy="-94.4156" rx="37.7217" ry="18"/>
<text text-anchor="middle" x="1937.1242" y="-90.2156" font-family="Times,serif" font-size="14.00" fill="#000000">Admin</text>
</g>
<!-- Visualizer&#45;&gt;Admin -->
<g id="edge14" class="edge">
<title>Visualizer&#45;&gt;Admin</title>
<path fill="none" stroke="#d3d3d3" d="M1831.9419,-92.2226C1851.3482,-92.6272 1871.2648,-93.0424 1888.4746,-93.4013"/>
<polygon fill="#d3d3d3" stroke="#d3d3d3" points="1888.7407,-96.9075 1898.8115,-93.6168 1888.8867,-89.909 1888.7407,-96.9075"/>
</g>
</g>
</svg>
