<?xml version="1.0" encoding="UTF-8" standalone="no"?>
<!DOCTYPE svg PUBLIC "-//W3C//DTD SVG 1.1//EN"
 "http://www.w3.org/Graphics/SVG/1.1/DTD/svg11.dtd">
<!-- Generated by graphviz version 2.40.1 (20161225.0304)
 -->
<!-- Title: ladder99&#45;adapter Pages: 1 -->
<svg width="834pt" height="943pt"
 viewBox="0.00 0.00 833.57 942.83" xmlns="http://www.w3.org/2000/svg" xmlns:xlink="http://www.w3.org/1999/xlink">
<g id="graph0" class="graph" transform="scale(1 1) rotate(0) translate(4 938.8313)">
<title>ladder99&#45;adapter</title>
<polygon fill="#ffffff" stroke="transparent" points="-4,4 -4,-938.8313 829.574,-938.8313 829.574,4 -4,4"/>
<text text-anchor="middle" x="412.787" y="-912.8313" font-family="Times,serif" font-size="20.00" fill="#000000">Ladder99 MTConnect data flow</text>
<text text-anchor="middle" x="412.787" y="-888.8313" font-family="Times,serif" font-size="20.00" fill="#000000"> </text>
<!-- OldMachine -->
<g id="node1" class="node">
<title>OldMachine</title>
<ellipse fill="#e6e6fa" stroke="#d3d3d3" cx="65.465" cy="-849.4156" rx="61.9389" ry="18"/>
<text text-anchor="middle" x="65.465" y="-845.2156" font-family="Times,serif" font-size="14.00" fill="#000000">Old Machine</text>
</g>
<!-- PLC4X -->
<g id="node3" class="node">
<title>PLC4X</title>
<ellipse fill="#ffffff" stroke="#d3d3d3" cx="283.6572" cy="-849.4156" rx="41.6253" ry="29.3315"/>
<text text-anchor="middle" x="283.6572" y="-853.6156" font-family="Times,serif" font-size="14.00" fill="#000000">PLC4X</text>
<text text-anchor="middle" x="283.6572" y="-836.8156" font-family="Times,serif" font-size="14.00" fill="#000000">(Java)</text>
</g>
<!-- OldMachine&#45;&gt;PLC4X -->
<g id="edge1" class="edge">
<title>OldMachine&#45;&gt;PLC4X</title>
<path fill="none" stroke="#d9d9d9" d="M127.4065,-849.4156C160.3461,-849.4156 200.3876,-849.4156 231.6891,-849.4156"/>
<polygon fill="#d9d9d9" stroke="#d9d9d9" points="231.9465,-852.9157 241.9464,-849.4156 231.9464,-845.9157 231.9465,-852.9157"/>
<text text-anchor="middle" x="165.5838" y="-867.4156" font-family="Times,serif" font-size="12.00" fill="#666666">proprietary</text>
<text text-anchor="middle" x="165.5838" y="-853.0156" font-family="Times,serif" font-size="12.00" fill="#666666">protocol</text>
</g>
<!-- NewMachine -->
<g id="node2" class="node">
<title>NewMachine</title>
<ellipse fill="#e6e6fa" stroke="#d3d3d3" cx="65.465" cy="-737.4156" rx="65.43" ry="18"/>
<text text-anchor="middle" x="65.465" y="-733.2156" font-family="Times,serif" font-size="14.00" fill="#000000">New Machine</text>
</g>
<!-- Broker -->
<g id="node4" class="node">
<title>Broker</title>
<ellipse fill="#ffffff" stroke="#d3d3d3" cx="283.6572" cy="-737.4156" rx="76.3687" ry="29.3315"/>
<text text-anchor="middle" x="283.6572" y="-741.6156" font-family="Times,serif" font-size="14.00" fill="#000000">MQTT Broker</text>
<text text-anchor="middle" x="283.6572" y="-724.8156" font-family="Times,serif" font-size="14.00" fill="#000000">(NodeJS/Aedes)</text>
</g>
<!-- NewMachine&#45;&gt;Broker -->
<g id="edge2" class="edge">
<title>NewMachine&#45;&gt;Broker</title>
<path fill="none" stroke="#d9d9d9" d="M131.2257,-737.4156C152.0091,-737.4156 175.2981,-737.4156 197.2964,-737.4156"/>
<polygon fill="#d9d9d9" stroke="#d9d9d9" points="197.2993,-740.9157 207.2993,-737.4156 197.2992,-733.9157 197.2993,-740.9157"/>
<text text-anchor="middle" x="165.5838" y="-755.4156" font-family="Times,serif" font-size="12.00" fill="#666666">JSON / </text>
<text text-anchor="middle" x="165.5838" y="-741.0156" font-family="Times,serif" font-size="12.00" fill="#666666">MQTT</text>
</g>
<!-- PLC4X&#45;&gt;Broker -->
<g id="edge3" class="edge">
<title>PLC4X&#45;&gt;Broker</title>
<path fill="none" stroke="#d9d9d9" d="M283.6572,-819.7966C283.6572,-806.7572 283.6572,-791.2442 283.6572,-777.2154"/>
<polygon fill="#d9d9d9" stroke="#d9d9d9" points="287.1573,-776.8423 283.6572,-766.8423 280.1573,-776.8424 287.1573,-776.8423"/>
<text text-anchor="middle" x="266.2572" y="-797.0156" font-family="Times,serif" font-size="12.00" fill="#666666">JSON / &#160;</text>
<text text-anchor="middle" x="266.2572" y="-782.6156" font-family="Times,serif" font-size="12.00" fill="#666666">MQTT &#160;</text>
</g>
<!-- Adapter -->
<g id="node5" class="node">
<title>Adapter</title>
<ellipse fill="#ffffff" stroke="#d3d3d3" cx="283.6572" cy="-613.4156" rx="59.3044" ry="41.0911"/>
<text text-anchor="middle" x="283.6572" y="-626.0156" font-family="Times,serif" font-size="14.00" fill="#000000">MTConnect</text>
<text text-anchor="middle" x="283.6572" y="-609.2156" font-family="Times,serif" font-size="14.00" fill="#000000">Adapter</text>
<text text-anchor="middle" x="283.6572" y="-592.4156" font-family="Times,serif" font-size="14.00" fill="#000000">(NodeJS)</text>
</g>
<!-- Broker&#45;&gt;Adapter -->
<g id="edge4" class="edge">
<title>Broker&#45;&gt;Adapter</title>
<path fill="none" stroke="#d9d9d9" d="M283.6572,-707.8364C283.6572,-695.1324 283.6572,-679.9014 283.6572,-665.418"/>
<polygon fill="#d9d9d9" stroke="#d9d9d9" points="287.1573,-665.0508 283.6572,-655.0508 280.1573,-665.0508 287.1573,-665.0508"/>
<text text-anchor="middle" x="266.2572" y="-684.9553" font-family="Times,serif" font-size="12.00" fill="#666666">JSON / &#160;</text>
<text text-anchor="middle" x="266.2572" y="-670.5553" font-family="Times,serif" font-size="12.00" fill="#666666">MQTT &#160;</text>
</g>
<!-- DiodeSender -->
<g id="node6" class="node">
<title>DiodeSender</title>
<ellipse fill="#ffffff" stroke="#d3d3d3" cx="283.6572" cy="-489.4156" rx="83.3394" ry="29.3315"/>
<text text-anchor="middle" x="283.6572" y="-493.6156" font-family="Times,serif" font-size="14.00" fill="#000000">Diode Sender</text>
<text text-anchor="middle" x="283.6572" y="-476.8156" font-family="Times,serif" font-size="14.00" fill="#000000">(Java+RabbitMQ)</text>
</g>
<!-- Adapter&#45;&gt;DiodeSender -->
<g id="edge5" class="edge">
<title>Adapter&#45;&gt;DiodeSender</title>
<path fill="none" stroke="#d9d9d9" d="M283.6572,-571.767C283.6572,-558.0127 283.6572,-542.7554 283.6572,-529.1483"/>
<polygon fill="#d9d9d9" stroke="#d9d9d9" points="287.1573,-529.1167 283.6572,-519.1167 280.1573,-529.1168 287.1573,-529.1167"/>
<text text-anchor="middle" x="266.2572" y="-549.0759" font-family="Times,serif" font-size="12.00" fill="#666666">SHDR / &#160;&#160;</text>
<text text-anchor="middle" x="266.2572" y="-534.6759" font-family="Times,serif" font-size="12.00" fill="#666666">TCP 7878 &#160;&#160;&#160;&#160;&#160;</text>
</g>
<!-- DiodeReceiver -->
<g id="node7" class="node">
<title>DiodeReceiver</title>
<ellipse fill="#ffffff" stroke="#d3d3d3" cx="283.6572" cy="-381.4156" rx="83.3394" ry="29.3315"/>
<text text-anchor="middle" x="283.6572" y="-385.6156" font-family="Times,serif" font-size="14.00" fill="#000000">Diode Receiver</text>
<text text-anchor="middle" x="283.6572" y="-368.8156" font-family="Times,serif" font-size="14.00" fill="#000000">(Java+RabbitMQ)</text>
</g>
<!-- DiodeSender&#45;&gt;DiodeReceiver -->
<g id="edge6" class="edge">
<title>DiodeSender&#45;&gt;DiodeReceiver</title>
<path fill="none" stroke="#d9d9d9" d="M283.6572,-459.9398C283.6572,-447.9194 283.6572,-433.8405 283.6572,-420.9491"/>
<polygon fill="#d9d9d9" stroke="#d9d9d9" points="287.1573,-420.9271 283.6572,-410.9271 280.1573,-420.9272 287.1573,-420.9271"/>
<text text-anchor="middle" x="273.4572" y="-431.8156" font-family="Times,serif" font-size="12.00" fill="#666666">UDP &#160;&#160;&#160;</text>
</g>
<!-- Agent -->
<g id="node8" class="node">
<title>Agent</title>
<ellipse fill="#ffffff" stroke="#d3d3d3" cx="283.6572" cy="-257.4156" rx="74.3117" ry="41.0911"/>
<text text-anchor="middle" x="283.6572" y="-270.0156" font-family="Times,serif" font-size="14.00" fill="#000000">MTConnect</text>
<text text-anchor="middle" x="283.6572" y="-253.2156" font-family="Times,serif" font-size="14.00" fill="#000000">Agent</text>
<text text-anchor="middle" x="283.6572" y="-236.4156" font-family="Times,serif" font-size="14.00" fill="#000000">(C++/cppagent)</text>
</g>
<!-- DiodeReceiver&#45;&gt;Agent -->
<g id="edge7" class="edge">
<title>DiodeReceiver&#45;&gt;Agent</title>
<path fill="none" stroke="#d9d9d9" d="M283.6572,-351.8364C283.6572,-339.1324 283.6572,-323.9014 283.6572,-309.418"/>
<polygon fill="#d9d9d9" stroke="#d9d9d9" points="287.1573,-309.0508 283.6572,-299.0508 280.1573,-309.0508 287.1573,-309.0508"/>
<text text-anchor="middle" x="266.2572" y="-328.9553" font-family="Times,serif" font-size="12.00" fill="#666666">SHDR / &#160;&#160;</text>
<text text-anchor="middle" x="266.2572" y="-314.5553" font-family="Times,serif" font-size="12.00" fill="#666666">TCP &#160;</text>
</g>
<!-- Application -->
<g id="node9" class="node">
<title>Application</title>
<ellipse fill="#ffffff" stroke="#d3d3d3" cx="559.0942" cy="-257.4156" rx="59.3044" ry="41.0911"/>
<text text-anchor="middle" x="559.0942" y="-270.0156" font-family="Times,serif" font-size="14.00" fill="#000000">MTConnect</text>
<text text-anchor="middle" x="559.0942" y="-253.2156" font-family="Times,serif" font-size="14.00" fill="#000000">Application</text>
<text text-anchor="middle" x="559.0942" y="-236.4156" font-family="Times,serif" font-size="14.00" fill="#000000">(NodeJS)</text>
</g>
<!-- Agent&#45;&gt;Application -->
<g id="edge8" class="edge">
<title>Agent&#45;&gt;Application</title>
<path fill="none" stroke="#d9d9d9" d="M367.9063,-257.4156C406.8271,-257.4156 452.4929,-257.4156 489.4327,-257.4156"/>
<polygon fill="#d9d9d9" stroke="#d9d9d9" points="367.8316,-253.9157 357.8316,-257.4156 367.8316,-260.9157 367.8316,-253.9157"/>
<polygon fill="#d9d9d9" stroke="#d9d9d9" points="489.6074,-260.9157 499.6073,-257.4156 489.6073,-253.9157 489.6074,-260.9157"/>
<text text-anchor="middle" x="406.5745" y="-275.4156" font-family="Times,serif" font-size="12.00" fill="#666666">XML / &#160;</text>
<text text-anchor="middle" x="406.5745" y="-261.0156" font-family="Times,serif" font-size="12.00" fill="#666666">HTTP 5000 &#160;</text>
</g>
<!-- Database -->
<g id="node10" class="node">
<title>Database</title>
<ellipse fill="#ffffff" stroke="#d3d3d3" cx="559.0942" cy="-137.4156" rx="113.0442" ry="29.3315"/>
<text text-anchor="middle" x="559.0942" y="-141.6156" font-family="Times,serif" font-size="14.00" fill="#000000">Database</text>
<text text-anchor="middle" x="559.0942" y="-124.8156" font-family="Times,serif" font-size="14.00" fill="#000000">(InfluxDB/TimescaleDB)</text>
</g>
<!-- Application&#45;&gt;Database -->
<g id="edge9" class="edge">
<title>Application&#45;&gt;Database</title>
<path fill="none" stroke="#d9d9d9" d="M559.0942,-205.7729C559.0942,-196.2848 559.0942,-186.7966 559.0942,-177.3085"/>
<polygon fill="#d9d9d9" stroke="#d9d9d9" points="555.5943,-206.0686 559.0942,-216.0686 562.5943,-206.0686 555.5943,-206.0686"/>
<polygon fill="#d9d9d9" stroke="#d9d9d9" points="562.5943,-176.9469 559.0942,-166.9469 555.5943,-176.9469 562.5943,-176.9469"/>
</g>
<!-- Visualizer -->
<g id="node11" class="node">
<title>Visualizer</title>
<ellipse fill="#ffffff" stroke="#d3d3d3" cx="559.0942" cy="-29.4156" rx="86.7286" ry="29.3315"/>
<text text-anchor="middle" x="559.0942" y="-33.6156" font-family="Times,serif" font-size="14.00" fill="#000000">Visualizer</text>
<text text-anchor="middle" x="559.0942" y="-16.8156" font-family="Times,serif" font-size="14.00" fill="#000000">(Grafana/Superset)</text>
</g>
<!-- Database&#45;&gt;Visualizer -->
<g id="edge10" class="edge">
<title>Database&#45;&gt;Visualizer</title>
<path fill="none" stroke="#d9d9d9" d="M559.0942,-97.7107C559.0942,-88.2378 559.0942,-78.7648 559.0942,-69.2919"/>
<polygon fill="#d9d9d9" stroke="#d9d9d9" points="555.5943,-97.9898 559.0942,-107.9899 562.5943,-97.9899 555.5943,-97.9898"/>
<polygon fill="#d9d9d9" stroke="#d9d9d9" points="562.5943,-68.9469 559.0942,-58.9469 555.5943,-68.9469 562.5943,-68.9469"/>
</g>
<!-- Cloud -->
<g id="node12" class="node">
<title>Cloud</title>
<ellipse fill="#ffffff" stroke="#d3d3d3" cx="757.3452" cy="-137.4156" rx="68.4585" ry="29.3315"/>
<text text-anchor="middle" x="757.3452" y="-141.6156" font-family="Times,serif" font-size="14.00" fill="#000000">Cloud Storage</text>
<text text-anchor="middle" x="757.3452" y="-124.8156" font-family="Times,serif" font-size="14.00" fill="#000000">(AWS/GCP)</text>
</g>
<!-- Database&#45;&gt;Cloud -->
<g id="edge11" class="edge">
<title>Database&#45;&gt;Cloud</title>
<path fill="none" stroke="#d9d9d9" d="M672.1183,-137.4156C674.3602,-137.4156 676.5923,-137.4156 678.8101,-137.4156"/>
<polygon fill="#d9d9d9" stroke="#d9d9d9" points="679.0664,-140.9157 689.0664,-137.4156 679.0663,-133.9157 679.0664,-140.9157"/>
</g>
<!-- Admin -->
<g id="node13" class="node">
<title>Admin</title>
<ellipse fill="#ffffe0" stroke="#d3d3d3" cx="757.3452" cy="-29.4156" rx="37.7217" ry="18"/>
<text text-anchor="middle" x="757.3452" y="-25.2156" font-family="Times,serif" font-size="14.00" fill="#000000">Admin</text>
</g>
<!-- Visualizer&#45;&gt;Admin -->
<g id="edge12" class="edge">
<title>Visualizer&#45;&gt;Admin</title>
<path fill="none" stroke="#d9d9d9" d="M656.0591,-29.4156C674.4925,-29.4156 693.0256,-29.4156 709.107,-29.4156"/>
<polygon fill="#d9d9d9" stroke="#d9d9d9" points="655.7616,-25.9157 645.7615,-29.4156 655.7615,-32.9157 655.7616,-25.9157"/>
<polygon fill="#d9d9d9" stroke="#d9d9d9" points="709.295,-32.9157 719.295,-29.4156 709.2949,-25.9157 709.295,-32.9157"/>
</g>
</g>
</svg>
