<?xml version="1.0" encoding="UTF-8" standalone="no"?>
<!DOCTYPE svg PUBLIC "-//W3C//DTD SVG 1.1//EN"
 "http://www.w3.org/Graphics/SVG/1.1/DTD/svg11.dtd">
<!-- Generated by graphviz version 2.40.1 (20161225.0304)
 -->
<!-- Title: ladder99&#45;adapter Pages: 1 -->
<svg width="1678pt" height="289pt"
 viewBox="0.00 0.00 1677.66 289.22" xmlns="http://www.w3.org/2000/svg" xmlns:xlink="http://www.w3.org/1999/xlink">
<g id="graph0" class="graph" transform="scale(1 1) rotate(0) translate(4 285.2156)">
<title>ladder99&#45;adapter</title>
<polygon fill="#ffffff" stroke="transparent" points="-4,4 -4,-285.2156 1673.6583,-285.2156 1673.6583,4 -4,4"/>
<text text-anchor="middle" x="834.8291" y="-8.2" font-family="Times,serif" font-size="14.00" fill="#000000">Ladder99 MTConnect data flow</text>
<g id="clust1" class="cluster">
<title>cluster1a</title>
<polygon fill="none" stroke="#d3d3d3" points="276.2705,-89.2156 276.2705,-166.2156 370.7594,-166.2156 370.7594,-89.2156 276.2705,-89.2156"/>
<text text-anchor="middle" x="323.515" y="-149.6156" font-family="Times,serif" font-size="14.00" fill="#000000">New Machine</text>
</g>
<g id="clust2" class="cluster">
<title>cluster1b</title>
<polygon fill="none" stroke="#d3d3d3" points="1,-185.2156 1,-262.2156 89.4889,-262.2156 89.4889,-185.2156 1,-185.2156"/>
<text text-anchor="middle" x="45.2444" y="-245.6156" font-family="Times,serif" font-size="14.00" fill="#000000">Old Machine</text>
</g>
<g id="clust3" class="cluster">
<title>cluster2</title>
<polygon fill="none" stroke="#d3d3d3" points="156.1453,-174.2156 156.1453,-273.2156 958.9335,-273.2156 958.9335,-174.2156 156.1453,-174.2156"/>
<text text-anchor="middle" x="557.5394" y="-256.6156" font-family="Times,serif" font-size="14.00" fill="#000000">Raspberry Pi 1</text>
</g>
<g id="clust4" class="cluster">
<title>cluster4</title>
<polygon fill="none" stroke="#d3d3d3" points="1013.9279,-44.2156 1013.9279,-273.2156 1504.2005,-273.2156 1504.2005,-44.2156 1013.9279,-44.2156"/>
<text text-anchor="middle" x="1259.0642" y="-256.6156" font-family="Times,serif" font-size="14.00" fill="#000000">Raspberry Pi 2</text>
</g>
<!-- Device2 -->
<g id="node1" class="node">
<title>Device2</title>
<ellipse fill="#e6e6fa" stroke="#d3d3d3" cx="44.7444" cy="-211.2156" rx="28.991" ry="18"/>
<text text-anchor="middle" x="44.7444" y="-207.0156" font-family="Times,serif" font-size="14.00" fill="#000000">PLC</text>
</g>
<!-- PLC4X -->
<g id="node3" class="node">
<title>PLC4X</title>
<ellipse fill="#adff2f" stroke="#d3d3d3" cx="205.7079" cy="-211.2156" rx="41.6253" ry="29.3315"/>
<text text-anchor="middle" x="205.7079" y="-215.4156" font-family="Times,serif" font-size="14.00" fill="#000000">PLC4X</text>
<text text-anchor="middle" x="205.7079" y="-198.6156" font-family="Times,serif" font-size="14.00" fill="#000000">(Java)</text>
</g>
<!-- Device2&#45;&gt;PLC4X -->
<g id="edge2" class="edge">
<title>Device2&#45;&gt;PLC4X</title>
<path fill="none" stroke="#d3d3d3" d="M73.5215,-211.2156C95.7143,-211.2156 127.0034,-211.2156 153.5691,-211.2156"/>
<polygon fill="#d3d3d3" stroke="#d3d3d3" points="153.8664,-214.7157 163.8663,-211.2156 153.8663,-207.7157 153.8664,-214.7157"/>
<text text-anchor="middle" x="122.8171" y="-232.2156" font-family="Times,serif" font-size="14.00" fill="#c0c0c0">native</text>
<text text-anchor="middle" x="122.8171" y="-215.4156" font-family="Times,serif" font-size="14.00" fill="#c0c0c0">protocol</text>
</g>
<!-- Device1 -->
<g id="node2" class="node">
<title>Device1</title>
<ellipse fill="#e6e6fa" stroke="#d3d3d3" cx="323.015" cy="-115.2156" rx="28.991" ry="18"/>
<text text-anchor="middle" x="323.015" y="-111.0156" font-family="Times,serif" font-size="14.00" fill="#000000">PLC</text>
</g>
<!-- Adapter -->
<g id="node4" class="node">
<title>Adapter</title>
<ellipse fill="#add8e6" stroke="#d3d3d3" cx="487.114" cy="-211.2156" rx="48.8971" ry="29.3315"/>
<text text-anchor="middle" x="487.114" y="-215.4156" font-family="Times,serif" font-size="14.00" fill="#000000">Adapter</text>
<text text-anchor="middle" x="487.114" y="-198.6156" font-family="Times,serif" font-size="14.00" fill="#000000">(NodeJS)</text>
</g>
<!-- Device1&#45;&gt;Adapter -->
<g id="edge1" class="edge">
<title>Device1&#45;&gt;Adapter</title>
<path fill="none" stroke="#d3d3d3" d="M345.3019,-126.888C365.1993,-137.4378 395.0325,-153.5741 420.4158,-168.6156 428.6624,-173.5024 437.3677,-178.8894 445.6694,-184.1412"/>
<polygon fill="#d3d3d3" stroke="#d3d3d3" points="443.8242,-187.1156 454.1383,-189.5385 447.5863,-181.2125 443.8242,-187.1156"/>
<text text-anchor="middle" x="400.5876" y="-189.2156" font-family="Times,serif" font-size="14.00" fill="#c0c0c0">JSON/</text>
<text text-anchor="middle" x="400.5876" y="-172.4156" font-family="Times,serif" font-size="14.00" fill="#c0c0c0">MQTT</text>
</g>
<!-- PLC4X&#45;&gt;Adapter -->
<g id="edge3" class="edge">
<title>PLC4X&#45;&gt;Adapter</title>
<path fill="none" stroke="#d3d3d3" d="M247.5334,-211.2156C295.2873,-211.2156 373.7676,-211.2156 427.8173,-211.2156"/>
<polygon fill="#d3d3d3" stroke="#d3d3d3" points="427.9485,-214.7157 437.9484,-211.2156 427.9484,-207.7157 427.9485,-214.7157"/>
<text text-anchor="middle" x="323.015" y="-232.2156" font-family="Times,serif" font-size="14.00" fill="#c0c0c0">JSON/</text>
<text text-anchor="middle" x="323.015" y="-215.4156" font-family="Times,serif" font-size="14.00" fill="#c0c0c0">MQTT</text>
</g>
<!-- Receiver -->
<g id="node5" class="node">
<title>Receiver</title>
<ellipse fill="#ffffff" stroke="#d3d3d3" cx="707.7014" cy="-211.2156" rx="56.833" ry="29.3315"/>
<text text-anchor="middle" x="707.7014" y="-215.4156" font-family="Times,serif" font-size="14.00" fill="#000000">Data Diode</text>
<text text-anchor="middle" x="707.7014" y="-198.6156" font-family="Times,serif" font-size="14.00" fill="#000000">(NodeJS)</text>
</g>
<!-- Adapter&#45;&gt;Receiver -->
<g id="edge4" class="edge">
<title>Adapter&#45;&gt;Receiver</title>
<path fill="none" stroke="#d3d3d3" d="M536.0695,-211.2156C566.7819,-211.2156 606.7986,-211.2156 640.4657,-211.2156"/>
<polygon fill="#d3d3d3" stroke="#d3d3d3" points="640.693,-214.7157 650.693,-211.2156 640.6929,-207.7157 640.693,-214.7157"/>
<text text-anchor="middle" x="593.4236" y="-232.2156" font-family="Times,serif" font-size="14.00" fill="#c0c0c0">SHDR/</text>
<text text-anchor="middle" x="593.4236" y="-215.4156" font-family="Times,serif" font-size="14.00" fill="#c0c0c0">UDP</text>
</g>
<!-- Agent -->
<g id="node6" class="node">
<title>Agent</title>
<ellipse fill="#add8e6" stroke="#d3d3d3" cx="915.2621" cy="-211.2156" rx="35.8437" ry="29.3315"/>
<text text-anchor="middle" x="915.2621" y="-215.4156" font-family="Times,serif" font-size="14.00" fill="#000000">Agent</text>
<text text-anchor="middle" x="915.2621" y="-198.6156" font-family="Times,serif" font-size="14.00" fill="#000000">(C++)</text>
</g>
<!-- Receiver&#45;&gt;Agent -->
<g id="edge5" class="edge">
<title>Receiver&#45;&gt;Agent</title>
<path fill="none" stroke="#d3d3d3" d="M764.4183,-211.2156C797.4169,-211.2156 838.4695,-211.2156 869.4126,-211.2156"/>
<polygon fill="#d3d3d3" stroke="#d3d3d3" points="869.4926,-214.7157 879.4925,-211.2156 869.4925,-207.7157 869.4926,-214.7157"/>
<text text-anchor="middle" x="821.9792" y="-232.2156" font-family="Times,serif" font-size="14.00" fill="#c0c0c0">SHDR/</text>
<text text-anchor="middle" x="821.9792" y="-215.4156" font-family="Times,serif" font-size="14.00" fill="#c0c0c0">TCP</text>
</g>
<!-- Application -->
<g id="node7" class="node">
<title>Application</title>
<ellipse fill="#add8e6" stroke="#d3d3d3" cx="1134.95" cy="-211.2156" rx="58.1044" ry="29.3315"/>
<text text-anchor="middle" x="1134.95" y="-215.4156" font-family="Times,serif" font-size="14.00" fill="#000000">Application</text>
<text text-anchor="middle" x="1134.95" y="-198.6156" font-family="Times,serif" font-size="14.00" fill="#000000">(NodeJS)</text>
</g>
<!-- Agent&#45;&gt;Application -->
<g id="edge6" class="edge">
<title>Agent&#45;&gt;Application</title>
<path fill="none" stroke="#d3d3d3" d="M951.0477,-211.2156C982.2986,-211.2156 1028.5195,-211.2156 1066.8042,-211.2156"/>
<polygon fill="#d3d3d3" stroke="#d3d3d3" points="1066.8613,-214.7157 1076.8613,-211.2156 1066.8613,-207.7157 1066.8613,-214.7157"/>
<text text-anchor="middle" x="986.4307" y="-232.2156" font-family="Times,serif" font-size="14.00" fill="#c0c0c0">XML/</text>
<text text-anchor="middle" x="986.4307" y="-215.4156" font-family="Times,serif" font-size="14.00" fill="#c0c0c0">HTTP</text>
</g>
<!-- LOI -->
<g id="node8" class="node">
<title>LOI</title>
<ellipse fill="#add8e6" stroke="#d3d3d3" cx="1409.5863" cy="-211.2156" rx="52.0032" ry="29.3315"/>
<text text-anchor="middle" x="1409.5863" y="-215.4156" font-family="Times,serif" font-size="14.00" fill="#000000">LOI</text>
<text text-anchor="middle" x="1409.5863" y="-198.6156" font-family="Times,serif" font-size="14.00" fill="#000000">(SvelteJS)</text>
</g>
<!-- Application&#45;&gt;LOI -->
<g id="edge10" class="edge">
<title>Application&#45;&gt;LOI</title>
<path fill="none" stroke="#d3d3d3" d="M1193.1933,-211.2156C1238.426,-211.2156 1301.0233,-211.2156 1347.2596,-211.2156"/>
<polygon fill="#d3d3d3" stroke="#d3d3d3" points="1347.4549,-214.7157 1357.4549,-211.2156 1347.4548,-207.7157 1347.4549,-214.7157"/>
</g>
<!-- Database -->
<g id="node9" class="node">
<title>Database</title>
<ellipse fill="#add8e6" stroke="#d3d3d3" cx="1134.95" cy="-81.2156" rx="113.0442" ry="29.3315"/>
<text text-anchor="middle" x="1134.95" y="-85.4156" font-family="Times,serif" font-size="14.00" fill="#000000">Database</text>
<text text-anchor="middle" x="1134.95" y="-68.6156" font-family="Times,serif" font-size="14.00" fill="#000000">(InfluxDB/TimescaleDB)</text>
</g>
<!-- Application&#45;&gt;Database -->
<g id="edge7" class="edge">
<title>Application&#45;&gt;Database</title>
<path fill="none" stroke="#d3d3d3" d="M1134.95,-181.7585C1134.95,-161.4869 1134.95,-141.2152 1134.95,-120.9435"/>
<polygon fill="#d3d3d3" stroke="#d3d3d3" points="1138.4501,-120.6687 1134.95,-110.6688 1131.4501,-120.6688 1138.4501,-120.6687"/>
</g>
<!-- Operator -->
<g id="node12" class="node">
<title>Operator</title>
<ellipse fill="#ffffe0" stroke="#d3d3d3" cx="1601.4294" cy="-211.2156" rx="45.2035" ry="18"/>
<text text-anchor="middle" x="1601.4294" y="-207.0156" font-family="Times,serif" font-size="14.00" fill="#000000">Operator</text>
</g>
<!-- LOI&#45;&gt;Operator -->
<g id="edge11" class="edge">
<title>LOI&#45;&gt;Operator</title>
<path fill="none" stroke="#d3d3d3" d="M1461.7549,-211.2156C1487.7121,-211.2156 1519.1096,-211.2156 1545.5564,-211.2156"/>
<polygon fill="#d3d3d3" stroke="#d3d3d3" points="1545.8023,-214.7157 1555.8023,-211.2156 1545.8023,-207.7157 1545.8023,-214.7157"/>
</g>
<!-- Visualizer -->
<g id="node10" class="node">
<title>Visualizer</title>
<ellipse fill="#add8e6" stroke="#d3d3d3" cx="1409.5863" cy="-115.2156" rx="86.7286" ry="29.3315"/>
<text text-anchor="middle" x="1409.5863" y="-119.4156" font-family="Times,serif" font-size="14.00" fill="#000000">Visualizer</text>
<text text-anchor="middle" x="1409.5863" y="-102.6156" font-family="Times,serif" font-size="14.00" fill="#000000">(Grafana/Superset)</text>
</g>
<!-- Database&#45;&gt;Visualizer -->
<g id="edge8" class="edge">
<title>Database&#45;&gt;Visualizer</title>
<path fill="none" stroke="#d3d3d3" d="M1237.2144,-93.876C1263.6027,-97.1429 1291.8419,-100.6389 1317.6671,-103.836"/>
<polygon fill="#d3d3d3" stroke="#d3d3d3" points="1317.4596,-107.337 1327.8139,-105.0922 1318.3197,-100.39 1317.4596,-107.337"/>
</g>
<!-- Cloud -->
<g id="node11" class="node">
<title>Cloud</title>
<ellipse fill="#ffffff" stroke="#d3d3d3" cx="1601.4294" cy="-54.2156" rx="68.4585" ry="29.3315"/>
<text text-anchor="middle" x="1601.4294" y="-58.4156" font-family="Times,serif" font-size="14.00" fill="#000000">Cloud Storage</text>
<text text-anchor="middle" x="1601.4294" y="-41.6156" font-family="Times,serif" font-size="14.00" fill="#000000">(AWS/GCP)</text>
</g>
<!-- Database&#45;&gt;Cloud -->
<g id="edge9" class="edge">
<title>Database&#45;&gt;Cloud</title>
<path fill="none" stroke="#d3d3d3" d="M1245.4991,-74.817C1331.1039,-69.8622 1447.5338,-63.1232 1523.5627,-58.7226"/>
<polygon fill="#d3d3d3" stroke="#d3d3d3" points="1523.7715,-62.2165 1533.5525,-58.1444 1523.367,-55.2282 1523.7715,-62.2165"/>
</g>
<!-- Admin -->
<g id="node13" class="node">
<title>Admin</title>
<ellipse fill="#ffffe0" stroke="#d3d3d3" cx="1601.4294" cy="-119.2156" rx="37.7217" ry="18"/>
<text text-anchor="middle" x="1601.4294" y="-115.0156" font-family="Times,serif" font-size="14.00" fill="#000000">Admin</text>
</g>
<!-- Visualizer&#45;&gt;Admin -->
<g id="edge12" class="edge">
<title>Visualizer&#45;&gt;Admin</title>
<path fill="none" stroke="#d3d3d3" d="M1496.247,-117.0226C1515.6533,-117.4272 1535.57,-117.8424 1552.7797,-118.2013"/>
<polygon fill="#d3d3d3" stroke="#d3d3d3" points="1553.0459,-121.7075 1563.1167,-118.4168 1553.1919,-114.709 1553.0459,-121.7075"/>
</g>
</g>
</svg>
