<?xml version="1.0" encoding="UTF-8" standalone="no"?>
<!DOCTYPE svg PUBLIC "-//W3C//DTD SVG 1.1//EN"
 "http://www.w3.org/Graphics/SVG/1.1/DTD/svg11.dtd">
<!-- Generated by graphviz version 2.40.1 (20161225.0304)
 -->
<!-- Title: ladder99&#45;adapter Pages: 1 -->
<svg width="1043pt" height="779pt"
 viewBox="0.00 0.00 1042.75 778.59" xmlns="http://www.w3.org/2000/svg" xmlns:xlink="http://www.w3.org/1999/xlink">
<g id="graph0" class="graph" transform="scale(1 1) rotate(0) translate(4 774.5901)">
<title>ladder99&#45;adapter</title>
<polygon fill="#ffffff" stroke="transparent" points="-4,4 -4,-774.5901 1038.7548,-774.5901 1038.7548,4 -4,4"/>
<text text-anchor="middle" x="517.3774" y="-748.5901" font-family="Times,serif" font-size="20.00" fill="#000000">Ladder99 MTConnect data flow</text>
<text text-anchor="middle" x="517.3774" y="-724.5901" font-family="Times,serif" font-size="20.00" fill="#000000"> </text>
<!-- OldMachine -->
<g id="node1" class="node">
<title>OldMachine</title>
<ellipse fill="#e6e6fa" stroke="#c0c0c0" cx="61.7191" cy="-674.295" rx="61.9389" ry="18"/>
<text text-anchor="middle" x="61.7191" y="-670.095" font-family="Times,serif" font-size="14.00" fill="#000000">Old Machine</text>
</g>
<!-- PLC4X -->
<g id="node3" class="node">
<title>PLC4X</title>
<ellipse fill="#ffffff" stroke="#c0c0c0" cx="258.2107" cy="-674.295" rx="41.6253" ry="29.3315"/>
<text text-anchor="middle" x="258.2107" y="-678.495" font-family="Times,serif" font-size="14.00" fill="#000000">PLC4X</text>
<text text-anchor="middle" x="258.2107" y="-661.695" font-family="Times,serif" font-size="14.00" fill="#000000">(Java)</text>
</g>
<!-- OldMachine&#45;&gt;PLC4X -->
<g id="edge1" class="edge">
<title>OldMachine&#45;&gt;PLC4X</title>
<path fill="none" stroke="#c0c0c0" d="M123.6205,-674.295C150.2164,-674.295 180.9487,-674.295 206.3262,-674.295"/>
<polygon fill="#c0c0c0" stroke="#c0c0c0" points="206.4859,-677.7951 216.4859,-674.295 206.4858,-670.7951 206.4859,-677.7951"/>
<text text-anchor="middle" x="158.0919" y="-692.295" font-family="Times,serif" font-size="12.00" fill="#4d4d4d">proprietary</text>
<text text-anchor="middle" x="158.0919" y="-677.895" font-family="Times,serif" font-size="12.00" fill="#4d4d4d">protocol</text>
</g>
<!-- NewMachine -->
<g id="node2" class="node">
<title>NewMachine</title>
<ellipse fill="#e6e6fa" stroke="#c0c0c0" cx="258.2107" cy="-398.295" rx="65.43" ry="18"/>
<text text-anchor="middle" x="258.2107" y="-394.095" font-family="Times,serif" font-size="14.00" fill="#000000">New Machine</text>
</g>
<!-- Broker2 -->
<g id="node5" class="node">
<title>Broker2</title>
<ellipse fill="#ffffff" stroke="#c0c0c0" cx="461.7207" cy="-398.295" rx="76.9837" ry="29.3315"/>
<text text-anchor="middle" x="461.7207" y="-402.495" font-family="Times,serif" font-size="14.00" fill="#000000">MQTT Broker 2</text>
<text text-anchor="middle" x="461.7207" y="-385.695" font-family="Times,serif" font-size="14.00" fill="#000000">(Mosquitto)</text>
</g>
<!-- NewMachine&#45;&gt;Broker2 -->
<g id="edge3" class="edge">
<title>NewMachine&#45;&gt;Broker2</title>
<path fill="none" stroke="#c0c0c0" d="M323.7227,-398.295C339.7923,-398.295 357.2491,-398.295 374.1712,-398.295"/>
<polygon fill="#c0c0c0" stroke="#c0c0c0" points="374.6214,-401.7951 384.6214,-398.295 374.6213,-394.7951 374.6214,-401.7951"/>
<text text-anchor="middle" x="354.3275" y="-416.295" font-family="Times,serif" font-size="12.00" fill="#4d4d4d">JSON / </text>
<text text-anchor="middle" x="354.3275" y="-401.895" font-family="Times,serif" font-size="12.00" fill="#4d4d4d">MQTT</text>
</g>
<!-- Broker1 -->
<g id="node4" class="node">
<title>Broker1</title>
<ellipse fill="#ffffff" stroke="#c0c0c0" cx="461.7207" cy="-674.295" rx="76.9837" ry="29.3315"/>
<text text-anchor="middle" x="461.7207" y="-678.495" font-family="Times,serif" font-size="14.00" fill="#000000">MQTT Broker 1</text>
<text text-anchor="middle" x="461.7207" y="-661.695" font-family="Times,serif" font-size="14.00" fill="#000000">(Mosquitto)</text>
</g>
<!-- PLC4X&#45;&gt;Broker1 -->
<g id="edge2" class="edge">
<title>PLC4X&#45;&gt;Broker1</title>
<path fill="none" stroke="#c0c0c0" d="M299.8851,-674.295C321.4438,-674.295 348.6083,-674.295 374.4925,-674.295"/>
<polygon fill="#c0c0c0" stroke="#c0c0c0" points="374.7166,-677.7951 384.7166,-674.295 374.7165,-670.7951 374.7166,-677.7951"/>
<text text-anchor="middle" x="354.3275" y="-692.295" font-family="Times,serif" font-size="12.00" fill="#4d4d4d">JSON / </text>
<text text-anchor="middle" x="354.3275" y="-677.895" font-family="Times,serif" font-size="12.00" fill="#4d4d4d">MQTT</text>
</g>
<!-- Adapter1 -->
<g id="node6" class="node">
<title>Adapter1</title>
<ellipse fill="#ffffff" stroke="#c0c0c0" cx="716.6822" cy="-673.295" rx="59.3044" ry="41.0911"/>
<text text-anchor="middle" x="716.6822" y="-685.895" font-family="Times,serif" font-size="14.00" fill="#000000">MTConnect</text>
<text text-anchor="middle" x="716.6822" y="-669.095" font-family="Times,serif" font-size="14.00" fill="#000000">Adapter 1</text>
<text text-anchor="middle" x="716.6822" y="-652.295" font-family="Times,serif" font-size="14.00" fill="#000000">(NodeJS)</text>
</g>
<!-- Broker1&#45;&gt;Adapter1 -->
<g id="edge4" class="edge">
<title>Broker1&#45;&gt;Adapter1</title>
<path fill="none" stroke="#c0c0c0" d="M538.5633,-673.9936C573.1117,-673.8581 613.5849,-673.6994 647.2128,-673.5675"/>
<polygon fill="#c0c0c0" stroke="#c0c0c0" points="647.429,-677.0668 657.4151,-673.5275 647.4015,-670.0668 647.429,-677.0668"/>
<text text-anchor="middle" x="593.4578" y="-691.295" font-family="Times,serif" font-size="12.00" fill="#4d4d4d">JSON / &#160;&#160;&#160;</text>
<text text-anchor="middle" x="593.4578" y="-676.895" font-family="Times,serif" font-size="12.00" fill="#4d4d4d">MQTT 1883 &#160;&#160;&#160;&#160;&#160;&#160;&#160;&#160;&#160;&#160;</text>
</g>
<!-- Adapter2 -->
<g id="node7" class="node">
<title>Adapter2</title>
<ellipse fill="#ffffff" stroke="#c0c0c0" cx="716.6822" cy="-440.295" rx="59.3044" ry="41.0911"/>
<text text-anchor="middle" x="716.6822" y="-452.895" font-family="Times,serif" font-size="14.00" fill="#000000">MTConnect</text>
<text text-anchor="middle" x="716.6822" y="-436.095" font-family="Times,serif" font-size="14.00" fill="#000000">Adapter 2</text>
<text text-anchor="middle" x="716.6822" y="-419.295" font-family="Times,serif" font-size="14.00" fill="#000000">(NodeJS)</text>
</g>
<!-- Broker2&#45;&gt;Adapter2 -->
<g id="edge5" class="edge">
<title>Broker2&#45;&gt;Adapter2</title>
<path fill="none" stroke="#c0c0c0" d="M538.4112,-401.267C570.2346,-403.5264 607.3791,-407.5018 640.4534,-414.495 645.0796,-415.4732 649.8149,-416.6437 654.5496,-417.9385"/>
<polygon fill="#c0c0c0" stroke="#c0c0c0" points="653.653,-421.3226 664.2323,-420.7491 655.6044,-414.6001 653.653,-421.3226"/>
<text text-anchor="middle" x="593.4578" y="-432.295" font-family="Times,serif" font-size="12.00" fill="#4d4d4d">JSON / &#160;&#160;&#160;</text>
<text text-anchor="middle" x="593.4578" y="-417.895" font-family="Times,serif" font-size="12.00" fill="#4d4d4d">MQTT 1883 &#160;&#160;&#160;&#160;&#160;&#160;&#160;&#160;&#160;&#160;</text>
</g>
<!-- DiodeSender -->
<g id="node12" class="node">
<title>DiodeSender</title>
<ellipse fill="#ffffff" stroke="#c0c0c0" cx="951.3352" cy="-673.295" rx="83.3394" ry="29.3315"/>
<text text-anchor="middle" x="951.3352" y="-677.495" font-family="Times,serif" font-size="14.00" fill="#000000">Diode Sender</text>
<text text-anchor="middle" x="951.3352" y="-660.695" font-family="Times,serif" font-size="14.00" fill="#000000">(Java+RabbitMQ)</text>
</g>
<!-- Adapter1&#45;&gt;DiodeSender -->
<g id="edge6" class="edge">
<title>Adapter1&#45;&gt;DiodeSender</title>
<path fill="none" stroke="#c0c0c0" d="M775.8951,-673.295C800.6836,-673.295 830.1024,-673.295 857.697,-673.295"/>
<polygon fill="#c0c0c0" stroke="#c0c0c0" points="857.769,-676.7951 867.7689,-673.295 857.7689,-669.7951 857.769,-676.7951"/>
<text text-anchor="middle" x="826.4133" y="-691.295" font-family="Times,serif" font-size="12.00" fill="#4d4d4d">SHDR / &#160;&#160;</text>
<text text-anchor="middle" x="826.4133" y="-676.895" font-family="Times,serif" font-size="12.00" fill="#4d4d4d">TCP 7878 &#160;&#160;&#160;&#160;&#160;</text>
</g>
<!-- Agent -->
<g id="node14" class="node">
<title>Agent</title>
<ellipse fill="#ffffff" stroke="#c0c0c0" cx="951.3352" cy="-441.295" rx="74.3117" ry="41.0911"/>
<text text-anchor="middle" x="951.3352" y="-453.895" font-family="Times,serif" font-size="14.00" fill="#000000">MTConnect</text>
<text text-anchor="middle" x="951.3352" y="-437.095" font-family="Times,serif" font-size="14.00" fill="#000000">Agent</text>
<text text-anchor="middle" x="951.3352" y="-420.295" font-family="Times,serif" font-size="14.00" fill="#000000">(C++/cppagent)</text>
</g>
<!-- Adapter2&#45;&gt;Agent -->
<g id="edge7" class="edge">
<title>Adapter2&#45;&gt;Agent</title>
<path fill="none" stroke="#c0c0c0" d="M775.8951,-440.5474C803.4627,-440.6649 836.7568,-440.8067 866.9,-440.9352"/>
<polygon fill="#c0c0c0" stroke="#c0c0c0" points="866.9739,-444.4355 876.9888,-440.9782 867.0038,-437.4355 866.9739,-444.4355"/>
<text text-anchor="middle" x="826.4133" y="-458.295" font-family="Times,serif" font-size="12.00" fill="#4d4d4d">SHDR / &#160;&#160;</text>
<text text-anchor="middle" x="826.4133" y="-443.895" font-family="Times,serif" font-size="12.00" fill="#4d4d4d">TCP 7878 &#160;&#160;&#160;&#160;&#160;</text>
</g>
<!-- Device1Yaml -->
<g id="node8" class="node">
<title>Device1Yaml</title>
<ellipse fill="#ffffff" stroke="#c0c0c0" cx="258.2107" cy="-573.295" rx="62.5826" ry="18"/>
<text text-anchor="middle" x="258.2107" y="-569.095" font-family="Times,serif" font-size="14.00" fill="#000000">device1.yaml</text>
</g>
<!-- Device1Js -->
<g id="node9" class="node">
<title>Device1Js</title>
<ellipse fill="#ffffff" stroke="#c0c0c0" cx="461.7207" cy="-602.295" rx="49.8386" ry="18"/>
<text text-anchor="middle" x="461.7207" y="-598.095" font-family="Times,serif" font-size="14.00" fill="#000000">device1.js</text>
</g>
<!-- Device1Yaml&#45;&gt;Device1Js -->
<g id="edge8" class="edge">
<title>Device1Yaml&#45;&gt;Device1Js</title>
<path fill="none" stroke="#c0c0c0" d="M314.6293,-581.3346C342.8114,-585.3506 376.8256,-590.1976 405.0433,-594.2186"/>
<polygon fill="#c0c0c0" stroke="#c0c0c0" points="404.7617,-597.7137 415.1555,-595.6595 405.7493,-590.7837 404.7617,-597.7137"/>
<text text-anchor="middle" x="354.3275" y="-592.895" font-family="Times,serif" font-size="12.00" fill="#4d4d4d">generates</text>
</g>
<!-- DevicesXml -->
<g id="node15" class="node">
<title>DevicesXml</title>
<ellipse fill="#ffffff" stroke="#c0c0c0" cx="461.7207" cy="-531.295" rx="57.3628" ry="18"/>
<text text-anchor="middle" x="461.7207" y="-527.095" font-family="Times,serif" font-size="14.00" fill="#000000">devices.xml</text>
</g>
<!-- Device1Yaml&#45;&gt;DevicesXml -->
<g id="edge12" class="edge">
<title>Device1Yaml&#45;&gt;DevicesXml</title>
<path fill="none" stroke="#c0c0c0" d="M309.3022,-562.7509C337.9694,-556.8346 373.8395,-549.4318 403.5792,-543.2942"/>
<polygon fill="#c0c0c0" stroke="#c0c0c0" points="404.3244,-546.7142 413.4105,-541.2652 402.9095,-539.8587 404.3244,-546.7142"/>
<text text-anchor="middle" x="354.3275" y="-559.895" font-family="Times,serif" font-size="12.00" fill="#4d4d4d">generates</text>
</g>
<!-- Device1Js&#45;&gt;Adapter1 -->
<g id="edge9" class="edge">
<title>Device1Js&#45;&gt;Adapter1</title>
<path fill="none" stroke="#c0c0c0" d="M501.2787,-613.3109C541.3676,-624.4746 604.0739,-641.9366 651.513,-655.1472"/>
<polygon fill="#c0c0c0" stroke="#c0c0c0" points="650.8183,-658.5868 661.3907,-657.8978 652.6962,-651.8434 650.8183,-658.5868"/>
<text text-anchor="middle" x="593.4578" y="-653.895" font-family="Times,serif" font-size="12.00" fill="#4d4d4d">used by</text>
</g>
<!-- Device2Yaml -->
<g id="node10" class="node">
<title>Device2Yaml</title>
<ellipse fill="#ffffff" stroke="#c0c0c0" cx="258.2107" cy="-499.295" rx="62.5826" ry="18"/>
<text text-anchor="middle" x="258.2107" y="-495.095" font-family="Times,serif" font-size="14.00" fill="#000000">device2.yaml</text>
</g>
<!-- Device2Js -->
<g id="node11" class="node">
<title>Device2Js</title>
<ellipse fill="#ffffff" stroke="#c0c0c0" cx="461.7207" cy="-470.295" rx="49.8386" ry="18"/>
<text text-anchor="middle" x="461.7207" y="-466.095" font-family="Times,serif" font-size="14.00" fill="#000000">device2.js</text>
</g>
<!-- Device2Yaml&#45;&gt;Device2Js -->
<g id="edge10" class="edge">
<title>Device2Yaml&#45;&gt;Device2Js</title>
<path fill="none" stroke="#c0c0c0" d="M288.8215,-483.4751C301.6943,-477.6653 317.0541,-471.8008 331.6757,-468.895 354.9129,-464.2771 380.949,-463.68 403.5857,-464.5834"/>
<polygon fill="#c0c0c0" stroke="#c0c0c0" points="403.5612,-468.0865 413.7249,-465.095 403.914,-461.0954 403.5612,-468.0865"/>
<text text-anchor="middle" x="354.3275" y="-471.895" font-family="Times,serif" font-size="12.00" fill="#4d4d4d">generates</text>
</g>
<!-- Device2Yaml&#45;&gt;DevicesXml -->
<g id="edge13" class="edge">
<title>Device2Yaml&#45;&gt;DevicesXml</title>
<path fill="none" stroke="#c0c0c0" d="M317.8801,-504.95C336.8306,-507.0608 357.8341,-509.7285 376.9793,-512.895 386.3495,-514.4448 396.2476,-516.3482 405.8445,-518.3367"/>
<polygon fill="#c0c0c0" stroke="#c0c0c0" points="405.1928,-521.7763 415.7016,-520.4286 406.6461,-514.9288 405.1928,-521.7763"/>
<text text-anchor="middle" x="354.3275" y="-515.895" font-family="Times,serif" font-size="12.00" fill="#4d4d4d">generates</text>
</g>
<!-- Device2Js&#45;&gt;Adapter2 -->
<g id="edge11" class="edge">
<title>Device2Js&#45;&gt;Adapter2</title>
<path fill="none" stroke="#c0c0c0" d="M509.3779,-464.6875C548.4228,-460.0932 604.1844,-453.5321 648.0426,-448.3715"/>
<polygon fill="#c0c0c0" stroke="#c0c0c0" points="648.539,-451.8373 658.0614,-447.1926 647.7209,-444.8853 648.539,-451.8373"/>
<text text-anchor="middle" x="593.4578" y="-462.895" font-family="Times,serif" font-size="12.00" fill="#4d4d4d">used by</text>
</g>
<!-- DiodeReceiver -->
<g id="node13" class="node">
<title>DiodeReceiver</title>
<ellipse fill="#ffffff" stroke="#c0c0c0" cx="951.3352" cy="-565.295" rx="83.3394" ry="29.3315"/>
<text text-anchor="middle" x="951.3352" y="-569.495" font-family="Times,serif" font-size="14.00" fill="#000000">Diode Receiver</text>
<text text-anchor="middle" x="951.3352" y="-552.695" font-family="Times,serif" font-size="14.00" fill="#000000">(Java+RabbitMQ)</text>
</g>
<!-- DiodeSender&#45;&gt;DiodeReceiver -->
<g id="edge14" class="edge">
<title>DiodeSender&#45;&gt;DiodeReceiver</title>
<path fill="none" stroke="#c0c0c0" d="M951.3352,-643.8192C951.3352,-631.7988 951.3352,-617.7199 951.3352,-604.8285"/>
<polygon fill="#c0c0c0" stroke="#c0c0c0" points="954.8353,-604.8065 951.3352,-594.8065 947.8353,-604.8065 954.8353,-604.8065"/>
<text text-anchor="middle" x="941.1352" y="-615.695" font-family="Times,serif" font-size="12.00" fill="#4d4d4d">UDP &#160;&#160;&#160;</text>
</g>
<!-- DiodeReceiver&#45;&gt;Agent -->
<g id="edge15" class="edge">
<title>DiodeReceiver&#45;&gt;Agent</title>
<path fill="none" stroke="#c0c0c0" d="M951.3352,-535.7158C951.3352,-523.0118 951.3352,-507.7808 951.3352,-493.2974"/>
<polygon fill="#c0c0c0" stroke="#c0c0c0" points="954.8353,-492.9302 951.3352,-482.9302 947.8353,-492.9302 954.8353,-492.9302"/>
<text text-anchor="middle" x="933.9352" y="-512.8347" font-family="Times,serif" font-size="12.00" fill="#4d4d4d">SHDR / &#160;&#160;&#160;</text>
<text text-anchor="middle" x="933.9352" y="-498.4347" font-family="Times,serif" font-size="12.00" fill="#4d4d4d">TCP 7878 &#160;&#160;&#160;&#160;&#160;&#160;&#160;</text>
</g>
<!-- Application -->
<g id="node16" class="node">
<title>Application</title>
<ellipse fill="#ffffff" stroke="#c0c0c0" cx="951.3352" cy="-305.295" rx="59.3044" ry="41.0911"/>
<text text-anchor="middle" x="951.3352" y="-317.895" font-family="Times,serif" font-size="14.00" fill="#000000">MTConnect</text>
<text text-anchor="middle" x="951.3352" y="-301.095" font-family="Times,serif" font-size="14.00" fill="#000000">Application</text>
<text text-anchor="middle" x="951.3352" y="-284.295" font-family="Times,serif" font-size="14.00" fill="#000000">(NodeJS)</text>
</g>
<!-- Agent&#45;&gt;Application -->
<g id="edge16" class="edge">
<title>Agent&#45;&gt;Application</title>
<path fill="none" stroke="#c0c0c0" d="M951.3352,-389.503C951.3352,-378.817 951.3352,-367.564 951.3352,-356.8852"/>
<polygon fill="#c0c0c0" stroke="#c0c0c0" points="947.8353,-389.5373 951.3352,-399.5373 954.8353,-389.5374 947.8353,-389.5373"/>
<polygon fill="#c0c0c0" stroke="#c0c0c0" points="954.8353,-356.8385 951.3352,-346.8385 947.8353,-356.8385 954.8353,-356.8385"/>
<text text-anchor="middle" x="933.9352" y="-376.895" font-family="Times,serif" font-size="12.00" fill="#4d4d4d">XML /</text>
<text text-anchor="middle" x="933.9352" y="-362.495" font-family="Times,serif" font-size="12.00" fill="#4d4d4d">HTTP 5000</text>
</g>
<!-- DevicesXml&#45;&gt;Agent -->
<g id="edge17" class="edge">
<title>DevicesXml&#45;&gt;Agent</title>
<path fill="none" stroke="#c0c0c0" d="M519.0399,-529.0533C597.5713,-524.6824 742.2778,-511.9529 859.9155,-475.295 866.6955,-473.1823 873.7075,-470.8493 880.6935,-468.425"/>
<polygon fill="#c0c0c0" stroke="#c0c0c0" points="881.9161,-471.7051 890.1796,-465.0745 879.5848,-465.1047 881.9161,-471.7051"/>
<text text-anchor="middle" x="716.6822" y="-519.895" font-family="Times,serif" font-size="12.00" fill="#4d4d4d">used by</text>
</g>
<!-- Database -->
<g id="node17" class="node">
<title>Database</title>
<ellipse fill="#ffffff" stroke="#c0c0c0" cx="951.3352" cy="-173.295" rx="69.0714" ry="41.0911"/>
<text text-anchor="middle" x="951.3352" y="-185.895" font-family="Times,serif" font-size="14.00" fill="#000000">Database</text>
<text text-anchor="middle" x="951.3352" y="-169.095" font-family="Times,serif" font-size="14.00" fill="#000000">(InfluxDB/</text>
<text text-anchor="middle" x="951.3352" y="-152.295" font-family="Times,serif" font-size="14.00" fill="#000000">TimescaleDB)</text>
</g>
<!-- Application&#45;&gt;Database -->
<g id="edge18" class="edge">
<title>Application&#45;&gt;Database</title>
<path fill="none" stroke="#c0c0c0" d="M951.3352,-253.639C951.3352,-244.1484 951.3352,-234.6577 951.3352,-225.1671"/>
<polygon fill="#c0c0c0" stroke="#c0c0c0" points="947.8353,-253.9372 951.3352,-263.9373 954.8353,-253.9373 947.8353,-253.9372"/>
<polygon fill="#c0c0c0" stroke="#c0c0c0" points="954.8353,-224.8028 951.3352,-214.8028 947.8353,-224.8029 954.8353,-224.8028"/>
</g>
<!-- Visualizer -->
<g id="node18" class="node">
<title>Visualizer</title>
<ellipse fill="#ffffff" stroke="#c0c0c0" cx="951.3352" cy="-41.295" rx="51.9834" ry="41.0911"/>
<text text-anchor="middle" x="951.3352" y="-53.895" font-family="Times,serif" font-size="14.00" fill="#000000">Visualizer</text>
<text text-anchor="middle" x="951.3352" y="-37.095" font-family="Times,serif" font-size="14.00" fill="#000000">(Grafana/</text>
<text text-anchor="middle" x="951.3352" y="-20.295" font-family="Times,serif" font-size="14.00" fill="#000000">Superset)</text>
</g>
<!-- Database&#45;&gt;Visualizer -->
<g id="edge19" class="edge">
<title>Database&#45;&gt;Visualizer</title>
<path fill="none" stroke="#c0c0c0" d="M951.3352,-121.639C951.3352,-112.1484 951.3352,-102.6577 951.3352,-93.1671"/>
<polygon fill="#c0c0c0" stroke="#c0c0c0" points="947.8353,-121.9372 951.3352,-131.9373 954.8353,-121.9373 947.8353,-121.9372"/>
<polygon fill="#c0c0c0" stroke="#c0c0c0" points="954.8353,-92.8028 951.3352,-82.8028 947.8353,-92.8029 954.8353,-92.8028"/>
</g>
<!-- Cloud -->
<g id="node19" class="node">
<title>Cloud</title>
<ellipse fill="#ffffff" stroke="#c0c0c0" cx="716.6822" cy="-173.295" rx="68.4585" ry="29.3315"/>
<text text-anchor="middle" x="716.6822" y="-177.495" font-family="Times,serif" font-size="14.00" fill="#000000">Cloud Storage</text>
<text text-anchor="middle" x="716.6822" y="-160.695" font-family="Times,serif" font-size="14.00" fill="#000000">(AWS/GCP)</text>
</g>
<!-- Database&#45;&gt;Cloud -->
<g id="edge20" class="edge">
<title>Database&#45;&gt;Cloud</title>
<path fill="none" stroke="#c0c0c0" d="M881.9347,-173.295C854.7344,-173.295 823.384,-173.295 795.3492,-173.295"/>
<polygon fill="#c0c0c0" stroke="#c0c0c0" points="795.1844,-169.7951 785.1844,-173.295 795.1843,-176.7951 795.1844,-169.7951"/>
</g>
<!-- Admin -->
<g id="node20" class="node">
<title>Admin</title>
<ellipse fill="#ffffe0" stroke="#c0c0c0" cx="716.6822" cy="-41.295" rx="37.7217" ry="18"/>
<text text-anchor="middle" x="716.6822" y="-37.095" font-family="Times,serif" font-size="14.00" fill="#000000">Admin</text>
</g>
<!-- Visualizer&#45;&gt;Admin -->
<g id="edge21" class="edge">
<title>Visualizer&#45;&gt;Admin</title>
<path fill="none" stroke="#c0c0c0" d="M888.8103,-41.295C849.8795,-41.295 800.5663,-41.295 764.7108,-41.295"/>
<polygon fill="#c0c0c0" stroke="#c0c0c0" points="888.9814,-44.7951 898.9813,-41.295 888.9813,-37.7951 888.9814,-44.7951"/>
<polygon fill="#c0c0c0" stroke="#c0c0c0" points="764.6441,-37.7951 754.6441,-41.295 764.644,-44.7951 764.6441,-37.7951"/>
</g>
</g>
</svg>
