<?xml version="1.0" encoding="UTF-8" standalone="no"?>
<!DOCTYPE svg PUBLIC "-//W3C//DTD SVG 1.1//EN"
 "http://www.w3.org/Graphics/SVG/1.1/DTD/svg11.dtd">
<!-- Generated by graphviz version 2.40.1 (20161225.0304)
 -->
<!-- Title: ladder99&#45;adapter Pages: 1 -->
<svg width="1056pt" height="779pt"
 viewBox="0.00 0.00 1055.62 778.59" xmlns="http://www.w3.org/2000/svg" xmlns:xlink="http://www.w3.org/1999/xlink">
<g id="graph0" class="graph" transform="scale(1 1) rotate(0) translate(4 774.5901)">
<title>ladder99&#45;adapter</title>
<polygon fill="#ffffff" stroke="transparent" points="-4,4 -4,-774.5901 1051.6159,-774.5901 1051.6159,4 -4,4"/>
<text text-anchor="middle" x="523.808" y="-748.5901" font-family="Times,serif" font-size="20.00" fill="#000000">Ladder99 MTConnect data flow</text>
<text text-anchor="middle" x="523.808" y="-724.5901" font-family="Times,serif" font-size="20.00" fill="#000000"> </text>
<!-- OldMachine -->
<g id="node1" class="node">
<title>OldMachine</title>
<ellipse fill="#e6e6fa" stroke="#c0c0c0" cx="68.1496" cy="-674.295" rx="61.9389" ry="18"/>
<text text-anchor="middle" x="68.1496" y="-670.095" font-family="Times,serif" font-size="14.00" fill="#000000">Old Machine</text>
</g>
<!-- PLC4X -->
<g id="node3" class="node">
<title>PLC4X</title>
<ellipse fill="#ffffff" stroke="#c0c0c0" cx="271.0718" cy="-674.295" rx="41.6253" ry="29.3315"/>
<text text-anchor="middle" x="271.0718" y="-678.495" font-family="Times,serif" font-size="14.00" fill="#000000">PLC4X</text>
<text text-anchor="middle" x="271.0718" y="-661.695" font-family="Times,serif" font-size="14.00" fill="#000000">(Java)</text>
</g>
<!-- OldMachine&#45;&gt;PLC4X -->
<g id="edge1" class="edge">
<title>OldMachine&#45;&gt;PLC4X</title>
<path fill="none" stroke="#c0c0c0" d="M130.1356,-674.295C158.6604,-674.295 192.1169,-674.295 219.2731,-674.295"/>
<polygon fill="#c0c0c0" stroke="#c0c0c0" points="219.3491,-677.7951 229.349,-674.295 219.349,-670.7951 219.3491,-677.7951"/>
<text text-anchor="middle" x="170.953" y="-692.295" font-family="Times,serif" font-size="12.00" fill="#4d4d4d">proprietary</text>
<text text-anchor="middle" x="170.953" y="-677.895" font-family="Times,serif" font-size="12.00" fill="#4d4d4d">protocol</text>
</g>
<!-- NewMachine -->
<g id="node2" class="node">
<title>NewMachine</title>
<ellipse fill="#e6e6fa" stroke="#c0c0c0" cx="271.0718" cy="-398.295" rx="65.43" ry="18"/>
<text text-anchor="middle" x="271.0718" y="-394.095" font-family="Times,serif" font-size="14.00" fill="#000000">New Machine</text>
</g>
<!-- Broker2 -->
<g id="node5" class="node">
<title>Broker2</title>
<ellipse fill="#ffffff" stroke="#c0c0c0" cx="474.5818" cy="-398.295" rx="76.9837" ry="29.3315"/>
<text text-anchor="middle" x="474.5818" y="-402.495" font-family="Times,serif" font-size="14.00" fill="#000000">MQTT Broker 2</text>
<text text-anchor="middle" x="474.5818" y="-385.695" font-family="Times,serif" font-size="14.00" fill="#000000">(Mosquitto)</text>
</g>
<!-- NewMachine&#45;&gt;Broker2 -->
<g id="edge3" class="edge">
<title>NewMachine&#45;&gt;Broker2</title>
<path fill="none" stroke="#c0c0c0" d="M336.5839,-398.295C352.6534,-398.295 370.1102,-398.295 387.0323,-398.295"/>
<polygon fill="#c0c0c0" stroke="#c0c0c0" points="387.4825,-401.7951 397.4825,-398.295 387.4824,-394.7951 387.4825,-401.7951"/>
<text text-anchor="middle" x="367.1886" y="-416.295" font-family="Times,serif" font-size="12.00" fill="#4d4d4d">JSON / </text>
<text text-anchor="middle" x="367.1886" y="-401.895" font-family="Times,serif" font-size="12.00" fill="#4d4d4d">MQTT</text>
</g>
<!-- Broker1 -->
<g id="node4" class="node">
<title>Broker1</title>
<ellipse fill="#ffffff" stroke="#c0c0c0" cx="474.5818" cy="-674.295" rx="76.9837" ry="29.3315"/>
<text text-anchor="middle" x="474.5818" y="-678.495" font-family="Times,serif" font-size="14.00" fill="#000000">MQTT Broker 1</text>
<text text-anchor="middle" x="474.5818" y="-661.695" font-family="Times,serif" font-size="14.00" fill="#000000">(Mosquitto)</text>
</g>
<!-- PLC4X&#45;&gt;Broker1 -->
<g id="edge2" class="edge">
<title>PLC4X&#45;&gt;Broker1</title>
<path fill="none" stroke="#c0c0c0" d="M312.7462,-674.295C334.3049,-674.295 361.4695,-674.295 387.3536,-674.295"/>
<polygon fill="#c0c0c0" stroke="#c0c0c0" points="387.5777,-677.7951 397.5777,-674.295 387.5777,-670.7951 387.5777,-677.7951"/>
<text text-anchor="middle" x="367.1886" y="-692.295" font-family="Times,serif" font-size="12.00" fill="#4d4d4d">JSON / </text>
<text text-anchor="middle" x="367.1886" y="-677.895" font-family="Times,serif" font-size="12.00" fill="#4d4d4d">MQTT</text>
</g>
<!-- Adapter1 -->
<g id="node6" class="node">
<title>Adapter1</title>
<ellipse fill="#ffffff" stroke="#c0c0c0" cx="729.5434" cy="-673.295" rx="59.3044" ry="41.0911"/>
<text text-anchor="middle" x="729.5434" y="-685.895" font-family="Times,serif" font-size="14.00" fill="#000000">MTConnect</text>
<text text-anchor="middle" x="729.5434" y="-669.095" font-family="Times,serif" font-size="14.00" fill="#000000">Adapter 1</text>
<text text-anchor="middle" x="729.5434" y="-652.295" font-family="Times,serif" font-size="14.00" fill="#000000">(NodeJS)</text>
</g>
<!-- Broker1&#45;&gt;Adapter1 -->
<g id="edge4" class="edge">
<title>Broker1&#45;&gt;Adapter1</title>
<path fill="none" stroke="#c0c0c0" d="M551.4244,-673.9936C585.9728,-673.8581 626.446,-673.6994 660.0739,-673.5675"/>
<polygon fill="#c0c0c0" stroke="#c0c0c0" points="660.2901,-677.0668 670.2763,-673.5275 660.2626,-670.0668 660.2901,-677.0668"/>
<text text-anchor="middle" x="606.3189" y="-691.295" font-family="Times,serif" font-size="12.00" fill="#4d4d4d">JSON / &#160;&#160;&#160;</text>
<text text-anchor="middle" x="606.3189" y="-676.895" font-family="Times,serif" font-size="12.00" fill="#4d4d4d">MQTT 1883 &#160;&#160;&#160;&#160;&#160;&#160;&#160;&#160;&#160;&#160;</text>
</g>
<!-- Adapter2 -->
<g id="node7" class="node">
<title>Adapter2</title>
<ellipse fill="#ffffff" stroke="#c0c0c0" cx="729.5434" cy="-440.295" rx="59.3044" ry="41.0911"/>
<text text-anchor="middle" x="729.5434" y="-452.895" font-family="Times,serif" font-size="14.00" fill="#000000">MTConnect</text>
<text text-anchor="middle" x="729.5434" y="-436.095" font-family="Times,serif" font-size="14.00" fill="#000000">Adapter 2</text>
<text text-anchor="middle" x="729.5434" y="-419.295" font-family="Times,serif" font-size="14.00" fill="#000000">(NodeJS)</text>
</g>
<!-- Broker2&#45;&gt;Adapter2 -->
<g id="edge5" class="edge">
<title>Broker2&#45;&gt;Adapter2</title>
<path fill="none" stroke="#c0c0c0" d="M551.2724,-401.267C583.0957,-403.5264 620.2402,-407.5018 653.3145,-414.495 657.9407,-415.4732 662.676,-416.6437 667.4108,-417.9385"/>
<polygon fill="#c0c0c0" stroke="#c0c0c0" points="666.5141,-421.3226 677.0934,-420.7491 668.4655,-414.6001 666.5141,-421.3226"/>
<text text-anchor="middle" x="606.3189" y="-432.295" font-family="Times,serif" font-size="12.00" fill="#4d4d4d">JSON / &#160;&#160;&#160;</text>
<text text-anchor="middle" x="606.3189" y="-417.895" font-family="Times,serif" font-size="12.00" fill="#4d4d4d">MQTT 1883 &#160;&#160;&#160;&#160;&#160;&#160;&#160;&#160;&#160;&#160;</text>
</g>
<!-- DiodeSender -->
<g id="node14" class="node">
<title>DiodeSender</title>
<ellipse fill="#ffffff" stroke="#c0c0c0" cx="964.1963" cy="-673.295" rx="83.3394" ry="29.3315"/>
<text text-anchor="middle" x="964.1963" y="-677.495" font-family="Times,serif" font-size="14.00" fill="#000000">Diode Sender</text>
<text text-anchor="middle" x="964.1963" y="-660.695" font-family="Times,serif" font-size="14.00" fill="#000000">(Java+RabbitMQ)</text>
</g>
<!-- Adapter1&#45;&gt;DiodeSender -->
<g id="edge6" class="edge">
<title>Adapter1&#45;&gt;DiodeSender</title>
<path fill="none" stroke="#c0c0c0" d="M788.7562,-673.295C813.5447,-673.295 842.9635,-673.295 870.5581,-673.295"/>
<polygon fill="#c0c0c0" stroke="#c0c0c0" points="870.6301,-676.7951 880.6301,-673.295 870.63,-669.7951 870.6301,-676.7951"/>
<text text-anchor="middle" x="839.2744" y="-691.295" font-family="Times,serif" font-size="12.00" fill="#4d4d4d">SHDR / &#160;&#160;</text>
<text text-anchor="middle" x="839.2744" y="-676.895" font-family="Times,serif" font-size="12.00" fill="#4d4d4d">TCP 7878 &#160;&#160;&#160;&#160;&#160;</text>
</g>
<!-- Agent -->
<g id="node16" class="node">
<title>Agent</title>
<ellipse fill="#ffffff" stroke="#c0c0c0" cx="964.1963" cy="-441.295" rx="74.3117" ry="41.0911"/>
<text text-anchor="middle" x="964.1963" y="-453.895" font-family="Times,serif" font-size="14.00" fill="#000000">MTConnect</text>
<text text-anchor="middle" x="964.1963" y="-437.095" font-family="Times,serif" font-size="14.00" fill="#000000">Agent</text>
<text text-anchor="middle" x="964.1963" y="-420.295" font-family="Times,serif" font-size="14.00" fill="#000000">(C++/cppagent)</text>
</g>
<!-- Adapter2&#45;&gt;Agent -->
<g id="edge7" class="edge">
<title>Adapter2&#45;&gt;Agent</title>
<path fill="none" stroke="#c0c0c0" d="M788.7562,-440.5474C816.3238,-440.6649 849.618,-440.8067 879.7611,-440.9352"/>
<polygon fill="#c0c0c0" stroke="#c0c0c0" points="879.835,-444.4355 889.8499,-440.9782 879.8649,-437.4355 879.835,-444.4355"/>
<text text-anchor="middle" x="839.2744" y="-458.295" font-family="Times,serif" font-size="12.00" fill="#4d4d4d">SHDR / &#160;&#160;</text>
<text text-anchor="middle" x="839.2744" y="-443.895" font-family="Times,serif" font-size="12.00" fill="#4d4d4d">TCP 7878 &#160;&#160;&#160;&#160;&#160;</text>
</g>
<!-- Device1Sheet -->
<g id="node8" class="node">
<title>Device1Sheet</title>
<ellipse fill="#adff2f" stroke="#c0c0c0" cx="68.1496" cy="-580.295" rx="68.2995" ry="18"/>
<text text-anchor="middle" x="68.1496" y="-576.095" font-family="Times,serif" font-size="14.00" fill="#000000">device1.gsheet</text>
</g>
<!-- Device1Yaml -->
<g id="node9" class="node">
<title>Device1Yaml</title>
<ellipse fill="#adff2f" stroke="#c0c0c0" cx="271.0718" cy="-580.295" rx="62.5826" ry="18"/>
<text text-anchor="middle" x="271.0718" y="-576.095" font-family="Times,serif" font-size="14.00" fill="#000000">device1.yaml</text>
</g>
<!-- Device1Sheet&#45;&gt;Device1Yaml -->
<g id="edge8" class="edge">
<title>Device1Sheet&#45;&gt;Device1Yaml</title>
<path fill="none" stroke="#c0c0c0" d="M136.5669,-580.295C156.3513,-580.295 178.0174,-580.295 198.07,-580.295"/>
<polygon fill="#c0c0c0" stroke="#c0c0c0" points="198.0786,-583.7951 208.0785,-580.295 198.0785,-576.7951 198.0786,-583.7951"/>
<text text-anchor="middle" x="170.953" y="-583.895" font-family="Times,serif" font-size="12.00" fill="#4d4d4d">feeds into</text>
</g>
<!-- Device1Js -->
<g id="node10" class="node">
<title>Device1Js</title>
<ellipse fill="#ffffff" stroke="#c0c0c0" cx="474.5818" cy="-602.295" rx="49.8386" ry="18"/>
<text text-anchor="middle" x="474.5818" y="-598.095" font-family="Times,serif" font-size="14.00" fill="#000000">device1.js</text>
</g>
<!-- Device1Yaml&#45;&gt;Device1Js -->
<g id="edge9" class="edge">
<title>Device1Yaml&#45;&gt;Device1Js</title>
<path fill="none" stroke="#c0c0c0" d="M329.9353,-586.6583C357.1036,-589.5953 389.265,-593.0721 416.3546,-596.0005"/>
<polygon fill="#c0c0c0" stroke="#c0c0c0" points="416.1493,-599.4986 426.4676,-597.0938 416.9017,-592.5392 416.1493,-599.4986"/>
<text text-anchor="middle" x="367.1886" y="-595.895" font-family="Times,serif" font-size="12.00" fill="#4d4d4d">generates</text>
</g>
<!-- DevicesXml -->
<g id="node17" class="node">
<title>DevicesXml</title>
<ellipse fill="#ffffff" stroke="#c0c0c0" cx="474.5818" cy="-531.295" rx="57.3628" ry="18"/>
<text text-anchor="middle" x="474.5818" y="-527.095" font-family="Times,serif" font-size="14.00" fill="#000000">devices.xml</text>
</g>
<!-- Device1Yaml&#45;&gt;DevicesXml -->
<g id="edge14" class="edge">
<title>Device1Yaml&#45;&gt;DevicesXml</title>
<path fill="none" stroke="#c0c0c0" d="M319.3008,-568.6827C349.2103,-561.4813 387.745,-552.2031 418.9438,-544.6912"/>
<polygon fill="#c0c0c0" stroke="#c0c0c0" points="419.8924,-548.0629 428.7953,-542.3193 418.2538,-541.2574 419.8924,-548.0629"/>
<text text-anchor="middle" x="367.1886" y="-564.895" font-family="Times,serif" font-size="12.00" fill="#4d4d4d">generates</text>
</g>
<!-- Device1Js&#45;&gt;Adapter1 -->
<g id="edge10" class="edge">
<title>Device1Js&#45;&gt;Adapter1</title>
<path fill="none" stroke="#c0c0c0" d="M514.1398,-613.3109C554.2287,-624.4746 616.935,-641.9366 664.3742,-655.1472"/>
<polygon fill="#c0c0c0" stroke="#c0c0c0" points="663.6794,-658.5868 674.2518,-657.8978 665.5573,-651.8434 663.6794,-658.5868"/>
<text text-anchor="middle" x="606.3189" y="-653.895" font-family="Times,serif" font-size="12.00" fill="#4d4d4d">used by</text>
</g>
<!-- Device2Sheet -->
<g id="node11" class="node">
<title>Device2Sheet</title>
<ellipse fill="#adff2f" stroke="#c0c0c0" cx="68.1496" cy="-483.295" rx="68.2995" ry="18"/>
<text text-anchor="middle" x="68.1496" y="-479.095" font-family="Times,serif" font-size="14.00" fill="#000000">device2.gsheet</text>
</g>
<!-- Device2Yaml -->
<g id="node12" class="node">
<title>Device2Yaml</title>
<ellipse fill="#adff2f" stroke="#c0c0c0" cx="271.0718" cy="-483.295" rx="62.5826" ry="18"/>
<text text-anchor="middle" x="271.0718" y="-479.095" font-family="Times,serif" font-size="14.00" fill="#000000">device2.yaml</text>
</g>
<!-- Device2Sheet&#45;&gt;Device2Yaml -->
<g id="edge11" class="edge">
<title>Device2Sheet&#45;&gt;Device2Yaml</title>
<path fill="none" stroke="#c0c0c0" d="M136.5669,-483.295C156.3513,-483.295 178.0174,-483.295 198.07,-483.295"/>
<polygon fill="#c0c0c0" stroke="#c0c0c0" points="198.0786,-486.7951 208.0785,-483.295 198.0785,-479.7951 198.0786,-486.7951"/>
<text text-anchor="middle" x="170.953" y="-486.895" font-family="Times,serif" font-size="12.00" fill="#4d4d4d">feeds into</text>
</g>
<!-- Device2Js -->
<g id="node13" class="node">
<title>Device2Js</title>
<ellipse fill="#ffffff" stroke="#c0c0c0" cx="474.5818" cy="-470.295" rx="49.8386" ry="18"/>
<text text-anchor="middle" x="474.5818" y="-466.095" font-family="Times,serif" font-size="14.00" fill="#000000">device2.js</text>
</g>
<!-- Device2Yaml&#45;&gt;Device2Js -->
<g id="edge12" class="edge">
<title>Device2Yaml&#45;&gt;Device2Js</title>
<path fill="none" stroke="#c0c0c0" d="M320.6724,-472.2224C328.6161,-470.8399 336.775,-469.6486 344.5368,-468.895 367.4293,-466.6726 392.6943,-466.4405 414.819,-466.9667"/>
<polygon fill="#c0c0c0" stroke="#c0c0c0" points="414.9737,-470.4727 425.0725,-467.2689 415.18,-463.4757 414.9737,-470.4727"/>
<text text-anchor="middle" x="367.1886" y="-471.895" font-family="Times,serif" font-size="12.00" fill="#4d4d4d">generates</text>
</g>
<!-- Device2Yaml&#45;&gt;DevicesXml -->
<g id="edge15" class="edge">
<title>Device2Yaml&#45;&gt;DevicesXml</title>
<path fill="none" stroke="#c0c0c0" d="M319.8175,-494.7922C349.6338,-501.8247 387.8747,-510.8442 418.8835,-518.158"/>
<polygon fill="#c0c0c0" stroke="#c0c0c0" points="418.1408,-521.5788 428.6773,-520.468 419.7478,-514.7657 418.1408,-521.5788"/>
<text text-anchor="middle" x="367.1886" y="-512.895" font-family="Times,serif" font-size="12.00" fill="#4d4d4d">generates</text>
</g>
<!-- Device2Js&#45;&gt;Adapter2 -->
<g id="edge13" class="edge">
<title>Device2Js&#45;&gt;Adapter2</title>
<path fill="none" stroke="#c0c0c0" d="M522.239,-464.6875C561.2839,-460.0932 617.0455,-453.5321 660.9038,-448.3715"/>
<polygon fill="#c0c0c0" stroke="#c0c0c0" points="661.4001,-451.8373 670.9225,-447.1926 660.582,-444.8853 661.4001,-451.8373"/>
<text text-anchor="middle" x="606.3189" y="-462.895" font-family="Times,serif" font-size="12.00" fill="#4d4d4d">used by</text>
</g>
<!-- DiodeReceiver -->
<g id="node15" class="node">
<title>DiodeReceiver</title>
<ellipse fill="#ffffff" stroke="#c0c0c0" cx="964.1963" cy="-565.295" rx="83.3394" ry="29.3315"/>
<text text-anchor="middle" x="964.1963" y="-569.495" font-family="Times,serif" font-size="14.00" fill="#000000">Diode Receiver</text>
<text text-anchor="middle" x="964.1963" y="-552.695" font-family="Times,serif" font-size="14.00" fill="#000000">(Java+RabbitMQ)</text>
</g>
<!-- DiodeSender&#45;&gt;DiodeReceiver -->
<g id="edge16" class="edge">
<title>DiodeSender&#45;&gt;DiodeReceiver</title>
<path fill="none" stroke="#c0c0c0" d="M964.1963,-643.8192C964.1963,-631.7988 964.1963,-617.7199 964.1963,-604.8285"/>
<polygon fill="#c0c0c0" stroke="#c0c0c0" points="967.6964,-604.8065 964.1963,-594.8065 960.6964,-604.8065 967.6964,-604.8065"/>
<text text-anchor="middle" x="953.9963" y="-615.695" font-family="Times,serif" font-size="12.00" fill="#4d4d4d">UDP &#160;&#160;&#160;</text>
</g>
<!-- DiodeReceiver&#45;&gt;Agent -->
<g id="edge17" class="edge">
<title>DiodeReceiver&#45;&gt;Agent</title>
<path fill="none" stroke="#c0c0c0" d="M964.1963,-535.7158C964.1963,-523.0118 964.1963,-507.7808 964.1963,-493.2974"/>
<polygon fill="#c0c0c0" stroke="#c0c0c0" points="967.6964,-492.9302 964.1963,-482.9302 960.6964,-492.9302 967.6964,-492.9302"/>
<text text-anchor="middle" x="946.7963" y="-512.8347" font-family="Times,serif" font-size="12.00" fill="#4d4d4d">SHDR / &#160;&#160;&#160;</text>
<text text-anchor="middle" x="946.7963" y="-498.4347" font-family="Times,serif" font-size="12.00" fill="#4d4d4d">TCP 7878 &#160;&#160;&#160;&#160;&#160;&#160;&#160;</text>
</g>
<!-- Application -->
<g id="node18" class="node">
<title>Application</title>
<ellipse fill="#ffffff" stroke="#c0c0c0" cx="964.1963" cy="-305.295" rx="59.3044" ry="41.0911"/>
<text text-anchor="middle" x="964.1963" y="-317.895" font-family="Times,serif" font-size="14.00" fill="#000000">MTConnect</text>
<text text-anchor="middle" x="964.1963" y="-301.095" font-family="Times,serif" font-size="14.00" fill="#000000">Application</text>
<text text-anchor="middle" x="964.1963" y="-284.295" font-family="Times,serif" font-size="14.00" fill="#000000">(NodeJS)</text>
</g>
<!-- Agent&#45;&gt;Application -->
<g id="edge18" class="edge">
<title>Agent&#45;&gt;Application</title>
<path fill="none" stroke="#c0c0c0" d="M964.1963,-389.503C964.1963,-378.817 964.1963,-367.564 964.1963,-356.8852"/>
<polygon fill="#c0c0c0" stroke="#c0c0c0" points="960.6964,-389.5373 964.1963,-399.5373 967.6964,-389.5374 960.6964,-389.5373"/>
<polygon fill="#c0c0c0" stroke="#c0c0c0" points="967.6964,-356.8385 964.1963,-346.8385 960.6964,-356.8385 967.6964,-356.8385"/>
<text text-anchor="middle" x="946.7963" y="-376.895" font-family="Times,serif" font-size="12.00" fill="#4d4d4d">XML &#160;/</text>
<text text-anchor="middle" x="946.7963" y="-362.495" font-family="Times,serif" font-size="12.00" fill="#4d4d4d">HTTP 5000 &#160;&#160;&#160;&#160;&#160;&#160;&#160;&#160;&#160;</text>
</g>
<!-- DevicesXml&#45;&gt;Agent -->
<g id="edge19" class="edge">
<title>DevicesXml&#45;&gt;Agent</title>
<path fill="none" stroke="#c0c0c0" d="M531.901,-529.0533C610.4324,-524.6824 755.1389,-511.9529 872.7766,-475.295 879.5566,-473.1823 886.5686,-470.8493 893.5546,-468.425"/>
<polygon fill="#c0c0c0" stroke="#c0c0c0" points="894.7772,-471.7051 903.0407,-465.0745 892.4459,-465.1047 894.7772,-471.7051"/>
<text text-anchor="middle" x="729.5434" y="-519.895" font-family="Times,serif" font-size="12.00" fill="#4d4d4d">used by</text>
</g>
<!-- Database -->
<g id="node19" class="node">
<title>Database</title>
<ellipse fill="#ffffff" stroke="#c0c0c0" cx="964.1963" cy="-173.295" rx="69.0714" ry="41.0911"/>
<text text-anchor="middle" x="964.1963" y="-185.895" font-family="Times,serif" font-size="14.00" fill="#000000">Database</text>
<text text-anchor="middle" x="964.1963" y="-169.095" font-family="Times,serif" font-size="14.00" fill="#000000">(InfluxDB/</text>
<text text-anchor="middle" x="964.1963" y="-152.295" font-family="Times,serif" font-size="14.00" fill="#000000">TimescaleDB)</text>
</g>
<!-- Application&#45;&gt;Database -->
<g id="edge20" class="edge">
<title>Application&#45;&gt;Database</title>
<path fill="none" stroke="#c0c0c0" d="M964.1963,-253.639C964.1963,-244.1484 964.1963,-234.6577 964.1963,-225.1671"/>
<polygon fill="#c0c0c0" stroke="#c0c0c0" points="960.6964,-253.9372 964.1963,-263.9373 967.6964,-253.9373 960.6964,-253.9372"/>
<polygon fill="#c0c0c0" stroke="#c0c0c0" points="967.6964,-224.8028 964.1963,-214.8028 960.6964,-224.8029 967.6964,-224.8028"/>
</g>
<!-- Visualizer -->
<g id="node20" class="node">
<title>Visualizer</title>
<ellipse fill="#ffffff" stroke="#c0c0c0" cx="964.1963" cy="-41.295" rx="51.9834" ry="41.0911"/>
<text text-anchor="middle" x="964.1963" y="-53.895" font-family="Times,serif" font-size="14.00" fill="#000000">Visualizer</text>
<text text-anchor="middle" x="964.1963" y="-37.095" font-family="Times,serif" font-size="14.00" fill="#000000">(Grafana/</text>
<text text-anchor="middle" x="964.1963" y="-20.295" font-family="Times,serif" font-size="14.00" fill="#000000">Superset)</text>
</g>
<!-- Database&#45;&gt;Visualizer -->
<g id="edge21" class="edge">
<title>Database&#45;&gt;Visualizer</title>
<path fill="none" stroke="#c0c0c0" d="M964.1963,-121.639C964.1963,-112.1484 964.1963,-102.6577 964.1963,-93.1671"/>
<polygon fill="#c0c0c0" stroke="#c0c0c0" points="960.6964,-121.9372 964.1963,-131.9373 967.6964,-121.9373 960.6964,-121.9372"/>
<polygon fill="#c0c0c0" stroke="#c0c0c0" points="967.6964,-92.8028 964.1963,-82.8028 960.6964,-92.8029 967.6964,-92.8028"/>
</g>
<!-- Cloud -->
<g id="node21" class="node">
<title>Cloud</title>
<ellipse fill="#ffffff" stroke="#c0c0c0" cx="729.5434" cy="-173.295" rx="68.4585" ry="29.3315"/>
<text text-anchor="middle" x="729.5434" y="-177.495" font-family="Times,serif" font-size="14.00" fill="#000000">Cloud Storage</text>
<text text-anchor="middle" x="729.5434" y="-160.695" font-family="Times,serif" font-size="14.00" fill="#000000">(AWS/GCP)</text>
</g>
<!-- Database&#45;&gt;Cloud -->
<g id="edge22" class="edge">
<title>Database&#45;&gt;Cloud</title>
<path fill="none" stroke="#c0c0c0" d="M894.7958,-173.295C867.5955,-173.295 836.2451,-173.295 808.2103,-173.295"/>
<polygon fill="#c0c0c0" stroke="#c0c0c0" points="808.0455,-169.7951 798.0455,-173.295 808.0455,-176.7951 808.0455,-169.7951"/>
</g>
<!-- Admin -->
<g id="node22" class="node">
<title>Admin</title>
<ellipse fill="#ffffe0" stroke="#c0c0c0" cx="729.5434" cy="-41.295" rx="37.7217" ry="18"/>
<text text-anchor="middle" x="729.5434" y="-37.095" font-family="Times,serif" font-size="14.00" fill="#000000">Admin</text>
</g>
<!-- Visualizer&#45;&gt;Admin -->
<g id="edge23" class="edge">
<title>Visualizer&#45;&gt;Admin</title>
<path fill="none" stroke="#c0c0c0" d="M901.6714,-41.295C862.7406,-41.295 813.4274,-41.295 777.5719,-41.295"/>
<polygon fill="#c0c0c0" stroke="#c0c0c0" points="901.8425,-44.7951 911.8425,-41.295 901.8424,-37.7951 901.8425,-44.7951"/>
<polygon fill="#c0c0c0" stroke="#c0c0c0" points="777.5052,-37.7951 767.5052,-41.295 777.5052,-44.7951 777.5052,-37.7951"/>
</g>
</g>
</svg>
