<?xml version="1.0" encoding="UTF-8" standalone="no"?>
<!DOCTYPE svg PUBLIC "-//W3C//DTD SVG 1.1//EN"
 "http://www.w3.org/Graphics/SVG/1.1/DTD/svg11.dtd">
<!-- Generated by graphviz version 2.40.1 (20161225.0304)
 -->
<!-- Title: ladder99&#45;adapter Pages: 1 -->
<svg width="1244pt" height="184pt"
 viewBox="0.00 0.00 1243.99 183.80" xmlns="http://www.w3.org/2000/svg" xmlns:xlink="http://www.w3.org/1999/xlink">
<g id="graph0" class="graph" transform="scale(1 1) rotate(0) translate(4 179.8)">
<title>ladder99&#45;adapter</title>
<polygon fill="#ffffff" stroke="transparent" points="-4,4 -4,-179.8 1239.9918,-179.8 1239.9918,4 -4,4"/>
<text text-anchor="middle" x="617.9959" y="-8.2" font-family="Times,serif" font-size="14.00" fill="#000000">Ladder99 MTConnect</text>
<g id="clust1" class="cluster">
<title>cluster2</title>
<polygon fill="none" stroke="#d3d3d3" points="144.7703,-68.8 144.7703,-167.8 961.3631,-167.8 961.3631,-68.8 144.7703,-68.8"/>
<text text-anchor="middle" x="553.0667" y="-151.2" font-family="Times,serif" font-size="14.00" fill="#000000">Raspberry Pi 1</text>
</g>
<g id="clust2" class="cluster">
<title>cluster4</title>
<polygon fill="none" stroke="#d3d3d3" points="1016.3575,-68.8 1016.3575,-167.8 1148.4619,-167.8 1148.4619,-68.8 1016.3575,-68.8"/>
<text text-anchor="middle" x="1082.4097" y="-151.2" font-family="Times,serif" font-size="14.00" fill="#000000">Raspberry Pi 2</text>
</g>
<!-- Device2 -->
<g id="node1" class="node">
<title>Device2</title>
<ellipse fill="#e6e6fa" stroke="#d3d3d3" cx="55.2779" cy="-101.8" rx="55.0566" ry="18"/>
<text text-anchor="middle" x="55.2779" y="-97.6" font-family="Times,serif" font-size="14.00" fill="#000000">Old Device</text>
</g>
<!-- PLC4X -->
<g id="node7" class="node">
<title>PLC4X</title>
<ellipse fill="#ffffe0" stroke="#d3d3d3" cx="193.3146" cy="-101.8" rx="40.5886" ry="18"/>
<text text-anchor="middle" x="193.3146" y="-97.6" font-family="Times,serif" font-size="14.00" fill="#000000">PLC4X</text>
</g>
<!-- Device2&#45;&gt;PLC4X -->
<g id="edge2" class="edge">
<title>Device2&#45;&gt;PLC4X</title>
<path fill="none" stroke="#d3d3d3" d="M110.6273,-101.8C121.0906,-101.8 131.9905,-101.8 142.3124,-101.8"/>
<polygon fill="#d3d3d3" stroke="#d3d3d3" points="142.404,-105.3001 152.4039,-101.8 142.4039,-98.3001 142.404,-105.3001"/>
<text text-anchor="middle" x="131.663" y="-106" font-family="Times,serif" font-size="14.00" fill="#c0c0c0">?</text>
</g>
<!-- Device1 -->
<g id="node2" class="node">
<title>Device1</title>
<ellipse fill="#e6e6fa" stroke="#d3d3d3" cx="329.8827" cy="-42.8" rx="59.0476" ry="18"/>
<text text-anchor="middle" x="329.8827" y="-38.6" font-family="Times,serif" font-size="14.00" fill="#000000">New Device</text>
</g>
<!-- Adapter -->
<g id="node3" class="node">
<title>Adapter</title>
<ellipse fill="#add8e6" stroke="#d3d3d3" cx="513.261" cy="-105.8" rx="48.8971" ry="29.3315"/>
<text text-anchor="middle" x="513.261" y="-110" font-family="Times,serif" font-size="14.00" fill="#000000">Adapter</text>
<text text-anchor="middle" x="513.261" y="-93.2" font-family="Times,serif" font-size="14.00" fill="#000000">(NodeJS)</text>
</g>
<!-- Device1&#45;&gt;Adapter -->
<g id="edge1" class="edge">
<title>Device1&#45;&gt;Adapter</title>
<path fill="none" stroke="#d3d3d3" d="M386.5955,-48.1303C406.0582,-51.1498 427.6833,-55.8613 446.5629,-63.2 455.9756,-66.8588 465.4814,-71.9283 474.2509,-77.2968"/>
<polygon fill="#d3d3d3" stroke="#d3d3d3" points="472.4331,-80.2887 482.7443,-82.7237 476.2021,-74.39 472.4331,-80.2887"/>
<text text-anchor="middle" x="426.7347" y="-83.8" font-family="Times,serif" font-size="14.00" fill="#c0c0c0">MQTT</text>
<text text-anchor="middle" x="426.7347" y="-67" font-family="Times,serif" font-size="14.00" fill="#c0c0c0">JSON</text>
</g>
<!-- Receiver -->
<g id="node4" class="node">
<title>Receiver</title>
<ellipse fill="#ffffff" stroke="#d3d3d3" cx="721.9898" cy="-105.8" rx="48.8971" ry="29.3315"/>
<text text-anchor="middle" x="721.9898" y="-110" font-family="Times,serif" font-size="14.00" fill="#000000">Receiver</text>
<text text-anchor="middle" x="721.9898" y="-93.2" font-family="Times,serif" font-size="14.00" fill="#000000">(NodeJS)</text>
</g>
<!-- Adapter&#45;&gt;Receiver -->
<g id="edge4" class="edge">
<title>Adapter&#45;&gt;Receiver</title>
<path fill="none" stroke="#d3d3d3" d="M562.1986,-105.8C592.3165,-105.8 631.1101,-105.8 662.9309,-105.8"/>
<polygon fill="#d3d3d3" stroke="#d3d3d3" points="662.9976,-109.3001 672.9975,-105.8 662.9975,-102.3001 662.9976,-109.3001"/>
<text text-anchor="middle" x="617.6254" y="-126.8" font-family="Times,serif" font-size="14.00" fill="#c0c0c0">UDP</text>
<text text-anchor="middle" x="617.6254" y="-110" font-family="Times,serif" font-size="14.00" fill="#c0c0c0">SHDR</text>
</g>
<!-- Agent -->
<g id="node5" class="node">
<title>Agent</title>
<ellipse fill="#add8e6" stroke="#d3d3d3" cx="917.6917" cy="-105.8" rx="35.8437" ry="29.3315"/>
<text text-anchor="middle" x="917.6917" y="-110" font-family="Times,serif" font-size="14.00" fill="#000000">Agent</text>
<text text-anchor="middle" x="917.6917" y="-93.2" font-family="Times,serif" font-size="14.00" fill="#000000">(C++)</text>
</g>
<!-- Receiver&#45;&gt;Agent -->
<g id="edge5" class="edge">
<title>Receiver&#45;&gt;Agent</title>
<path fill="none" stroke="#d3d3d3" d="M770.8688,-105.8C801.6559,-105.8 841.1575,-105.8 871.4317,-105.8"/>
<polygon fill="#d3d3d3" stroke="#d3d3d3" points="871.7258,-109.3001 881.7258,-105.8 871.7257,-102.3001 871.7258,-109.3001"/>
<text text-anchor="middle" x="826.3541" y="-126.8" font-family="Times,serif" font-size="14.00" fill="#c0c0c0">TCP</text>
<text text-anchor="middle" x="826.3541" y="-110" font-family="Times,serif" font-size="14.00" fill="#c0c0c0">SHDR</text>
</g>
<!-- Application -->
<g id="node6" class="node">
<title>Application</title>
<ellipse fill="#add8e6" stroke="#d3d3d3" cx="1082.4097" cy="-105.8" rx="58.1044" ry="29.3315"/>
<text text-anchor="middle" x="1082.4097" y="-110" font-family="Times,serif" font-size="14.00" fill="#000000">Application</text>
<text text-anchor="middle" x="1082.4097" y="-93.2" font-family="Times,serif" font-size="14.00" fill="#000000">(SvelteJS)</text>
</g>
<!-- Agent&#45;&gt;Application -->
<g id="edge6" class="edge">
<title>Agent&#45;&gt;Application</title>
<path fill="none" stroke="#d3d3d3" d="M953.4331,-105.8C971.1593,-105.8 993.1816,-105.8 1013.9827,-105.8"/>
<polygon fill="#d3d3d3" stroke="#d3d3d3" points="1014.0719,-109.3001 1024.0719,-105.8 1014.0719,-102.3001 1014.0719,-109.3001"/>
<text text-anchor="middle" x="988.8603" y="-126.8" font-family="Times,serif" font-size="14.00" fill="#c0c0c0">HTTP</text>
<text text-anchor="middle" x="988.8603" y="-110" font-family="Times,serif" font-size="14.00" fill="#c0c0c0">XML</text>
</g>
<!-- User -->
<g id="node8" class="node">
<title>User</title>
<ellipse fill="#adff2f" stroke="#d3d3d3" cx="1206.7269" cy="-105.8" rx="29.0318" ry="18"/>
<text text-anchor="middle" x="1206.7269" y="-101.6" font-family="Times,serif" font-size="14.00" fill="#000000">User</text>
</g>
<!-- Application&#45;&gt;User -->
<g id="edge7" class="edge">
<title>Application&#45;&gt;User</title>
<path fill="none" stroke="#d3d3d3" d="M1140.5645,-105.8C1149.6396,-105.8 1158.829,-105.8 1167.3546,-105.8"/>
<polygon fill="#d3d3d3" stroke="#d3d3d3" points="1167.3725,-109.3001 1177.3725,-105.8 1167.3724,-102.3001 1167.3725,-109.3001"/>
</g>
<!-- PLC4X&#45;&gt;Adapter -->
<g id="edge3" class="edge">
<title>PLC4X&#45;&gt;Adapter</title>
<path fill="none" stroke="#d3d3d3" d="M234.161,-102.3107C289.9343,-103.0079 390.2759,-104.2624 454.2285,-105.062"/>
<polygon fill="#d3d3d3" stroke="#d3d3d3" points="454.5139,-108.5657 464.5569,-105.1911 454.6015,-101.5663 454.5139,-108.5657"/>
<text text-anchor="middle" x="329.8827" y="-124.8" font-family="Times,serif" font-size="14.00" fill="#c0c0c0">MQTT</text>
<text text-anchor="middle" x="329.8827" y="-108" font-family="Times,serif" font-size="14.00" fill="#c0c0c0">JSON</text>
</g>
</g>
</svg>
