<?xml version="1.0" encoding="UTF-8" standalone="no"?>
<!DOCTYPE svg PUBLIC "-//W3C//DTD SVG 1.1//EN"
 "http://www.w3.org/Graphics/SVG/1.1/DTD/svg11.dtd">
<!-- Generated by graphviz version 2.40.1 (20161225.0304)
 -->
<!-- Title: ladder99&#45;adapter Pages: 1 -->
<svg width="529pt" height="1127pt"
 viewBox="0.00 0.00 528.53 1126.71" xmlns="http://www.w3.org/2000/svg" xmlns:xlink="http://www.w3.org/1999/xlink">
<g id="graph0" class="graph" transform="scale(1 1) rotate(0) translate(4 1122.7107)">
<title>ladder99&#45;adapter</title>
<polygon fill="#ffffff" stroke="transparent" points="-4,4 -4,-1122.7107 524.5346,-1122.7107 524.5346,4 -4,4"/>
<text text-anchor="middle" x="260.2673" y="-1096.7107" font-family="Times,serif" font-size="20.00" fill="#000000">Ladder99 MTConnect data flow</text>
<text text-anchor="middle" x="260.2673" y="-1072.7107" font-family="Times,serif" font-size="20.00" fill="#000000"> </text>
<!-- OldMachine -->
<g id="node1" class="node">
<title>OldMachine</title>
<ellipse fill="#e6e6fa" stroke="#d3d3d3" cx="65.465" cy="-1033.295" rx="61.9389" ry="18"/>
<text text-anchor="middle" x="65.465" y="-1029.095" font-family="Times,serif" font-size="14.00" fill="#000000">Old Machine</text>
</g>
<!-- PLC4X -->
<g id="node3" class="node">
<title>PLC4X</title>
<ellipse fill="#ffffff" stroke="#d3d3d3" cx="283.6572" cy="-1033.295" rx="41.6253" ry="29.3315"/>
<text text-anchor="middle" x="283.6572" y="-1037.495" font-family="Times,serif" font-size="14.00" fill="#000000">PLC4X</text>
<text text-anchor="middle" x="283.6572" y="-1020.695" font-family="Times,serif" font-size="14.00" fill="#000000">(Java)</text>
</g>
<!-- OldMachine&#45;&gt;PLC4X -->
<g id="edge1" class="edge">
<title>OldMachine&#45;&gt;PLC4X</title>
<path fill="none" stroke="#d9d9d9" d="M127.4065,-1033.295C160.3461,-1033.295 200.3876,-1033.295 231.6891,-1033.295"/>
<polygon fill="#d9d9d9" stroke="#d9d9d9" points="231.9465,-1036.7951 241.9464,-1033.295 231.9464,-1029.7951 231.9465,-1036.7951"/>
<text text-anchor="middle" x="165.5838" y="-1051.295" font-family="Times,serif" font-size="12.00" fill="#666666">proprietary</text>
<text text-anchor="middle" x="165.5838" y="-1036.895" font-family="Times,serif" font-size="12.00" fill="#666666">protocol</text>
</g>
<!-- NewMachine -->
<g id="node2" class="node">
<title>NewMachine</title>
<ellipse fill="#e6e6fa" stroke="#d3d3d3" cx="65.465" cy="-921.295" rx="65.43" ry="18"/>
<text text-anchor="middle" x="65.465" y="-917.095" font-family="Times,serif" font-size="14.00" fill="#000000">New Machine</text>
</g>
<!-- Broker -->
<g id="node4" class="node">
<title>Broker</title>
<ellipse fill="#ffffff" stroke="#d3d3d3" cx="283.6572" cy="-921.295" rx="69.1341" ry="29.3315"/>
<text text-anchor="middle" x="283.6572" y="-925.495" font-family="Times,serif" font-size="14.00" fill="#000000">MQTT Broker</text>
<text text-anchor="middle" x="283.6572" y="-908.695" font-family="Times,serif" font-size="14.00" fill="#000000">(Mosquitto)</text>
</g>
<!-- NewMachine&#45;&gt;Broker -->
<g id="edge2" class="edge">
<title>NewMachine&#45;&gt;Broker</title>
<path fill="none" stroke="#d9d9d9" d="M131.2257,-921.295C154.1727,-921.295 180.1739,-921.295 204.1201,-921.295"/>
<polygon fill="#d9d9d9" stroke="#d9d9d9" points="204.2421,-924.7951 214.2421,-921.295 204.2421,-917.7951 204.2421,-924.7951"/>
<text text-anchor="middle" x="165.5838" y="-939.295" font-family="Times,serif" font-size="12.00" fill="#666666">JSON / </text>
<text text-anchor="middle" x="165.5838" y="-924.895" font-family="Times,serif" font-size="12.00" fill="#666666">MQTT</text>
</g>
<!-- PLC4X&#45;&gt;Broker -->
<g id="edge3" class="edge">
<title>PLC4X&#45;&gt;Broker</title>
<path fill="none" stroke="#d9d9d9" d="M283.6572,-1003.676C283.6572,-990.6366 283.6572,-975.1236 283.6572,-961.0948"/>
<polygon fill="#d9d9d9" stroke="#d9d9d9" points="287.1573,-960.7217 283.6572,-950.7217 280.1573,-960.7218 287.1573,-960.7217"/>
<text text-anchor="middle" x="266.2572" y="-980.895" font-family="Times,serif" font-size="12.00" fill="#666666">JSON / &#160;</text>
<text text-anchor="middle" x="266.2572" y="-966.495" font-family="Times,serif" font-size="12.00" fill="#666666">MQTT &#160;</text>
</g>
<!-- Adapter -->
<g id="node5" class="node">
<title>Adapter</title>
<ellipse fill="#ffffff" stroke="#d3d3d3" cx="283.6572" cy="-797.295" rx="59.3044" ry="41.0911"/>
<text text-anchor="middle" x="283.6572" y="-809.895" font-family="Times,serif" font-size="14.00" fill="#000000">MTConnect</text>
<text text-anchor="middle" x="283.6572" y="-793.095" font-family="Times,serif" font-size="14.00" fill="#000000">Adapter</text>
<text text-anchor="middle" x="283.6572" y="-776.295" font-family="Times,serif" font-size="14.00" fill="#000000">(NodeJS)</text>
</g>
<!-- Broker&#45;&gt;Adapter -->
<g id="edge4" class="edge">
<title>Broker&#45;&gt;Adapter</title>
<path fill="none" stroke="#d9d9d9" d="M283.6572,-891.7158C283.6572,-879.0118 283.6572,-863.7808 283.6572,-849.2974"/>
<polygon fill="#d9d9d9" stroke="#d9d9d9" points="287.1573,-848.9302 283.6572,-838.9302 280.1573,-848.9302 287.1573,-848.9302"/>
<text text-anchor="middle" x="266.2572" y="-868.8347" font-family="Times,serif" font-size="12.00" fill="#666666">JSON / &#160;&#160;&#160;</text>
<text text-anchor="middle" x="266.2572" y="-854.4347" font-family="Times,serif" font-size="12.00" fill="#666666">MQTT 1883 &#160;&#160;&#160;&#160;&#160;&#160;&#160;&#160;&#160;&#160;</text>
</g>
<!-- DiodeSender -->
<g id="node7" class="node">
<title>DiodeSender</title>
<ellipse fill="#ffffff" stroke="#d3d3d3" cx="283.6572" cy="-673.295" rx="83.3394" ry="29.3315"/>
<text text-anchor="middle" x="283.6572" y="-677.495" font-family="Times,serif" font-size="14.00" fill="#000000">Diode Sender</text>
<text text-anchor="middle" x="283.6572" y="-660.695" font-family="Times,serif" font-size="14.00" fill="#000000">(Java+RabbitMQ)</text>
</g>
<!-- Adapter&#45;&gt;DiodeSender -->
<g id="edge5" class="edge">
<title>Adapter&#45;&gt;DiodeSender</title>
<path fill="none" stroke="#d9d9d9" d="M283.6572,-755.6464C283.6572,-741.8921 283.6572,-726.6348 283.6572,-713.0277"/>
<polygon fill="#d9d9d9" stroke="#d9d9d9" points="287.1573,-712.9961 283.6572,-702.9961 280.1573,-712.9962 287.1573,-712.9961"/>
<text text-anchor="middle" x="266.2572" y="-732.9553" font-family="Times,serif" font-size="12.00" fill="#666666">SHDR / &#160;&#160;</text>
<text text-anchor="middle" x="266.2572" y="-718.5553" font-family="Times,serif" font-size="12.00" fill="#666666">TCP 7878 &#160;&#160;&#160;&#160;&#160;</text>
</g>
<!-- DevicesYaml -->
<g id="node6" class="node">
<title>DevicesYaml</title>
<ellipse fill="#ffffff" stroke="#d3d3d3" cx="65.465" cy="-645.295" rx="63.7222" ry="18"/>
<text text-anchor="middle" x="65.465" y="-641.095" font-family="Times,serif" font-size="14.00" fill="#000000">Devices.yaml</text>
</g>
<!-- DevicesYaml&#45;&gt;Adapter -->
<g id="edge6" class="edge">
<title>DevicesYaml&#45;&gt;Adapter</title>
<path fill="none" stroke="#d9d9d9" d="M89.649,-662.1425C124.0473,-686.1054 187.9197,-730.6011 232.9609,-761.9783"/>
<polygon fill="#d9d9d9" stroke="#d9d9d9" points="231.2159,-765.0282 241.4219,-767.8725 235.2172,-759.2845 231.2159,-765.0282"/>
</g>
<!-- DevicesXml -->
<g id="node10" class="node">
<title>DevicesXml</title>
<ellipse fill="#ffffff" stroke="#d3d3d3" cx="65.465" cy="-525.295" rx="59.6486" ry="18"/>
<text text-anchor="middle" x="65.465" y="-521.095" font-family="Times,serif" font-size="14.00" fill="#000000">Devices.xml</text>
</g>
<!-- DevicesYaml&#45;&gt;DevicesXml -->
<g id="edge7" class="edge">
<title>DevicesYaml&#45;&gt;DevicesXml</title>
<path fill="none" stroke="#d9d9d9" d="M65.465,-627.0174C65.465,-602.5718 65.465,-578.1261 65.465,-553.6805"/>
<polygon fill="#d9d9d9" stroke="#d9d9d9" points="68.9651,-553.5763 65.465,-543.5763 61.9651,-553.5763 68.9651,-553.5763"/>
</g>
<!-- DiodeReceiver -->
<g id="node8" class="node">
<title>DiodeReceiver</title>
<ellipse fill="#ffffff" stroke="#d3d3d3" cx="283.6572" cy="-565.295" rx="83.3394" ry="29.3315"/>
<text text-anchor="middle" x="283.6572" y="-569.495" font-family="Times,serif" font-size="14.00" fill="#000000">Diode Receiver</text>
<text text-anchor="middle" x="283.6572" y="-552.695" font-family="Times,serif" font-size="14.00" fill="#000000">(Java+RabbitMQ)</text>
</g>
<!-- DiodeSender&#45;&gt;DiodeReceiver -->
<g id="edge8" class="edge">
<title>DiodeSender&#45;&gt;DiodeReceiver</title>
<path fill="none" stroke="#d9d9d9" d="M283.6572,-643.8192C283.6572,-631.7988 283.6572,-617.7199 283.6572,-604.8285"/>
<polygon fill="#d9d9d9" stroke="#d9d9d9" points="287.1573,-604.8065 283.6572,-594.8065 280.1573,-604.8065 287.1573,-604.8065"/>
<text text-anchor="middle" x="273.4572" y="-615.695" font-family="Times,serif" font-size="12.00" fill="#666666">UDP &#160;&#160;&#160;</text>
</g>
<!-- Agent -->
<g id="node9" class="node">
<title>Agent</title>
<ellipse fill="#ffffff" stroke="#d3d3d3" cx="283.6572" cy="-441.295" rx="74.3117" ry="41.0911"/>
<text text-anchor="middle" x="283.6572" y="-453.895" font-family="Times,serif" font-size="14.00" fill="#000000">MTConnect</text>
<text text-anchor="middle" x="283.6572" y="-437.095" font-family="Times,serif" font-size="14.00" fill="#000000">Agent</text>
<text text-anchor="middle" x="283.6572" y="-420.295" font-family="Times,serif" font-size="14.00" fill="#000000">(C++/cppagent)</text>
</g>
<!-- DiodeReceiver&#45;&gt;Agent -->
<g id="edge9" class="edge">
<title>DiodeReceiver&#45;&gt;Agent</title>
<path fill="none" stroke="#d9d9d9" d="M283.6572,-535.7158C283.6572,-523.0118 283.6572,-507.7808 283.6572,-493.2974"/>
<polygon fill="#d9d9d9" stroke="#d9d9d9" points="287.1573,-492.9302 283.6572,-482.9302 280.1573,-492.9302 287.1573,-492.9302"/>
<text text-anchor="middle" x="266.2572" y="-512.8347" font-family="Times,serif" font-size="12.00" fill="#666666">SHDR / &#160;&#160;</text>
<text text-anchor="middle" x="266.2572" y="-498.4347" font-family="Times,serif" font-size="12.00" fill="#666666">TCP &#160;</text>
</g>
<!-- Application -->
<g id="node11" class="node">
<title>Application</title>
<ellipse fill="#ffffff" stroke="#d3d3d3" cx="283.6572" cy="-305.295" rx="59.3044" ry="41.0911"/>
<text text-anchor="middle" x="283.6572" y="-317.895" font-family="Times,serif" font-size="14.00" fill="#000000">MTConnect</text>
<text text-anchor="middle" x="283.6572" y="-301.095" font-family="Times,serif" font-size="14.00" fill="#000000">Application</text>
<text text-anchor="middle" x="283.6572" y="-284.295" font-family="Times,serif" font-size="14.00" fill="#000000">(NodeJS)</text>
</g>
<!-- Agent&#45;&gt;Application -->
<g id="edge10" class="edge">
<title>Agent&#45;&gt;Application</title>
<path fill="none" stroke="#d9d9d9" d="M283.6572,-389.503C283.6572,-378.817 283.6572,-367.564 283.6572,-356.8852"/>
<polygon fill="#d9d9d9" stroke="#d9d9d9" points="280.1573,-389.5373 283.6572,-399.5373 287.1573,-389.5374 280.1573,-389.5373"/>
<polygon fill="#d9d9d9" stroke="#d9d9d9" points="287.1573,-356.8385 283.6572,-346.8385 280.1573,-356.8385 287.1573,-356.8385"/>
<text text-anchor="middle" x="266.2572" y="-376.895" font-family="Times,serif" font-size="12.00" fill="#666666">XML /</text>
<text text-anchor="middle" x="266.2572" y="-362.495" font-family="Times,serif" font-size="12.00" fill="#666666">HTTP 5000</text>
</g>
<!-- DevicesXml&#45;&gt;Agent -->
<g id="edge11" class="edge">
<title>DevicesXml&#45;&gt;Agent</title>
<path fill="none" stroke="#d9d9d9" d="M102.4783,-511.0456C132.6132,-499.4442 176.0296,-482.7297 212.8069,-468.5711"/>
<polygon fill="#d9d9d9" stroke="#d9d9d9" points="214.4183,-471.7012 222.4931,-464.8421 211.9033,-465.1686 214.4183,-471.7012"/>
</g>
<!-- Database -->
<g id="node12" class="node">
<title>Database</title>
<ellipse fill="#ffffff" stroke="#d3d3d3" cx="283.6572" cy="-173.295" rx="69.0714" ry="41.0911"/>
<text text-anchor="middle" x="283.6572" y="-185.895" font-family="Times,serif" font-size="14.00" fill="#000000">Database</text>
<text text-anchor="middle" x="283.6572" y="-169.095" font-family="Times,serif" font-size="14.00" fill="#000000">(InfluxDB/</text>
<text text-anchor="middle" x="283.6572" y="-152.295" font-family="Times,serif" font-size="14.00" fill="#000000">TimescaleDB)</text>
</g>
<!-- Application&#45;&gt;Database -->
<g id="edge12" class="edge">
<title>Application&#45;&gt;Database</title>
<path fill="none" stroke="#d9d9d9" d="M283.6572,-253.639C283.6572,-244.1484 283.6572,-234.6577 283.6572,-225.1671"/>
<polygon fill="#d9d9d9" stroke="#d9d9d9" points="280.1573,-253.9372 283.6572,-263.9373 287.1573,-253.9373 280.1573,-253.9372"/>
<polygon fill="#d9d9d9" stroke="#d9d9d9" points="287.1573,-224.8028 283.6572,-214.8028 280.1573,-224.8029 287.1573,-224.8028"/>
</g>
<!-- Visualizer -->
<g id="node13" class="node">
<title>Visualizer</title>
<ellipse fill="#ffffff" stroke="#d3d3d3" cx="283.6572" cy="-41.295" rx="51.9834" ry="41.0911"/>
<text text-anchor="middle" x="283.6572" y="-53.895" font-family="Times,serif" font-size="14.00" fill="#000000">Visualizer</text>
<text text-anchor="middle" x="283.6572" y="-37.095" font-family="Times,serif" font-size="14.00" fill="#000000">(Grafana/</text>
<text text-anchor="middle" x="283.6572" y="-20.295" font-family="Times,serif" font-size="14.00" fill="#000000">Superset)</text>
</g>
<!-- Database&#45;&gt;Visualizer -->
<g id="edge13" class="edge">
<title>Database&#45;&gt;Visualizer</title>
<path fill="none" stroke="#d9d9d9" d="M283.6572,-121.639C283.6572,-112.1484 283.6572,-102.6577 283.6572,-93.1671"/>
<polygon fill="#d9d9d9" stroke="#d9d9d9" points="280.1573,-121.9372 283.6572,-131.9373 287.1573,-121.9373 280.1573,-121.9372"/>
<polygon fill="#d9d9d9" stroke="#d9d9d9" points="287.1573,-92.8028 283.6572,-82.8028 280.1573,-92.8029 287.1573,-92.8028"/>
</g>
<!-- Cloud -->
<g id="node14" class="node">
<title>Cloud</title>
<ellipse fill="#ffffff" stroke="#d3d3d3" cx="452.3057" cy="-173.295" rx="68.4585" ry="29.3315"/>
<text text-anchor="middle" x="452.3057" y="-177.495" font-family="Times,serif" font-size="14.00" fill="#000000">Cloud Storage</text>
<text text-anchor="middle" x="452.3057" y="-160.695" font-family="Times,serif" font-size="14.00" fill="#000000">(AWS/GCP)</text>
</g>
<!-- Database&#45;&gt;Cloud -->
<g id="edge14" class="edge">
<title>Database&#45;&gt;Cloud</title>
<path fill="none" stroke="#d9d9d9" d="M352.7396,-173.295C359.6459,-173.295 366.6933,-173.295 373.6881,-173.295"/>
<polygon fill="#d9d9d9" stroke="#d9d9d9" points="373.8762,-176.7951 383.8761,-173.295 373.8761,-169.7951 373.8762,-176.7951"/>
</g>
<!-- Admin -->
<g id="node15" class="node">
<title>Admin</title>
<ellipse fill="#ffffe0" stroke="#d3d3d3" cx="452.3057" cy="-41.295" rx="37.7217" ry="18"/>
<text text-anchor="middle" x="452.3057" y="-37.095" font-family="Times,serif" font-size="14.00" fill="#000000">Admin</text>
</g>
<!-- Visualizer&#45;&gt;Admin -->
<g id="edge15" class="edge">
<title>Visualizer&#45;&gt;Admin</title>
<path fill="none" stroke="#d9d9d9" d="M346.4001,-41.295C365.4882,-41.295 386.1582,-41.295 404.1271,-41.295"/>
<polygon fill="#d9d9d9" stroke="#d9d9d9" points="346.0942,-37.7951 336.0942,-41.295 346.0942,-44.7951 346.0942,-37.7951"/>
<polygon fill="#d9d9d9" stroke="#d9d9d9" points="404.3625,-44.7951 414.3625,-41.295 404.3624,-37.7951 404.3625,-44.7951"/>
</g>
</g>
</svg>
