<?xml version="1.0" encoding="UTF-8" standalone="no"?>
<!DOCTYPE svg PUBLIC "-//W3C//DTD SVG 1.1//EN"
 "http://www.w3.org/Graphics/SVG/1.1/DTD/svg11.dtd">
<!-- Generated by graphviz version 2.40.1 (20161225.0304)
 -->
<!-- Title: ladder99&#45;adapter Pages: 1 -->
<svg width="1093pt" height="755pt"
 viewBox="0.00 0.00 1092.73 754.71" xmlns="http://www.w3.org/2000/svg" xmlns:xlink="http://www.w3.org/1999/xlink">
<g id="graph0" class="graph" transform="scale(1 1) rotate(0) translate(4 750.7107)">
<title>ladder99&#45;adapter</title>
<polygon fill="#ffffff" stroke="transparent" points="-4,4 -4,-750.7107 1088.7305,-750.7107 1088.7305,4 -4,4"/>
<text text-anchor="middle" x="542.3653" y="-724.7107" font-family="Times,serif" font-size="20.00" fill="#000000">Ladder99 MTConnect data flow</text>
<text text-anchor="middle" x="542.3653" y="-700.7107" font-family="Times,serif" font-size="20.00" fill="#000000"> </text>
<!-- PA1 -->
<g id="node1" class="node">
<title>PA1</title>
<ellipse fill="#e6e6fa" stroke="#c0c0c0" cx="251.5397" cy="-661.295" rx="58.5886" ry="18"/>
<text text-anchor="middle" x="251.5397" y="-657.095" font-family="Times,serif" font-size="14.00" fill="#000000">CCS P&amp;A 1</text>
</g>
<!-- Broker1 -->
<g id="node5" class="node">
<title>Broker1</title>
<ellipse fill="#ffffff" stroke="#c0c0c0" cx="430.4063" cy="-661.295" rx="76.9837" ry="29.3315"/>
<text text-anchor="middle" x="430.4063" y="-665.495" font-family="Times,serif" font-size="14.00" fill="#000000">MQTT Broker 1</text>
<text text-anchor="middle" x="430.4063" y="-648.695" font-family="Times,serif" font-size="14.00" fill="#000000">(Mosquitto)</text>
</g>
<!-- PA1&#45;&gt;Broker1 -->
<g id="edge1" class="edge">
<title>PA1&#45;&gt;Broker1</title>
<path fill="none" stroke="#c0c0c0" d="M310.603,-661.295C321.1206,-661.295 332.2741,-661.295 343.3781,-661.295"/>
<polygon fill="#c0c0c0" stroke="#c0c0c0" points="343.5421,-664.7951 353.5421,-661.295 343.5421,-657.7951 343.5421,-664.7951"/>
<text text-anchor="middle" x="331.9992" y="-664.895" font-family="Times,serif" font-size="12.00" fill="#4d4d4d">TCP?</text>
</g>
<!-- PA2 -->
<g id="node2" class="node">
<title>PA2</title>
<ellipse fill="#e6e6fa" stroke="#c0c0c0" cx="251.5397" cy="-577.295" rx="58.5886" ry="18"/>
<text text-anchor="middle" x="251.5397" y="-573.095" font-family="Times,serif" font-size="14.00" fill="#000000">CCS P&amp;A 2</text>
</g>
<!-- Broker2 -->
<g id="node6" class="node">
<title>Broker2</title>
<ellipse fill="#ffffff" stroke="#c0c0c0" cx="430.4063" cy="-577.295" rx="76.9837" ry="29.3315"/>
<text text-anchor="middle" x="430.4063" y="-581.495" font-family="Times,serif" font-size="14.00" fill="#000000">MQTT Broker 2</text>
<text text-anchor="middle" x="430.4063" y="-564.695" font-family="Times,serif" font-size="14.00" fill="#000000">(Mosquitto)</text>
</g>
<!-- PA2&#45;&gt;Broker2 -->
<g id="edge2" class="edge">
<title>PA2&#45;&gt;Broker2</title>
<path fill="none" stroke="#c0c0c0" d="M310.603,-577.295C321.1206,-577.295 332.2741,-577.295 343.3781,-577.295"/>
<polygon fill="#c0c0c0" stroke="#c0c0c0" points="343.5421,-580.7951 353.5421,-577.295 343.5421,-573.7951 343.5421,-580.7951"/>
<text text-anchor="middle" x="331.9992" y="-580.895" font-family="Times,serif" font-size="12.00" fill="#4d4d4d">TCP?</text>
</g>
<!-- OldMachine -->
<g id="node3" class="node">
<title>OldMachine</title>
<ellipse fill="#e6e6fa" stroke="#c0c0c0" cx="61.7191" cy="-493.295" rx="61.9389" ry="18"/>
<text text-anchor="middle" x="61.7191" y="-489.095" font-family="Times,serif" font-size="14.00" fill="#000000">Old Machine</text>
</g>
<!-- PLC4X -->
<g id="node4" class="node">
<title>PLC4X</title>
<ellipse fill="#ffffff" stroke="#c0c0c0" cx="251.5397" cy="-493.295" rx="41.6253" ry="29.3315"/>
<text text-anchor="middle" x="251.5397" y="-497.495" font-family="Times,serif" font-size="14.00" fill="#000000">PLC4X</text>
<text text-anchor="middle" x="251.5397" y="-480.695" font-family="Times,serif" font-size="14.00" fill="#000000">(Java)</text>
</g>
<!-- OldMachine&#45;&gt;PLC4X -->
<g id="edge3" class="edge">
<title>OldMachine&#45;&gt;PLC4X</title>
<path fill="none" stroke="#c0c0c0" d="M123.6108,-493.295C148.2084,-493.295 176.1862,-493.295 199.6919,-493.295"/>
<polygon fill="#c0c0c0" stroke="#c0c0c0" points="199.808,-496.7951 209.808,-493.295 199.8079,-489.7951 199.808,-496.7951"/>
<text text-anchor="middle" x="158.0919" y="-511.295" font-family="Times,serif" font-size="12.00" fill="#4d4d4d">proprietary</text>
<text text-anchor="middle" x="158.0919" y="-496.895" font-family="Times,serif" font-size="12.00" fill="#4d4d4d">protocol</text>
</g>
<!-- Broker3 -->
<g id="node7" class="node">
<title>Broker3</title>
<ellipse fill="#ffffff" stroke="#c0c0c0" cx="430.4063" cy="-493.295" rx="76.9837" ry="29.3315"/>
<text text-anchor="middle" x="430.4063" y="-497.495" font-family="Times,serif" font-size="14.00" fill="#000000">MQTT Broker 3</text>
<text text-anchor="middle" x="430.4063" y="-480.695" font-family="Times,serif" font-size="14.00" fill="#000000">(Mosquitto)</text>
</g>
<!-- PLC4X&#45;&gt;Broker3 -->
<g id="edge4" class="edge">
<title>PLC4X&#45;&gt;Broker3</title>
<path fill="none" stroke="#c0c0c0" d="M293.4759,-493.295C308.495,-493.295 326.0317,-493.295 343.4434,-493.295"/>
<polygon fill="#c0c0c0" stroke="#c0c0c0" points="343.6608,-496.7951 353.6608,-493.295 343.6607,-489.7951 343.6608,-496.7951"/>
<text text-anchor="middle" x="331.9992" y="-496.895" font-family="Times,serif" font-size="12.00" fill="#4d4d4d">?</text>
</g>
<!-- Proxy1 -->
<g id="node8" class="node">
<title>Proxy1</title>
<ellipse fill="#ffffff" stroke="#c0c0c0" cx="645.0546" cy="-661.295" rx="72.805" ry="29.3315"/>
<text text-anchor="middle" x="645.0546" y="-665.495" font-family="Times,serif" font-size="14.00" fill="#000000">MQTT Proxy 1</text>
<text text-anchor="middle" x="645.0546" y="-648.695" font-family="Times,serif" font-size="14.00" fill="#000000">(NodeJS)</text>
</g>
<!-- Broker1&#45;&gt;Proxy1 -->
<g id="edge5" class="edge">
<title>Broker1&#45;&gt;Proxy1</title>
<path fill="none" stroke="#c0c0c0" d="M507.2929,-661.295C524.973,-661.295 543.8545,-661.295 561.7907,-661.295"/>
<polygon fill="#c0c0c0" stroke="#c0c0c0" points="561.9339,-664.7951 571.9339,-661.295 561.9339,-657.7951 561.9339,-664.7951"/>
<text text-anchor="middle" x="539.6499" y="-679.295" font-family="Times,serif" font-size="12.00" fill="#4d4d4d">MQTT</text>
<text text-anchor="middle" x="539.6499" y="-664.895" font-family="Times,serif" font-size="12.00" fill="#4d4d4d">TCP 1883</text>
</g>
<!-- Proxy2 -->
<g id="node9" class="node">
<title>Proxy2</title>
<ellipse fill="#ffffff" stroke="#c0c0c0" cx="645.0546" cy="-577.295" rx="72.805" ry="29.3315"/>
<text text-anchor="middle" x="645.0546" y="-581.495" font-family="Times,serif" font-size="14.00" fill="#000000">MQTT Proxy 2</text>
<text text-anchor="middle" x="645.0546" y="-564.695" font-family="Times,serif" font-size="14.00" fill="#000000">(NodeJS)</text>
</g>
<!-- Broker2&#45;&gt;Proxy2 -->
<g id="edge6" class="edge">
<title>Broker2&#45;&gt;Proxy2</title>
<path fill="none" stroke="#c0c0c0" d="M507.2929,-577.295C524.973,-577.295 543.8545,-577.295 561.7907,-577.295"/>
<polygon fill="#c0c0c0" stroke="#c0c0c0" points="561.9339,-580.7951 571.9339,-577.295 561.9339,-573.7951 561.9339,-580.7951"/>
<text text-anchor="middle" x="539.6499" y="-595.295" font-family="Times,serif" font-size="12.00" fill="#4d4d4d">MQTT</text>
<text text-anchor="middle" x="539.6499" y="-580.895" font-family="Times,serif" font-size="12.00" fill="#4d4d4d">TCP 1883</text>
</g>
<!-- Proxy3 -->
<g id="node10" class="node">
<title>Proxy3</title>
<ellipse fill="#ffffff" stroke="#c0c0c0" cx="645.0546" cy="-493.295" rx="72.805" ry="29.3315"/>
<text text-anchor="middle" x="645.0546" y="-497.495" font-family="Times,serif" font-size="14.00" fill="#000000">MQTT Proxy 3</text>
<text text-anchor="middle" x="645.0546" y="-480.695" font-family="Times,serif" font-size="14.00" fill="#000000">(NodeJS)</text>
</g>
<!-- Broker3&#45;&gt;Proxy3 -->
<g id="edge7" class="edge">
<title>Broker3&#45;&gt;Proxy3</title>
<path fill="none" stroke="#c0c0c0" d="M507.2929,-493.295C524.973,-493.295 543.8545,-493.295 561.7907,-493.295"/>
<polygon fill="#c0c0c0" stroke="#c0c0c0" points="561.9339,-496.7951 571.9339,-493.295 561.9339,-489.7951 561.9339,-496.7951"/>
<text text-anchor="middle" x="539.6499" y="-511.295" font-family="Times,serif" font-size="12.00" fill="#4d4d4d">MQTT</text>
<text text-anchor="middle" x="539.6499" y="-496.895" font-family="Times,serif" font-size="12.00" fill="#4d4d4d">TCP 1883</text>
</g>
<!-- Adapter -->
<g id="node11" class="node">
<title>Adapter</title>
<ellipse fill="#ffffff" stroke="#c0c0c0" cx="857.1171" cy="-577.295" rx="59.3044" ry="41.0911"/>
<text text-anchor="middle" x="857.1171" y="-589.895" font-family="Times,serif" font-size="14.00" fill="#000000">MTConnect</text>
<text text-anchor="middle" x="857.1171" y="-573.095" font-family="Times,serif" font-size="14.00" fill="#000000">Adapter</text>
<text text-anchor="middle" x="857.1171" y="-556.295" font-family="Times,serif" font-size="14.00" fill="#000000">(NodeJS)</text>
</g>
<!-- Proxy1&#45;&gt;Adapter -->
<g id="edge8" class="edge">
<title>Proxy1&#45;&gt;Adapter</title>
<path fill="none" stroke="#c0c0c0" d="M699.2911,-641.4172C722.6602,-632.7029 750.2431,-622.217 774.9614,-612.295 782.2452,-609.3713 789.861,-606.2352 797.3927,-603.0851"/>
<polygon fill="#c0c0c0" stroke="#c0c0c0" points="798.9971,-606.2073 806.8565,-599.1023 796.2818,-599.7553 798.9971,-606.2073"/>
<text text-anchor="middle" x="750.4592" y="-648.295" font-family="Times,serif" font-size="12.00" fill="#4d4d4d">JSON</text>
<text text-anchor="middle" x="750.4592" y="-633.895" font-family="Times,serif" font-size="12.00" fill="#4d4d4d">TCP 1883</text>
</g>
<!-- Proxy2&#45;&gt;Adapter -->
<g id="edge9" class="edge">
<title>Proxy2&#45;&gt;Adapter</title>
<path fill="none" stroke="#c0c0c0" d="M718.0344,-577.295C740.58,-577.295 765.3408,-577.295 787.6428,-577.295"/>
<polygon fill="#c0c0c0" stroke="#c0c0c0" points="787.7,-580.7951 797.6999,-577.295 787.6999,-573.7951 787.7,-580.7951"/>
<text text-anchor="middle" x="750.4592" y="-595.295" font-family="Times,serif" font-size="12.00" fill="#4d4d4d">JSON</text>
<text text-anchor="middle" x="750.4592" y="-580.895" font-family="Times,serif" font-size="12.00" fill="#4d4d4d">TCP 1884</text>
</g>
<!-- Proxy3&#45;&gt;Adapter -->
<g id="edge10" class="edge">
<title>Proxy3&#45;&gt;Adapter</title>
<path fill="none" stroke="#c0c0c0" d="M698.9585,-513.1781C722.3922,-521.959 750.1151,-532.532 774.9614,-542.495 782.1387,-545.3731 789.641,-548.452 797.0686,-551.544"/>
<polygon fill="#c0c0c0" stroke="#c0c0c0" points="795.8309,-554.8201 806.4068,-555.4534 798.5341,-548.3631 795.8309,-554.8201"/>
<text text-anchor="middle" x="750.4592" y="-560.295" font-family="Times,serif" font-size="12.00" fill="#4d4d4d">JSON</text>
<text text-anchor="middle" x="750.4592" y="-545.895" font-family="Times,serif" font-size="12.00" fill="#4d4d4d">TCP 1885</text>
</g>
<!-- Agent -->
<g id="node12" class="node">
<title>Agent</title>
<ellipse fill="#ffffff" stroke="#c0c0c0" cx="857.1171" cy="-441.295" rx="74.3117" ry="41.0911"/>
<text text-anchor="middle" x="857.1171" y="-453.895" font-family="Times,serif" font-size="14.00" fill="#000000">MTConnect</text>
<text text-anchor="middle" x="857.1171" y="-437.095" font-family="Times,serif" font-size="14.00" fill="#000000">Agent</text>
<text text-anchor="middle" x="857.1171" y="-420.295" font-family="Times,serif" font-size="14.00" fill="#000000">(C++/cppagent)</text>
</g>
<!-- Adapter&#45;&gt;Agent -->
<g id="edge11" class="edge">
<title>Adapter&#45;&gt;Agent</title>
<path fill="none" stroke="#c0c0c0" d="M857.1171,-535.5373C857.1171,-522.0683 857.1171,-506.9768 857.1171,-492.8852"/>
<polygon fill="#c0c0c0" stroke="#c0c0c0" points="860.6172,-492.8385 857.1171,-482.8385 853.6172,-492.8385 860.6172,-492.8385"/>
<text text-anchor="middle" x="839.7171" y="-512.895" font-family="Times,serif" font-size="12.00" fill="#4d4d4d">SHDR / &#160;&#160;</text>
<text text-anchor="middle" x="839.7171" y="-498.495" font-family="Times,serif" font-size="12.00" fill="#4d4d4d">TCP 7878 &#160;&#160;&#160;&#160;&#160;</text>
</g>
<!-- Application -->
<g id="node13" class="node">
<title>Application</title>
<ellipse fill="#ffffff" stroke="#c0c0c0" cx="857.1171" cy="-305.295" rx="59.3044" ry="41.0911"/>
<text text-anchor="middle" x="857.1171" y="-317.895" font-family="Times,serif" font-size="14.00" fill="#000000">MTConnect</text>
<text text-anchor="middle" x="857.1171" y="-301.095" font-family="Times,serif" font-size="14.00" fill="#000000">Application</text>
<text text-anchor="middle" x="857.1171" y="-284.295" font-family="Times,serif" font-size="14.00" fill="#000000">(NodeJS)</text>
</g>
<!-- Agent&#45;&gt;Application -->
<g id="edge12" class="edge">
<title>Agent&#45;&gt;Application</title>
<path fill="none" stroke="#c0c0c0" d="M857.1171,-389.503C857.1171,-378.817 857.1171,-367.564 857.1171,-356.8852"/>
<polygon fill="#c0c0c0" stroke="#c0c0c0" points="853.6172,-389.5373 857.1171,-399.5373 860.6172,-389.5374 853.6172,-389.5373"/>
<polygon fill="#c0c0c0" stroke="#c0c0c0" points="860.6172,-356.8385 857.1171,-346.8385 853.6172,-356.8385 860.6172,-356.8385"/>
<text text-anchor="middle" x="839.7171" y="-376.895" font-family="Times,serif" font-size="12.00" fill="#4d4d4d">XML / </text>
<text text-anchor="middle" x="839.7171" y="-362.495" font-family="Times,serif" font-size="12.00" fill="#4d4d4d">HTTP 5000 &#160;&#160;&#160;&#160;&#160;&#160;&#160;&#160;&#160;</text>
</g>
<!-- Database -->
<g id="node14" class="node">
<title>Database</title>
<ellipse fill="#ffffff" stroke="#c0c0c0" cx="857.1171" cy="-173.295" rx="69.0714" ry="41.0911"/>
<text text-anchor="middle" x="857.1171" y="-185.895" font-family="Times,serif" font-size="14.00" fill="#000000">Database</text>
<text text-anchor="middle" x="857.1171" y="-169.095" font-family="Times,serif" font-size="14.00" fill="#000000">(InfluxDB/</text>
<text text-anchor="middle" x="857.1171" y="-152.295" font-family="Times,serif" font-size="14.00" fill="#000000">TimescaleDB)</text>
</g>
<!-- Application&#45;&gt;Database -->
<g id="edge13" class="edge">
<title>Application&#45;&gt;Database</title>
<path fill="none" stroke="#c0c0c0" d="M857.1171,-253.639C857.1171,-244.1484 857.1171,-234.6577 857.1171,-225.1671"/>
<polygon fill="#c0c0c0" stroke="#c0c0c0" points="853.6172,-253.9372 857.1171,-263.9373 860.6172,-253.9373 853.6172,-253.9372"/>
<polygon fill="#c0c0c0" stroke="#c0c0c0" points="860.6172,-224.8028 857.1171,-214.8028 853.6172,-224.8029 860.6172,-224.8028"/>
</g>
<!-- Visualizer -->
<g id="node15" class="node">
<title>Visualizer</title>
<ellipse fill="#ffffff" stroke="#c0c0c0" cx="857.1171" cy="-41.295" rx="51.9834" ry="41.0911"/>
<text text-anchor="middle" x="857.1171" y="-53.895" font-family="Times,serif" font-size="14.00" fill="#000000">Visualizer</text>
<text text-anchor="middle" x="857.1171" y="-37.095" font-family="Times,serif" font-size="14.00" fill="#000000">(Grafana/</text>
<text text-anchor="middle" x="857.1171" y="-20.295" font-family="Times,serif" font-size="14.00" fill="#000000">Superset)</text>
</g>
<!-- Database&#45;&gt;Visualizer -->
<g id="edge14" class="edge">
<title>Database&#45;&gt;Visualizer</title>
<path fill="none" stroke="#c0c0c0" d="M857.1171,-121.639C857.1171,-112.1484 857.1171,-102.6577 857.1171,-93.1671"/>
<polygon fill="#c0c0c0" stroke="#c0c0c0" points="853.6172,-121.9372 857.1171,-131.9373 860.6172,-121.9373 853.6172,-121.9372"/>
<polygon fill="#c0c0c0" stroke="#c0c0c0" points="860.6172,-92.8028 857.1171,-82.8028 853.6172,-92.8029 860.6172,-92.8028"/>
</g>
<!-- Cloud -->
<g id="node16" class="node">
<title>Cloud</title>
<ellipse fill="#ffffff" stroke="#c0c0c0" cx="1016.5017" cy="-173.295" rx="68.4585" ry="29.3315"/>
<text text-anchor="middle" x="1016.5017" y="-177.495" font-family="Times,serif" font-size="14.00" fill="#000000">Cloud Storage</text>
<text text-anchor="middle" x="1016.5017" y="-160.695" font-family="Times,serif" font-size="14.00" fill="#000000">(AWS/GCP)</text>
</g>
<!-- Database&#45;&gt;Cloud -->
<g id="edge15" class="edge">
<title>Database&#45;&gt;Cloud</title>
<path fill="none" stroke="#c0c0c0" d="M926.5618,-173.295C930.3499,-173.295 934.1694,-173.295 937.9853,-173.295"/>
<polygon fill="#c0c0c0" stroke="#c0c0c0" points="938.0538,-176.7951 948.0538,-173.295 938.0537,-169.7951 938.0538,-176.7951"/>
</g>
<!-- Admin -->
<g id="node17" class="node">
<title>Admin</title>
<ellipse fill="#ffffe0" stroke="#c0c0c0" cx="1016.5017" cy="-41.295" rx="37.7217" ry="18"/>
<text text-anchor="middle" x="1016.5017" y="-37.095" font-family="Times,serif" font-size="14.00" fill="#000000">Admin</text>
</g>
<!-- Visualizer&#45;&gt;Admin -->
<g id="edge16" class="edge">
<title>Visualizer&#45;&gt;Admin</title>
<path fill="none" stroke="#c0c0c0" d="M919.5247,-41.295C935.6589,-41.295 952.7861,-41.295 968.0853,-41.295"/>
<polygon fill="#c0c0c0" stroke="#c0c0c0" points="919.3056,-37.7951 909.3056,-41.295 919.3055,-44.7951 919.3056,-37.7951"/>
<polygon fill="#c0c0c0" stroke="#c0c0c0" points="968.3504,-44.7951 978.3504,-41.295 968.3504,-37.7951 968.3504,-44.7951"/>
</g>
</g>
</svg>
